<svg width="152" height="152" viewBox="0 0 152 152" fill="none" xmlns="http://www.w3.org/2000/svg">
<circle cx="66" cy="6" r="6" fill="#DBE3F0"/>
<circle cx="66" cy="26" r="6" fill="#DBE3F0"/>
<circle cx="66" cy="46" r="6" fill="#DBE3F0"/>
<circle cx="66" cy="66" r="6" fill="#DBE3F0"/>
<circle cx="26" cy="66" r="6" fill="#DBE3F0"/>
<circle cx="146" cy="66" r="6" fill="#DBE3F0"/>
<circle cx="106" cy="66" r="6" fill="#DBE3F0"/>
<circle cx="66" cy="86" r="6" fill="#DBE3F0"/>
<circle cx="26" cy="86" r="6" fill="#DBE3F0"/>
<circle cx="146" cy="86" r="6" fill="#DBE3F0"/>
<circle cx="106" cy="86" r="6" fill="#DBE3F0"/>
<circle cx="66" cy="106" r="6" fill="#DBE3F0"/>
<circle cx="66" cy="126" r="6" fill="#DBE3F0"/>
<circle cx="66" cy="146" r="6" fill="#DBE3F0"/>
<circle cx="86" cy="6" r="6" fill="#DBE3F0"/>
<circle cx="86" cy="26" r="6" fill="#DBE3F0"/>
<circle cx="86" cy="46" r="6" fill="#DBE3F0"/>
<circle cx="86" cy="66" r="6" fill="#DBE3F0"/>
<circle cx="46" cy="66" r="6" fill="#DBE3F0"/>
<circle cx="6" cy="66" r="6" fill="#DBE3F0"/>
<circle cx="126" cy="66" r="6" fill="#DBE3F0"/>
<circle cx="86" cy="86" r="6" fill="#DBE3F0"/>
<circle cx="46" cy="86" r="6" fill="#DBE3F0"/>
<circle cx="6" cy="86" r="6" fill="#DBE3F0"/>
<circle cx="126" cy="86" r="6" fill="#DBE3F0"/>
<circle cx="86" cy="106" r="6" fill="#DBE3F0"/>
<circle cx="86" cy="126" r="6" fill="#DBE3F0"/>
<circle cx="86" cy="146" r="6" fill="#DBE3F0"/>
</svg>
