<svg width="20" height="22" viewBox="0 0 20 22" fill="none" xmlns="http://www.w3.org/2000/svg">
<path d="M14.149 7.02667L12.699 5.63239L5.44894 12.6093C5.16341 12.8842 4.93693 13.2105 4.78244 13.5697C4.62795 13.9289 4.54847 14.3138 4.54853 14.7025C4.5486 15.0913 4.62821 15.4762 4.78283 15.8353C4.93744 16.1944 5.16403 16.5207 5.44966 16.7955C5.73528 17.0704 6.07435 17.2883 6.4475 17.437C6.82066 17.5858 7.22058 17.6623 7.62445 17.6622C8.02832 17.6621 8.42823 17.5855 8.80133 17.4367C9.17443 17.2879 9.51342 17.0698 9.79895 16.7948L18.499 8.42232C19.4602 7.49694 20.0001 6.24194 20 4.9334C19.9999 3.62485 19.4597 2.36995 18.4983 1.44476C17.5369 0.519566 16.233 -0.00012891 14.8735 2.39851e-08C13.514 0.000128958 12.2102 0.520071 11.249 1.44544L2.11465 10.236L2.09465 10.2539C-0.698216 12.942 -0.698216 17.2981 2.09465 19.9849C4.88751 22.6717 9.41324 22.6717 12.2061 19.9849L12.2247 19.9657L12.2261 19.967L18.4618 13.9664L17.0118 12.5721L10.7761 18.5714L10.7575 18.5893C8.76895 20.5033 5.53466 20.5033 3.54608 18.5893C3.07174 18.1317 2.69589 17.5885 2.4401 16.9909C2.1843 16.3932 2.05359 15.7528 2.05545 15.1064C2.0573 14.4601 2.1917 13.8204 2.45093 13.2241C2.71015 12.6278 3.08912 12.0867 3.56608 11.6316L3.56465 11.6303L12.7004 2.83972C13.899 1.6847 15.8504 1.6847 17.0504 2.83972C18.2504 3.99474 18.249 5.87165 17.0504 7.02529L8.35038 15.3978C8.15568 15.5702 7.89932 15.6635 7.63483 15.6583C7.37035 15.653 7.1182 15.5496 6.93105 15.3696C6.7439 15.1897 6.63622 14.9471 6.6305 14.6925C6.62479 14.438 6.72148 14.1911 6.90038 14.0035L14.1504 7.02529L14.149 7.02667Z" fill="#56B8FF"/>
</svg>
