<svg width="36" height="60" viewBox="0 0 36 60" fill="none" xmlns="http://www.w3.org/2000/svg">
<path d="M30 60C33.3 60 36 57.3 36 54L35.97 44.46C35.97 42.87 35.34 41.37 34.23 40.23L24 30L34.23 19.71C35.34 18.6 35.97 17.07 35.97 15.48L36 6C36 2.7 33.3 0 30 0H6C2.7 0 0 2.7 0 6V15.48C0 17.07 0.63 18.6 1.74 19.74L12 30L1.77 40.2C0.63 41.34 0 42.87 0 44.46V54C0 57.3 2.7 60 6 60H30ZM6 15.27V9C6 7.35 7.35 6 9 6H27C28.65 6 30 7.35 30 9V15.27C30 16.08 29.67 16.83 29.13 17.4L18 28.5L6.87 17.37C6.33 16.83 6 16.05 6 15.27Z" fill="#DBE3F0"/>
</svg>
