<svg width="144" height="44" viewBox="0 0 144 44" fill="none" xmlns="http://www.w3.org/2000/svg">
<mask id="mask0" mask-type="alpha" maskUnits="userSpaceOnUse" x="0" y="1" width="144" height="43">
<path d="M13.6715 1C16.5598 1 17.4905 3.08667 18.2608 5.17334C18.5817 6.04011 26.1235 26.7142 26.3481 27.3241C26.4123 27.4847 26.3802 27.7736 26.0914 27.8699C25.8025 27.9662 21.9193 29.5071 21.6947 29.5713C21.47 29.6355 21.2454 29.5392 21.1491 29.3145C21.0528 29.0898 19.4482 24.5954 19.2556 24.1139C18.7101 24.1139 8.63294 24.1139 8.08737 24.1139C7.89481 24.6275 6.25808 29.1219 6.19389 29.3145C6.12971 29.5071 5.87297 29.6676 5.64832 29.5713C5.42367 29.475 1.47627 27.9662 1.25162 27.8699C1.02697 27.7736 0.930689 27.5168 0.994875 27.3241C1.28371 26.5537 8.69713 6.23273 9.08224 5.17334C9.82037 3.11877 10.7832 1 13.6715 1ZM0.417206 37.9501C0.192557 37.9501 0 38.1427 0 38.3996V43.2149C0 43.4718 0.192557 43.6644 0.417206 43.6644H26.9258C27.1504 43.6644 27.343 43.4718 27.343 43.2149V38.3996C27.343 38.1427 27.1504 37.9501 26.9258 37.9501H0.417206ZM13.6715 7.74155L9.88456 19.0738H17.4905L13.7036 7.74155H13.6715ZM112.292 24.3707C112.292 25.6548 111.586 26.4895 110.271 26.4895C109.757 26.4895 109.34 26.4895 108.666 26.2969V22.4124C108.955 22.3482 109.597 22.284 110.271 22.284C111.618 22.3803 112.292 22.9903 112.292 24.3707ZM114.988 24.2102C114.988 21.8346 113.608 20.1974 110.656 20.1974C109.95 20.1974 109.436 20.2616 108.666 20.4542V17.0192C109.147 16.955 109.982 16.8908 110.88 16.8908C111.747 16.8908 112.838 16.955 113.801 17.0513L113.865 15.0609C112.774 14.8041 111.201 14.6757 109.982 14.6757C108.762 14.6757 106.901 14.9646 106.002 15.2215V27.8699C107.382 28.3835 108.762 28.6083 110.142 28.6083C113.319 28.6083 114.988 26.9068 114.988 24.2102ZM84.5322 23.5039C84.5322 25.2696 83.8262 26.4253 82.6708 26.4253C82.1894 26.4253 81.9327 26.3932 81.3871 26.2327V20.9357C81.9969 20.6468 82.3178 20.6468 82.7992 20.6468C83.9545 20.6147 84.5322 21.5778 84.5322 23.5039ZM75.7067 23.5681C75.7067 21.642 76.2844 20.6147 77.4397 20.6147C77.9211 20.6147 78.242 20.6147 78.8518 20.9036V26.2006C78.3062 26.3932 78.0495 26.3932 77.5681 26.3932C76.2523 26.4253 75.7067 25.3338 75.7067 23.5681ZM81.3871 31.4975V28.0304C81.7081 28.223 82.3499 28.5119 83.409 28.5119C85.5592 28.5119 87.1317 26.7463 87.1317 23.4718C87.1317 19.9726 85.5592 18.4638 82.9918 18.4638C82.3499 18.4638 81.9006 18.528 81.3871 18.7849V14.7078H78.8839V18.817C78.3704 18.5601 77.9211 18.4959 77.2793 18.4959C74.7118 18.4959 73.1393 20.069 73.1393 23.536C73.1393 26.7784 74.5514 28.5119 76.8621 28.5119C77.9532 28.5119 78.5951 28.223 78.916 28.0304V31.4975H81.3871ZM62.292 28.3514V19.1059C60.912 18.6885 59.8529 18.528 58.4408 18.528C57.0288 18.528 56.0018 18.7206 54.6218 19.1059V23.8571C54.6218 25.1412 54.5897 25.5264 54.4613 25.9437C54.333 26.2969 54.1404 26.7463 53.6269 27.0994L54.3009 28.5762C56.3227 27.9983 57.0929 27.1315 57.0929 24.3065V20.8073C57.7669 20.711 57.8953 20.6789 58.4408 20.6789C58.9864 20.6789 59.0827 20.711 59.7566 20.8073V28.3514H62.292ZM93.3577 26.329C92.8121 26.5216 92.427 26.5537 92.0098 26.5537C91.1112 26.5537 90.5977 26.2006 90.5977 25.2696C90.5977 24.3065 91.2396 23.9855 92.4912 23.9855C92.78 23.9855 93.101 24.0176 93.2293 24.0818V24.788C93.2293 25.5264 93.2614 26.0079 93.3577 26.329ZM96.567 27.4526C95.893 26.4253 95.7326 25.8474 95.7326 24.5633V21.963C95.7326 20.5826 95.5721 20.069 95.187 19.5232C94.6735 18.817 93.8391 18.4959 92.2345 18.4959C91.1112 18.4959 90.0201 18.6243 88.9931 18.8812L89.3782 20.7431C90.0843 20.6468 90.8224 20.5505 91.368 20.5505C93.0368 20.5505 93.2293 20.8073 93.2293 22.0593V22.5409C92.8442 22.4445 92.427 22.3803 91.9456 22.3803C89.4103 22.3803 88.0945 23.6002 88.0945 25.6548C88.0945 27.5489 89.5066 28.6083 91.2396 28.6083C91.8814 28.6083 92.5554 28.4798 93.101 28.2551C93.4219 28.1267 93.5503 28.0304 93.9675 27.7415C94.2242 28.1267 94.7377 28.4798 94.9302 28.544L96.567 27.4526ZM121.182 26.329C120.637 26.5216 120.251 26.5537 119.834 26.5537C118.936 26.5537 118.422 26.2006 118.422 25.2696C118.422 24.3065 119.064 23.9855 120.316 23.9855C120.637 23.9855 120.925 24.0176 121.054 24.0818V24.788C121.054 25.5264 121.118 26.0079 121.182 26.329ZM124.391 27.4526C123.717 26.4253 123.557 25.8474 123.557 24.5633V21.963C123.557 20.5826 123.396 20.069 123.043 19.5232C122.53 18.817 121.663 18.4959 120.091 18.4959C118.968 18.4959 117.877 18.6243 116.85 18.8812L117.235 20.7431C117.941 20.6468 118.679 20.5505 119.224 20.5505C120.893 20.5505 121.086 20.8073 121.086 22.0593V22.5409C120.733 22.4445 120.283 22.3803 119.802 22.3803C117.267 22.3803 115.951 23.6002 115.951 25.6548C115.951 27.5489 117.363 28.6083 119.096 28.6083C119.738 28.6083 120.412 28.4798 120.957 28.2551C121.278 28.1267 121.407 28.0304 121.824 27.7415C122.081 28.1267 122.594 28.4798 122.787 28.544L124.391 27.4526ZM69.4486 25.0449C69.4486 25.9758 69.1277 26.65 67.9082 26.65C67.491 26.65 67.3305 26.65 66.817 26.4895V23.7287C67.491 23.6002 67.5231 23.5681 67.9082 23.5681C69.0635 23.5681 69.4486 24.146 69.4486 25.0449ZM64.2817 18.6564V27.8378C65.4691 28.3514 66.7849 28.5762 67.9724 28.5762C70.6682 28.5762 72.0802 27.1957 72.0802 24.9165C72.0802 22.8619 70.7965 21.5778 68.4217 21.5778C67.8119 21.5778 67.4589 21.642 66.817 21.8025V18.6564H64.2817ZM133.634 28.3514V18.7528H131.099V22.3803H128.242V18.7528H125.707V28.3514H128.242V24.4349H131.099V28.3514H133.634ZM144 28.3514C144 28.3514 142.62 25.398 142.299 24.7559C141.914 24.0176 141.561 23.4718 140.791 23.2792V23.2471C141.304 23.1508 141.721 22.8298 142.171 21.8667C142.588 20.9357 142.716 20.711 142.973 20.5184C143.23 20.2937 143.551 20.39 143.551 20.39L143.679 18.6564C143.326 18.5922 142.909 18.5922 142.492 18.6243C141.818 18.6564 141.465 18.8491 141.112 19.2022C140.855 19.459 140.662 19.8442 140.438 20.2937C140.213 20.7752 140.021 21.1604 139.764 21.6741C139.507 22.1877 139.411 22.4124 138.737 22.4124H138.32V18.7528H135.784V28.3514H138.32V24.4349H138.673C139.379 24.4349 139.507 24.6275 139.892 25.3659C140.341 26.2648 141.176 28.3514 141.176 28.3514H144ZM49.9363 28.3514H52.8567L48.46 14.9325C48.0107 14.772 47.433 14.6757 46.8233 14.6757C46.1493 14.6757 45.9247 14.772 45.4112 14.9325L40.7578 28.3514H43.5498C43.5498 28.3514 43.9349 27.1636 44.3842 25.719H49.1981C49.5832 27.1957 49.9363 28.3514 49.9363 28.3514ZM45.0261 23.4718C45.0261 23.4718 45.8284 20.7752 45.9568 20.3579C46.2777 19.2664 46.7591 17.5329 46.7591 17.5329H46.8233C46.8233 17.5329 47.2726 19.3306 47.5614 20.3258C47.6898 20.711 48.46 23.4397 48.46 23.4397H45.0261V23.4718ZM100.867 21.9309C99.9688 21.9309 99.2628 22.6693 99.2628 23.536C99.2628 24.4349 99.9688 25.1412 100.867 25.1412C101.766 25.1412 102.472 24.4349 102.472 23.536C102.472 22.6693 101.734 21.9309 100.867 21.9309Z" fill="#EE3524"/>
</mask>
<g mask="url(#mask0)">
<rect y="-3" width="144" height="50" fill="#A3B3CC"/>
</g>
</svg>
