<svg width="144" height="44" viewBox="0 0 144 44" fill="none" xmlns="http://www.w3.org/2000/svg">
    <mask id="mask0" mask-type="alpha" maskUnits="userSpaceOnUse" x="0" y="11" width="144" height="21">
        <path d="M9.51775 31.7043C6.5006 31.7043 4.22403 30.8697 2.63318 29.2274C1.04232 27.585 0.274317 25.2697 0.274317 22.2543C0.255669 20.8764 0.49747 19.5071 0.98746 18.2158C1.44914 17.107 2.11906 16.0932 2.96232 15.2274C3.81251 14.4123 4.83247 13.7878 5.95203 13.3966C7.15393 12.9579 8.4275 12.7389 9.70975 12.7504C10.4271 12.7524 11.1429 12.8154 11.8492 12.9389C12.4226 13.0341 12.9903 13.16 13.5497 13.3158L14.7292 13.7735L15.4423 14.1504L14.2355 17.462C13.5971 17.135 12.9261 16.8734 12.2332 16.6812C11.3987 16.4788 10.5418 16.3793 9.68232 16.385C9.03964 16.3869 8.40115 16.4868 7.78975 16.6812C7.18064 16.9021 6.62825 17.2513 6.17146 17.7043C5.65526 18.2137 5.26166 18.8301 5.01946 19.5081C4.72426 20.3661 4.585 21.2682 4.60803 22.1735C4.59802 22.9625 4.69019 23.7496 4.88232 24.5158C5.04891 25.1902 5.35721 25.8229 5.78746 26.3735C6.22262 26.9208 6.78763 27.3552 7.43318 27.6389C8.20428 27.9607 9.03665 28.1168 9.87432 28.0966C10.4245 28.0912 10.974 28.0552 11.52 27.9889L12.7817 27.7466C13.121 27.6594 13.4515 27.5422 13.7692 27.3966L14.5646 27.0735L15.6892 30.3312C14.9178 30.7624 14.0861 31.0799 13.2206 31.2735C12.0121 31.5819 10.7663 31.7268 9.51775 31.7043Z" fill="#209B55"/>
        <path d="M23.6435 17.1918C24.6426 17.1892 25.635 17.3531 26.5783 17.6764C27.2783 17.9218 27.9084 18.328 28.416 18.861C28.8701 19.3799 29.19 19.9987 29.3486 20.6649C29.5244 21.4331 29.5981 22.2204 29.568 23.0072L29.3212 31.1379L26.9075 31.4879C25.6885 31.6356 24.4588 31.6807 23.232 31.6225C22.3995 31.6053 21.5715 31.497 20.7635 31.2995C20.0904 31.1487 19.4557 30.8647 18.8983 30.4649C18.3769 30.1069 17.9683 29.6125 17.7189 29.0379C17.4342 28.3655 17.3121 27.6375 17.3623 26.911C17.3567 26.1932 17.546 25.4869 17.9109 24.8649C18.254 24.3309 18.7248 23.8873 19.2823 23.5725C19.8776 23.2457 20.528 23.0268 21.2023 22.9264C21.9343 22.7904 22.6796 22.7363 23.424 22.7649L24.7955 22.8725C25.1213 22.9165 25.4425 22.9886 25.7555 23.0879V22.711C25.7807 22.4193 25.745 22.1256 25.6507 21.8478C25.5564 21.5701 25.4054 21.3141 25.2069 21.0956C24.7955 20.6649 24.1097 20.4495 23.0949 20.4225C22.4263 20.3951 21.7566 20.4221 21.0926 20.5033C20.5064 20.5648 19.9277 20.682 19.3646 20.8533L18.9532 17.7033L19.8309 17.5149L20.9829 17.3264L22.272 17.2187C22.7282 17.1825 23.1862 17.1735 23.6435 17.1918ZM23.5886 28.6072H24.7132L25.5635 28.5533L25.6732 25.5918L24.96 25.4841L24.0823 25.4033H23.0126C22.709 25.4391 22.413 25.5209 22.1349 25.6456C21.901 25.7514 21.6947 25.9079 21.5315 26.1033C21.3858 26.3385 21.3098 26.6089 21.312 26.8841C21.2755 27.4943 21.4675 27.9251 21.888 28.1764C22.4052 28.4673 22.9926 28.6161 23.5886 28.6072Z" fill="#209B55"/>
        <path d="M41.5817 21.0156L40.3199 20.7464C39.8159 20.6352 39.3005 20.581 38.7839 20.5849L37.8788 20.6656C37.6186 20.6828 37.361 20.7279 37.1108 20.8002V31.3272H33.1337V18.2964C33.9603 18.0153 34.8029 17.7816 35.6571 17.5964C36.7202 17.37 37.8059 17.2616 38.8937 17.2733H39.6617L40.5668 17.381L41.4719 17.5426C41.7351 17.5872 41.9925 17.6594 42.2399 17.7579L41.5817 20.9887V21.0156Z" fill="#209B55"/>
        <path d="M50.1943 12.9658C52.9645 12.9658 55.0765 13.4504 56.5577 14.3927C58.0388 15.3351 58.7794 16.9235 58.7794 19.0774C58.7794 21.2312 58.0388 22.8466 56.5302 23.8158C55.0217 24.7851 52.9097 25.2697 50.112 25.2697H48.8228V31.3274H44.6537V13.4504C45.6046 13.2649 46.5665 13.1391 47.5337 13.0735C48.5485 13.0197 49.4537 12.9658 50.1943 12.9658ZM50.4685 16.4658H49.5908L48.8228 16.5197V21.7697H50.112C51.5657 21.7697 52.6628 21.5812 53.376 21.2043C54.0891 20.8274 54.4731 20.1004 54.4731 19.0504C54.4924 18.6126 54.3981 18.1772 54.1988 17.7851C54.0063 17.4621 53.7324 17.1933 53.4034 17.0043C53.0077 16.7769 52.5692 16.6303 52.1142 16.5735C51.5696 16.4938 51.0192 16.4578 50.4685 16.4658Z" fill="black"/>
        <path d="M70.0251 21.0155L68.7909 20.7462C68.2773 20.6364 67.753 20.5822 67.2274 20.5847L66.3497 20.6655C66.0802 20.6804 65.8133 20.7256 65.5543 20.8001V31.327H61.5771V18.2962C62.4038 18.0151 63.2463 17.7814 64.1006 17.5962C65.1639 17.3711 66.2494 17.2628 67.3371 17.2731H68.1051L69.0103 17.3808L69.9154 17.5424C70.1865 17.5911 70.4527 17.6632 70.7109 17.7578L70.0251 20.9885V21.0155Z" fill="black"/>
        <path d="M77.184 13.5846C77.1975 13.8972 77.1406 14.2088 77.0174 14.4974C76.8941 14.7859 76.7075 15.0442 76.4709 15.2538C76.0138 15.6531 75.4233 15.8737 74.8114 15.8737C74.1996 15.8737 73.6091 15.6531 73.152 15.2538C72.9154 15.0442 72.7288 14.7859 72.6055 14.4974C72.4822 14.2088 72.4253 13.8972 72.4389 13.5846C72.4232 13.2678 72.4789 12.9514 72.6022 12.6582C72.7255 12.365 72.9132 12.1022 73.152 11.8884C73.6091 11.4891 74.1996 11.2686 74.8114 11.2686C75.4233 11.2686 76.0138 11.4891 76.4709 11.8884C76.7096 12.1022 76.8974 12.365 77.0207 12.6582C77.1439 12.9514 77.1997 13.2678 77.184 13.5846ZM76.8 31.3269H72.8229V17.5692H76.8V31.3269Z" fill="black"/>
        <path d="M79.8721 24.4349C79.8662 23.4802 80.0333 22.5321 80.3658 21.6349C80.6882 20.7817 81.1721 19.9961 81.7921 19.3195C82.4459 18.6652 83.2178 18.1357 84.0686 17.758C85.0334 17.3669 86.0696 17.1745 87.1132 17.1926C87.8038 17.1834 88.4934 17.2466 89.1703 17.381C89.7908 17.5124 90.3969 17.7017 90.9806 17.9464L90.1578 21.0695L88.9235 20.6926C88.4383 20.5797 87.9409 20.5254 87.4423 20.531C86.2629 20.531 85.3852 20.908 84.8092 21.608C84.1985 22.4253 83.889 23.4221 83.9315 24.4349C83.9315 25.6733 84.2058 26.6426 84.7543 27.3156C85.3029 27.9887 86.2355 28.3387 87.6069 28.3387C88.1209 28.3402 88.6343 28.3043 89.1429 28.231C89.6597 28.1396 90.1653 27.9952 90.6515 27.8003L91.2275 31.0041C90.6684 31.2189 90.0898 31.3812 89.4995 31.4887C88.7402 31.6321 87.9687 31.7043 87.1955 31.7041C86.0622 31.7305 84.9346 31.5384 83.8766 31.1387C83.0141 30.7939 82.2376 30.2704 81.6 29.6041C80.989 28.9499 80.5387 28.1671 80.2835 27.3156C80.0011 26.3808 79.8624 25.4099 79.8721 24.4349Z" fill="black"/>
        <path d="M92.5715 24.5424C92.5409 23.4496 92.7272 22.3615 93.12 21.3385C93.472 20.4895 93.9838 19.7131 94.6286 19.0501C95.2448 18.4417 95.9826 17.9651 96.7955 17.6501C97.5926 17.351 98.4382 17.196 99.2915 17.1924C101.266 17.1924 102.857 17.7847 104.009 18.9962C105.161 20.2078 105.737 21.9308 105.737 24.2732C105.741 24.5158 105.732 24.7584 105.71 25.0001C105.707 25.2433 105.689 25.4861 105.655 25.727H96.6309C96.6734 26.1077 96.7981 26.4752 96.9967 26.8048C97.1954 27.1344 97.4634 27.4187 97.7829 27.6385C98.4686 28.1232 99.3738 28.3385 100.498 28.3385C101.225 28.3438 101.951 28.2807 102.665 28.1501C103.256 28.0426 103.834 27.8803 104.393 27.6655L104.914 30.8424C104.644 30.9743 104.359 31.0737 104.064 31.1385L102.885 31.4347L101.458 31.6232C100.967 31.6769 100.472 31.7038 99.9772 31.7039C98.853 31.7282 97.7348 31.5361 96.6858 31.1385C95.8102 30.8133 95.0154 30.3085 94.3543 29.6578C93.735 29.0051 93.2754 28.2225 93.0103 27.3693C92.7051 26.4575 92.5568 25.5021 92.5715 24.5424ZM101.897 23.0616C101.869 22.7347 101.814 22.4106 101.733 22.0924C101.639 21.7852 101.48 21.5008 101.266 21.2578C101.055 21.0029 100.794 20.7923 100.498 20.6385C99.7583 20.3507 98.9343 20.3507 98.1943 20.6385C97.8819 20.7658 97.608 20.9698 97.3989 21.2308C97.1771 21.4724 97.009 21.7566 96.9052 22.0655C96.7758 22.3863 96.6838 22.7205 96.6309 23.0616H101.897Z" fill="black"/>
        <path d="M139.364 24.9196C137.856 25.6734 136.1 25.5119 135.771 24.7311C135.442 23.9503 136.539 23.3042 137.39 22.4696C138.24 21.635 139.502 21.2311 140.434 21.985C141.367 22.7388 141.284 23.9234 139.364 24.9196ZM133.714 27.1273C133.001 27.8811 132.26 27.8542 130.807 27.8811C130.121 27.908 124.471 27.8811 123.758 27.8542C122.359 27.8003 121.591 27.8003 120.878 27.0734C120.164 26.3465 120.74 25.7542 121.755 25.7273L132.836 25.808C133.879 25.808 134.427 26.4003 133.714 27.1273ZM118.793 24.7311C118.491 25.5119 116.708 25.6734 115.2 24.9196C113.691 24.1657 113.335 22.6311 114.13 21.985C114.926 21.3388 116.352 21.6619 117.175 22.4696C117.998 23.2773 119.095 24.0042 118.793 24.7311ZM120 14.608C121.481 13.7465 123.703 13.4234 127.351 13.4234C130.999 13.4234 133.769 13.8811 135.305 14.7965C136.841 15.7119 137.691 17.3811 137.774 19.0503C136.1 19.6426 120.302 19.6696 117.065 19.0503C117.641 17.1657 118.409 15.5234 120 14.608ZM143.863 23.9773C143.638 22.7811 143.162 21.6441 142.464 20.6388C142.201 20.2415 141.898 19.8717 141.559 19.535C142.628 19.4003 142.875 18.5657 142.93 17.8926C142.985 17.2196 141.998 17.1926 141.257 17.2465C140.693 17.2624 140.156 17.4831 139.748 17.8657C139.337 16.2503 138.569 14.3926 136.512 13.1811C135.466 12.5662 134.313 12.1464 133.111 11.9426C132.415 11.7949 131.709 11.696 130.999 11.6465C129.786 11.532 128.569 11.4781 127.351 11.485C126.197 11.4791 125.043 11.5331 123.895 11.6465C123.204 11.711 122.518 11.8099 121.838 11.9426C120.758 12.1554 119.721 12.5372 118.766 13.0734C117.038 14.1234 116.16 16.008 115.364 17.6773C114.99 17.4079 114.54 17.2576 114.075 17.2465C113.362 17.1926 112.43 17.2465 112.402 17.8926C112.375 18.5388 112.375 19.2926 113.307 19.4811C112.978 19.8311 112.676 20.208 112.375 20.585C111.617 21.6231 111.153 22.8402 111.031 24.1119C110.979 24.7183 111.058 25.3286 111.261 25.9036C111.464 26.4786 111.787 27.0054 112.21 27.4503C112.265 28.6619 112.292 30.2234 112.32 30.8157C112.347 31.8657 112.951 31.8388 114.98 31.8119C116.242 31.8119 117.696 32.108 117.723 30.6003C117.751 30.1157 117.723 29.7926 117.723 29.4965C123.182 30.4388 131.876 30.5734 137.39 29.5503C137.362 29.8465 137.362 30.1696 137.362 30.6003C137.417 32.108 138.843 31.8119 140.132 31.8119C142.162 31.8388 142.738 31.8657 142.793 30.8157C142.82 30.2503 142.848 28.7426 142.875 27.5311C143.296 27.0463 143.602 26.4765 143.773 25.8623C143.943 25.248 143.974 24.6045 143.863 23.9773Z" fill="#209B55"/>
    </mask>
    <g mask="url(#mask0)">
        <rect width="144" height="44" fill="#A3B3CC"/>
    </g>
</svg>
