<svg width="144" height="61" viewBox="0 0 144 61" fill="none" xmlns="http://www.w3.org/2000/svg">
<path d="M16.9261 17.9669C16.5414 17.7093 15.9644 17.5805 15.2591 17.5805H13.3998L12.5022 21.5087H14.3616C15.3874 21.5087 16.1567 21.3155 16.6697 20.8648C17.2467 20.4784 17.5031 19.8988 17.5031 19.1904C17.5031 18.6108 17.3108 18.2245 16.9261 17.9669Z" fill="#A3B3CC"/>
<path fill-rule="evenodd" clip-rule="evenodd" d="M22.6323 0C10.13 0 0 10.1748 0 22.7323C0 35.2898 10.13 45.4646 22.6323 45.4646C35.1345 45.4646 45.2645 35.2898 45.2645 22.7323C45.2645 10.1748 35.1345 0 22.6323 0ZM20.9653 29.6872H16.7338L13.9769 24.2778H11.8611L10.6429 29.6872H6.86021L10.2583 15.0046H15.9644C17.7596 15.0046 19.106 15.3266 20.1318 15.9062C21.0935 16.4857 21.6064 17.4517 21.6064 18.6752C21.6064 19.8344 21.2218 20.8648 20.5165 21.6375C19.8112 22.4103 18.8495 23.0543 17.6314 23.4407L20.9653 29.6872ZM35.968 24.2134C35.5192 26.2741 34.6857 27.6909 33.5317 28.6568C32.3776 29.5584 30.7106 30.0092 28.5949 30.0092C26.6715 30.0092 25.1968 29.6872 24.2351 28.9788C23.2734 28.2705 22.7605 27.2401 22.7605 25.8234C22.7605 25.5658 22.7605 25.2438 22.8246 24.9218C22.8547 24.7709 22.8706 24.6341 22.8857 24.5048C22.9028 24.3584 22.9188 24.2214 22.9528 24.0846L25.0686 15.0046H28.8513L26.7356 24.0846C26.7035 24.1812 26.6875 24.2778 26.6715 24.3744C26.6554 24.471 26.6394 24.5676 26.6073 24.6642C26.6073 24.7706 26.5879 24.8769 26.5704 24.9725C26.5562 25.0506 26.5432 25.1215 26.5432 25.1794C26.5432 25.8234 26.7356 26.2741 27.1203 26.5961C27.5049 26.9181 28.082 27.0469 28.9796 27.0469C29.813 27.0469 30.4542 26.7893 30.9671 26.3385C31.48 25.8878 31.8647 25.1794 32.057 24.2134L34.2369 14.9402H38.0196L35.968 24.2134Z" fill="#A3B3CC"/>
<path d="M111.11 10.6256L110.148 14.8758L113.354 14.8114L112.649 17.9669H109.507L106.878 29.3652C106.878 29.4296 106.862 29.494 106.846 29.5584C106.83 29.6228 106.814 29.6872 106.814 29.7516H102.07L104.763 18.0313H102.711L103.416 14.8758H105.404L106.365 10.6256H111.11Z" fill="#A3B3CC"/>
<path fill-rule="evenodd" clip-rule="evenodd" d="M67.0639 28.5284C68.4103 29.6232 70.3978 30.2028 72.8982 30.2028C74.0523 30.2028 75.1422 30.074 76.1681 29.9452C77.1298 29.752 78.1556 29.43 79.0532 29.0436L79.9508 25.2442H79.4379L79.3138 25.3124L79.2032 25.3735C78.5614 25.728 77.8577 26.1167 77.0015 26.4033C76.1039 26.7253 75.0781 26.9185 74.0523 26.9185C72.5777 26.9185 71.4236 26.5965 70.7184 26.0169C70.0131 25.4374 69.6284 24.6002 69.6284 23.5698V23.3122H80.656C80.8484 22.7327 80.9766 22.1532 81.1048 21.5737C81.233 20.9941 81.2972 20.4144 81.2972 19.8348C81.2972 18.0961 80.7202 16.7437 79.6302 15.8421C78.4762 14.9406 76.8092 14.4898 74.6293 14.4898C73.2188 14.4898 71.8724 14.683 70.6543 15.1982C69.4361 15.7133 68.4744 16.3573 67.6409 17.1945C66.8074 18.0317 66.1663 18.9976 65.7175 20.1568C65.2687 21.3159 65.0122 22.5395 65.0122 23.8918C65.0122 25.8237 65.7175 27.4337 67.0639 28.5284ZM76.5848 20.189C76.5688 20.2695 76.5527 20.35 76.5527 20.4144H70.0772C70.4619 19.4484 70.9748 18.6756 71.616 18.1604C72.3212 17.6453 73.1547 17.3877 74.1164 17.3877C74.9499 17.3877 75.5269 17.5809 75.9757 17.9673C76.4245 18.3536 76.6169 18.8688 76.6169 19.5772V19.9636C76.6169 20.028 76.6008 20.1085 76.5848 20.189Z" fill="#A3B3CC"/>
<path d="M53.6638 29.8159C54.4973 30.0734 55.459 30.2022 56.4849 30.2022C57.1202 30.2022 58.5717 30.2022 59.3059 30.0734C60.04 29.9446 60.8446 29.5583 61.8063 29.1719L62.8322 25.1148H62.191C61.6781 25.5656 61.037 25.952 60.2676 26.3384C59.4982 26.7248 58.6647 26.918 57.7671 26.918C56.549 26.918 55.7155 26.6604 55.1385 26.0808C54.5614 25.5012 54.305 24.6641 54.305 23.5693C54.305 21.9594 54.7538 20.6714 55.6514 19.5767C56.549 18.4819 57.7672 17.9667 59.2418 17.9667C60.0111 17.9667 60.7805 18.0955 61.4217 18.4175C62.0628 18.7395 62.6398 19.1903 63.1527 19.8343H63.858L64.8838 15.7772C64.1144 15.3908 63.281 15.0689 62.3834 14.8757C61.4858 14.6825 60.5882 14.5537 59.6906 14.5537C58.2159 14.5537 56.8054 14.7469 55.5232 15.262C54.2409 15.7772 53.1509 16.4212 52.2533 17.2584C51.3557 18.1599 50.6505 19.1259 50.1376 20.285C49.6247 21.4442 49.3682 22.6677 49.3682 24.0201C49.3682 25.0504 49.4964 25.952 49.8811 26.7248C50.2017 27.4975 50.7146 28.1415 51.3557 28.6567C51.9969 29.1719 52.7663 29.5583 53.6638 29.8159Z" fill="#A3B3CC"/>
<path d="M99.0558 15.4558C98.2864 14.8118 97.2606 14.4898 95.9783 14.4898C95.0166 14.4898 94.119 14.683 93.2855 15.005C92.452 15.3914 91.6185 15.8421 90.5927 16.4861L90.9774 14.8762H84.566L83.8607 18.0317H85.5277L82.8349 29.752H87.6435L90.0798 19.1908C90.7209 18.8688 91.2339 18.6112 91.7468 18.4824C92.2597 18.2892 92.6444 18.2248 93.0291 18.2248C93.7984 18.2248 94.3113 18.3536 94.6319 18.6112C94.9525 18.8688 95.0807 19.3196 95.0807 19.8992C95.0807 20.2212 95.0166 20.6075 94.9525 20.9939C94.9297 21.1313 94.8988 21.2768 94.8656 21.4333C94.8053 21.7171 94.7373 22.0371 94.696 22.4107L93.0291 29.8164H97.8376L100.017 20.1568L100.21 19.1908C100.274 18.8689 100.274 18.6113 100.274 18.3537C100.146 17.0014 99.761 16.0997 99.0558 15.4558Z" fill="#A3B3CC"/>
<path fill-rule="evenodd" clip-rule="evenodd" d="M114.7 28.5284C116.046 29.6232 118.034 30.2028 120.534 30.2028C121.624 30.2028 122.714 30.074 123.804 29.9452C124.766 29.752 125.792 29.43 126.689 29.0436L127.587 25.2442H127.074C126.997 25.2866 126.918 25.3298 126.839 25.3735C126.198 25.728 125.494 26.1167 124.638 26.4033C123.74 26.7253 122.714 26.9185 121.688 26.9185C120.214 26.9185 119.06 26.5965 118.355 26.0169C117.649 25.4374 117.265 24.6002 117.265 23.5698V23.3122H128.292C128.485 22.7327 128.613 22.1531 128.741 21.5735C128.869 20.9939 128.933 20.4144 128.933 19.8348C128.933 18.0961 128.42 16.7437 127.266 15.8421C126.112 14.9406 124.445 14.4898 122.265 14.4898C120.855 14.4898 119.509 14.683 118.29 15.1982C117.072 15.7133 116.111 16.3573 115.277 17.1945C114.444 18.0317 113.802 18.9976 113.354 20.1568C112.905 21.3159 112.648 22.5395 112.648 23.8918C112.648 25.8237 113.354 27.4337 114.7 28.5284ZM124.157 20.189C124.141 20.2695 124.125 20.35 124.125 20.4144H117.649C118.034 19.4484 118.547 18.6756 119.188 18.1604C119.893 17.6453 120.727 17.3877 121.688 17.3877C122.522 17.3877 123.099 17.5809 123.548 17.9673C123.997 18.3536 124.189 18.8688 124.189 19.5772V19.9636C124.189 20.028 124.173 20.1085 124.157 20.189Z" fill="#A3B3CC"/>
<path d="M142.91 19.4482H142.461C142.269 19.3838 141.948 19.3194 141.564 19.3194C141.179 19.255 140.794 19.255 140.41 19.255C139.768 19.255 139.191 19.3194 138.614 19.3838C138.114 19.4397 137.613 19.5927 137.07 19.7584L136.932 19.8005L136.819 19.8346L134.511 29.8162H129.703L133.165 14.9404H137.973L137.46 17.1299C138.358 16.486 139.256 15.9064 140.153 15.52C141.051 15.1336 141.948 14.876 142.846 14.876H143.423C143.615 14.876 143.808 14.876 144 14.9404L142.91 19.4482Z" fill="#A3B3CC"/>
<path d="M142.782 47.0748C128.484 43.6618 114.315 41.5367 97.5815 41.7943C67.5761 42.245 40.4558 49.5863 20.5164 60.4695C37.186 46.3665 62.7034 37.1576 91.4265 36.7069C111.11 36.3849 127.715 40.2487 142.782 47.0748Z" fill="#A3B3CC"/>
</svg>
