<svg width="144" height="44" viewBox="0 0 144 44" fill="none" xmlns="http://www.w3.org/2000/svg">
<mask id="mask0" mask-type="alpha" maskUnits="userSpaceOnUse" x="0" y="4" width="144" height="36">
<g clip-path="url(#clip0)">
<path fill-rule="evenodd" clip-rule="evenodd" d="M36.2384 4V30.4401L26.6066 40.1412H0V4H36.2384ZM15.3536 15.413V28.3477C15.3536 29.0135 16.0211 29.3939 16.5933 29.0135L27.3695 22.5461C27.8463 22.2608 27.8463 21.4999 27.3695 21.2146L16.5933 14.7472C16.0211 14.4619 15.3536 14.7472 15.3536 15.413ZM12.7787 16.1738L10.2992 14.6521C9.72703 14.3667 9.05948 14.7472 9.05948 15.3178V28.3477C9.05948 28.9183 9.72703 29.2988 10.2992 29.0134L12.7787 27.4917C12.9694 27.3966 13.0648 27.2064 13.0648 27.0162V16.5542C13.0171 16.5067 12.9694 16.4353 12.9217 16.364C12.8741 16.2927 12.8264 16.2214 12.7787 16.1738ZM60.7472 14.5571L64.5618 14.6523L58.84 23.3071L58.7446 29.1087H55.5022V23.3071L49.7804 14.5571H53.881L57.3141 20.1685L60.7472 14.5571ZM72.4771 23.1168L70.5698 18.6467L68.4718 23.1168H72.4771ZM65.8016 29.2037H62.3685L69.1394 14.6522H72.191L78.9619 29.2037H75.3381L74.0029 26.1603H67.1367L65.8016 29.2037ZM91.7407 14.6522H87.9261L84.493 20.1684L80.9645 14.6522H76.8639L82.6811 23.307V29.2037H85.9235V23.307L91.7407 14.6522ZM99.6556 23.1168L97.7484 18.6467L95.6503 23.1168H99.6556ZM92.9801 29.2037H89.6424L96.3179 14.6522H99.3695L106.14 29.2037H102.517L101.181 26.1603H94.3152L92.9801 29.2037ZM107.667 27.1114C107.667 28.1576 108.525 29.2989 109.86 29.2989C111.1 29.2989 111.958 28.2527 111.958 27.1114C111.958 26.1603 111.1 25.019 109.86 25.019C108.525 25.1141 107.667 26.1603 107.667 27.1114ZM122.734 19.3125C122.734 18.5517 122.162 17.7908 120.35 17.7908C120.134 17.7908 119.878 17.8178 119.607 17.8463C119.158 17.8936 118.668 17.9452 118.252 17.8859V21.0245H120.159C121.685 21.0245 122.734 20.3587 122.734 19.3125ZM118.156 24.2582V29.2989H114.914V14.8424H120.636C124.736 14.8424 126.453 16.8397 126.453 19.5028C126.453 22.1658 124.736 23.3071 123.783 23.6875L125.309 25.5897C125.881 26.3506 127.025 26.731 127.979 26.3506V29.394C126.453 29.9647 124.069 29.394 122.543 27.3016L120.254 24.2582H118.156ZM143.142 14.7473H139.804V22.5462C139.804 24.8288 138.946 26.2554 136.657 26.2554C133.987 26.2554 133.033 24.5434 133.033 22.2608V14.6522H129.695V23.1168C129.695 27.3016 132.556 29.4891 136.657 29.4891C140.185 29.4891 143.142 27.682 143.142 23.2119V14.7473Z" fill="#F9E011"/>
</g>
</mask>
<g mask="url(#mask0)">
<rect width="144" height="44" fill="#A3B3CC"/>
</g>
<defs>
<clipPath id="clip0">
<rect y="4" width="144" height="36" fill="white"/>
</clipPath>
</defs>
</svg>
