<svg width="38" height="34" viewBox="0 0 38 34" fill="none" xmlns="http://www.w3.org/2000/svg">
<path d="M36.4052 15.1998C36.8569 15.8112 37.0306 16.4226 37.0654 16.966V17.034C37.0306 17.5774 36.8222 18.1888 36.4052 18.8002C35.2239 20.4646 27.0935 33.3039 27.0935 33.3039C27.0935 33.3039 26.3986 34.5947 24.8004 33.1341C24.4882 32.845 24.4169 32.7837 24.3513 32.7169C24.2781 32.6424 24.2121 32.5609 23.8275 32.1491C23.0631 31.3339 22.4724 29.6695 24.4529 26.9522C26.6071 24.0311 28.8308 20.7023 30.2206 18.4605C30.4638 18.0869 30.5681 17.5774 30.5681 17.1019V16.8981C30.5681 16.4226 30.4638 15.9131 30.2206 15.5394C28.8308 13.3316 26.6071 9.9689 24.4529 7.04777C22.4377 4.33045 23.0631 2.66608 23.8275 1.85088C24.2121 1.43909 24.2781 1.3576 24.3513 1.28308C24.4169 1.21623 24.4882 1.15498 24.8004 0.865853C26.3986 -0.594711 27.0935 0.69602 27.0935 0.69602C27.0935 0.69602 35.2239 13.5354 36.4052 15.1998Z" fill="#56B8FF"/>
<path d="M6.49353 16.015C6.49353 16.3547 6.59776 16.6944 6.77149 16.9661C7.74435 18.5286 9.34263 20.9062 10.8367 22.9782C12.2612 24.8803 11.6011 25.5596 11.0104 26.0691C10.5935 26.4513 10.2743 26.7187 9.92084 27.0149C9.80302 27.1136 9.6814 27.2155 9.55109 27.3259C8.36976 28.3109 7.74436 27.1561 7.74436 27.1561C7.74436 27.1561 2.21989 18.4267 1.38601 17.2378C1.0733 16.7963 0.969071 16.3547 0.934326 15.9811C0.969071 15.5735 1.0733 15.1659 1.38601 14.7243C2.21989 13.5355 7.57063 5.11175 7.57063 5.11175C7.57063 5.11175 8.26552 3.78706 9.55109 4.63622C10.0375 4.97589 10.4892 5.34952 11.0104 5.89298C11.0362 5.92161 11.0625 5.95023 11.0889 5.97901C11.5953 6.531 12.1576 7.14381 10.8367 8.98395C9.34263 11.0219 7.74435 13.3996 6.77149 14.9621C6.59776 15.2338 6.49353 15.6754 6.49353 16.015Z" fill="#56B8FF"/>
</svg>
