<svg width="24" height="24" viewBox="0 0 24 24" fill="none" xmlns="http://www.w3.org/2000/svg">
<path d="M16.149 8.02667L14.699 6.63239L7.44894 13.6093C7.16341 13.8842 6.93693 14.2105 6.78244 14.5697C6.62795 14.9289 6.54847 15.3138 6.54853 15.7025C6.5486 16.0913 6.62821 16.4762 6.78283 16.8353C6.93744 17.1944 7.16403 17.5207 7.44966 17.7955C7.73528 18.0704 8.07435 18.2883 8.4475 18.437C8.82066 18.5858 9.22058 18.6623 9.62445 18.6622C10.0283 18.6621 10.4282 18.5855 10.8013 18.4367C11.1744 18.2879 11.5134 18.0698 11.799 17.7948L20.499 9.42232C21.4602 8.49694 22.0001 7.24194 22 5.9334C21.9999 4.62485 21.4597 3.36995 20.4983 2.44476C19.5369 1.51957 18.233 0.999871 16.8735 1C15.514 1.00013 14.2102 1.52007 13.249 2.44544L4.11465 11.236L4.09465 11.2539C1.30178 13.942 1.30178 18.2981 4.09465 20.9849C6.88751 23.6717 11.4132 23.6717 14.2061 20.9849L14.2247 20.9657L14.2261 20.967L20.4618 14.9664L19.0118 13.5721L12.7761 19.5714L12.7575 19.5893C10.769 21.5033 7.53466 21.5033 5.54608 19.5893C5.07174 19.1317 4.69589 18.5885 4.4401 17.9909C4.1843 17.3932 4.05359 16.7528 4.05545 16.1064C4.0573 15.4601 4.1917 14.8204 4.45093 14.2241C4.71015 13.6278 5.08912 13.0867 5.56608 12.6316L5.56465 12.6303L14.7004 3.83972C15.899 2.6847 17.8504 2.6847 19.0504 3.83972C20.2504 4.99474 20.249 6.87165 19.0504 8.02529L10.3504 16.3978C10.1557 16.5702 9.89932 16.6635 9.63483 16.6583C9.37035 16.653 9.1182 16.5496 8.93105 16.3696C8.7439 16.1897 8.63622 15.9471 8.6305 15.6925C8.62479 15.438 8.72148 15.1911 8.90038 15.0035L16.1504 8.02529L16.149 8.02667Z" fill="#252525"/>
</svg>
