<svg width="28" height="28" viewBox="0 0 28 28" fill="none" xmlns="http://www.w3.org/2000/svg">
<path d="M9.87582 13.1751C11.1977 11.8533 13.503 11.8533 14.8248 13.1751L15.6497 14L17.2993 12.3503L16.4745 11.5255C15.3743 10.4241 13.909 9.81628 12.3503 9.81628C10.7917 9.81628 9.32632 10.4241 8.22615 11.5255L5.75049 14C4.65883 15.0951 4.04584 16.5784 4.04584 18.1247C4.04584 19.671 4.65883 21.1543 5.75049 22.2494C6.29167 22.7914 6.93461 23.2211 7.64237 23.5138C8.35013 23.8065 9.10875 23.9565 9.87465 23.9551C10.6408 23.9567 11.3996 23.8068 12.1076 23.5141C12.8156 23.2214 13.4587 22.7916 14 22.2494L14.8248 21.4246L13.1752 19.775L12.3503 20.5998C11.6929 21.2543 10.8029 21.6217 9.87524 21.6217C8.94754 21.6217 8.0576 21.2543 7.40015 20.5998C6.74507 19.9426 6.37723 19.0526 6.37723 18.1247C6.37723 17.1968 6.74507 16.3068 7.40015 15.6496L9.87582 13.1751Z" fill="white"/>
<path d="M14 5.75053L13.1752 6.57537L14.8248 8.22503L15.6497 7.4002C16.3071 6.74569 17.197 6.37823 18.1247 6.37823C19.0524 6.37823 19.9424 6.74569 20.5998 7.4002C21.2549 8.05735 21.6227 8.94739 21.6227 9.87528C21.6227 10.8032 21.2549 11.6932 20.5998 12.3504L18.1242 14.8249C16.8023 16.1467 14.497 16.1467 13.1752 14.8249L12.3503 14L10.7007 15.6497L11.5255 16.4745C12.6257 17.5759 14.091 18.1837 15.6497 18.1837C17.2083 18.1837 18.6737 17.5759 19.7738 16.4745L22.2495 14C23.3411 12.9049 23.9541 11.4216 23.9541 9.87528C23.9541 8.32896 23.3411 6.8457 22.2495 5.75053C21.1546 4.65831 19.6712 4.04492 18.1247 4.04492C16.5782 4.04492 15.0949 4.65831 14 5.75053Z" fill="white"/>
</svg>
