<svg width="72" height="72" viewBox="0 0 72 72" fill="none" xmlns="http://www.w3.org/2000/svg">
<path fill-rule="evenodd" clip-rule="evenodd" d="M12 66C12 62.6863 9.31371 60 6 60C2.68629 60 -4.07115e-07 62.6863 -2.62268e-07 66C-1.17422e-07 69.3137 2.68629 72 6 72C9.31371 72 12 69.3137 12 66ZM32 66C32 62.6863 29.3137 60 26 60C22.6863 60 20 62.6863 20 66C20 69.3137 22.6863 72 26 72C29.3137 72 32 69.3137 32 66ZM6 20C9.31371 20 12 22.6863 12 26C12 29.3137 9.31371 32 6 32C2.68629 32 1.63103e-06 29.3137 1.48619e-06 26C1.34134e-06 22.6863 2.68629 20 6 20ZM32 26C32 22.6863 29.3137 20 26 20C22.6863 20 20 22.6863 20 26C20 29.3137 22.6863 32 26 32C29.3137 32 32 29.3137 32 26ZM46 20C49.3137 20 52 22.6863 52 26C52 29.3137 49.3137 32 46 32C42.6863 32 40 29.3137 40 26C40 22.6863 42.6863 20 46 20ZM72 26C72 22.6863 69.3137 20 66 20C62.6863 20 60 22.6863 60 26C60 29.3137 62.6863 32 66 32C69.3137 32 72 29.3137 72 26ZM6 40C9.31371 40 12 42.6863 12 46C12 49.3137 9.31371 52 6 52C2.68629 52 -9.91649e-07 49.3137 -1.1365e-06 46C-1.28134e-06 42.6863 2.68629 40 6 40ZM32 46C32 42.6863 29.3137 40 26 40C22.6863 40 20 42.6863 20 46C20 49.3137 22.6863 52 26 52C29.3137 52 32 49.3137 32 46ZM6 -2.62269e-07C9.31371 -4.07115e-07 12 2.68629 12 6C12 9.31371 9.31371 12 6 12C2.68629 12 2.50526e-06 9.31371 2.36042e-06 6C2.21557e-06 2.68629 2.68629 -1.17422e-07 6 -2.62269e-07ZM32 6C32 2.68629 29.3137 -1.28134e-06 26 -1.1365e-06C22.6863 -9.9165e-07 20 2.68629 20 6C20 9.31371 22.6863 12 26 12C29.3137 12 32 9.31371 32 6ZM46 -2.01072e-06C49.3137 -2.15557e-06 52 2.68629 52 6C52 9.31371 49.3137 12 46 12C42.6863 12 40 9.31371 40 6C40 2.68629 42.6863 -1.86588e-06 46 -2.01072e-06ZM72 6C72 2.68629 69.3137 -3.0298e-06 66 -2.88495e-06C62.6863 -2.74011e-06 60 2.68629 60 6C60 9.31371 62.6863 12 66 12C69.3137 12 72 9.31371 72 6Z" fill="url(#paint0_linear)"/>
<defs>
<linearGradient id="paint0_linear" x1="36" y1="-1.57361e-06" x2="36" y2="72" gradientUnits="userSpaceOnUse">
<stop stop-color="#DAE0FF"/>
<stop offset="1" stop-color="#FFC9B9"/>
</linearGradient>
</defs>
</svg>
