<svg width="72" height="72" viewBox="0 0 72 72" fill="none" xmlns="http://www.w3.org/2000/svg">
<path d="M60 6C60 9.31371 62.6863 12 66 12C69.3137 12 72 9.31371 72 6C72 2.68629 69.3137 -2.34843e-07 66 -5.24537e-07C62.6863 -8.1423e-07 60 2.68629 60 6Z" fill="url(#paint0_linear)"/>
<path d="M40 6C40 9.31371 42.6863 12 46 12C49.3137 12 52 9.3137 52 5.99999C52 2.68629 49.3137 -1.9833e-06 46 -2.27299e-06C42.6863 -2.56269e-06 40 2.68629 40 6Z" fill="url(#paint1_linear)"/>
<path d="M66 52C62.6863 52 60 49.3137 60 46C60 42.6863 62.6863 40 66 40C69.3137 40 72 42.6863 72 46C72 49.3137 69.3137 52 66 52Z" fill="url(#paint2_linear)"/>
<path d="M40 46C40 49.3137 42.6863 52 46 52C49.3137 52 52 49.3137 52 46C52 42.6863 49.3137 40 46 40C42.6863 40 40 42.6863 40 46Z" fill="url(#paint3_linear)"/>
<path d="M26 52C22.6863 52 20 49.3137 20 46C20 42.6863 22.6863 40 26 40C29.3137 40 32 42.6863 32 46C32 49.3137 29.3137 52 26 52Z" fill="url(#paint4_linear)"/>
<path d="M2.27299e-06 46C1.9833e-06 49.3137 2.68629 52 6 52C9.31371 52 12 49.3137 12 46C12 42.6863 9.31371 40 6 40C2.68629 40 2.56269e-06 42.6863 2.27299e-06 46Z" fill="url(#paint5_linear)"/>
<path d="M66 32C62.6863 32 60 29.3137 60 26C60 22.6863 62.6863 20 66 20C69.3137 20 72 22.6863 72 26C72 29.3137 69.3137 32 66 32Z" fill="url(#paint6_linear)"/>
<path d="M40 26C40 29.3137 42.6863 32 46 32C49.3137 32 52 29.3137 52 26C52 22.6863 49.3137 20 46 20C42.6863 20 40 22.6863 40 26Z" fill="url(#paint7_linear)"/>
<path d="M66 72C62.6863 72 60 69.3137 60 66C60 62.6863 62.6863 60 66 60C69.3137 60 72 62.6863 72 66C72 69.3137 69.3137 72 66 72Z" fill="url(#paint8_linear)"/>
<path d="M40 66C40 69.3137 42.6863 72 46 72C49.3137 72 52 69.3137 52 66C52 62.6863 49.3137 60 46 60C42.6863 60 40 62.6863 40 66Z" fill="url(#paint9_linear)"/>
<path d="M26 72C22.6863 72 20 69.3137 20 66C20 62.6863 22.6863 60 26 60C29.3137 60 32 62.6863 32 66C32 69.3137 29.3137 72 26 72Z" fill="url(#paint10_linear)"/>
<path d="M5.24537e-07 66C2.34843e-07 69.3137 2.68629 72 6 72C9.31371 72 12 69.3137 12 66C12 62.6863 9.31371 60 6 60C2.68629 60 8.14231e-07 62.6863 5.24537e-07 66Z" fill="url(#paint11_linear)"/>
<defs>
<linearGradient id="paint0_linear" x1="3.14722e-06" y1="36" x2="72" y2="36" gradientUnits="userSpaceOnUse">
<stop stop-color="#DAE0FF"/>
<stop offset="1" stop-color="#FFC9B9"/>
</linearGradient>
<linearGradient id="paint1_linear" x1="3.14722e-06" y1="36" x2="72" y2="36" gradientUnits="userSpaceOnUse">
<stop stop-color="#DAE0FF"/>
<stop offset="1" stop-color="#FFC9B9"/>
</linearGradient>
<linearGradient id="paint2_linear" x1="3.14722e-06" y1="36" x2="72" y2="36" gradientUnits="userSpaceOnUse">
<stop stop-color="#DAE0FF"/>
<stop offset="1" stop-color="#FFC9B9"/>
</linearGradient>
<linearGradient id="paint3_linear" x1="3.14722e-06" y1="36" x2="72" y2="36" gradientUnits="userSpaceOnUse">
<stop stop-color="#DAE0FF"/>
<stop offset="1" stop-color="#FFC9B9"/>
</linearGradient>
<linearGradient id="paint4_linear" x1="3.14722e-06" y1="36" x2="72" y2="36" gradientUnits="userSpaceOnUse">
<stop stop-color="#DAE0FF"/>
<stop offset="1" stop-color="#FFC9B9"/>
</linearGradient>
<linearGradient id="paint5_linear" x1="3.14722e-06" y1="36" x2="72" y2="36" gradientUnits="userSpaceOnUse">
<stop stop-color="#DAE0FF"/>
<stop offset="1" stop-color="#FFC9B9"/>
</linearGradient>
<linearGradient id="paint6_linear" x1="3.14722e-06" y1="36" x2="72" y2="36" gradientUnits="userSpaceOnUse">
<stop stop-color="#DAE0FF"/>
<stop offset="1" stop-color="#FFC9B9"/>
</linearGradient>
<linearGradient id="paint7_linear" x1="3.14722e-06" y1="36" x2="72" y2="36" gradientUnits="userSpaceOnUse">
<stop stop-color="#DAE0FF"/>
<stop offset="1" stop-color="#FFC9B9"/>
</linearGradient>
<linearGradient id="paint8_linear" x1="3.14722e-06" y1="36" x2="72" y2="36" gradientUnits="userSpaceOnUse">
<stop stop-color="#DAE0FF"/>
<stop offset="1" stop-color="#FFC9B9"/>
</linearGradient>
<linearGradient id="paint9_linear" x1="3.14722e-06" y1="36" x2="72" y2="36" gradientUnits="userSpaceOnUse">
<stop stop-color="#DAE0FF"/>
<stop offset="1" stop-color="#FFC9B9"/>
</linearGradient>
<linearGradient id="paint10_linear" x1="3.14722e-06" y1="36" x2="72" y2="36" gradientUnits="userSpaceOnUse">
<stop stop-color="#DAE0FF"/>
<stop offset="1" stop-color="#FFC9B9"/>
</linearGradient>
<linearGradient id="paint11_linear" x1="3.14722e-06" y1="36" x2="72" y2="36" gradientUnits="userSpaceOnUse">
<stop stop-color="#DAE0FF"/>
<stop offset="1" stop-color="#FFC9B9"/>
</linearGradient>
</defs>
</svg>
