<svg width="48" height="48" viewBox="0 0 48 48" fill="none" xmlns="http://www.w3.org/2000/svg">
<path d="M40 4C40 6.20914 41.7909 8 44 8C46.2091 8 48 6.20914 48 4C48 1.79086 46.2091 3.65814e-06 44 3.46501e-06C41.7909 3.27188e-06 40 1.79086 40 4Z" fill="url(#paint0_linear)"/>
<path d="M26.6667 4C26.6667 6.20914 28.4575 8 30.6667 8C32.8758 8 34.6667 6.20914 34.6667 4C34.6667 1.79086 32.8758 2.4925e-06 30.6667 2.29937e-06C28.4575 2.10624e-06 26.6667 1.79086 26.6667 4Z" fill="url(#paint1_linear)"/>
<path d="M44 34.6667C41.7909 34.6667 40 32.8758 40 30.6667C40 28.4575 41.7909 26.6667 44 26.6667C46.2091 26.6667 48 28.4575 48 30.6667C48 32.8758 46.2091 34.6667 44 34.6667Z" fill="url(#paint2_linear)"/>
<path d="M26.6667 30.6667C26.6667 32.8758 28.4575 34.6667 30.6667 34.6667C32.8758 34.6667 34.6667 32.8758 34.6667 30.6667C34.6667 28.4575 32.8758 26.6667 30.6667 26.6667C28.4575 26.6667 26.6667 28.4575 26.6667 30.6667Z" fill="url(#paint3_linear)"/>
<path d="M17.3333 34.6667C15.1242 34.6667 13.3333 32.8758 13.3333 30.6667C13.3333 28.4575 15.1242 26.6667 17.3333 26.6667C19.5425 26.6667 21.3333 28.4575 21.3333 30.6667C21.3333 32.8758 19.5425 34.6667 17.3333 34.6667Z" fill="url(#paint4_linear)"/>
<path d="M5.33003e-06 30.6667C5.1369e-06 32.8758 1.79086 34.6667 4 34.6667C6.20914 34.6667 8 32.8758 8 30.6667C8 28.4575 6.20914 26.6667 4.00001 26.6667C1.79086 26.6667 5.52315e-06 28.4575 5.33003e-06 30.6667Z" fill="url(#paint5_linear)"/>
<path d="M44 21.3333C41.7909 21.3333 40 19.5425 40 17.3333C40 15.1242 41.7909 13.3333 44 13.3333C46.2091 13.3333 48 15.1242 48 17.3333C48 19.5425 46.2091 21.3333 44 21.3333Z" fill="url(#paint6_linear)"/>
<path d="M26.6667 17.3333C26.6667 19.5425 28.4575 21.3333 30.6667 21.3333C32.8758 21.3333 34.6667 19.5425 34.6667 17.3333C34.6667 15.1242 32.8758 13.3333 30.6667 13.3333C28.4575 13.3333 26.6667 15.1242 26.6667 17.3333Z" fill="url(#paint7_linear)"/>
<path d="M44 48C41.7909 48 40 46.2091 40 44C40 41.7909 41.7909 40 44 40C46.2091 40 48 41.7909 48 44C48 46.2091 46.2091 48 44 48Z" fill="url(#paint8_linear)"/>
<path d="M26.6667 44C26.6667 46.2091 28.4575 48 30.6667 48C32.8758 48 34.6667 46.2091 34.6667 44C34.6667 41.7909 32.8758 40 30.6667 40C28.4575 40 26.6667 41.7909 26.6667 44Z" fill="url(#paint9_linear)"/>
<path d="M17.3333 48C15.1242 48 13.3333 46.2091 13.3333 44C13.3333 41.7909 15.1242 40 17.3333 40C19.5425 40 21.3333 41.7909 21.3333 44C21.3333 46.2091 19.5425 48 17.3333 48Z" fill="url(#paint10_linear)"/>
<path d="M4.16439e-06 44C3.97126e-06 46.2091 1.79086 48 4 48C6.20914 48 8 46.2091 8 44C8 41.7909 6.20914 40 4 40C1.79086 40 4.35752e-06 41.7909 4.16439e-06 44Z" fill="url(#paint11_linear)"/>
<defs>
<linearGradient id="paint0_linear" x1="5.91284e-06" y1="24" x2="48" y2="24" gradientUnits="userSpaceOnUse">
<stop stop-color="#DAE0FF"/>
<stop offset="1" stop-color="#FFC9B9"/>
</linearGradient>
<linearGradient id="paint1_linear" x1="5.91284e-06" y1="24" x2="48" y2="24" gradientUnits="userSpaceOnUse">
<stop stop-color="#DAE0FF"/>
<stop offset="1" stop-color="#FFC9B9"/>
</linearGradient>
<linearGradient id="paint2_linear" x1="5.91284e-06" y1="24" x2="48" y2="24" gradientUnits="userSpaceOnUse">
<stop stop-color="#DAE0FF"/>
<stop offset="1" stop-color="#FFC9B9"/>
</linearGradient>
<linearGradient id="paint3_linear" x1="5.91284e-06" y1="24" x2="48" y2="24" gradientUnits="userSpaceOnUse">
<stop stop-color="#DAE0FF"/>
<stop offset="1" stop-color="#FFC9B9"/>
</linearGradient>
<linearGradient id="paint4_linear" x1="5.91284e-06" y1="24" x2="48" y2="24" gradientUnits="userSpaceOnUse">
<stop stop-color="#DAE0FF"/>
<stop offset="1" stop-color="#FFC9B9"/>
</linearGradient>
<linearGradient id="paint5_linear" x1="5.91284e-06" y1="24" x2="48" y2="24" gradientUnits="userSpaceOnUse">
<stop stop-color="#DAE0FF"/>
<stop offset="1" stop-color="#FFC9B9"/>
</linearGradient>
<linearGradient id="paint6_linear" x1="5.91284e-06" y1="24" x2="48" y2="24" gradientUnits="userSpaceOnUse">
<stop stop-color="#DAE0FF"/>
<stop offset="1" stop-color="#FFC9B9"/>
</linearGradient>
<linearGradient id="paint7_linear" x1="5.91284e-06" y1="24" x2="48" y2="24" gradientUnits="userSpaceOnUse">
<stop stop-color="#DAE0FF"/>
<stop offset="1" stop-color="#FFC9B9"/>
</linearGradient>
<linearGradient id="paint8_linear" x1="5.91284e-06" y1="24" x2="48" y2="24" gradientUnits="userSpaceOnUse">
<stop stop-color="#DAE0FF"/>
<stop offset="1" stop-color="#FFC9B9"/>
</linearGradient>
<linearGradient id="paint9_linear" x1="5.91284e-06" y1="24" x2="48" y2="24" gradientUnits="userSpaceOnUse">
<stop stop-color="#DAE0FF"/>
<stop offset="1" stop-color="#FFC9B9"/>
</linearGradient>
<linearGradient id="paint10_linear" x1="5.91284e-06" y1="24" x2="48" y2="24" gradientUnits="userSpaceOnUse">
<stop stop-color="#DAE0FF"/>
<stop offset="1" stop-color="#FFC9B9"/>
</linearGradient>
<linearGradient id="paint11_linear" x1="5.91284e-06" y1="24" x2="48" y2="24" gradientUnits="userSpaceOnUse">
<stop stop-color="#DAE0FF"/>
<stop offset="1" stop-color="#FFC9B9"/>
</linearGradient>
</defs>
</svg>
