<svg width="92" height="92" viewBox="0 0 92 92" fill="none" xmlns="http://www.w3.org/2000/svg">
<circle cx="66" cy="86" r="6" transform="rotate(180 66 86)" fill="#DBE3F0"/>
<circle cx="66" cy="66" r="6" transform="rotate(180 66 66)" fill="#DBE3F0"/>
<circle cx="26" cy="86" r="6" transform="rotate(180 26 86)" fill="#DBE3F0"/>
<circle cx="26" cy="66" r="6" transform="rotate(180 26 66)" fill="#DBE3F0"/>
<circle cx="26" cy="46" r="6" transform="rotate(180 26 46)" fill="#DBE3F0"/>
<circle cx="26" cy="26" r="6" transform="rotate(180 26 26)" fill="#DBE3F0"/>
<circle cx="26" cy="6" r="6" transform="rotate(180 26 6)" fill="#DBE3F0"/>
<circle cx="86" cy="86" r="6" transform="rotate(180 86 86)" fill="#DBE3F0"/>
<circle cx="86" cy="66" r="6" transform="rotate(180 86 66)" fill="#DBE3F0"/>
<circle cx="46" cy="86" r="6" transform="rotate(180 46 86)" fill="#DBE3F0"/>
<circle cx="46" cy="66" r="6" transform="rotate(180 46 66)" fill="#DBE3F0"/>
<circle cx="6" cy="86" r="6" transform="rotate(180 6 86)" fill="#DBE3F0"/>
<circle cx="6" cy="66" r="6" transform="rotate(180 6 66)" fill="#DBE3F0"/>
<circle cx="6" cy="46" r="6" transform="rotate(180 6 46)" fill="#DBE3F0"/>
<circle cx="6" cy="26" r="6" transform="rotate(180 6 26)" fill="#DBE3F0"/>
<circle cx="6" cy="6" r="6" transform="rotate(180 6 6)" fill="#DBE3F0"/>
</svg>
