<svg width="144" height="144" viewBox="0 0 144 144" fill="none" xmlns="http://www.w3.org/2000/svg">
<rect width="144" height="144" rx="72" fill="#99CFFF"/>
<path d="M81.3865 43.7688L78.8109 43.0631C78.4794 42.9526 78.1529 42.9873 77.8353 43.167C77.5168 43.3469 77.3016 43.6169 77.1911 43.9766L61.7001 97.5698C61.5896 97.9296 61.6242 98.269 61.8041 98.5869C61.9841 98.9053 62.2536 99.1198 62.6141 99.2303L65.1889 99.9363C65.5211 100.048 65.8465 100.013 66.165 99.8328C66.4835 99.6521 66.6982 99.3829 66.8086 99.0238L82.3 45.4298C82.4104 45.07 82.3761 44.7307 82.1959 44.4121C82.0158 44.0937 81.7465 43.8792 81.3865 43.7688Z" fill="white"/>
<path d="M58.1712 54.2308C58.1712 53.8711 58.0326 53.5525 57.7557 53.2759L55.679 51.2002C55.4021 50.9235 55.0836 50.7848 54.7237 50.7848C54.3638 50.7848 54.0451 50.9236 53.7684 51.2002L34.4154 70.5449C34.1382 70.8216 34 71.1401 34 71.4998C34 71.8595 34.1386 72.1779 34.4154 72.4545L53.7683 91.7993C54.045 92.0764 54.3631 92.2142 54.7236 92.2142C55.084 92.2142 55.4021 92.076 55.6788 91.7993L57.7556 89.7247C58.0324 89.4481 58.171 89.1295 58.171 88.7694C58.171 88.4101 58.0324 88.0917 57.7556 87.8151L41.4342 71.4998L57.7557 55.1856C58.033 54.9091 58.1712 54.5905 58.1712 54.2308Z" fill="white"/>
<path d="M90.2316 51.1997L109.585 70.5445C109.862 70.821 110 71.1394 110 71.4993C110 71.859 109.862 72.178 109.585 72.4546L90.2316 91.7992C89.9549 92.0759 89.6363 92.2142 89.2769 92.2142C88.9166 92.2142 88.5989 92.0763 88.3212 91.7992L86.2453 89.7246C85.9685 89.4481 85.8306 89.1296 85.8306 88.7693C85.8306 88.4102 85.9686 88.0916 86.2453 87.8151L102.567 71.4996L86.2453 55.185C85.9685 54.9084 85.8306 54.5903 85.8306 54.2301C85.8306 53.87 85.9686 53.552 86.2453 53.2753L88.3212 51.1997C88.5989 50.9231 88.9164 50.7843 89.2769 50.7843C89.6362 50.7843 89.9549 50.9231 90.2316 51.1997Z" fill="white"/>
</svg>
