<svg width="144" height="144" viewBox="0 0 144 144" fill="none" xmlns="http://www.w3.org/2000/svg">
<rect width="144" height="144" rx="72" fill="#99CFFF"/>
<path fill-rule="evenodd" clip-rule="evenodd" d="M67.3125 74.3438C63.4355 74.3438 60.2812 77.498 60.2812 81.375C60.2812 85.252 63.4355 88.4062 67.3125 88.4062C71.1895 88.4062 74.3438 85.252 74.3438 81.375C74.3438 77.498 71.1895 74.3438 67.3125 74.3438ZM67.3125 83.7188C66.0202 83.7188 64.9688 82.6673 64.9688 81.375C64.9688 80.0827 66.0202 79.0312 67.3125 79.0312C68.6048 79.0312 69.6562 80.0827 69.6562 81.375C69.6562 82.6673 68.6048 83.7188 67.3125 83.7188Z" fill="white"/>
<path fill-rule="evenodd" clip-rule="evenodd" d="M79.0312 81.375C79.0312 77.498 82.1855 74.3438 86.0625 74.3438C89.9395 74.3438 93.0938 77.498 93.0938 81.375C93.0938 85.252 89.9395 88.4062 86.0625 88.4062C82.1855 88.4062 79.0312 85.252 79.0312 81.375ZM83.7188 81.375C83.7188 82.6673 84.7702 83.7188 86.0625 83.7188C87.3548 83.7188 88.4062 82.6673 88.4062 81.375C88.4062 80.0827 87.3548 79.0312 86.0625 79.0312C84.7702 79.0312 83.7188 80.0827 83.7188 81.375Z" fill="white"/>
<path fill-rule="evenodd" clip-rule="evenodd" d="M96.9205 65.0377L92.1984 55.5938H88.4062V46.2188H95.4375V41.5312H83.7188V55.5938H79.0312V48.5625H74.3438V55.5938H70.5398L65.7822 65.2831C61.6353 65.7531 57.5717 66.7491 53.6486 68.2617L49.878 69.7023L45.1673 60.2812H36.6875V74.7422L36.5019 74.8131C33.8092 75.8512 32 78.4883 32 81.3748C32 84.2614 33.8092 86.8984 36.5087 87.9394L36.6875 88.0078V102.469H45.1673L49.878 93.0475L53.6419 94.4856C59.3133 96.6725 65.2709 97.7812 71.3492 97.7812H94.6419C103.555 97.7812 111.515 91.0772 111.977 82.2539C112.45 73.2131 105.523 65.822 96.9205 65.0377ZM73.4602 60.2811H89.3014L91.6452 64.9686C91.6452 64.9686 71.2214 64.9705 71.1573 64.9708L73.4602 60.2811ZM41.375 64.9686H42.2702L45.4775 71.3834L41.375 72.9511V64.9686ZM42.2702 97.7811H41.375V89.7987L45.4777 91.3662L42.2702 97.7811ZM71.3491 93.0936C65.8497 93.0936 60.4595 92.0905 55.3214 90.1092L38.1884 83.5633C37.2906 83.217 36.6875 82.3377 36.6875 81.3748C36.6875 80.4131 37.2894 79.5347 38.1855 79.1877L55.3281 72.6378C60.4595 70.6592 65.8497 69.6561 71.3491 69.6561H95.4375C96.2284 69.6561 97.0133 69.7381 97.7812 69.8942V92.7164C96.7727 92.9613 95.7205 93.0938 94.6419 93.0938L71.3491 93.0936ZM107.296 82.0086C107.116 85.4389 105.249 88.5098 102.469 90.5448V71.9664C105.603 74.2539 107.509 77.93 107.296 82.0086Z" fill="white"/>
</svg>
