<svg width="144" height="144" viewBox="0 0 144 144" fill="none" xmlns="http://www.w3.org/2000/svg">
<rect width="144" height="144" rx="72" fill="#99CFFF"/>
<path fill-rule="evenodd" clip-rule="evenodd" d="M81.8039 72.3589C81.4168 70.4698 80.2341 68.5596 78.2558 66.6285L73.5143 62L63.7732 71.5088L61.4185 69.2103L58.5801 71.9811L60.9347 74.2796L58.5478 76.6096L56.1932 74.3111L53.9353 76.5151L56.2899 78.8136L52 83.0013L55.29 86.2128L59.58 82.0252L64.6763 87L66.9342 84.796L61.8379 79.8212L64.2247 77.4912L65.7085 78.9395C68.1599 81.3325 70.6973 82.529 73.3207 82.529C75.6001 82.529 77.6429 81.6474 79.4492 79.8841C80.3954 78.9605 81.105 77.827 81.5781 76.4836C82.0511 75.1402 82.1264 73.7653 81.8039 72.3589ZM67.0632 74.7204L73.7723 68.1713L75.2238 69.5882C76.7505 71.0785 77.5247 72.4849 77.5462 73.8073C77.5462 74.9828 77.0731 76.0323 76.1269 76.9559C75.1593 77.9005 74.1164 78.3728 72.9982 78.3728C71.5359 78.3728 70.0522 77.6381 68.5469 76.1688L67.0632 74.7204Z" fill="white"/>
<path fill-rule="evenodd" clip-rule="evenodd" d="M106.198 34.6522C107.068 33.7826 108.478 33.7826 109.347 34.6522C110.217 35.5217 110.217 36.9315 109.347 37.8011L102.862 44.2863C103.052 44.685 103.205 45.1058 103.315 45.5449L108.294 65.6981C108.86 67.9613 108.186 70.3921 106.537 72.0417L70.5918 108.046C67.9872 110.651 63.7493 110.651 61.1448 108.046L35.9532 82.8547C33.3489 80.25 33.3489 76.0122 35.9532 73.4077L71.9575 37.4627C73.6071 35.8131 76.0379 35.1399 78.301 35.7056L98.4543 40.6846C98.8935 40.7943 99.3142 40.9473 99.7129 41.1373L106.198 34.6522ZM103.388 68.8929C103.937 68.3429 104.162 67.5328 103.973 66.7784L99.2998 47.848L93.9376 53.2103C95.1203 55.6929 94.6867 58.7593 92.634 60.8119C91.3319 62.1142 89.6212 62.7653 87.9107 62.7653C86.2002 62.7653 84.4894 62.1141 83.1873 60.8119C80.5827 58.2072 80.5827 53.9695 83.1873 51.3649C85.2396 49.3126 88.3062 48.8789 90.7888 50.0613L96.151 44.6991L77.2209 40.0259C77.0444 39.9818 76.8647 39.9602 76.686 39.9602C76.1014 39.9602 75.5276 40.1905 75.1065 40.6116L39.102 76.5565C38.2338 77.4247 38.2338 78.8374 39.102 79.7056L64.2935 104.897C65.1617 105.765 66.5743 105.765 67.4425 104.897L103.388 68.8929ZM86.3363 57.6631C87.2045 58.5313 88.6171 58.5311 89.4852 57.6631C90.3533 56.795 90.3534 55.3823 89.4852 54.5143C89.0513 54.0804 88.4807 53.8631 87.9107 53.8631C87.3404 53.8631 86.7704 54.08 86.3363 54.5141C85.4682 55.3822 85.4682 56.795 86.3363 57.6631Z" fill="white"/>
</svg>
