<svg width="120" height="120" viewBox="0 0 120 120" fill="none" xmlns="http://www.w3.org/2000/svg">
<path d="M41.0589 71.5551C45.0423 71.5551 48.941 71.5551 52.9244 71.5551C59.8742 71.5551 66.9088 71.5551 73.8586 71.5551C76.1469 71.5551 78.52 71.5551 80.8084 71.5551C83.0967 71.5551 85.3003 71.3853 87.2496 70.0273C89.2837 68.6692 90.6398 66.3775 90.8941 63.916C91.0636 62.4731 90.9788 60.9453 90.9788 59.5023C90.9788 57.8047 90.9788 56.1072 90.9788 54.4096C90.9788 52.712 90.9788 51.0144 90.9788 49.4017C90.9788 48.553 90.9788 47.7891 90.9788 46.9403C90.9788 46.2612 91.0636 45.4124 90.8093 44.7334C90.3008 43.2905 88.6057 43.2905 87.3344 43.1207C85.8088 42.951 84.2833 42.6963 82.7577 42.5266C69.7904 40.7441 56.7383 38.9617 43.771 37.1792C42.2454 37.0094 40.8046 36.7548 39.2791 36.5851C38.6858 36.5002 38.0077 36.4153 37.4145 36.3304C36.9907 36.2455 36.9907 36.2455 36.9907 35.7363C36.9907 35.227 36.9907 34.7177 36.9907 34.2933C36.9907 32.5958 37.0755 30.8982 36.9907 29.2006C36.8212 27.2484 35.3804 26.824 33.9396 26.2298C30.8037 24.9567 27.6678 23.5986 24.4472 22.2405C23.3454 21.8162 22.1588 21.901 21.396 22.9196C20.5485 24.1079 21.1418 25.7206 22.4131 26.3147C24.8709 27.503 27.4135 28.4367 29.8714 29.4552C30.4647 29.7099 31.0579 29.9645 31.6512 30.2192C31.736 30.304 32.2445 30.3889 32.3292 30.4738C32.414 30.6435 32.3292 31.1528 32.3292 31.4075C32.3292 36.5851 32.3292 41.7627 32.3292 46.9403C32.3292 53.8154 32.3292 60.7755 32.3292 67.6507C32.3292 69.8575 32.3292 72.0644 32.3292 74.2712C32.3292 76.4781 32.4988 78.5152 33.6853 80.4674C35.0414 82.5045 37.1602 83.9474 39.5333 84.2869C37.1602 88.5308 38.94 94.048 43.2625 96.1699C47.3307 98.1221 52.3311 96.5095 54.5347 92.605C55.8908 90.1435 55.9755 87.003 54.6195 84.4567C59.8742 84.4567 65.1289 84.4567 70.2989 84.4567C71.0617 84.4567 71.7397 84.4567 72.5025 84.4567C70.1294 88.9552 72.2482 94.6421 76.9944 96.4246C81.4016 98.1221 86.4869 95.8304 88.1819 91.5016C89.877 87.0879 87.5039 82.0801 83.1815 80.4674C81.6559 79.8732 79.9608 79.8732 78.2658 79.8732C72.7568 79.8732 67.2478 79.8732 61.7388 79.8732C55.8908 79.8732 49.958 79.8732 44.11 79.8732C43.0082 79.8732 41.9064 79.9581 40.8046 79.8732C38.601 79.7035 36.9907 77.921 36.9059 75.7142C36.9059 74.3561 36.9059 73.0829 36.9059 71.7249C36.9059 71.3005 36.9059 70.8761 36.9059 70.4517C38.1773 71.2156 39.6181 71.5551 41.0589 71.5551ZM36.9059 62.8975V40.7441L86.3174 47.5344V62.8975C86.3174 65.1892 84.4528 67.0565 82.1644 67.0565H41.0589C38.7705 66.9716 36.9059 65.1043 36.9059 62.8975ZM43.093 88.446C43.093 86.2391 44.8728 84.4567 47.0764 84.4567C49.28 84.4567 51.0598 86.2391 51.0598 88.446C51.0598 90.6528 49.28 92.4353 47.0764 92.4353C44.9576 92.4353 43.093 90.6528 43.093 88.446ZM84.2833 88.446C84.2833 90.6528 82.5034 92.4353 80.2998 92.4353C78.0962 92.4353 76.3164 90.6528 76.3164 88.446C76.3164 86.2391 78.0962 84.4567 80.2998 84.4567C82.5034 84.4567 84.2833 86.2391 84.2833 88.446Z" fill="white"/>
</svg>
