<svg width="120" height="120" viewBox="0 0 120 120" fill="none" xmlns="http://www.w3.org/2000/svg">
<path d="M59.1163 90.8046C61.6777 90.8046 63.7541 88.7461 63.7541 86.2069C63.7541 83.6677 61.6777 81.6092 59.1163 81.6092C56.555 81.6092 54.4786 83.6677 54.4786 86.2069C54.4786 88.7461 56.555 90.8046 59.1163 90.8046Z" fill="white"/>
<path fill-rule="evenodd" clip-rule="evenodd" d="M71.6384 44.0933C65.6517 44.0933 60.7808 48.9218 60.7808 54.8571C60.7808 60.7925 65.6514 65.6209 71.6384 65.6209C77.6255 65.6209 82.4961 60.7925 82.4961 54.8571C82.4961 48.9218 77.6252 44.0933 71.6384 44.0933ZM71.6384 60.9709C68.238 60.9709 65.4714 58.2281 65.4714 54.8571C65.4714 51.4861 68.238 48.7434 71.6384 48.7434C75.0388 48.7434 77.8055 51.4861 77.8055 54.8571C77.8055 58.2281 75.0388 60.9709 71.6384 60.9709Z" fill="white"/>
<path fill-rule="evenodd" clip-rule="evenodd" d="M83.2326 76.4533V90.8046C83.2326 95.8831 79.0799 100 73.9571 100H44.2755C39.1528 100 35 95.8831 35 90.8046V29.1954C35 24.1169 39.1528 20 44.2755 20H73.9571C79.0799 20 83.2326 24.1169 83.2326 29.1954V34.3546L85.4119 33.3282C86.192 32.9602 87.1097 33.0464 87.8067 33.5536C90.0497 35.1854 92.0255 37.1441 93.6791 39.3737C94.1904 40.064 94.2783 40.9769 93.908 41.7488L91.9461 45.8418C92.2667 46.5153 92.556 47.2115 92.811 47.9276L97.1222 49.4473C97.9359 49.7334 98.5254 50.4405 98.6552 51.288C98.8904 52.8196 99 54.1276 99 55.4038C99 56.6801 98.8901 57.9878 98.6548 59.5196C98.5251 60.3674 97.9356 61.0742 97.1219 61.3603L92.8107 62.8801C92.5557 63.5959 92.2664 64.2939 91.9457 64.9674L93.9077 69.0589C94.278 69.8307 94.1901 70.7436 93.6794 71.4323C92.0312 73.6576 90.0554 75.6163 87.807 77.254C87.1107 77.7609 86.1914 77.8487 85.4113 77.4795L83.2326 76.4533ZM44.2755 24.5977H73.9571C76.5185 24.5977 78.5949 26.6562 78.5949 29.1954V32.7834L77.6466 30.1402C77.358 29.3351 76.6466 28.7522 75.7936 28.6221C72.7629 28.1603 70.5198 28.1603 67.4843 28.6221C66.6323 28.7522 65.92 29.3351 65.6314 30.1402L64.0978 34.4148C63.3748 34.6676 62.6716 34.9538 61.9929 35.2716L57.8651 33.3282C57.0865 32.9605 56.1673 33.0467 55.471 33.5536C53.2279 35.1854 51.2521 37.1441 49.5986 39.3737C49.0869 40.064 48.9993 40.9766 49.3696 41.7488L51.3316 45.8418C51.0109 46.514 50.7223 47.2118 50.4666 47.9276L46.1548 49.4489C45.3417 49.735 44.7531 50.4418 44.6225 51.288C44.3872 52.8199 44.2773 54.126 44.2773 55.4038C44.2773 56.6798 44.3872 57.9878 44.6225 59.5196C44.7522 60.3671 45.3417 61.0742 46.1554 61.3603L50.4666 62.8801C50.7223 63.5974 51.0119 64.2939 51.3316 64.9674L49.3696 69.0589C48.9993 69.8307 49.0873 70.7436 49.5979 71.4323C51.2493 73.6604 53.2251 75.6191 55.471 77.254C56.1673 77.7612 57.0865 77.849 57.8657 77.4795L61.9919 75.536C62.6713 75.8539 63.3745 76.14 64.0974 76.3928L65.631 80.6674C65.9197 81.4726 66.631 82.0554 67.484 82.1856C69.0003 82.4172 70.359 82.5293 71.6385 82.5293C72.918 82.5293 74.277 82.4172 75.793 82.1856C76.6457 82.0554 77.3573 81.4726 77.646 80.6674L78.5949 78.0225V90.8046C78.5949 93.3438 76.5185 95.4023 73.9571 95.4023H44.2755C41.7141 95.4023 39.6378 93.3438 39.6378 90.8046V29.1954C39.6378 26.6562 41.7141 24.5977 44.2755 24.5977ZM90.1521 58.882L94.1967 57.456C94.273 56.7265 94.3097 56.0546 94.3097 55.4038C94.3097 54.7531 94.273 54.0809 94.1967 53.3514L90.1521 51.9254C89.4451 51.6772 88.9015 51.1081 88.6886 50.3935C88.3283 49.1858 87.8528 48.04 87.274 46.9848C86.9153 46.3325 86.893 45.547 87.2153 44.8763L89.0497 41.0513C88.1619 39.9949 87.1817 39.0216 86.1173 38.1436L82.2596 39.9616C81.5809 40.2838 80.7923 40.2611 80.1318 39.904C79.0722 39.3317 77.9148 38.8609 76.6918 38.5023C75.9729 38.2921 75.3988 37.7516 75.1476 37.0523L73.7085 33.0411C72.228 32.8913 71.0242 32.8913 69.5691 33.0411L68.1301 37.0523C67.8791 37.7516 67.305 38.2918 66.5858 38.5023C65.3628 38.8609 64.2064 39.3317 63.1474 39.904C62.4885 40.2583 61.6952 40.2841 61.0196 39.9616L57.1603 38.1436C56.096 39.0216 55.1158 39.9949 54.2279 41.0513L56.0624 44.8763C56.3846 45.5467 56.3623 46.3325 56.0036 46.9848C55.4267 48.0369 54.9509 49.1842 54.5891 50.3951C54.3761 51.1081 53.8325 51.6772 53.1265 51.9254L49.081 53.3526C49.0047 54.0821 48.9679 54.7528 48.9679 55.4035C48.9679 56.0542 49.0047 56.7265 49.081 57.456L53.1255 58.882C53.8319 59.1301 54.3761 59.6993 54.5891 60.4123C54.9515 61.6262 55.4273 62.7736 56.0036 63.821C56.3623 64.4748 56.3846 65.2588 56.0624 65.931L54.2279 69.756C55.1151 70.8124 56.0953 71.7842 57.1603 72.6637L61.018 70.8457C61.6951 70.5235 62.4853 70.5462 63.1458 70.9034C64.2055 71.4756 65.3628 71.9464 66.5858 72.3051C67.3047 72.5152 67.8788 73.0557 68.1301 73.755L69.5691 77.7662C71.038 77.9144 72.2396 77.9144 73.7085 77.7662L75.1476 73.755C75.3985 73.0542 75.9726 72.5155 76.6918 72.3051C77.9142 71.9464 79.0706 71.4756 80.1318 70.9034C80.7923 70.549 81.5809 70.5232 82.2596 70.8457L86.1173 72.6622C87.1832 71.7845 88.1634 70.8112 89.0497 69.756L87.2153 65.931C86.893 65.2591 86.9153 64.4748 87.274 63.821C87.8519 62.7705 88.3274 61.6247 88.6886 60.4138C88.9015 59.6993 89.4451 59.1301 90.1521 58.882Z" fill="white"/>
</svg>
