<svg width="120" height="120" viewBox="0 0 120 120" fill="none" xmlns="http://www.w3.org/2000/svg">
<path fill-rule="evenodd" clip-rule="evenodd" d="M100 43.4984C100 44.8784 98.88 45.9984 97.5 45.9984H95V80.9995C97.755 80.9995 100 83.2396 100 85.9997V93.4999C100 94.88 98.88 96 97.5 96H22.5C21.12 96 20 94.88 20 93.4999V85.9997C20 83.2396 22.245 80.9995 25 80.9995V45.9984H22.5C21.12 45.9984 20 44.8784 20 43.4984V38.4982C20 37.5732 20.51 36.7281 21.32 36.2931L58.82 16.2925C59.56 15.9025 60.44 15.9025 61.175 16.2925L98.675 36.2931C99.49 36.7281 100 37.5732 100 38.4982V43.4984ZM25 85.9997V90.9998H95V85.9997H25ZM30 45.9984V80.9995H35V45.9984H30ZM40 45.9984V80.9995H60H80V45.9984H60.0459C61.4048 46.023 62.5 47.1334 62.5 48.4981V50.9982H65C66.38 50.9982 67.5 52.1182 67.5 53.4983C67.5 54.8783 66.38 55.9983 65 55.9983H60C58.62 55.9983 57.5 57.1234 57.5 58.4984C57.5 59.8735 58.62 60.9985 60 60.9985C64.135 60.9985 67.5 64.3636 67.5 68.4987C67.5 71.7538 65.405 74.5039 62.5 75.5389V78.499C62.5 79.8791 61.38 80.9991 60 80.9991C58.62 80.9991 57.5 79.8791 57.5 78.499V75.999H55C53.62 75.999 52.5 74.8789 52.5 73.4989C52.5 72.1188 53.62 70.9988 55 70.9988H60C61.38 70.9988 62.5 69.8738 62.5 68.4987C62.5 67.1237 61.38 65.9986 60 65.9986C55.865 65.9986 52.5 62.6335 52.5 58.4984C52.5 55.2433 54.595 52.4932 57.5 51.4582V48.4981C57.5 47.1334 58.5952 46.023 59.9541 45.9984H40ZM85 45.9984V80.9995H90V45.9984H85ZM25 39.9982V40.9983H95V39.9982L60 21.3327L25 39.9982Z" fill="white"/>
</svg>
