<svg width="120" height="120" viewBox="0 0 120 120" fill="none" xmlns="http://www.w3.org/2000/svg">
<path d="M46.9947 52.6932C47.9174 51.7744 47.9137 50.2883 46.9865 49.374C46.0593 48.4597 44.5596 48.4634 43.6369 49.3822L46.9947 52.6932ZM43.6369 70.6178C44.5596 71.5366 46.0593 71.5403 46.9865 70.626C47.9137 69.7116 47.9174 68.2256 46.9947 67.3068L43.6369 70.6178ZM76.8812 49.4277C75.984 48.4846 74.485 48.4408 73.5331 49.3299C72.5814 50.219 72.5371 51.7045 73.4344 52.6476L76.8812 49.4277ZM73.4344 67.3523C72.5371 68.2955 72.5814 69.7809 73.5331 70.67C74.485 71.5592 75.984 71.5154 76.8812 70.5722L73.4344 67.3523ZM68.7521 48.3096C69.3348 47.1491 68.8577 45.7402 67.6867 45.1628C66.5155 44.5854 65.0937 45.0581 64.5111 46.2186L68.7521 48.3096ZM51.7216 71.6904C51.1389 72.8508 51.616 74.2597 52.787 74.8372C53.9582 75.4145 55.38 74.9418 55.9626 73.7814L51.7216 71.6904ZM62.1398 25.2647L89.1395 40.7908L91.5171 36.7309L64.5174 21.2048L62.1398 25.2647ZM91.263 44.4448V75.5553H96V44.4448H91.263ZM89.1395 79.2092L62.1398 94.7353L64.5174 98.7952L91.5171 83.2691L89.1395 79.2092ZM57.8602 94.7353L30.8604 79.2092L28.4829 83.2691L55.4826 98.7952L57.8602 94.7353ZM28.737 75.5553V44.4448H24V75.5553H28.737ZM30.8604 40.7908L57.8602 25.2647L55.4826 21.2048L28.4829 36.7309L30.8604 40.7908ZM43.6369 49.3822L35.302 57.6822L38.6597 60.9933L46.9947 52.6932L43.6369 49.3822ZM35.302 62.3177L43.6369 70.6178L46.9947 67.3068L38.6597 59.0067L35.302 62.3177ZM73.4344 52.6476L81.3481 60.966L84.7949 57.7461L76.8812 49.4277L73.4344 52.6476ZM81.3481 59.034L73.4344 67.3523L76.8812 70.5722L84.7949 62.2539L81.3481 59.034ZM64.5111 46.2186L51.7216 71.6904L55.9626 73.7814L68.7521 48.3096L64.5111 46.2186ZM81.3481 60.966C80.832 60.4235 80.832 59.5765 81.3481 59.034L84.7949 62.2539C85.9992 60.9882 85.9991 59.0118 84.7949 57.7461L81.3481 60.966ZM35.302 57.6822C34.0146 58.9641 34.0146 61.0358 35.302 62.3177L38.6597 59.0067C39.2114 59.5561 39.2114 60.4439 38.6597 60.9933L35.302 57.6822ZM28.737 44.4448C28.737 42.9387 29.546 41.5467 30.8604 40.7908L28.4829 36.7309C25.7079 38.3266 24 41.2655 24 44.4448H28.737ZM30.8604 79.2092C29.546 78.4533 28.737 77.0612 28.737 75.5553H24C24 78.7345 25.7079 81.6733 28.4829 83.2691L30.8604 79.2092ZM62.1398 94.7353C60.8166 95.4962 59.1834 95.4962 57.8602 94.7353L55.4826 98.7952C58.2761 100.402 61.7239 100.402 64.5174 98.7952L62.1398 94.7353ZM91.263 75.5553C91.263 77.0612 90.454 78.4533 89.1395 79.2092L91.5171 83.2691C94.2921 81.6733 96 78.7345 96 75.5553H91.263ZM89.1395 40.7908C90.454 41.5467 91.263 42.9387 91.263 44.4448H96C96 41.2655 94.2921 38.3266 91.5171 36.7309L89.1395 40.7908ZM64.5174 21.2048C61.7239 19.5984 58.2761 19.5984 55.4826 21.2048L57.8602 25.2647C59.1834 24.5038 60.8166 24.5038 62.1398 25.2647L64.5174 21.2048Z" fill="white"/>
</svg>
