<svg width="120" height="120" viewBox="0 0 120 120" fill="none" xmlns="http://www.w3.org/2000/svg">
<path d="M60.0942 63.3613C64.8048 63.3613 69.3342 61.8213 72.5047 58.1978C75.4036 54.8461 76.853 50.4073 77.4871 46.0591C77.8494 43.2509 77.94 40.4426 77.7588 37.725C77.3965 33.3768 76.4906 29.0286 73.5012 25.5862C67.7942 18.9733 56.6519 18.2486 49.7672 23.3216C43.879 27.6698 42.7014 35.3697 42.9731 42.2544C43.3355 50.9508 46.7778 60.8249 56.199 62.999C57.4672 63.1802 58.7354 63.2708 60.0942 63.3613ZM47.8649 37.9062C48.1366 35.9132 48.2272 34.0109 48.9519 32.1086C49.4955 30.6592 50.3107 29.3003 51.4884 28.1227C53.2096 26.4015 55.5648 25.4051 58.0107 25.0427C62.7213 24.318 67.9754 25.858 70.6024 30.025C72.3236 32.6521 72.6859 35.8227 72.8671 38.9026C73.0483 41.892 72.8671 44.8814 72.1424 47.7802C71.3271 51.5849 69.4248 55.4802 65.8013 57.292C62.1777 59.1037 57.1048 58.9225 53.7531 56.6578C50.1296 54.212 48.5896 49.592 48.0461 45.425C47.7743 42.8885 47.5931 40.3521 47.8649 37.9062Z" fill="white"/>
<path d="M94.5141 83.4714C94.4235 83.4714 94.3329 83.4714 94.2423 83.4714C94.6047 83.4714 94.4235 82.7467 94.4235 82.475C94.4235 82.022 94.4235 81.6597 94.3329 81.2067C94.2423 80.3009 94.1517 79.3044 93.9706 78.3985C93.6082 76.2244 92.7929 74.1409 91.3435 72.5103C89.4412 70.2456 87.0859 69.6115 84.3683 68.7056C81.3789 67.7092 78.5706 66.4409 75.853 64.9009C75.0377 64.448 74.2224 63.9951 73.4977 63.4515C73.0448 63.1798 72.5919 62.8174 71.9577 62.6362C70.5083 62.3645 69.0589 63.4515 68.9683 64.9009C68.8778 65.8974 69.5119 66.7127 70.3272 67.2562C74.4942 70.155 79.3859 72.3291 84.2777 73.6879C85.7271 74.0503 86.9047 74.5938 87.8106 75.7715C88.5353 76.7679 88.9882 78.0362 89.1694 79.3044C89.6224 81.9314 89.8035 85.1926 89.26 87.8196C89.1694 88.4537 88.5353 88.6349 87.9918 88.9067C87.3577 89.269 86.633 89.5408 85.9988 89.8126C84.0965 90.6279 82.1036 91.3526 80.1106 91.9867C67.7907 95.7914 54.112 95.8819 41.792 92.349C39.6179 91.7149 37.5344 90.9902 35.4509 90.1749C34.1826 89.6314 32.6427 89.1785 31.6462 88.3632C31.2838 88.0914 31.2838 87.8196 31.1933 87.2761C31.1027 86.4608 31.0121 85.6455 31.0121 84.8302C31.0121 83.4714 31.0121 82.1126 31.1027 80.7538C31.3744 78.2173 32.0991 75.4091 34.545 74.2315C36.085 73.5068 37.8967 73.1444 39.5273 72.6009C41.0673 72.0574 42.6073 71.3327 44.0567 70.608C46.0496 69.6115 48.0426 68.5244 49.9449 67.2562C50.9414 66.6221 51.6661 65.5351 51.3037 64.2668C50.9414 62.8174 49.3108 62.0927 47.952 62.7268C46.6838 63.2704 45.5061 64.2668 44.2379 64.9915C41.5203 66.5315 38.6214 67.7997 35.7226 68.7056C33.005 69.5209 30.6497 70.4268 28.838 72.6915C26.4827 75.7715 26.1203 79.6667 26.0298 83.3808C25.9392 85.5549 26.0298 87.9102 26.6639 90.0843C26.9356 91.262 27.5697 91.8055 28.5662 92.4396C31.1933 93.9796 34.0921 95.1572 36.9003 96.1537C48.9485 100.321 62.2649 101.045 74.6754 98.5996C79.2953 97.6937 83.9153 96.3349 88.2635 94.342C89.4412 93.7984 90.6188 93.2549 91.7059 92.6208C91.9776 92.4396 92.2494 92.349 92.5212 92.1679C93.427 91.5337 93.7894 90.6279 93.9706 89.5408C94.5141 87.6385 94.6047 85.5549 94.5141 83.4714Z" fill="white"/>
</svg>
