<svg width="24" height="24" viewBox="0 0 24 24" fill="none" xmlns="http://www.w3.org/2000/svg">
<path fill-rule="evenodd" clip-rule="evenodd" d="M12.01 6.81066e-07C9.15838 -0.00097125 6.39948 1.03835 4.2273 2.93188C2.05512 4.82541 0.611509 7.44951 0.15492 10.3344C-0.301669 13.2192 0.258583 16.1764 1.73537 18.6765C3.21215 21.1767 5.50904 23.0565 8.2148 23.9793C8.81122 24.0934 9.03587 23.7124 9.03587 23.3864C9.03587 23.093 9.02394 22.1232 9.01997 21.0963C5.678 21.84 4.97422 19.6456 4.97422 19.6456C4.4275 18.2193 3.64221 17.8444 3.64221 17.8444C2.55274 17.0804 3.72372 17.0967 3.72372 17.0967C4.9285 17.1843 5.56468 18.364 5.56468 18.364C6.63626 20.2446 8.37384 19.7006 9.05774 19.3827C9.1651 18.5881 9.47723 18.0441 9.81918 17.7364C7.16111 17.4308 4.34798 16.3754 4.34798 11.6606C4.33054 10.4361 4.77413 9.25179 5.58655 8.35375C5.4613 8.04405 5.05176 6.79303 5.70186 5.09375C5.70186 5.09375 6.70982 4.76368 9.00406 6.35496C10.9718 5.80284 13.0482 5.80284 15.016 6.35496C17.3003 4.77183 18.3162 5.09375 18.3162 5.09375C18.9703 6.78895 18.5588 8.03998 18.4335 8.35375C19.2444 9.25084 19.6866 10.4338 19.6681 11.6565C19.6681 16.3815 16.859 17.4227 14.187 17.7283C14.6184 18.1093 15.0021 18.8591 15.0021 20.0062C15.0021 21.6525 14.9882 22.9769 14.9882 23.3824C14.9882 23.7104 15.2049 24.0934 15.8132 23.9732C18.5128 23.0445 20.8024 21.1629 22.2735 18.6641C23.7446 16.1653 24.3013 13.2121 23.8443 10.3315C23.3874 7.45101 21.9464 4.83065 19.7787 2.9382C17.611 1.04576 14.8576 0.00439468 12.01 6.81066e-07Z" fill="#DBE3F0"/>
</svg>
