<svg width="24" height="24" viewBox="0 0 24 24" fill="none" xmlns="http://www.w3.org/2000/svg">
<path fill-rule="evenodd" clip-rule="evenodd" d="M11.9981 5.83794C10.7793 5.83794 9.58793 6.19935 8.57458 6.87646C7.56122 7.55357 6.7714 8.51597 6.30501 9.64196C5.83861 10.768 5.71658 12.007 5.95434 13.2023C6.19211 14.3977 6.779 15.4957 7.64079 16.3574C8.50258 17.2192 9.60056 17.8061 10.7959 18.0439C11.9912 18.2817 13.2302 18.1596 14.3562 17.6932C15.4822 17.2268 16.4446 16.437 17.1217 15.4237C17.7988 14.4103 18.1602 13.2189 18.1602 12.0001C18.1602 10.3658 17.511 8.79844 16.3554 7.6428C15.1997 6.48717 13.6324 5.83794 11.9981 5.83794ZM11.9981 16.0001C11.207 16.0001 10.4336 15.7655 9.77584 15.326C9.11806 14.8864 8.60538 14.2617 8.30264 13.5308C7.9999 12.7999 7.9207 11.9957 8.07504 11.2197C8.22938 10.4438 8.61035 9.7311 9.16975 9.1717C9.72915 8.6123 10.4419 8.23134 11.2178 8.077C11.9937 7.92267 12.798 8.00188 13.5288 8.30463C14.2597 8.60738 14.8844 9.12007 15.324 9.77786C15.7635 10.4357 15.9981 11.209 15.9981 12.0001C15.9981 13.061 15.5766 14.0784 14.8265 14.8285C14.0763 15.5787 13.0589 16.0001 11.9981 16.0001Z" fill="#DBE3F0"/>
<path d="M19.8448 5.59431C19.8448 6.38959 19.2001 7.03429 18.4048 7.03429C17.6095 7.03429 16.9648 6.38959 16.9648 5.59431C16.9648 4.79903 17.6095 4.15433 18.4048 4.15433C19.2001 4.15433 19.8448 4.79903 19.8448 5.59431Z" fill="#DBE3F0"/>
<path fill-rule="evenodd" clip-rule="evenodd" d="M11.9999 0C8.74101 0 8.33222 0.0138144 7.0525 0.0722132C5.7752 0.130517 4.90294 0.333343 4.13965 0.630008C3.33896 0.931324 2.61363 1.40367 2.01424 2.01411C1.40367 2.61347 0.93119 3.33881 0.629765 4.13954C0.333341 4.90288 0.130516 5.77516 0.0724508 7.05246C0.0138138 8.3322 0 8.741 0 12C0 15.2591 0.0138138 15.6678 0.0724508 16.9476C0.130755 18.2249 0.333579 19.0972 0.630241 19.8605C0.931556 20.6612 1.4039 21.3865 2.01433 21.9859C2.61372 22.5963 3.33905 23.0687 4.13975 23.37C4.90308 23.6667 5.77535 23.8695 7.0526 23.9278C8.33252 23.9862 8.74117 24 12.0001 24C15.2591 24 15.6679 23.9862 16.9476 23.9278C18.2249 23.8695 19.0972 23.6667 19.8605 23.37C20.6576 23.0617 21.3816 22.5903 21.9859 21.9859C22.5903 21.3815 23.0617 20.6576 23.37 19.8605C23.6667 19.0971 23.8695 18.2248 23.9278 16.9476C23.9862 15.6677 24 15.259 24 12C24 8.74104 23.9862 8.3322 23.9278 7.05246C23.8695 5.77516 23.6667 4.90288 23.37 4.13959C23.0687 3.33889 22.5963 2.61355 21.9859 2.01416C21.3865 1.4036 20.6611 0.93115 19.8603 0.62977C19.097 0.333343 18.2247 0.130517 16.9474 0.0724514C15.6677 0.0138139 15.2589 0 11.9999 0ZM11.9999 2.16221C15.2041 2.16221 15.5836 2.17445 16.849 2.23218C18.019 2.28558 18.6544 2.48102 19.0772 2.64536C19.5985 2.83773 20.0699 3.14447 20.457 3.54302C20.8556 3.9301 21.1623 4.40157 21.3547 4.92279C21.519 5.34564 21.7145 5.98103 21.7678 7.15102C21.8256 8.41642 21.8378 8.79592 21.8378 12.0002C21.8378 15.2044 21.8256 15.5838 21.7678 16.8493C21.7144 18.0193 21.519 18.6546 21.3547 19.0775C21.155 19.5951 20.8493 20.0651 20.457 20.4573C20.0648 20.8496 19.5948 21.1553 19.0772 21.355C18.6544 21.5193 18.019 21.7148 16.849 21.7682C15.5839 21.8259 15.2044 21.8381 11.9999 21.8381C8.79547 21.8381 8.41611 21.8259 7.15082 21.7682C5.98084 21.7148 5.3455 21.5193 4.92261 21.355C4.4014 21.1626 3.92992 20.8559 3.54285 20.4573C3.1443 20.0702 2.83757 19.5988 2.64519 19.0775C2.48086 18.6547 2.28537 18.0193 2.23202 16.8493C2.17429 15.584 2.16205 15.2044 2.16205 12.0002C2.16205 8.79592 2.17429 8.41651 2.23202 7.15102C2.28542 5.98103 2.48086 5.34569 2.64519 4.92279C2.83759 4.40155 3.14435 3.93005 3.54295 3.54297C3.93002 3.14442 4.40149 2.83768 4.9227 2.64531C5.34555 2.48097 5.98093 2.28548 7.15091 2.23213C8.4163 2.1744 8.7957 2.16221 11.9999 2.16221Z" fill="#DBE3F0"/>
</svg>
