<svg width="64" height="64" viewBox="0 0 64 64" fill="none" xmlns="http://www.w3.org/2000/svg">
<path d="M32 0V13.7397C37.8051 13.7397 42.5285 18.4617 42.5285 24.2681C42.5285 30.0733 37.8051 34.7966 32 34.7966V64L51.2711 39.7713C54.731 35.3954 56.5603 30.1365 56.5603 24.5603C56.5603 11.0181 45.5423 0 32 0Z" fill="#249AEF"/>
<path d="M42.5285 24.2677C42.5285 18.4613 37.8051 13.7393 32 13.7393V34.7962C37.8051 34.7962 42.5285 30.0729 42.5285 24.2677Z" fill="white"/>
<path d="M21.4715 24.2681C21.4715 18.4617 26.1949 13.7397 32 13.7397V0C18.4578 0 7.4397 11.0181 7.4397 24.5603C7.4397 30.1365 9.26902 35.3954 12.7342 39.7766L32 64V34.7966C26.1949 34.7966 21.4715 30.0733 21.4715 24.2681Z" fill="#56B8FF"/>
<path d="M21.4714 24.2677C21.4714 30.0729 26.1948 34.7962 31.9999 34.7962V13.7393C26.1948 13.7393 21.4714 18.4613 21.4714 24.2677Z" fill="white"/>
</svg>
