<svg width="72" height="72" viewBox="0 0 72 72" fill="none" xmlns="http://www.w3.org/2000/svg">
<path fill-rule="evenodd" clip-rule="evenodd" d="M60 6C60 9.31371 62.6863 12 66 12C69.3137 12 72 9.31371 72 6C72 2.68629 69.3137 -1.17422e-07 66 -2.62268e-07C62.6863 -4.07115e-07 60 2.68629 60 6ZM40 6C40 9.3137 42.6863 12 46 12C49.3137 12 52 9.31371 52 6C52 2.68629 49.3137 -9.91649e-07 46 -1.1365e-06C42.6863 -1.28134e-06 40 2.68629 40 6ZM66 52C62.6863 52 60 49.3137 60 46C60 42.6863 62.6863 40 66 40C69.3137 40 72 42.6863 72 46C72 49.3137 69.3137 52 66 52ZM40 46C40 49.3137 42.6863 52 46 52C49.3137 52 52 49.3137 52 46C52 42.6863 49.3137 40 46 40C42.6863 40 40 42.6863 40 46ZM26 52C22.6863 52 20 49.3137 20 46C20 42.6863 22.6863 40 26 40C29.3137 40 32 42.6863 32 46C32 49.3137 29.3137 52 26 52ZM-2.01072e-06 46C-2.15557e-06 49.3137 2.68628 52 6 52C9.3137 52 12 49.3137 12 46C12 42.6863 9.3137 40 6 40C2.68629 40 -1.86588e-06 42.6863 -2.01072e-06 46ZM66 32C62.6863 32 60 29.3137 60 26C60 22.6863 62.6863 20 66 20C69.3137 20 72 22.6863 72 26C72 29.3137 69.3137 32 66 32ZM40 26C40 29.3137 42.6863 32 46 32C49.3137 32 52 29.3137 52 26C52 22.6863 49.3137 20 46 20C42.6863 20 40 22.6863 40 26ZM66 72C62.6863 72 60 69.3137 60 66C60 62.6863 62.6863 60 66 60C69.3137 60 72 62.6863 72 66C72 69.3137 69.3137 72 66 72ZM40 66C40 69.3137 42.6863 72 46 72C49.3137 72 52 69.3137 52 66C52 62.6863 49.3137 60 46 60C42.6863 60 40 62.6863 40 66ZM26 72C22.6863 72 20 69.3137 20 66C20 62.6863 22.6863 60 26 60C29.3137 60 32 62.6863 32 66C32 69.3137 29.3137 72 26 72ZM-2.88495e-06 66C-3.0298e-06 69.3137 2.68628 72 6 72C9.3137 72 12 69.3137 12 66C12 62.6863 9.3137 60 6 60C2.68628 60 -2.7401e-06 62.6863 -2.88495e-06 66Z" fill="url(#paint0_linear)"/>
<defs>
<linearGradient id="paint0_linear" x1="36" y1="72" x2="36" y2="-5.86514e-06" gradientUnits="userSpaceOnUse">
<stop stop-color="#D7E9FF"/>
<stop offset="1" stop-color="#E4BAF3"/>
</linearGradient>
</defs>
</svg>
