<svg width="1472" height="960" viewBox="0 0 1472 960" fill="none" xmlns="http://www.w3.org/2000/svg">
<g opacity="0.15">
<path opacity="0.15" d="M50.3023 933.16L782.613 1341.17C815.103 1359.76 872.053 1357.58 909.654 1336.06L1336.41 1089.95C1374.01 1068.43 1378.03 1035.25 1345.54 1016.66L613.225 608.649C580.735 590.054 523.785 592.242 486.184 613.754L59.4288 859.872C22.1927 881.749 17.812 914.564 50.3023 933.16Z" fill="#BDCEFA"/>
</g>
<path d="M1463.08 385.137C1467.1 385.137 1471.85 381.855 1471.85 376.386V193.712C1471.85 190.795 1470.02 187.878 1467.46 186.42L1247.33 59.5323C1245.87 58.8031 1244.41 58.4385 1242.95 58.4385C1238.94 58.4385 1234.19 61.7201 1234.19 67.1893V249.863C1234.19 252.78 1236.02 255.697 1238.57 257.156L1458.7 384.043C1460.16 384.772 1461.62 385.137 1463.08 385.137Z" fill="url(#paint0_linear)"/>
<path d="M1298.81 650.58C1307.57 650.58 1317.43 643.652 1317.43 631.984V241.113C1317.43 234.55 1313.77 228.351 1308.3 225.069L837.372 -46.2069C834.451 -48.03 831.531 -48.7593 828.245 -48.7593C819.484 -48.7593 809.627 -41.8315 809.627 -30.1637V361.072C809.627 367.635 813.278 373.834 818.754 377.116L1289.68 648.027C1292.6 649.85 1295.52 650.58 1298.81 650.58Z" fill="url(#paint1_linear)"/>
<path d="M927.905 128.081C931.556 128.081 935.571 125.164 935.571 120.424V-41.4668C935.571 -44.0192 934.111 -46.5715 931.921 -48.03L736.979 -160.697C735.884 -161.426 734.424 -161.791 733.328 -161.791C729.678 -161.791 725.662 -158.874 725.662 -154.134V7.75671C725.662 10.3091 727.122 12.8614 729.313 14.3198L924.255 126.622C925.35 127.716 926.81 128.081 927.905 128.081Z" fill="url(#paint2_linear)"/>
<path d="M1382.77 771.997C1386.42 771.997 1390.44 769.08 1390.44 764.34V602.45C1390.44 599.897 1388.98 597.345 1386.79 595.887L1191.84 483.584C1190.75 482.855 1189.29 482.49 1188.19 482.49C1184.54 482.49 1180.53 485.407 1180.53 490.147V652.038C1180.53 654.59 1181.99 657.143 1184.18 658.601L1379.12 770.904C1380.22 771.633 1381.68 771.997 1382.77 771.997Z" fill="url(#paint3_linear)"/>
<path d="M844.602 165.896C839.611 157.614 839.486 148.544 844.323 145.636C849.16 142.728 857.127 147.085 862.118 155.366C867.109 163.648 867.233 172.719 862.396 175.627C857.56 178.535 849.593 174.178 844.602 165.896Z" fill="#BDCEFA"/>
<path d="M797.215 128.081C797.215 135.738 802.691 145.583 809.627 149.229C816.563 153.24 822.039 149.958 822.039 142.301C822.039 134.644 816.563 124.8 809.627 121.153C802.691 117.143 797.215 120.424 797.215 128.081Z" fill="#BDCEFA"/>
<path d="M753.041 102.922C753.041 110.579 758.517 120.424 765.453 124.07C772.389 127.716 777.865 124.799 777.865 117.142C777.865 109.485 772.389 99.6403 765.453 95.9941C758.882 91.9832 753.041 94.9002 753.041 102.922Z" fill="#BDCEFA"/>
<path d="M1094.74 139.02L1040.71 153.969C1038.89 154.334 1036.33 152.875 1034.87 150.688L980.841 73.7529L1094.74 139.02Z" fill="#BDCEFA"/>
<path d="M1056.41 155.063L1094.01 217.048C1094.74 216.319 1095.1 215.225 1095.1 213.767V144.489L1056.41 155.063Z" fill="#BDCEFA"/>
<path d="M1022.46 138.655L984.49 157.615C985.586 158.709 986.681 159.803 988.141 160.532L1086.71 217.413C1087.8 218.142 1088.9 218.507 1089.99 218.507L1052.39 156.157L1037.42 160.168L1022.46 138.655Z" fill="#BDCEFA"/>
<path d="M980.475 78.4922V147.77C980.475 149.228 980.84 150.687 981.57 152.145L1018.81 133.185L980.475 78.4922Z" fill="#BDCEFA"/>
<path d="M602.635 171.836C603 171.836 603.365 171.471 603.365 171.107V-96.8882L968.79 114.226C969.155 114.591 969.886 114.226 969.886 113.861C970.251 113.497 969.886 112.768 969.52 112.768L601.54 -99.8052V171.471C601.54 171.471 601.905 171.836 602.635 171.836Z" fill="#BDCEFA"/>
<path d="M578.178 172.931C579.273 172.931 580.004 172.202 580.004 171.107V170.742C580.004 169.648 579.273 168.918 578.178 168.918C577.082 168.918 576.351 169.648 576.351 170.742C576.351 172.202 577.082 172.931 578.178 172.931Z" fill="#BDCEFA"/>
<path d="M578.179 159.074C579.274 159.074 580.004 158.345 580.004 157.251V156.886C580.004 155.792 579.274 155.063 578.179 155.063C577.083 155.063 576.353 155.792 576.353 156.886C576.353 157.98 577.083 159.074 578.179 159.074ZM578.179 144.854C579.274 144.854 580.004 144.125 580.004 143.031V142.666C580.004 141.572 579.274 140.843 578.179 140.843C577.083 140.843 576.353 141.572 576.353 142.666C576.353 143.76 577.083 144.854 578.179 144.854ZM578.179 130.634C579.274 130.634 580.004 129.904 580.004 128.811C580.004 127.717 579.274 126.987 578.179 126.987C577.083 126.987 576.353 127.717 576.353 128.811C576.353 129.54 577.083 130.634 578.179 130.634ZM578.179 116.414C579.274 116.414 580.004 115.684 580.004 114.59V114.226C580.004 113.132 579.274 112.403 578.179 112.403C577.083 112.403 576.353 113.132 576.353 114.226C576.353 115.684 577.083 116.414 578.179 116.414ZM578.179 102.558C579.274 102.558 580.004 101.829 580.004 100.735V100.37C580.004 99.2764 579.274 98.5472 578.179 98.5472C577.083 98.5472 576.353 99.2764 576.353 100.37C576.353 101.464 577.083 102.558 578.179 102.558ZM578.179 88.3379C579.274 88.3379 580.004 87.6086 580.004 86.5148V86.1502C580.004 85.0563 579.274 84.3271 578.179 84.3271C577.083 84.3271 576.353 85.0563 576.353 86.1502C576.353 87.244 577.083 88.3379 578.179 88.3379ZM578.179 74.1177C579.274 74.1177 580.004 73.3885 580.004 72.2946V71.93C580.004 70.8362 579.274 70.1069 578.179 70.1069C577.083 70.1069 576.353 70.8362 576.353 71.93C576.353 73.0239 577.083 74.1177 578.179 74.1177Z" fill="#BDCEFA"/>
<path d="M578.178 60.2639C578.908 60.2639 579.273 59.8991 579.638 59.5343C579.638 59.5343 579.638 59.5343 579.638 59.1695C580.004 58.4399 580.004 57.3455 578.908 56.6159C578.178 56.2511 577.447 56.2511 577.082 56.6159C576.351 56.9807 575.986 57.3455 575.986 58.0751C576.351 59.1695 577.082 60.2639 578.178 60.2639Z" fill="#BDCEFA"/>
<path d="M1100.58 351.229C1101.31 351.229 1101.67 350.864 1102.04 350.135C1102.4 349.405 1102.04 348.312 1101.31 347.582H1100.94C1100.21 347.218 1099.12 347.582 1098.39 348.312C1098.02 349.041 1098.39 350.135 1099.12 350.864H1099.48C1099.85 351.229 1100.21 351.229 1100.58 351.229ZM1087.43 343.936C1088.16 343.936 1088.53 343.572 1088.89 342.842C1089.26 342.113 1088.89 341.019 1088.16 340.29H1087.8C1087.07 339.925 1085.97 340.29 1085.24 341.019C1084.88 341.748 1085.24 342.842 1085.97 343.572H1086.34C1086.7 343.936 1087.07 343.936 1087.43 343.936ZM1074.29 336.644C1075.02 336.644 1075.39 336.279 1075.75 335.55C1076.12 334.821 1075.75 333.727 1075.02 332.998C1074.29 332.633 1072.83 332.633 1072.47 333.727C1072.1 334.456 1072.1 335.55 1072.83 336.279H1073.2C1073.56 336.644 1073.93 336.644 1074.29 336.644ZM1061.15 329.351C1061.88 329.351 1062.24 328.987 1062.61 328.258C1062.98 327.528 1062.61 326.435 1061.88 325.705H1061.51C1060.78 325.341 1059.69 325.705 1058.96 326.434C1058.59 327.164 1058.96 328.258 1059.69 328.987H1060.05C1060.78 329.351 1060.78 329.351 1061.15 329.351ZM1048.01 322.059C1048.74 322.059 1049.1 321.694 1049.47 320.965C1049.83 320.236 1049.47 319.142 1048.74 318.413H1048.37C1047.64 318.048 1046.55 318.413 1045.82 319.142C1045.45 319.871 1045.82 320.965 1046.55 321.694H1046.91C1047.64 322.059 1048.01 322.059 1048.01 322.059ZM1035.23 314.767C1035.96 314.767 1036.33 314.402 1036.69 313.673C1037.06 312.944 1036.69 311.85 1035.96 311.121C1035.23 310.756 1033.77 310.756 1033.41 311.85C1033.04 312.579 1033.04 313.673 1033.77 314.402H1034.14C1034.5 314.767 1034.87 314.767 1035.23 314.767ZM1022.09 307.474C1022.82 307.474 1023.18 307.11 1023.55 306.38C1023.91 305.651 1023.55 304.557 1022.82 303.828C1022.09 303.464 1020.63 303.464 1020.26 304.557C1019.9 305.287 1019.9 306.38 1020.63 307.11H1020.99C1021.36 307.474 1021.72 307.474 1022.09 307.474ZM1008.95 300.182C1009.68 300.182 1010.04 299.817 1010.41 299.088C1010.77 298.359 1010.41 297.265 1009.68 296.536H1009.31C1008.58 296.171 1007.49 296.536 1006.76 297.265C1006.39 297.994 1006.76 299.088 1007.49 299.817H1007.85C1008.58 300.182 1008.58 300.182 1008.95 300.182ZM995.804 292.89C996.534 292.89 996.899 292.525 997.264 291.796C997.629 291.066 997.264 289.973 996.534 289.243H996.169C995.439 288.879 994.344 289.243 993.614 289.973C993.249 290.702 993.614 291.796 994.344 292.525H994.709C995.439 292.89 995.804 292.89 995.804 292.89ZM983.027 285.597C983.757 285.597 984.122 285.233 984.487 284.503C984.852 283.774 984.487 282.68 983.757 281.951C983.027 281.586 981.567 281.586 981.202 282.68C980.837 283.409 980.837 284.503 981.932 285.233H982.297C982.297 285.597 982.662 285.597 983.027 285.597ZM969.885 278.305C970.615 278.305 970.98 277.94 971.345 277.211C971.71 276.482 971.345 275.388 970.615 274.659C969.885 274.294 968.425 274.294 968.06 275.388C967.694 276.117 967.694 277.211 968.79 277.94H969.155C969.155 278.305 969.52 278.305 969.885 278.305ZM956.743 271.012C957.473 271.012 957.838 270.648 958.203 269.919C958.568 269.189 958.203 268.096 957.473 267.366C956.743 267.002 955.282 267.002 954.917 268.095C954.552 268.825 954.552 269.919 955.647 270.648H956.013C956.378 271.012 956.378 271.012 956.743 271.012ZM943.6 263.72C944.331 263.72 944.696 263.355 945.061 262.626C945.426 261.897 945.061 260.803 944.331 260.074C943.6 259.709 942.14 259.709 941.775 260.803C941.41 261.532 941.41 262.626 942.505 263.355H942.87C943.235 263.72 943.6 263.72 943.6 263.72ZM930.823 256.792C931.554 256.792 931.919 256.428 932.284 255.698C932.649 254.969 932.284 253.875 931.554 253.146C930.823 252.782 929.363 252.782 928.998 253.875C928.633 254.605 928.633 255.698 929.728 256.428H930.093C930.093 256.428 930.458 256.792 930.823 256.792ZM917.681 249.5C918.411 249.5 918.776 249.135 919.141 248.406C919.506 247.677 919.141 246.583 918.411 245.854C917.681 245.489 916.221 245.489 915.856 246.583C915.491 247.312 915.491 248.406 916.586 249.135H916.951C916.951 249.135 917.316 249.5 917.681 249.5ZM904.539 242.208C905.269 242.208 905.634 241.843 905.999 241.114C906.364 240.384 905.999 239.291 905.269 238.561H904.904C904.174 238.197 903.079 238.561 902.349 239.291C901.984 240.02 902.349 241.114 903.079 241.843H903.444C904.174 241.843 904.174 242.208 904.539 242.208ZM891.397 234.915C892.127 234.915 892.492 234.551 892.857 233.821C893.222 233.092 892.857 231.998 892.127 231.269C891.397 230.904 889.937 230.904 889.572 231.998C889.207 232.727 889.207 233.821 889.937 234.551H890.302C891.032 234.551 891.397 234.915 891.397 234.915ZM878.62 227.623C879.35 227.623 879.715 227.258 880.08 226.529C880.445 225.8 880.08 224.706 879.35 223.977H878.985C878.255 223.612 877.16 223.977 876.429 224.706C876.064 225.435 876.429 226.529 877.16 227.258H877.525C877.89 227.258 878.255 227.623 878.62 227.623ZM865.478 220.33C866.208 220.33 866.573 219.966 866.938 219.237C867.303 218.507 866.938 217.414 866.208 216.684H865.843C865.113 216.32 864.017 216.684 863.287 217.413C862.922 218.143 863.287 219.237 864.017 219.966H864.382C864.747 220.33 865.113 220.33 865.478 220.33ZM852.335 213.038C853.066 213.038 853.431 212.673 853.796 211.944C854.161 211.215 853.796 210.121 853.066 209.392C852.335 209.027 850.875 209.027 850.51 210.121C850.145 210.85 850.145 211.944 850.875 212.673H851.24C851.605 213.038 851.97 213.038 852.335 213.038ZM839.193 205.746C839.923 205.746 840.288 205.381 840.654 204.652C841.019 203.923 840.654 202.829 839.923 202.1C839.193 201.735 837.733 201.735 837.368 202.829C837.003 203.558 837.003 204.652 837.733 205.381H838.098C838.828 205.746 839.193 205.746 839.193 205.746ZM826.416 198.453C827.146 198.453 827.511 198.089 827.876 197.359C828.241 196.63 827.876 195.536 827.146 194.807H826.781C826.051 194.443 824.956 194.807 824.226 195.536C823.861 196.266 824.226 197.359 824.956 198.089H825.321C825.686 198.453 826.051 198.453 826.416 198.453ZM813.274 191.161C814.004 191.161 814.369 190.796 814.734 190.067C815.099 189.338 814.734 188.244 814.004 187.515H813.639C812.909 187.15 811.814 187.515 811.084 188.244C810.719 188.973 811.084 190.067 811.814 190.796H812.179C812.544 191.161 812.909 191.161 813.274 191.161ZM800.132 183.869C800.862 183.869 801.227 183.504 801.592 182.775C801.957 182.045 801.592 180.952 800.862 180.222C800.132 179.858 798.672 179.858 798.307 180.952C797.942 181.681 797.941 182.775 798.672 183.504H799.037C799.402 183.869 799.767 183.869 800.132 183.869ZM786.99 176.576C787.72 176.576 788.085 176.212 788.45 175.482C788.815 174.753 788.45 173.659 787.72 172.93C786.99 172.565 785.529 172.565 785.164 173.659C784.799 174.388 784.799 175.482 785.529 176.212H785.895C786.625 176.576 786.99 176.576 786.99 176.576ZM774.213 169.284C774.943 169.284 775.308 168.919 775.673 168.19C776.038 167.461 775.673 166.367 774.943 165.638H774.578C773.848 165.273 772.752 165.638 772.022 166.367C771.657 167.096 772.022 168.19 772.752 168.919H773.117C773.482 169.284 773.848 169.284 774.213 169.284ZM761.07 161.991C761.801 161.991 762.166 161.627 762.531 160.898C762.896 160.168 762.531 159.074 761.801 158.345H761.436C760.705 157.981 759.61 158.345 758.88 159.075C758.515 159.804 758.88 160.898 759.61 161.627H759.975C760.34 161.991 760.705 161.991 761.07 161.991ZM747.928 154.699C748.658 154.699 749.023 154.334 749.389 153.605C749.754 152.876 749.389 151.782 748.658 151.053C747.928 150.688 746.468 150.688 746.103 151.782C745.738 152.511 745.738 153.605 746.468 154.334H746.833C747.198 154.699 747.563 154.699 747.928 154.699ZM734.786 147.407C735.516 147.407 735.881 147.042 736.246 146.313C736.611 145.584 736.246 144.49 735.516 143.76C734.786 143.396 733.326 143.396 732.961 144.49C732.596 145.219 732.596 146.313 733.326 147.042H733.691C734.421 147.407 734.786 147.407 734.786 147.407ZM722.009 140.114C722.739 140.114 723.104 139.75 723.469 139.02C723.834 138.291 723.469 137.197 722.739 136.468C722.009 136.104 720.549 136.104 720.184 137.197C719.819 137.927 719.819 139.02 720.914 139.75H721.279C721.279 140.114 721.644 140.114 722.009 140.114ZM708.867 132.822C709.597 132.822 709.962 132.457 710.327 131.728C710.692 130.999 710.327 129.905 709.597 129.176H709.232C708.502 128.811 707.407 129.176 706.677 129.905C706.311 130.634 706.676 131.728 707.407 132.457H707.772C708.137 132.822 708.502 132.822 708.867 132.822ZM695.725 125.53C696.455 125.53 696.82 125.165 697.185 124.436C697.55 123.706 697.185 122.613 696.455 121.883C695.725 121.519 694.264 121.519 693.899 122.613C693.534 123.342 693.534 124.436 694.63 125.165H694.995C694.995 125.53 695.36 125.53 695.725 125.53ZM682.583 118.237C683.313 118.237 683.678 117.873 684.043 117.143C684.408 116.414 684.043 115.32 683.313 114.591C682.582 114.226 681.122 114.226 680.757 115.32C680.392 116.049 680.392 117.143 681.487 117.873H681.852C682.217 118.237 682.583 118.237 682.583 118.237ZM669.805 110.945C670.536 110.945 670.901 110.58 671.266 109.851C671.631 109.122 671.266 108.028 670.536 107.299C669.805 106.934 668.345 106.934 667.98 108.028C667.615 108.757 667.615 109.851 668.71 110.58H669.075C669.075 110.945 669.44 110.945 669.805 110.945ZM656.663 103.652C657.393 103.652 657.758 103.288 658.124 102.559C658.489 101.829 658.124 100.735 657.393 100.006C656.663 99.6416 655.203 99.6416 654.838 100.735C654.473 101.465 654.473 102.559 655.568 103.288H655.933C655.933 103.652 656.298 103.652 656.663 103.652ZM643.521 96.3601C644.251 96.3601 644.616 95.9955 644.981 95.2662C645.346 94.537 644.981 93.4431 644.251 92.7139H643.886C643.156 92.3493 642.061 92.7139 641.331 93.4431C640.966 94.1724 641.331 95.2662 642.061 95.9954H642.426C642.791 96.3601 643.156 96.3601 643.521 96.3601ZM630.379 89.0677C631.109 89.0677 631.474 88.7031 631.839 87.9738C632.204 87.2446 631.839 86.1507 631.109 85.4215C630.379 85.0569 628.919 85.0569 628.554 86.1507C628.189 86.88 628.189 87.9738 628.919 88.7031H629.284C630.014 89.0677 630.014 89.0677 630.379 89.0677ZM617.602 81.7753C618.332 81.7753 618.697 81.4107 619.062 80.6815C619.427 79.9522 619.062 78.8584 618.332 78.1291C617.602 77.7645 616.142 77.7645 615.777 78.8584C615.411 79.5876 615.411 80.6815 616.142 81.4107H616.507C616.872 81.7753 617.237 81.7753 617.602 81.7753ZM604.46 74.8475C605.19 74.8475 605.555 74.4829 605.92 73.7537C606.285 73.0245 605.92 71.9306 605.19 71.2014H604.825C604.095 70.8367 602.999 71.2014 602.269 71.9306C601.904 72.6599 602.269 73.7537 602.999 74.4829H603.365C603.73 74.4829 604.095 74.8475 604.46 74.8475ZM591.318 67.5552C592.048 67.5552 592.413 67.1906 592.778 66.4613C593.143 65.7321 592.778 64.6382 592.048 63.909C591.317 63.5444 589.857 63.5444 589.492 64.6382C589.127 65.3675 589.127 66.4613 589.857 67.1906H590.222C590.587 67.1906 590.952 67.5552 591.318 67.5552Z" fill="#BDCEFA"/>
<path d="M1113.35 358.522C1114.45 358.522 1115.18 357.792 1115.18 356.698C1115.18 355.968 1114.82 355.238 1114.08 354.873C1113.35 354.509 1111.89 354.509 1111.53 355.603C1111.16 356.333 1111.16 357.427 1111.89 357.792C1112.26 358.157 1112.62 358.522 1113.35 358.522Z" fill="#BDCEFA"/>
<path d="M1113.36 467.177C1114.45 467.177 1115.18 466.447 1115.18 465.353V464.989C1115.18 463.895 1114.45 463.166 1113.36 463.166C1112.26 463.166 1111.53 463.895 1111.53 464.989V465.353C1111.53 466.083 1112.26 467.177 1113.36 467.177ZM1113.36 451.498C1114.45 451.498 1115.18 450.769 1115.18 449.675V449.31C1115.18 448.216 1114.45 447.487 1113.36 447.487C1112.26 447.487 1111.53 448.216 1111.53 449.31V449.675C1111.53 450.769 1112.26 451.498 1113.36 451.498ZM1113.36 436.184C1114.45 436.184 1115.18 435.455 1115.18 434.361V433.996C1115.18 432.902 1114.45 432.173 1113.36 432.173C1112.26 432.173 1111.53 432.902 1111.53 433.996V434.361C1111.53 435.09 1112.26 436.184 1113.36 436.184ZM1113.36 420.505C1114.45 420.505 1115.18 419.776 1115.18 418.682V418.318C1115.18 417.224 1114.45 416.495 1113.36 416.495C1112.26 416.495 1111.53 417.224 1111.53 418.318V418.682C1111.53 419.776 1112.26 420.505 1113.36 420.505ZM1113.36 405.191C1114.45 405.191 1115.18 404.462 1115.18 403.368V403.004C1115.18 401.91 1114.45 401.181 1113.36 401.181C1112.26 401.181 1111.53 401.91 1111.53 403.004V403.368C1111.53 404.098 1112.26 405.191 1113.36 405.191ZM1113.36 389.513C1114.45 389.513 1115.18 388.784 1115.18 387.69V387.325C1115.18 386.231 1114.45 385.502 1113.36 385.502C1112.26 385.502 1111.53 386.231 1111.53 387.325V387.69C1111.53 388.784 1112.26 389.513 1113.36 389.513ZM1113.36 374.199C1114.45 374.199 1115.18 373.47 1115.18 372.376V372.011C1115.18 370.917 1114.45 370.188 1113.36 370.188C1112.26 370.188 1111.53 370.917 1111.53 372.011V372.376C1111.53 373.105 1112.26 374.199 1113.36 374.199Z" fill="#BDCEFA"/>
<path d="M1113.35 482.492C1114.45 482.492 1115.18 481.762 1115.18 480.668C1115.18 479.573 1114.45 478.844 1113.35 478.844C1112.26 478.844 1111.53 479.573 1111.53 480.668C1111.53 481.397 1112.26 482.492 1113.35 482.492Z" fill="#BDCEFA"/>
<path d="M1341.88 554.32C1342.25 554.32 1342.61 553.956 1342.61 553.591V407.744L1342.25 407.379L1256.46 362.166C1256.09 361.802 1255.36 362.166 1255.36 362.531C1255 362.895 1255.36 363.625 1255.73 363.625L1340.78 408.837V553.591C1341.15 553.956 1341.52 554.32 1341.88 554.32Z" fill="#BDCEFA"/>
<path d="M1280.18 788.77C1281.28 788.77 1282.01 788.041 1282.01 786.947V786.583C1282.01 785.489 1281.28 784.759 1280.18 784.759C1279.09 784.759 1278.36 785.489 1278.36 786.583C1278.36 787.676 1279.45 788.77 1280.18 788.77ZM1280.18 773.821C1281.28 773.821 1282.01 773.092 1282.01 771.998V771.633C1282.01 770.539 1281.28 769.81 1280.18 769.81C1279.09 769.81 1278.36 770.539 1278.36 771.633V771.998C1278.36 773.092 1279.45 773.821 1280.18 773.821ZM1280.18 758.871C1281.28 758.871 1282.01 758.142 1282.01 757.048V756.684C1282.01 755.59 1281.28 754.861 1280.18 754.861C1279.09 754.861 1278.36 755.59 1278.36 756.684C1278.36 757.778 1279.45 758.871 1280.18 758.871ZM1280.18 743.922C1281.28 743.922 1282.01 743.193 1282.01 742.099V741.734C1282.01 740.641 1281.28 739.911 1280.18 739.911C1279.09 739.911 1278.36 740.641 1278.36 741.734V742.099C1278.36 743.193 1279.45 743.922 1280.18 743.922ZM1280.18 728.973C1281.28 728.973 1282.01 728.244 1282.01 727.15V726.785C1282.01 725.691 1281.28 724.962 1280.18 724.962C1279.09 724.962 1278.36 725.691 1278.36 726.785C1278.36 727.879 1279.45 728.973 1280.18 728.973ZM1280.18 714.023C1281.28 714.023 1282.01 713.294 1282.01 712.2V711.836C1282.01 710.742 1281.28 710.013 1280.18 710.013C1279.09 710.013 1278.36 710.742 1278.36 711.836C1278.36 712.93 1279.45 714.023 1280.18 714.023ZM1280.18 699.074C1281.28 699.074 1282.01 698.345 1282.01 697.251V696.886C1282.01 695.792 1281.28 695.063 1280.18 695.063C1279.09 695.063 1278.36 695.792 1278.36 696.886V697.251C1278.36 698.345 1279.45 699.074 1280.18 699.074ZM1280.18 684.125C1281.28 684.125 1282.01 683.395 1282.01 682.302V681.937C1282.01 680.843 1281.28 680.114 1280.18 680.114C1279.09 680.114 1278.36 680.843 1278.36 681.937C1278.36 683.031 1279.45 684.125 1280.18 684.125ZM1280.18 669.175C1281.28 669.175 1282.01 668.446 1282.01 667.352V666.988C1282.01 665.894 1281.28 665.164 1280.18 665.164C1279.09 665.164 1278.36 665.894 1278.36 666.988V667.352C1278.36 668.446 1279.45 669.175 1280.18 669.175ZM1280.18 654.226C1281.28 654.226 1282.01 653.497 1282.01 652.403V652.038C1282.01 650.944 1281.28 650.215 1280.18 650.215C1279.09 650.215 1278.36 650.944 1278.36 652.038C1278.36 653.132 1279.45 654.226 1280.18 654.226ZM1280.18 639.276C1281.28 639.276 1282.01 638.547 1282.01 637.453V637.089C1282.01 635.995 1281.28 635.266 1280.18 635.266C1279.09 635.266 1278.36 635.995 1278.36 637.089V637.453C1278.36 638.547 1279.45 639.276 1280.18 639.276ZM1280.18 624.327C1281.28 624.327 1282.01 623.598 1282.01 622.504V622.139C1282.01 621.046 1281.28 620.316 1280.18 620.316C1279.09 620.316 1278.36 621.046 1278.36 622.139V622.504C1278.36 623.598 1279.45 624.327 1280.18 624.327ZM1280.18 609.378C1281.28 609.378 1282.01 608.649 1282.01 607.555V607.19C1282.01 606.096 1281.28 605.367 1280.18 605.367C1279.09 605.367 1278.36 606.096 1278.36 607.19C1278.36 608.284 1279.45 609.378 1280.18 609.378ZM1280.18 594.428C1281.28 594.428 1282.01 593.699 1282.01 592.605V592.241C1282.01 591.147 1281.28 590.418 1280.18 590.418C1279.09 590.418 1278.36 591.147 1278.36 592.241V592.605C1278.36 593.699 1279.45 594.428 1280.18 594.428ZM1280.18 579.479C1281.28 579.479 1282.01 578.75 1282.01 577.656V577.291C1282.01 576.197 1281.28 575.468 1280.18 575.468C1279.09 575.468 1278.36 576.197 1278.36 577.291V577.656C1278.36 578.75 1279.45 579.479 1280.18 579.479ZM1280.18 564.53C1281.28 564.53 1282.01 563.8 1282.01 562.707V562.342C1282.01 561.248 1281.28 560.519 1280.18 560.519C1279.09 560.519 1278.36 561.248 1278.36 562.342V562.707C1278.36 563.8 1279.45 564.53 1280.18 564.53ZM1280.18 549.58C1281.28 549.58 1282.01 548.851 1282.01 547.757V547.393C1282.01 546.299 1281.28 545.569 1280.18 545.569C1279.09 545.569 1278.36 546.299 1278.36 547.393V547.757C1278.36 548.851 1279.45 549.58 1280.18 549.58ZM1280.18 534.631C1281.28 534.631 1282.01 533.902 1282.01 532.808V532.443C1282.01 531.349 1281.28 530.62 1280.18 530.62C1279.09 530.62 1278.36 531.349 1278.36 532.443C1278.36 533.537 1279.45 534.631 1280.18 534.631ZM1280.18 519.681C1281.28 519.681 1282.01 518.952 1282.01 517.858V517.494C1282.01 516.4 1281.28 515.671 1280.18 515.671C1279.09 515.671 1278.36 516.4 1278.36 517.494V517.858C1278.36 518.952 1279.45 519.681 1280.18 519.681ZM1280.18 504.732C1281.28 504.732 1282.01 504.003 1282.01 502.909V502.544C1282.01 501.451 1281.28 500.721 1280.18 500.721C1279.09 500.721 1278.36 501.451 1278.36 502.544V502.909C1278.36 504.003 1279.45 504.732 1280.18 504.732ZM1280.18 489.783C1281.28 489.783 1282.01 489.053 1282.01 487.96V487.595C1282.01 486.501 1281.28 485.772 1280.18 485.772C1279.09 485.772 1278.36 486.501 1278.36 487.595V487.96C1278.36 489.053 1279.45 489.783 1280.18 489.783ZM1280.18 474.833C1281.28 474.833 1282.01 474.104 1282.01 473.01V472.646C1282.01 471.552 1281.28 470.823 1280.18 470.823C1279.09 470.823 1278.36 471.552 1278.36 472.646V473.01C1278.36 474.104 1279.45 474.833 1280.18 474.833ZM1280.18 459.884C1281.28 459.884 1282.01 459.155 1282.01 458.061V457.696C1282.01 456.602 1281.28 455.873 1280.18 455.873C1279.09 455.873 1278.36 456.602 1278.36 457.696C1278.36 458.79 1279.45 459.884 1280.18 459.884ZM1280.18 444.935C1281.28 444.935 1282.01 444.205 1282.01 443.112V442.747C1282.01 441.653 1281.28 440.924 1280.18 440.924C1279.09 440.924 1278.36 441.653 1278.36 442.747V443.112C1278.36 444.205 1279.45 444.935 1280.18 444.935ZM1280.18 429.985C1281.28 429.985 1282.01 429.256 1282.01 428.162V427.798C1282.01 426.704 1281.28 425.974 1280.18 425.974C1279.09 425.974 1278.36 426.704 1278.36 427.798V428.162C1278.36 429.256 1279.45 429.985 1280.18 429.985ZM1280.18 415.036C1281.28 415.036 1282.01 414.307 1282.01 413.213V412.848C1282.01 411.754 1281.28 411.025 1280.18 411.025C1279.09 411.025 1278.36 411.754 1278.36 412.848V413.213C1278.36 414.307 1279.45 415.036 1280.18 415.036ZM1280.18 400.086C1281.28 400.086 1282.01 399.357 1282.01 398.263V397.899C1282.01 396.805 1281.28 396.076 1280.18 396.076C1279.09 396.076 1278.36 396.805 1278.36 397.899V398.263C1278.36 399.357 1279.45 400.086 1280.18 400.086ZM1280.18 385.137C1281.28 385.137 1282.01 384.408 1282.01 383.314V382.949C1282.01 381.856 1281.28 381.126 1280.18 381.126C1279.09 381.126 1278.36 381.856 1278.36 382.949C1278.36 384.043 1279.45 385.137 1280.18 385.137ZM1280.18 370.188C1281.28 370.188 1282.01 369.458 1282.01 368.365V368C1282.01 366.906 1281.28 366.177 1280.18 366.177C1279.09 366.177 1278.36 366.906 1278.36 368V368.365C1278.36 369.458 1279.45 370.188 1280.18 370.188ZM1280.18 355.238C1281.28 355.238 1282.01 354.509 1282.01 353.415V353.051C1282.01 351.957 1281.28 351.228 1280.18 351.228C1279.09 351.228 1278.36 351.957 1278.36 353.051V353.415C1278.36 354.509 1279.45 355.238 1280.18 355.238ZM1280.18 340.289C1281.28 340.289 1282.01 339.56 1282.01 338.466V338.101C1282.01 337.007 1281.28 336.278 1280.18 336.278C1279.09 336.278 1278.36 337.007 1278.36 338.101V338.466C1278.36 339.56 1279.45 340.289 1280.18 340.289ZM1280.18 325.34C1281.28 325.34 1282.01 324.61 1282.01 323.516V323.152C1282.01 322.058 1281.28 321.329 1280.18 321.329C1279.09 321.329 1278.36 322.058 1278.36 323.152V323.516C1278.36 324.61 1279.45 325.34 1280.18 325.34ZM1280.18 310.39C1281.28 310.39 1282.01 309.661 1282.01 308.567V308.202C1282.01 307.109 1281.28 306.379 1280.18 306.379C1279.09 306.379 1278.36 307.109 1278.36 308.202C1278.36 309.296 1279.45 310.39 1280.18 310.39ZM1280.18 295.441C1281.28 295.441 1282.01 294.712 1282.01 293.618V293.253C1282.01 292.159 1281.28 291.43 1280.18 291.43C1279.09 291.43 1278.36 292.159 1278.36 293.253V293.618C1278.36 294.712 1279.45 295.441 1280.18 295.441ZM1280.18 280.492C1281.28 280.492 1282.01 279.762 1282.01 278.668V278.304C1282.01 277.21 1281.28 276.481 1280.18 276.481C1279.09 276.481 1278.36 277.21 1278.36 278.304V278.668C1278.36 279.762 1279.45 280.492 1280.18 280.492ZM1280.18 265.542C1281.28 265.542 1282.01 264.813 1282.01 263.719V263.354C1282.01 262.261 1281.28 261.531 1280.18 261.531C1279.09 261.531 1278.36 262.261 1278.36 263.354V263.719C1278.36 264.813 1279.45 265.542 1280.18 265.542ZM1280.18 250.593C1281.28 250.593 1282.01 249.863 1282.01 248.77V248.405C1282.01 247.311 1281.28 246.582 1280.18 246.582C1279.09 246.582 1278.36 247.311 1278.36 248.405V248.77C1278.36 249.863 1279.45 250.593 1280.18 250.593ZM1273.25 240.019C1273.98 240.019 1274.34 239.654 1274.71 238.925C1275.07 238.196 1275.07 237.102 1273.98 236.373H1273.61C1272.88 236.008 1271.79 236.008 1271.06 237.102C1270.69 237.831 1270.69 238.925 1271.79 239.654H1272.15C1272.52 239.654 1272.88 240.019 1273.25 240.019ZM1260.11 232.362C1260.84 232.362 1261.57 231.997 1261.57 231.633C1261.93 230.903 1261.93 229.809 1261.2 229.08H1260.84C1260.11 228.716 1259.01 228.716 1258.28 229.809C1257.92 230.539 1257.92 231.633 1259.01 232.362C1259.38 232.362 1259.74 232.362 1260.11 232.362ZM1246.96 225.069C1247.69 225.069 1248.42 224.705 1248.42 224.34C1248.79 223.611 1248.79 222.517 1248.06 221.788H1247.69C1246.96 221.423 1245.87 221.423 1245.14 222.517C1244.77 223.246 1244.77 224.34 1245.87 225.069C1246.23 224.705 1246.6 225.069 1246.96 225.069ZM1234.19 217.777C1234.92 217.777 1235.28 217.412 1235.65 216.683C1236.01 215.954 1236.01 214.86 1234.92 214.131H1234.55C1233.82 213.766 1232.73 213.766 1232 214.86C1231.63 215.589 1231.63 216.683 1232.73 217.412H1233.09C1233.82 217.412 1233.82 217.777 1234.19 217.777ZM1221.04 210.12C1221.77 210.12 1222.5 209.755 1222.5 209.391C1222.87 208.662 1222.87 207.568 1222.14 206.838H1221.77C1221.04 206.474 1219.95 206.474 1219.22 207.568C1218.85 208.297 1218.85 209.391 1219.95 210.12C1220.31 210.12 1220.68 210.12 1221.04 210.12ZM1208.27 202.828C1209 202.828 1209.73 202.463 1209.73 202.098C1210.09 201.369 1210.09 200.275 1209.36 199.546H1209C1208.27 199.181 1207.17 199.181 1206.44 200.275C1206.08 201.005 1206.08 202.098 1207.17 202.828C1207.54 202.463 1207.9 202.828 1208.27 202.828ZM1195.13 195.535C1195.86 195.535 1196.22 195.171 1196.59 194.441C1196.95 193.712 1196.95 192.618 1195.86 191.889H1195.49C1194.76 191.524 1193.67 191.524 1192.93 192.618C1192.57 193.348 1192.57 194.441 1193.67 195.171H1194.03C1194.76 195.535 1195.13 195.535 1195.13 195.535ZM1181.98 187.878C1182.71 187.878 1183.44 187.514 1183.44 187.149C1183.81 186.42 1183.81 185.326 1183.08 184.597H1182.71C1181.98 184.232 1180.89 184.232 1180.16 185.326C1179.79 186.055 1179.79 187.149 1180.89 187.878C1181.25 187.878 1181.62 187.878 1181.98 187.878ZM1169.21 180.586C1169.94 180.586 1170.67 180.221 1170.67 179.857C1171.03 179.127 1171.03 178.034 1170.3 177.304H1169.94C1169.21 176.94 1168.11 176.94 1167.38 178.034C1167.02 178.763 1167.02 179.857 1168.11 180.586C1168.48 180.221 1168.84 180.586 1169.21 180.586ZM1156.43 173.294C1157.16 173.294 1157.52 172.929 1157.89 172.2C1158.25 171.47 1158.25 170.377 1157.16 169.647H1156.79C1156.06 169.283 1154.97 169.283 1154.24 170.377C1153.87 171.106 1153.87 172.2 1154.97 172.929H1155.33C1155.7 173.294 1156.06 173.294 1156.43 173.294ZM1142.92 165.637C1143.65 165.637 1144.38 165.272 1144.38 164.907C1144.75 164.178 1144.75 163.084 1144.02 162.355H1143.65C1142.92 161.99 1141.83 161.99 1141.1 163.084C1140.73 163.813 1140.73 164.907 1141.83 165.637C1142.56 165.637 1142.92 165.637 1142.92 165.637ZM1130.14 158.344C1130.87 158.344 1131.6 157.98 1131.6 157.615C1131.97 156.886 1131.97 155.792 1131.24 155.063H1130.87C1130.14 154.698 1129.05 154.698 1128.32 155.792C1127.95 156.521 1127.95 157.615 1129.05 158.344C1129.41 157.98 1129.78 158.344 1130.14 158.344ZM1117.37 151.052C1118.1 151.052 1118.46 150.687 1118.83 149.958C1119.19 149.229 1119.19 148.135 1118.1 147.406H1117.73C1117 147.041 1115.91 147.041 1115.18 148.135C1114.81 148.864 1114.81 149.958 1115.91 150.687H1116.27C1116.64 151.052 1117 151.052 1117.37 151.052Z" fill="#BDCEFA"/>
<path d="M1019.9 257.52C1020.63 257.52 1021.36 257.156 1021.36 256.791C1021.72 256.062 1021.72 254.968 1020.99 254.239H1020.63C1019.9 253.874 1018.8 253.874 1018.07 254.968C1017.71 255.697 1017.71 256.791 1018.8 257.52C1019.17 257.52 1019.53 257.52 1019.9 257.52ZM1026.1 253.145C1027.2 253.145 1027.93 252.416 1027.93 251.322V250.957C1027.93 249.863 1027.2 249.134 1026.1 249.134C1025.01 249.134 1024.28 249.863 1024.28 250.957V251.322C1024.28 252.416 1025.01 253.145 1026.1 253.145ZM1007.12 249.863C1007.85 249.863 1008.58 249.499 1008.58 249.134C1008.94 248.405 1008.94 247.311 1008.21 246.582H1007.85C1007.12 246.217 1006.02 246.217 1005.29 247.311C1004.93 248.04 1004.93 249.134 1006.02 249.863C1006.39 249.863 1006.75 249.863 1007.12 249.863ZM993.977 242.571C994.707 242.571 995.437 242.207 995.437 241.842C995.802 241.113 995.802 240.019 995.072 239.29H994.707C993.977 238.925 992.881 238.925 992.151 240.019C991.786 240.748 991.786 241.842 992.881 242.571C993.246 242.571 993.611 242.571 993.977 242.571ZM1026.1 238.196C1027.2 238.196 1027.93 237.466 1027.93 236.373V236.008C1027.93 234.914 1027.2 234.185 1026.1 234.185C1025.01 234.185 1024.28 234.914 1024.28 236.008V236.373C1024.28 237.466 1025.01 238.196 1026.1 238.196ZM981.199 234.914C981.93 234.914 982.66 234.55 982.66 234.185C983.025 233.456 983.025 232.362 982.295 231.633H981.93C981.2 231.268 980.104 231.268 979.374 232.362C979.009 233.091 979.009 234.185 980.104 234.914C980.469 234.914 980.834 234.914 981.199 234.914ZM968.422 227.622C969.153 227.622 969.518 227.257 969.883 226.893C970.248 226.163 970.248 225.069 969.153 224.34L968.787 223.976C968.057 223.611 966.962 223.611 966.232 224.705C965.867 225.434 965.867 226.528 966.962 227.257L967.327 227.622C967.692 227.622 968.057 227.622 968.422 227.622ZM1026.1 223.246C1027.2 223.246 1027.93 222.517 1027.93 221.423C1027.93 220.329 1027.2 219.6 1026.1 219.6C1025.01 219.6 1024.28 220.329 1024.28 221.423V221.788C1024.28 222.517 1025.01 223.246 1026.1 223.246ZM955.28 219.965C956.01 219.965 956.741 219.6 956.741 219.236C957.106 218.506 957.106 217.413 956.375 216.683L956.01 216.319C955.28 215.954 954.185 215.954 953.455 217.048C953.09 217.777 953.09 218.871 954.185 219.6C954.55 219.965 954.915 219.965 955.28 219.965ZM942.138 212.672C942.868 212.672 943.598 212.308 943.598 211.943C943.963 211.214 943.963 210.12 943.233 209.391L942.868 209.026C942.138 208.662 941.043 208.662 940.313 209.756C939.948 210.485 939.948 211.579 941.043 212.308C941.408 212.308 941.773 212.672 942.138 212.672ZM1026.1 208.297C1027.2 208.297 1027.93 207.568 1027.93 206.474V206.109C1027.93 205.015 1027.2 204.286 1026.1 204.286C1025.01 204.286 1024.28 205.015 1024.28 206.109V206.474C1024.28 207.568 1025.01 208.297 1026.1 208.297ZM929.361 205.38C930.091 205.38 930.456 205.015 930.821 204.651C931.186 203.922 931.186 202.828 930.091 202.099L929.726 201.734C928.996 201.369 927.901 201.369 927.171 202.463C926.806 203.192 926.806 204.286 927.901 205.015L928.266 205.38C928.631 205.015 928.996 205.38 929.361 205.38ZM916.219 197.723C916.949 197.723 917.679 197.358 917.679 196.994C918.044 196.265 918.044 195.171 917.314 194.442L916.949 194.077C916.219 193.712 915.124 193.712 914.394 194.806C914.029 195.535 914.029 196.629 915.124 197.359C915.489 197.359 915.854 197.723 916.219 197.723ZM1026.1 193.348C1027.2 193.348 1027.93 192.618 1027.93 191.525V191.16C1027.93 190.066 1027.2 189.337 1026.1 189.337C1025.01 189.337 1024.28 190.066 1024.28 191.16V191.525C1024.28 192.618 1025.01 193.348 1026.1 193.348ZM903.442 190.066C904.172 190.066 904.902 189.702 904.902 189.337C905.267 188.608 905.267 187.514 904.537 186.785H904.172C903.442 186.42 902.347 186.42 901.617 187.514C901.252 188.243 901.252 189.337 902.347 190.066C902.712 190.066 903.077 190.066 903.442 190.066ZM890.665 182.774C891.395 182.774 891.76 182.409 892.125 181.68C892.49 180.951 892.49 179.857 891.395 179.128H891.03C890.3 178.763 889.205 178.763 888.474 179.857C888.109 180.586 888.109 181.68 889.205 182.409H889.57C889.935 182.774 890.3 182.774 890.665 182.774ZM877.523 175.117C878.253 175.117 878.983 174.752 878.983 174.388C879.348 173.658 879.348 172.564 878.618 171.835H878.253C877.523 171.471 876.428 171.471 875.697 172.564C875.332 173.294 875.332 174.388 876.428 175.117C876.793 175.117 877.158 175.117 877.523 175.117Z" fill="#BDCEFA"/>
<path d="M110.174 173.294L242.691 249.864C252.182 255.333 269.34 254.604 280.657 248.405L407.698 175.117C419.015 168.554 420.11 158.709 410.253 153.24L277.736 76.6699C268.245 71.2006 251.087 71.9299 239.77 78.1284L112.729 151.417C101.412 157.98 100.317 167.825 110.174 173.294Z" fill="#E8F2FE"/>
<path d="M103.604 642.922V165.636C104.334 168.553 106.16 171.106 109.81 173.293L242.327 249.863C247.073 252.415 253.279 253.874 259.85 253.509V734.077C253.279 734.077 247.073 732.983 242.327 730.431L109.81 653.861C105.065 651.308 102.874 647.298 103.604 642.922Z" fill="url(#paint4_linear)"/>
<path d="M280.294 248.405L407.335 175.116C412.811 172.199 415.731 168.189 416.461 164.542V641.828C417.557 646.569 414.271 652.038 407.335 656.049L280.294 729.337C274.453 732.619 267.152 734.442 259.851 734.442V253.509C267.152 253.509 274.453 251.686 280.294 248.405Z" fill="#DDDDDD"/>
<path d="M280.294 248.405L407.335 175.116C412.811 172.199 415.731 168.189 416.461 164.542V641.828C417.557 646.569 414.271 652.038 407.335 656.049L280.294 729.337C274.453 732.619 267.152 734.442 259.851 734.442V253.509C267.152 253.509 274.453 251.686 280.294 248.405Z" fill="url(#paint5_linear)"/>
<path d="M108.348 997.696L351.113 1133.33C361.7 1139.53 380.683 1138.8 393.095 1131.51L473.773 1083.38C486.185 1076.09 487.645 1065.15 476.693 1058.95L235.024 920.397C224.437 914.199 205.454 914.928 193.042 922.22L111.268 972.902C99.2215 980.559 97.7612 991.498 108.348 997.696Z" fill="#E8F2FE"/>
<path d="M50.3025 762.884L770.201 1177.09C802.692 1195.69 859.641 1193.5 897.242 1171.99L1336.41 919.67C1374.01 898.158 1378.03 864.977 1345.54 846.382L613.225 438.373C580.735 419.778 523.785 421.965 486.184 443.478L59.429 689.595C22.1929 711.108 17.8121 744.288 50.3025 762.884Z" fill="#E8F2FE"/>
<path d="M29.1299 756.684V736.994C30.9551 746.839 38.2563 755.954 50.3033 762.882L770.202 1177.09C785.9 1186.2 807.073 1190.22 829.342 1189.49V1220.84C807.438 1221.21 785.9 1217.56 770.202 1208.45L50.3033 794.239C33.5106 784.395 26.5745 770.539 29.1299 756.684Z" fill="url(#paint6_linear)"/>
<path d="M897.244 1171.62L1336.41 919.668C1354.3 909.459 1364.52 896.333 1366.71 883.936V903.625C1370 919.668 1359.78 937.535 1336.41 951.025L897.244 1203.34C877.896 1214.65 853.072 1220.48 829.343 1221.21V1189.85C853.072 1188.76 877.896 1182.92 897.244 1171.62Z" fill="#C9C9C9"/>
<path d="M897.244 1171.62L1336.41 919.668C1354.3 909.459 1364.52 896.333 1366.71 883.936V903.625C1370 919.668 1359.78 937.535 1336.41 951.025L897.244 1203.34C877.896 1214.65 853.072 1220.48 829.343 1221.21V1189.85C853.072 1188.76 877.896 1182.92 897.244 1171.62Z" fill="url(#paint7_linear)"/>
<path d="M726.393 990.769L876.798 1077.55L1259.02 856.954L1108.98 770.175L726.393 990.769Z" fill="white"/>
<path d="M1259.02 856.954V919.303L876.8 1139.9V1077.55L1259.02 856.954Z" fill="url(#paint8_linear)"/>
<path d="M1038.52 836.9L1104.6 874.82C1109.34 877.737 1117.74 877.373 1123.58 874.091L1186.74 837.629C1192.21 834.348 1192.94 829.608 1188.2 826.691L1122.12 788.77C1117.37 785.853 1108.98 786.218 1103.14 789.5L1039.98 825.962C1034.51 829.243 1033.78 834.348 1038.52 836.9Z" fill="#99CFFF"/>
<path d="M1035.6 862.059V832.89C1035.97 834.348 1037.06 835.807 1038.89 836.9L1104.96 874.821C1107.15 876.279 1110.44 876.644 1113.72 876.644V907.272C1110.44 907.272 1107.15 906.907 1104.96 905.449L1038.89 867.528C1035.97 866.435 1035.24 864.247 1035.6 862.059Z" fill="#70C3FF"/>
<path d="M1123.22 874.456L1186.37 837.994C1188.93 836.536 1190.39 834.713 1190.75 832.525V861.694C1191.12 864.247 1189.66 866.799 1186.37 868.622L1123.22 905.084C1120.3 906.907 1116.65 907.636 1112.99 907.636V877.008C1117.01 877.008 1120.66 875.914 1123.22 874.456Z" fill="#249AEF"/>
<path d="M922.431 904.355L988.507 942.275C993.253 945.192 1001.65 944.827 1007.49 941.546L1070.65 905.084C1076.12 901.802 1076.85 897.062 1072.11 894.145L1006.03 856.225C1001.28 853.308 992.888 853.673 987.047 856.954L923.891 893.416C918.05 896.698 917.32 901.438 922.431 904.355Z" fill="#F9825D"/>
<path d="M919.145 929.513V900.344C919.51 901.802 920.605 903.261 922.43 904.355L988.506 942.275C990.696 943.733 993.982 944.098 997.268 944.098V974.726C993.982 974.726 990.696 974.361 988.506 972.903L922.43 934.983C919.875 933.524 918.78 931.701 919.145 929.513Z" fill="#FF8661"/>
<path d="M1007.12 941.546L1070.28 905.084C1072.83 903.626 1074.29 901.802 1074.66 899.615V928.784C1075.02 931.337 1073.56 933.889 1070.28 935.712L1007.12 972.174C1004.2 973.997 1000.55 974.726 996.902 974.726V944.098C1000.55 944.098 1004.2 943.369 1007.12 941.546Z" fill="#D56144"/>
<path d="M803.42 972.538L869.496 1010.46C874.242 1013.38 882.638 1013.01 888.479 1009.73L951.635 973.268C957.11 969.986 957.841 965.246 953.095 962.329L887.019 924.409C882.273 921.492 873.877 921.856 868.036 925.138L804.88 961.6C799.405 964.881 798.674 969.986 803.42 972.538Z" fill="#98EF7A"/>
<path d="M180.264 713.294C124.013 713.294 78.4126 687.011 78.4126 654.59C78.4126 622.169 124.013 595.887 180.264 595.887C236.515 595.887 282.116 622.169 282.116 654.59C282.116 687.011 236.515 713.294 180.264 713.294Z" fill="white"/>
<path d="M108.348 696.157C148.14 719.128 212.39 719.128 252.182 696.157C271.895 684.854 281.752 669.904 282.117 654.955V718.034C282.117 732.983 272.26 748.297 252.182 759.965C212.39 782.936 148.14 782.936 108.348 759.965C88.2698 748.297 78.4132 733.348 78.4132 718.034V654.955C78.7783 669.904 88.6349 684.854 108.348 696.157Z" fill="url(#paint9_linear)"/>
<path d="M180.266 610.107L118.205 645.839C152.156 665.529 208.375 665.529 242.326 645.839C276.276 626.15 276.276 593.699 242.326 574.374C223.343 563.436 196.693 557.966 169.679 559.789L180.266 610.107Z" fill="#76B5CE"/>
<path d="M242.69 645.839C259.483 635.994 268.244 623.233 268.244 610.106V646.204C268.244 659.33 259.848 672.456 242.69 682.301C208.739 701.99 152.52 701.99 118.57 682.301V645.839C152.52 665.529 208.374 665.529 242.69 645.839Z" fill="#249AEF"/>
<path d="M180.266 610.107L118.205 645.839C152.156 665.529 208.375 665.529 242.326 645.839C276.276 626.15 276.276 593.699 242.326 574.374C223.343 563.436 196.693 557.966 169.679 559.789L180.266 610.107Z" fill="#99CFFF"/>
<path d="M180.266 572.916L170.045 522.598C150.332 524.057 132.444 529.161 118.206 537.183C84.2558 556.872 84.2558 589.323 118.206 608.648L180.266 572.916Z" fill="#F97F58"/>
<path d="M180.266 572.916V610.107L118.206 645.839V608.648L180.266 572.916Z" fill="#D56144"/>
<path d="M92.6501 645.839V572.916C92.6501 585.677 101.411 598.803 118.204 608.284V645.475V681.937C101.046 672.457 92.6501 658.966 92.6501 645.839Z" fill="#FF8661"/>
<path d="M389.443 553.955L534.007 470.458C551.165 460.613 548.975 443.476 529.261 432.173C509.548 420.87 479.613 419.411 462.455 429.256L317.892 512.754C300.734 522.598 302.924 539.735 322.637 551.039C342.716 562.342 372.651 563.8 389.443 553.955Z" fill="white"/>
<path d="M323.002 551.038C342.715 562.341 372.65 563.8 389.808 553.955L534.372 470.457C541.673 466.082 545.689 460.613 546.054 454.414V497.074V497.439C546.054 503.638 542.038 509.471 534.372 513.847L389.808 597.344C372.65 607.189 342.715 606.095 323.002 594.428C311.685 587.864 306.209 579.843 306.574 571.821V528.796C306.574 536.818 312.05 544.839 323.002 551.038Z" fill="url(#paint10_linear)"/>
<path d="M472.68 458.061C479.981 462.437 492.028 462.437 499.694 458.061C506.995 453.686 506.995 446.758 499.694 442.747C492.393 438.372 480.346 438.372 472.68 442.747C465.013 446.758 465.013 453.686 472.68 458.061Z" fill="#BDCEFA"/>
<path d="M430.695 482.126C437.997 486.502 450.044 486.502 457.71 482.126C465.011 477.751 465.011 470.823 457.71 466.812C450.409 462.437 438.362 462.437 430.695 466.812C423.394 470.823 423.394 477.751 430.695 482.126Z" fill="#BDCEFA"/>
<path d="M388.715 506.191C396.016 510.567 408.063 510.567 415.729 506.191C423.031 501.816 423.031 494.888 415.729 490.877C408.428 486.502 396.381 486.502 388.715 490.877C381.414 495.253 381.414 502.18 388.715 506.191Z" fill="#BDCEFA"/>
<path d="M346.732 530.621C354.033 534.996 366.08 534.996 373.747 530.621C381.048 526.245 381.048 519.318 373.747 515.307C366.446 510.932 354.399 510.932 346.732 515.307C339.431 519.318 339.431 526.245 346.732 530.621Z" fill="#BDCEFA"/>
<path d="M450.042 478.845C444.931 479.574 440.185 476.292 439.455 471.188L430.328 419.412C429.598 414.307 432.884 409.567 437.995 408.838C443.106 408.109 447.851 411.39 448.581 416.495L457.708 468.271C458.438 473.011 455.152 477.751 450.042 478.845Z" fill="#F9AB83"/>
<path d="M491.659 482.126C490.198 486.866 484.722 489.783 479.977 488.325L447.851 478.845C442.74 478.48 438.725 474.105 439.09 469C439.455 463.895 443.836 459.884 448.947 460.249L485.453 470.458C490.198 471.917 493.119 477.022 491.659 482.126Z" fill="#F9AB83"/>
<path d="M395.283 634.901C395.283 635.995 396.014 637.088 397.839 638.182C398.204 638.547 397.839 631.619 399.299 632.713C399.664 633.078 421.933 650.579 434.71 647.298C436.17 646.933 436.535 645.839 436.535 644.745V641.829C436.535 638.547 432.154 633.807 424.853 626.879C416.822 619.222 412.076 614.482 400.394 621.045C397.109 622.868 395.648 624.327 395.648 625.785L395.283 634.901Z" fill="#010400"/>
<path d="M424.856 626.879C434.348 635.995 439.459 641.464 434.713 644.381C429.967 647.298 420.11 642.922 410.254 635.265C401.492 628.702 388.715 627.973 400.397 621.045C412.079 614.482 417.19 619.222 424.856 626.879Z" fill="#484968"/>
<path d="M415.362 622.504L414.632 537.183L386.522 546.299L391.268 560.154C391.268 560.154 389.078 578.75 394.919 597.71C394.919 597.71 398.934 606.096 398.204 625.056C398.204 625.056 408.426 630.89 415.362 622.504Z" fill="#F1AC85"/>
<path d="M422.663 612.659C422.663 613.753 423.393 614.847 425.219 615.941C425.584 616.306 425.219 609.378 426.679 610.472C427.044 610.836 449.313 628.338 462.09 625.056C463.55 624.692 463.915 623.598 463.915 622.504V619.587C463.915 616.306 459.534 611.566 452.233 604.638C444.202 596.981 439.456 592.241 427.774 598.804C424.488 600.627 423.028 602.085 423.028 603.544L422.663 612.659Z" fill="#010400"/>
<path d="M452.236 604.638C461.728 613.753 466.838 619.223 462.093 622.14C457.347 625.056 447.49 620.681 437.634 613.024C428.872 606.461 416.095 605.732 427.777 598.804C439.459 592.241 444.205 596.981 452.236 604.638Z" fill="#484968"/>
<path d="M442.742 600.262L442.012 514.941L413.902 524.056L418.648 537.912C418.648 537.912 416.458 556.508 422.298 575.468C422.298 575.468 426.314 583.854 425.584 602.814C425.219 602.45 435.806 608.283 442.742 600.262Z" fill="#E28C66"/>
<path d="M376.3 517.128V548.486C376.3 548.486 413.171 560.883 448.217 517.128V486.5L376.3 517.128Z" fill="#9CE3F0"/>
<path d="M394.19 529.162C394.555 529.526 394.92 529.526 395.285 529.526C401.491 529.891 423.76 525.151 446.028 499.992C447.854 497.804 448.949 495.252 448.949 492.7V421.599C448.949 416.13 447.124 412.484 443.838 410.66L427.045 400.816C424.125 398.993 419.744 399.357 414.998 401.91L391.999 415.036C382.873 420.505 375.207 433.267 375.207 444.205V516.035C375.207 517.858 375.937 518.952 376.667 519.317L394.19 529.162Z" fill="#54A5F8"/>
<path d="M400.394 419.776C400.394 421.599 401.489 423.422 403.679 424.516C408.425 427.069 415.726 427.069 420.472 424.516C422.662 423.058 424.123 421.235 423.758 419.776V404.098C423.758 402.275 422.662 400.451 420.472 399.358C415.726 396.805 408.425 396.805 403.679 399.358C401.489 400.816 400.029 402.639 400.394 404.098V419.776Z" fill="#DD936F"/>
<path d="M401.489 397.899C401.489 401.911 398.933 403.369 395.282 401.546C391.996 399.723 389.076 394.982 389.076 390.971C389.076 386.96 391.631 385.501 395.282 387.324C398.568 389.148 401.489 393.888 401.489 397.899Z" fill="#F9AB83"/>
<path d="M433.25 439.465C433.25 439.465 464.645 411.025 445.662 359.978L431.06 412.848L433.25 439.465Z" fill="#3F4893"/>
<path d="M404.658 410.877C387.199 406.744 376.4 389.257 380.537 371.818C384.675 354.38 402.183 343.594 419.643 347.727C437.102 351.86 447.902 369.347 443.764 386.785C439.626 404.223 422.118 415.01 404.658 410.877Z" fill="#F1AC85"/>
<path d="M421.932 439.465C421.932 439.465 397.838 412.848 414.63 363.26L444.931 373.469C444.931 373.469 455.152 347.946 421.202 340.289C421.202 340.289 398.568 335.184 390.536 354.144C390.536 354.144 372.283 355.603 379.22 393.159C378.854 393.888 379.95 429.256 421.932 439.465Z" fill="#3F4893"/>
<path d="M400.398 499.628C395.652 501.086 390.176 498.169 389.081 493.064L374.844 439.83C373.383 435.09 376.304 429.621 381.415 428.527C386.16 427.068 391.636 429.985 392.732 435.09L406.969 488.324C408.064 493.064 405.509 498.169 400.398 499.628Z" fill="#F9AB83"/>
<path d="M452.235 501.45C451.14 506.555 446.394 509.472 441.283 508.743L398.206 499.992C393.095 499.992 388.715 495.981 388.715 490.877C388.715 485.772 392.73 481.396 397.841 481.396L445.299 490.512C450.41 491.606 453.33 496.346 452.235 501.45Z" fill="#F9AB83"/>
<path d="M1037.79 719.129V399.723C1037.79 391.701 1033.41 384.044 1026.47 380.033L642.064 158.71C627.096 149.959 608.113 160.897 608.113 178.399V497.805C608.113 505.827 612.494 513.484 619.43 517.495L1003.47 738.818C1018.81 747.204 1037.79 736.63 1037.79 719.129Z" fill="white"/>
<path d="M1014.79 734.079C1022.09 734.079 1029.76 728.245 1029.76 719.129V399.723C1029.76 394.254 1026.83 389.514 1022.09 386.597L638.411 165.273C636.22 163.815 633.665 163.085 630.744 163.085C623.443 163.085 615.777 168.919 615.777 178.035V497.441C615.777 502.91 618.697 507.65 623.443 510.567L1007.49 732.256C1009.68 733.349 1012.23 734.079 1014.79 734.079Z" fill="url(#paint11_linear)"/>
<path d="M1037.79 719.128V399.722C1037.79 391.7 1033.41 384.043 1026.47 380.032L642.064 158.709C635.858 155.063 628.556 154.698 622.715 157.25L631.842 152.51C638.778 147.406 648.27 146.312 656.666 151.052L1040.71 372.74C1047.65 376.751 1052.03 384.408 1052.03 392.43V711.836C1052.03 719.493 1048.38 726.056 1042.53 730.066H1042.17C1040.71 731.16 1038.88 731.89 1037.42 732.619L1027.2 738.088C1033.41 733.713 1037.79 727.15 1037.79 719.128Z" fill="url(#paint12_linear)"/>
<path d="M1003.47 777.832L726.758 937.534C719.822 941.545 711.06 941.545 704.124 937.534L319.716 715.846C304.748 707.095 304.748 685.218 319.716 676.467L596.431 516.764C603.367 512.754 612.129 512.754 619.065 516.764L1003.47 738.817C1018.81 747.204 1018.81 769.081 1003.47 777.832Z" fill="white"/>
<path d="M319.716 715.847L704.125 937.535C711.061 941.545 719.822 941.545 726.758 937.535L1003.47 777.832C1011.14 773.456 1014.79 765.799 1014.79 758.142V778.925C1014.79 786.582 1011.14 794.24 1003.47 798.615L726.758 958.318C719.822 962.329 711.061 962.329 704.125 958.318L320.081 736.63C312.78 732.619 309.13 725.327 308.764 718.034V717.67C308.764 717.305 308.764 716.576 308.764 716.211V697.251C308.764 704.543 312.415 711.836 319.716 715.847Z" fill="url(#paint13_linear)"/>
<path d="M463.184 653.496L793.198 843.463C805.975 850.755 828.609 850.026 843.576 841.275L942.873 784.03C957.84 775.279 959.3 762.517 946.523 755.225L616.509 564.894C603.732 557.602 581.098 558.331 566.131 567.082L466.834 624.327C451.867 633.078 450.407 645.839 463.184 653.496Z" fill="#B8D0F6"/>
<path d="M946.159 759.965L616.145 569.634C603.368 562.342 580.734 563.071 565.767 571.822L466.47 629.067C459.534 633.078 455.518 638.182 454.423 643.287C452.963 637.089 457.344 629.796 466.47 624.692L565.767 567.446C580.734 558.696 603.003 557.966 616.145 565.259L946.159 755.59C952.731 759.6 955.651 764.705 954.556 770.539C953.826 766.164 950.905 762.517 946.159 759.965Z" fill="#99B6E0"/>
<path d="M680.03 652.038L697.553 641.828L715.076 652.038L697.553 662.247L680.03 652.038ZM714.345 671.727L731.868 661.518L749.391 671.727L731.868 681.936L714.345 671.727ZM645.349 632.348L662.872 622.139L680.395 632.348L662.872 642.557L645.349 632.348ZM545.688 642.922L509.182 621.774L526.705 611.565L563.211 632.713L545.688 642.922ZM538.752 604.637L556.274 594.428L573.797 604.637L556.274 614.846L538.752 604.637ZM611.034 612.294L628.556 602.085L646.079 612.294L628.556 622.503L611.034 612.294ZM748.661 691.781L766.184 681.572L783.707 691.781L766.184 701.99L748.661 691.781ZM569.052 635.994L870.591 809.917L853.068 820.127L551.529 646.204L569.052 635.994ZM782.977 711.47L800.5 701.261L818.023 711.47L800.5 721.68L782.977 711.47ZM582.924 610.106L900.161 793.145L882.638 803.354L565.401 620.316L582.924 610.106ZM497.135 628.702L841.021 827.055L823.498 837.264L479.612 638.911L497.135 628.702ZM851.973 751.214L869.496 741.005L887.019 751.214L869.496 761.423L851.973 751.214ZM817.658 731.524L835.18 721.315L852.703 731.524L835.18 741.734L817.658 731.524Z" fill="#99B6E0"/>
<path d="M680.03 649.121L697.553 638.912L715.076 649.121L697.553 659.33L680.03 649.121ZM714.345 668.81L731.868 658.601L749.391 668.81L731.868 679.02L714.345 668.81ZM645.349 629.067L662.872 618.858L680.395 629.067L662.872 639.276L645.349 629.067ZM545.688 639.641L509.182 618.493L526.705 608.284L563.211 629.432L545.688 639.641ZM538.752 601.721L556.274 591.511L573.797 601.721L556.274 611.93L538.752 601.721ZM611.034 609.378L628.556 599.168L646.079 609.378L628.556 619.587L611.034 609.378ZM748.661 688.5L766.184 678.291L783.707 688.5L766.184 698.709L748.661 688.5ZM569.052 633.078L870.591 807.001L853.068 817.21L551.529 643.287L569.052 633.078ZM782.977 708.554L800.5 698.345L818.023 708.554L800.5 718.763L782.977 708.554ZM582.924 606.825L900.161 789.864L882.638 800.073L565.401 617.035L582.924 606.825ZM497.135 625.785L841.021 824.138L823.498 834.347L479.612 635.995L497.135 625.785ZM851.973 748.297L869.496 738.088L887.019 748.297L869.496 758.507L851.973 748.297ZM817.658 728.243L835.18 718.034L852.703 728.243L835.18 738.453L817.658 728.243Z" fill="#E4F2FF"/>
<path d="M662.872 620.681L646.809 630.161L645.349 629.432L662.872 619.222L680.395 629.432L678.935 630.161L662.872 620.681ZM628.556 600.627L612.494 610.107L611.034 609.378L628.556 599.168L646.079 609.378L644.619 610.107L628.556 600.627ZM697.553 640.37L681.49 649.85L680.03 649.121L697.553 638.912L715.076 649.121L713.615 649.85L697.553 640.37ZM561.75 630.526L526.705 610.107L510.642 619.587L509.182 618.858L526.705 608.648L563.211 629.796L561.75 630.526ZM731.868 660.424L715.806 669.904L714.345 669.175L731.868 658.966L749.391 669.175L747.931 669.904L731.868 660.424ZM556.274 592.97L540.212 602.45L538.752 601.721L556.274 591.511L573.797 601.721L572.337 602.45L556.274 592.97ZM497.135 625.785L841.021 824.138L839.561 824.867L496.77 627.244L480.707 636.724L479.247 635.995L497.135 625.785ZM566.861 617.764L565.401 617.035L582.924 606.825L900.161 789.864L898.701 790.593L582.924 608.284L566.861 617.764ZM869.496 739.547L853.433 749.027L851.973 748.297L869.496 738.088L887.019 748.297L885.559 749.027L869.496 739.547ZM552.989 644.016L551.529 643.287L569.052 633.078L870.591 807.001L869.131 807.73L569.052 634.536L552.989 644.016ZM834.815 719.857L818.753 729.337L817.292 728.608L834.815 718.399L852.338 728.608L850.878 729.337L834.815 719.857ZM766.184 680.114L750.121 689.594L748.661 688.865L766.184 678.655L783.707 688.865L782.247 689.594L766.184 680.114ZM800.5 699.803L784.437 709.283L782.977 708.554L800.5 698.345L818.023 708.554L816.562 709.283L800.5 699.803Z" fill="white"/>
<path d="M490.198 765.07L593.145 824.502C599.351 828.149 610.668 827.784 617.969 823.409L640.603 810.282C647.904 805.907 648.634 799.708 642.428 795.698L539.481 736.265C533.275 732.619 521.958 732.983 514.657 737.359L492.023 750.485C484.722 754.86 483.627 761.424 490.198 765.07Z" fill="#B8D0F6"/>
<path d="M642.43 798.979L539.483 739.546C533.277 735.9 521.96 736.265 514.659 740.64L492.026 753.766C488.74 755.589 486.915 758.142 486.185 760.33C485.454 757.048 487.28 753.402 492.026 750.485L514.659 737.359C521.96 732.983 533.277 732.619 539.483 736.265L642.43 796.062C646.081 798.25 647.176 800.802 646.446 803.719C645.716 801.896 644.621 800.073 642.43 798.979Z" fill="#99B6E0"/>
<path d="M670.175 274.657V262.989C670.175 252.78 677.476 248.769 686.237 253.874L960.032 411.754C968.794 416.858 976.095 429.255 976.095 439.465V451.133L670.175 274.657Z" fill="white"/>
<path d="M947.618 419.776C947.618 423.787 950.539 428.892 954.19 430.715C957.841 432.903 960.762 431.08 960.762 427.069C960.762 423.058 957.841 417.953 954.19 416.129C950.174 413.941 947.618 415.4 947.618 419.776Z" fill="white"/>
<path d="M924.985 406.649C924.985 410.66 927.906 415.765 931.557 417.589C935.208 419.776 938.129 417.953 938.129 413.942C938.129 409.931 935.208 404.826 931.557 403.002C927.906 400.814 924.985 402.638 924.985 406.649Z" fill="white"/>
<path d="M902.35 393.523C902.35 397.534 905.271 402.64 908.921 404.463C912.572 406.651 915.493 404.828 915.493 400.816C915.493 396.805 912.572 391.7 908.921 389.877C905.271 388.053 902.35 389.512 902.35 393.523Z" fill="white"/>
<path d="M927.176 480.302L975.729 508.013V464.259L927.176 436.184V480.302Z" fill="white" fill-opacity="0.4"/>
<path d="M866.941 445.299L915.129 473.375V429.256L866.941 401.545V445.299Z" fill="white" fill-opacity="0.9"/>
<path opacity="0.7" d="M806.34 410.295L854.893 438.371V394.252L806.34 366.541V410.295Z" fill="white"/>
<path d="M789.548 400.816L670.174 331.903V322.787L789.548 391.7V400.816Z" fill="url(#paint14_linear)"/>
<path d="M789.548 383.678L670.174 314.401V305.285L789.548 374.198V383.678Z" fill="url(#paint15_linear)"/>
<path d="M789.548 366.176L670.174 297.263V287.783L789.548 357.061V366.176Z" fill="url(#paint16_linear)"/>
<path d="M680.76 432.173L965.142 596.251C970.983 599.533 975.729 595.886 975.729 588.229V535.36C975.729 527.703 970.983 518.587 965.142 515.306L680.76 351.227C674.92 347.946 670.174 351.592 670.174 359.249V412.119C670.174 420.14 674.92 428.891 680.76 432.173Z" fill="white"/>
<path d="M850.878 518.587L887.749 540.1V494.158L850.878 472.646V518.587Z" fill="#99CFFF"/>
<path d="M804.15 491.97L841.386 513.118V474.833L804.15 453.321V491.97Z" fill="#98EF7A"/>
<path d="M757.786 464.989L795.023 486.501V430.35L757.786 408.837V464.989Z" fill="#F97F58"/>
<path d="M690.982 420.871L680.76 415.401V405.92L690.982 411.754V420.871Z" fill="#F97F58"/>
<path d="M690.982 403.734L680.76 397.899V388.783L690.982 394.253V403.734Z" fill="#F97F58"/>
<path d="M690.982 386.232L680.76 380.398V371.281L690.982 377.116V386.232Z" fill="#F97F58"/>
<path d="M747.202 453.685L695.729 423.786V414.671L747.202 444.205V453.685Z" fill="url(#paint17_linear)"/>
<path d="M747.202 436.183L695.729 406.284V397.168L747.202 427.067V436.183Z" fill="url(#paint18_linear)"/>
<path d="M747.202 418.681L695.729 389.147V379.667L747.202 409.566V418.681Z" fill="url(#paint19_linear)"/>
<path d="M954.554 529.161L964.412 534.996V544.112L954.554 538.277V529.161Z" fill="#99CFFF"/>
<path d="M954.554 546.663L964.412 552.132V561.613L954.554 555.779V546.663Z" fill="#99CFFF"/>
<path d="M954.554 563.799L964.412 569.634V578.75L954.554 572.916V563.799Z" fill="#99CFFF"/>
<path d="M897.971 496.71L949.81 526.244V535.724L897.971 505.825V496.71Z" fill="url(#paint20_linear)"/>
<path d="M897.971 513.847L949.81 543.746V552.861L897.971 522.963V513.847Z" fill="url(#paint21_linear)"/>
<path d="M897.971 531.349L949.81 560.883V570.363L897.971 540.464V531.349Z" fill="url(#paint22_linear)"/>
<path d="M690.617 482.854L950.905 633.077C956.381 636.359 960.762 632.713 960.762 625.785C960.762 618.493 956.381 610.106 950.905 607.19L690.617 456.967C685.141 453.685 680.761 457.331 680.761 464.259C680.761 471.187 685.141 479.938 690.617 482.854Z" fill="white"/>
<path d="M961.493 676.102L1208.27 818.304C1215.94 822.679 1222.15 817.939 1222.15 807.73V574.738C1222.15 564.529 1215.94 552.496 1208.27 548.121L961.493 405.92C953.826 401.544 947.62 406.284 947.62 416.494V649.485C947.62 660.059 953.826 671.727 961.493 676.102Z" fill="url(#paint23_linear)"/>
<path d="M969.158 652.402L1200.97 785.852V768.715L969.158 634.9V652.402Z" fill="url(#paint24_linear)"/>
<path d="M1013.33 547.027C1013.33 592.605 1045.45 648.027 1084.88 670.998C1124.31 693.969 1156.43 675.373 1156.43 629.796C1156.43 584.219 1124.31 528.797 1084.88 505.826C1045.45 482.855 1013.33 501.45 1013.33 547.027Z" fill="url(#paint25_linear)"/>
<path d="M454.791 318.776L701.572 460.977C709.238 465.353 715.444 460.613 715.444 450.403V268.459C715.444 258.249 709.238 246.217 701.572 241.842L454.791 99.6403C447.125 95.2649 440.919 100.005 440.919 110.214V292.159C440.919 302.733 447.125 314.401 454.791 318.776Z" fill="url(#paint26_linear)"/>
<path d="M462.453 288.148L693.901 421.963V404.462L462.453 271.011V288.148Z" fill="url(#paint27_linear)"/>
<path d="M462.453 252.781L693.901 386.231V368.729L462.453 235.279V252.781Z" fill="url(#paint28_linear)"/>
<path d="M627.095 306.015L689.155 342.112V270.282L627.095 234.549V306.015Z" fill="url(#paint29_linear)"/>
<path d="M547.148 260.072L609.208 295.805V223.975L547.148 188.242V260.072Z" fill="url(#paint30_linear)"/>
<path d="M466.832 213.766L529.258 249.863V178.033L466.832 141.936V213.766Z" fill="url(#paint31_linear)"/>
<path d="M235.021 915.293L259.115 924.044L268.972 934.983C268.972 934.983 286.13 942.275 299.637 956.495C299.637 956.495 304.748 964.152 321.906 972.538C321.906 972.538 321.906 984.571 311.319 986.394L243.053 947.015C238.307 944.098 235.021 939.358 234.656 933.889C233.926 929.878 233.926 923.68 235.021 915.293Z" fill="#E28C66"/>
<path d="M265.322 1023.22L266.052 938.265L289.051 945.922L289.416 961.601C289.416 961.601 291.606 980.196 285.765 998.792C285.765 998.792 281.75 1006.81 282.48 1026.14C282.845 1025.77 272.258 1031.61 265.322 1023.22Z" fill="#F1AC85"/>
<path d="M202.531 903.99C207.277 906.178 212.753 903.99 214.578 899.25L251.084 818.669C253.275 813.929 251.084 808.46 246.338 806.637C241.593 804.449 236.117 806.637 234.291 811.377L197.785 891.958C195.595 896.333 197.785 902.167 202.531 903.99Z" fill="#E28C66"/>
<path d="M198.881 894.875L256.195 862.059V815.752L198.881 848.933V894.875Z" fill="url(#paint32_linear)"/>
<path d="M213.117 882.479V847.475L211.656 848.204V883.208L213.117 882.479Z" fill="#A29AFB"/>
<path d="M215.672 870.446V846.017L214.576 846.746V871.175L215.672 870.446Z" fill="#A29AFB"/>
<path d="M218.593 876.645V844.193L217.133 844.923V877.374L218.593 876.645Z" fill="#A29AFB"/>
<path d="M221.148 877.739V842.735L220.052 843.464V878.468L221.148 877.739Z" fill="#A29AFB"/>
<path d="M224.069 854.039V840.911L222.974 841.64V854.768L224.069 854.039Z" fill="#A29AFB"/>
<path d="M304.384 918.211V949.568C304.384 949.568 267.513 961.965 232.832 918.211V887.947L304.384 918.211Z" fill="#FF9100"/>
<path d="M287.589 928.055C287.224 928.42 286.859 928.42 286.494 928.42C280.288 928.785 258.02 924.045 235.751 898.886C233.926 896.698 232.83 894.146 232.83 891.593V820.493C232.83 815.023 234.656 811.377 237.941 809.554L254.734 799.709C257.655 797.886 262.035 798.251 266.781 800.803L289.415 813.929C298.541 819.399 306.208 832.16 306.208 842.734V914.2C306.208 916.023 305.477 917.117 304.747 917.481L287.589 928.055Z" fill="#FFFFEB"/>
<path d="M281.02 819.034C281.02 820.857 279.925 822.68 277.734 823.774C272.988 826.326 265.687 826.326 260.941 823.774C258.751 822.315 257.291 820.492 257.656 819.034V803.355C257.656 801.532 258.751 799.709 260.941 798.615C265.687 796.063 272.988 796.063 277.734 798.615C279.925 800.074 281.385 801.897 281.02 803.355V819.034Z" fill="#DD936F"/>
<path d="M344.175 920.398C348.556 918.211 350.381 912.377 348.191 908.001L308.034 828.514C305.844 824.139 300.003 822.316 295.622 824.504C291.241 826.691 289.416 832.525 291.606 836.901L331.763 916.388C333.953 921.128 339.429 922.951 344.175 920.398Z" fill="#F9AB83"/>
<path d="M239.405 770.175L227.723 815.388C226.627 819.763 231.008 823.41 235.024 821.587L261.673 810.283C263.864 809.189 265.324 807.002 264.959 804.449L256.197 759.966C255.102 755.226 248.896 754.132 246.341 758.143L240.135 768.717C239.77 769.081 239.405 769.446 239.405 770.175Z" fill="#943BBB"/>
<path d="M280.288 797.158C280.288 801.169 282.844 802.628 286.495 800.804C289.781 798.981 292.702 794.241 292.702 790.229C292.702 786.218 290.146 784.759 286.495 786.583C282.844 788.406 280.288 793.147 280.288 797.158Z" fill="#F9AB83"/>
<path d="M269.339 811.013C251.395 811.013 236.848 796.484 236.848 778.562C236.848 760.64 251.395 746.111 269.339 746.111C287.283 746.111 301.829 760.64 301.829 778.562C301.829 796.484 287.283 811.013 269.339 811.013Z" fill="#F9AB83"/>
<path d="M301.097 782.937C301.097 782.937 273.718 797.886 260.211 758.872C260.211 758.872 252.91 775.28 235.387 771.634C235.387 771.634 235.387 746.11 262.036 741.006C261.671 741.006 308.764 736.266 301.097 782.937Z" fill="#943BBB"/>
<path d="M285.767 784.396L274.086 829.608C272.99 833.984 277.371 837.63 281.387 835.807L308.036 824.504C310.226 823.41 311.687 821.222 311.322 818.67L302.56 774.186C301.465 769.446 295.259 768.352 292.704 772.363L286.498 782.937C286.133 783.302 286.133 783.666 285.767 784.396Z" fill="#943BBB"/>
<path d="M544.96 922.949C545.325 926.595 539.484 932.064 530.722 937.169C519.041 943.732 515.025 952.118 500.788 944.097C496.772 941.909 494.947 939.721 494.947 938.263V929.512C494.582 925.501 504.438 922.949 512.835 917.844C524.516 911.281 536.928 907.635 542.769 910.916C544.23 911.646 544.96 912.739 544.96 914.198V922.949Z" fill="black"/>
<path d="M530.72 928.054C542.402 921.491 548.608 914.198 542.767 910.917C536.926 907.635 524.514 911.281 512.832 917.845C501.15 924.408 486.548 926.96 500.785 934.982C515.022 943.004 519.403 934.617 530.72 928.054Z" fill="#2D0D60"/>
<path d="M512.834 900.708C513.199 904.354 507.358 909.824 498.597 914.928C486.915 921.491 482.899 929.878 468.662 921.856C464.646 919.668 462.821 917.48 462.821 916.022V907.271C462.456 903.26 472.312 900.708 480.709 895.603C492.391 889.04 504.803 885.394 510.644 888.676C512.104 889.405 512.834 890.499 512.834 891.957V900.708Z" fill="black"/>
<path d="M498.595 905.812C510.276 899.249 516.482 891.957 510.642 888.675C504.801 885.394 492.388 889.04 480.707 895.603C469.025 902.166 454.422 904.718 468.66 912.74C482.897 921.126 487.278 912.375 498.595 905.812Z" fill="#2D0D60"/>
<path d="M525.609 635.63C521.228 632.713 515.387 634.171 512.467 638.547L473.04 701.261C470.12 705.637 471.58 711.471 475.961 714.388C480.342 717.305 486.182 715.846 489.103 711.471L528.529 648.756C531.45 644.381 529.99 638.182 525.609 635.63Z" fill="#FCC4B7"/>
<path d="M499.689 704.178L486.912 724.232C482.531 731.16 473.405 732.983 466.834 728.972C459.898 724.597 458.072 715.481 462.088 708.918L474.865 688.864C474.865 688.499 490.928 682.665 499.689 704.178Z" fill="#293677"/>
<path d="M495.307 925.137C494.942 924.408 494.577 923.314 494.577 922.22V823.044C494.577 816.845 501.148 811.741 508.815 811.741C516.846 811.741 523.052 816.845 523.052 823.044V930.971C523.052 932.43 521.957 933.888 520.497 934.253C515.386 936.076 502.244 938.264 495.307 925.137Z" fill="#55D1FF"/>
<path d="M463.184 901.801C462.819 901.072 462.453 899.978 462.453 898.884L464.644 799.707C464.644 793.509 471.215 788.404 479.246 788.769C487.278 788.769 493.484 794.238 493.484 800.437L491.293 907.999C491.293 909.458 490.198 910.916 488.738 911.281C482.897 913.104 469.755 915.292 463.184 901.801Z" fill="#55D1FF"/>
<path d="M518.673 840.911C518.308 841.275 517.943 841.275 517.578 841.275C511.372 841.64 488.373 836.9 465.375 811.012C463.549 808.824 462.454 805.907 462.454 803.719V730.796C462.454 725.326 464.28 721.316 467.565 719.492L484.723 709.648C488.008 707.825 492.024 708.189 497.135 710.742L520.499 724.232C529.99 729.702 537.656 743.193 537.656 754.131V827.42C537.656 829.243 536.926 830.337 535.831 831.066L518.673 840.911Z" fill="#5258A6"/>
<path d="M512.101 728.608C512.101 730.431 511.006 732.254 508.45 733.713C503.705 736.265 496.038 736.265 491.293 733.713C488.737 732.254 487.642 730.431 487.642 728.608V712.565C487.642 710.742 488.737 708.919 491.293 707.46C496.038 704.908 503.705 704.908 508.45 707.46C511.006 708.919 512.101 710.742 512.101 712.565V728.608Z" fill="#F1AC85"/>
<path d="M500.056 720.587C481.709 720.587 466.835 705.731 466.835 687.406C466.835 669.081 481.709 654.226 500.056 654.226C518.403 654.226 533.276 669.081 533.276 687.406C533.276 705.731 518.403 720.587 500.056 720.587Z" fill="#FCC4B7"/>
<path d="M557.733 834.713C562.844 832.89 565.399 827.785 563.574 822.681L538.385 754.862C536.56 749.757 531.449 747.205 526.338 749.028C521.227 750.851 518.672 755.956 520.497 761.06L545.686 828.879C547.511 833.984 552.622 836.536 557.733 834.713Z" fill="#FCC4B7"/>
<path d="M519.399 773.82L511.733 751.214C509.178 743.557 513.193 735.171 520.859 732.618C528.526 730.066 536.922 734.077 539.478 741.734L547.144 764.34C547.144 764.34 541.668 780.383 519.399 773.82Z" fill="#293677"/>
<path fill-rule="evenodd" clip-rule="evenodd" d="M481.069 717.67C491.655 723.869 499.687 719.129 502.607 714.753C509.908 703.45 511.004 711.107 515.384 705.638C520.86 696.523 519.765 683.761 527.431 677.927C538.748 669.541 535.462 653.133 506.258 645.476C467.196 635.631 451.499 684.855 475.958 713.295C477.783 715.847 478.878 716.576 481.069 717.67Z" fill="#E58800"/>
<path d="M511.736 707.462C514.657 710.379 517.578 709.285 518.673 705.639C519.769 701.627 518.308 696.522 515.387 693.605C512.467 690.688 509.546 691.782 508.451 695.428C507.355 699.075 508.816 704.545 511.736 707.462Z" fill="#FCC4B7"/>
<path d="M778.237 1017.02C776.412 1015.2 773.492 1011.55 772.031 1007.18C772.031 1006.81 772.031 1006.81 772.031 1006.45V992.228C772.031 989.311 771.301 986.758 769.841 984.206C768.746 982.018 766.555 980.56 764 980.56C764 980.56 740.271 990.769 731.51 971.444C730.78 969.986 731.51 968.163 733.335 967.798C735.16 967.434 737.351 965.975 739.906 961.964C740.636 960.87 741.731 960.506 742.827 960.87C745.017 961.6 749.398 961.6 753.413 956.86C753.778 956.13 754.508 956.13 755.239 956.13C759.619 956.13 775.317 956.86 783.713 963.058C785.539 964.517 814.743 989.675 781.523 1017.02C780.793 1017.75 778.967 1017.75 778.237 1017.02Z" fill="#331202"/>
<defs>
<linearGradient id="paint0_linear" x1="1252.86" y1="7.8272" x2="1423.87" y2="373.476" gradientUnits="userSpaceOnUse">
<stop stop-color="#E4F2FF"/>
<stop offset="0.3075" stop-color="#D7E6FD" stop-opacity="0.6923"/>
<stop offset="0.9993" stop-color="#BDCEFA" stop-opacity="0"/>
</linearGradient>
<linearGradient id="paint1_linear" x1="1136.42" y1="4.95564" x2="1006.55" y2="532.998" gradientUnits="userSpaceOnUse">
<stop stop-color="#E4F2FF"/>
<stop offset="0.3075" stop-color="#D7E6FD" stop-opacity="0.6923"/>
<stop offset="0.9993" stop-color="#BDCEFA" stop-opacity="0"/>
</linearGradient>
<linearGradient id="paint2_linear" x1="825.93" y1="-253.362" x2="831.725" y2="45.4126" gradientUnits="userSpaceOnUse">
<stop stop-color="#E4F2FF"/>
<stop offset="0.3075" stop-color="#D7E6FD" stop-opacity="0.6923"/>
<stop offset="0.9993" stop-color="#BDCEFA" stop-opacity="0"/>
</linearGradient>
<linearGradient id="paint3_linear" x1="1249.09" y1="359.37" x2="1301.25" y2="745.181" gradientUnits="userSpaceOnUse">
<stop stop-color="#E4F2FF"/>
<stop offset="0.3075" stop-color="#D7E6FD" stop-opacity="0.6923"/>
<stop offset="0.9993" stop-color="#BDCEFA" stop-opacity="0"/>
</linearGradient>
<linearGradient id="paint4_linear" x1="61.844" y1="212.204" x2="320.538" y2="726.568" gradientUnits="userSpaceOnUse">
<stop stop-color="#E4F2FF"/>
<stop offset="0.0555438" stop-color="#E1EFFF"/>
<stop offset="0.6478" stop-color="#C7D7FB"/>
<stop offset="0.9993" stop-color="#BDCEFA"/>
</linearGradient>
<linearGradient id="paint5_linear" x1="7.19159" y1="-42.9118" x2="425.096" y2="579.837" gradientUnits="userSpaceOnUse">
<stop stop-color="#E4F2FF"/>
<stop offset="0.0555438" stop-color="#E1EFFF"/>
<stop offset="0.6478" stop-color="#C7D7FB"/>
<stop offset="0.9993" stop-color="#BDCEFA"/>
</linearGradient>
<linearGradient id="paint6_linear" x1="-40.1045" y1="623.041" x2="883.263" y2="1334.86" gradientUnits="userSpaceOnUse">
<stop stop-color="#E4F2FF"/>
<stop offset="0.0555438" stop-color="#E1EFFF"/>
<stop offset="0.6478" stop-color="#C7D7FB"/>
<stop offset="0.9993" stop-color="#BDCEFA"/>
</linearGradient>
<linearGradient id="paint7_linear" x1="491.459" y1="1138.3" x2="857.716" y2="1086.48" gradientUnits="userSpaceOnUse">
<stop stop-color="#E4F2FF"/>
<stop offset="0.0555438" stop-color="#E1EFFF"/>
<stop offset="0.6478" stop-color="#C7D7FB"/>
<stop offset="0.9993" stop-color="#BDCEFA"/>
</linearGradient>
<linearGradient id="paint8_linear" x1="504.806" y1="1161.72" x2="1183.69" y2="964.39" gradientUnits="userSpaceOnUse">
<stop stop-color="#E4F2FF"/>
<stop offset="0.0555438" stop-color="#E1EFFF"/>
<stop offset="0.6478" stop-color="#C7D7FB"/>
<stop offset="0.9993" stop-color="#BDCEFA"/>
</linearGradient>
<linearGradient id="paint9_linear" x1="4.09396" y1="708.467" x2="279.714" y2="717.604" gradientUnits="userSpaceOnUse">
<stop stop-color="#E4F2FF"/>
<stop offset="0.0555438" stop-color="#E1EFFF"/>
<stop offset="0.6478" stop-color="#C7D7FB"/>
<stop offset="0.9993" stop-color="#BDCEFA"/>
</linearGradient>
<linearGradient id="paint10_linear" x1="304.789" y1="587.701" x2="518.223" y2="466.243" gradientUnits="userSpaceOnUse">
<stop stop-color="#E4F2FF"/>
<stop offset="0.0555438" stop-color="#E1EFFF"/>
<stop offset="0.6478" stop-color="#C7D7FB"/>
<stop offset="0.9993" stop-color="#BDCEFA"/>
</linearGradient>
<linearGradient id="paint11_linear" x1="1025.19" y1="448.582" x2="615.777" y2="448.582" gradientUnits="userSpaceOnUse">
<stop stop-color="#A4B7FA"/>
<stop offset="1" stop-color="#ADDDFF"/>
</linearGradient>
<linearGradient id="paint12_linear" x1="662.119" y1="111.032" x2="1090.46" y2="622.009" gradientUnits="userSpaceOnUse">
<stop stop-color="#E4F2FF"/>
<stop offset="0.0555438" stop-color="#E1EFFF"/>
<stop offset="0.6478" stop-color="#C7D7FB"/>
<stop offset="0.9993" stop-color="#BDCEFA"/>
</linearGradient>
<linearGradient id="paint13_linear" x1="200.231" y1="772.751" x2="860.799" y2="859.514" gradientUnits="userSpaceOnUse">
<stop stop-color="#E4F2FF"/>
<stop offset="0.0555438" stop-color="#E1EFFF"/>
<stop offset="0.6478" stop-color="#C7D7FB"/>
<stop offset="0.9993" stop-color="#BDCEFA"/>
</linearGradient>
<linearGradient id="paint14_linear" x1="789.696" y1="361.874" x2="670.092" y2="361.874" gradientUnits="userSpaceOnUse">
<stop stop-color="#FCFDFF" stop-opacity="0"/>
<stop offset="0.796875" stop-color="white"/>
</linearGradient>
<linearGradient id="paint15_linear" x1="789.696" y1="344.555" x2="670.092" y2="344.555" gradientUnits="userSpaceOnUse">
<stop stop-color="#FCFDFF" stop-opacity="0"/>
<stop offset="0.796875" stop-color="white"/>
</linearGradient>
<linearGradient id="paint16_linear" x1="789.696" y1="327.053" x2="670.092" y2="327.053" gradientUnits="userSpaceOnUse">
<stop stop-color="#FCFDFF" stop-opacity="0"/>
<stop offset="0.796875" stop-color="white"/>
</linearGradient>
<linearGradient id="paint17_linear" x1="752.107" y1="452.855" x2="661.149" y2="396.886" gradientUnits="userSpaceOnUse">
<stop stop-color="#FCFDFF" stop-opacity="0"/>
<stop offset="0.760417" stop-color="#F97F58"/>
</linearGradient>
<linearGradient id="paint18_linear" x1="752.107" y1="435.353" x2="661.149" y2="379.384" gradientUnits="userSpaceOnUse">
<stop stop-color="#FCFDFF" stop-opacity="0"/>
<stop offset="0.760417" stop-color="#F97F58"/>
</linearGradient>
<linearGradient id="paint19_linear" x1="752.107" y1="417.851" x2="661.149" y2="361.882" gradientUnits="userSpaceOnUse">
<stop stop-color="#FCFDFF" stop-opacity="0"/>
<stop offset="0.760417" stop-color="#F97F58"/>
</linearGradient>
<linearGradient id="paint20_linear" x1="886.303" y1="490.614" x2="989.176" y2="560.443" gradientUnits="userSpaceOnUse">
<stop stop-color="#FCFDFF" stop-opacity="0"/>
<stop offset="0.807292" stop-color="#99CFFF"/>
</linearGradient>
<linearGradient id="paint21_linear" x1="886.303" y1="507.751" x2="989.176" y2="577.58" gradientUnits="userSpaceOnUse">
<stop stop-color="#FCFDFF" stop-opacity="0"/>
<stop offset="0.807292" stop-color="#99CFFF"/>
</linearGradient>
<linearGradient id="paint22_linear" x1="886.303" y1="525.253" x2="989.176" y2="595.082" gradientUnits="userSpaceOnUse">
<stop stop-color="#FCFDFF" stop-opacity="0"/>
<stop offset="0.807292" stop-color="#99CFFF"/>
</linearGradient>
<linearGradient id="paint23_linear" x1="937.073" y1="352.471" x2="1214.34" y2="840.728" gradientUnits="userSpaceOnUse">
<stop stop-color="#E4F2FF"/>
<stop offset="0.3075" stop-color="#D7E6FD" stop-opacity="0.6923"/>
<stop offset="0.9993" stop-color="#BDCEFA" stop-opacity="0"/>
</linearGradient>
<linearGradient id="paint24_linear" x1="915.632" y1="420.114" x2="1111.89" y2="757.332" gradientUnits="userSpaceOnUse">
<stop stop-color="#E4F2FF"/>
<stop offset="0.0555438" stop-color="#E1EFFF"/>
<stop offset="0.6478" stop-color="#C7D7FB"/>
<stop offset="0.9993" stop-color="#BDCEFA"/>
</linearGradient>
<linearGradient id="paint25_linear" x1="968.86" y1="389.135" x2="1165.12" y2="726.353" gradientUnits="userSpaceOnUse">
<stop stop-color="#E4F2FF"/>
<stop offset="0.0555438" stop-color="#E1EFFF"/>
<stop offset="0.6478" stop-color="#C7D7FB"/>
<stop offset="0.9993" stop-color="#BDCEFA"/>
</linearGradient>
<linearGradient id="paint26_linear" x1="440.919" y1="98.0108" x2="748.413" y2="427.387" gradientUnits="userSpaceOnUse">
<stop stop-color="#E4F2FF"/>
<stop offset="0.3075" stop-color="#D7E6FD" stop-opacity="0.6923"/>
<stop offset="0.9993" stop-color="white" stop-opacity="0.66"/>
</linearGradient>
<linearGradient id="paint27_linear" x1="404.321" y1="193.037" x2="704.833" y2="458.704" gradientUnits="userSpaceOnUse">
<stop stop-color="#E4F2FF"/>
<stop offset="0.0555438" stop-color="#E1EFFF"/>
<stop offset="0.6478" stop-color="#C7D7FB"/>
<stop offset="0.9993" stop-color="#BDCEFA"/>
</linearGradient>
<linearGradient id="paint28_linear" x1="421.979" y1="173.064" x2="722.491" y2="438.731" gradientUnits="userSpaceOnUse">
<stop stop-color="#E4F2FF"/>
<stop offset="0.0555438" stop-color="#E1EFFF"/>
<stop offset="0.6478" stop-color="#C7D7FB"/>
<stop offset="0.9993" stop-color="#BDCEFA"/>
</linearGradient>
<linearGradient id="paint29_linear" x1="468.246" y1="120.729" x2="768.756" y2="386.394" gradientUnits="userSpaceOnUse">
<stop stop-color="#E4F2FF"/>
<stop offset="0.0555438" stop-color="#E1EFFF"/>
<stop offset="0.6478" stop-color="#C7D7FB"/>
<stop offset="0.9993" stop-color="#BDCEFA"/>
</linearGradient>
<linearGradient id="paint30_linear" x1="456.111" y1="134.456" x2="756.622" y2="400.121" gradientUnits="userSpaceOnUse">
<stop stop-color="#E4F2FF"/>
<stop offset="0.0555438" stop-color="#E1EFFF"/>
<stop offset="0.6478" stop-color="#C7D7FB"/>
<stop offset="0.9993" stop-color="#BDCEFA"/>
</linearGradient>
<linearGradient id="paint31_linear" x1="443.972" y1="148.184" x2="744.483" y2="413.851" gradientUnits="userSpaceOnUse">
<stop stop-color="#E4F2FF"/>
<stop offset="0.0555438" stop-color="#E1EFFF"/>
<stop offset="0.6478" stop-color="#C7D7FB"/>
<stop offset="0.9993" stop-color="#BDCEFA"/>
</linearGradient>
<linearGradient id="paint32_linear" x1="191.575" y1="869.363" x2="261.907" y2="841.884" gradientUnits="userSpaceOnUse">
<stop stop-color="#E8E9FF"/>
<stop offset="0.9996" stop-color="#C0C0F6"/>
</linearGradient>
</defs>
</svg>
