<svg width="1042" height="800" viewBox="0 0 1042 800" fill="none" xmlns="http://www.w3.org/2000/svg">
<g opacity="0.15">
<path opacity="0.15" d="M35.6077 761.225L553.996 1050.04C576.996 1063.2 617.309 1061.65 643.926 1046.43L946.018 872.209C972.635 856.981 975.478 833.494 952.478 820.331L434.09 531.516C411.091 518.353 370.777 519.901 344.16 535.129L42.0682 709.347C15.7095 724.833 12.6085 748.062 35.6077 761.225Z" fill="#BDCEFA"/>
</g>
<path d="M1035.69 373.299C1038.53 373.299 1041.89 370.977 1041.89 367.105V237.796C1041.89 235.732 1040.6 233.667 1038.79 232.634L882.963 142.815C881.929 142.299 880.896 142.041 879.862 142.041C877.019 142.041 873.66 144.364 873.66 148.235V277.544C873.66 279.609 874.952 281.674 876.761 282.706L1032.59 372.525C1033.62 373.041 1034.65 373.299 1035.69 373.299Z" fill="url(#paint0_linear)"/>
<path d="M919.4 561.197C925.602 561.197 932.58 556.293 932.58 548.034V271.349C932.58 266.704 929.995 262.316 926.119 259.993L592.759 67.9659C590.692 66.6754 588.624 66.1592 586.298 66.1592C580.096 66.1592 573.119 71.0631 573.119 79.3223V356.265C573.119 360.91 575.703 365.298 579.579 367.621L912.94 559.39C915.007 560.681 917.074 561.197 919.4 561.197Z" fill="url(#paint1_linear)"/>
<path d="M656.846 191.338C659.43 191.338 662.272 189.273 662.272 185.918V71.3212C662.272 69.5145 661.239 67.7078 659.688 66.6754L521.693 -13.0777C520.917 -13.5939 519.884 -13.8521 519.108 -13.8521C516.524 -13.8521 513.682 -11.7872 513.682 -8.43193V106.165C513.682 107.972 514.715 109.778 516.266 110.811L654.262 190.306C655.037 191.08 656.07 191.338 656.846 191.338Z" fill="url(#paint2_linear)"/>
<path d="M978.836 647.144C981.421 647.144 984.263 645.08 984.263 641.724V527.128C984.263 525.321 983.23 523.514 981.679 522.482L843.683 442.987C842.908 442.471 841.874 442.212 841.099 442.212C838.515 442.212 835.672 444.277 835.672 447.633V562.229C835.672 564.036 836.706 565.843 838.257 566.875L976.252 646.37C977.027 646.886 978.061 647.144 978.836 647.144Z" fill="url(#paint3_linear)"/>
<path d="M597.877 218.107C594.344 212.244 594.256 205.823 597.68 203.765C601.104 201.707 606.743 204.79 610.276 210.653C613.809 216.515 613.897 222.936 610.473 224.994C607.049 227.053 601.41 223.969 597.877 218.107Z" fill="#BDCEFA"/>
<path d="M564.333 191.339C564.333 196.759 568.209 203.728 573.119 206.309C578.029 209.148 581.905 206.825 581.905 201.405C581.905 195.985 578.029 189.016 573.119 186.435C568.209 183.596 564.333 185.919 564.333 191.339Z" fill="#BDCEFA"/>
<path d="M533.063 173.529C533.063 178.949 536.939 185.918 541.849 188.499C546.759 191.08 550.635 189.015 550.635 183.595C550.635 178.175 546.759 171.206 541.849 168.625C537.197 165.786 533.063 167.851 533.063 173.529Z" fill="#BDCEFA"/>
<path d="M774.945 199.081L736.699 209.664C735.407 209.922 733.598 208.889 732.564 207.341L694.318 152.881L774.945 199.081Z" fill="#BDCEFA"/>
<path d="M747.81 210.438L774.427 254.315C774.944 253.799 775.203 253.025 775.203 251.992V202.953L747.81 210.438Z" fill="#BDCEFA"/>
<path d="M723.777 198.823L696.901 212.244C697.677 213.019 698.452 213.793 699.486 214.309L769.259 254.573C770.034 255.089 770.809 255.347 771.584 255.347L744.967 211.212L734.372 214.051L723.777 198.823Z" fill="#BDCEFA"/>
<path d="M694.058 156.236V205.275C694.058 206.307 694.317 207.34 694.834 208.372L721.192 194.951L694.058 156.236Z" fill="#BDCEFA"/>
<path d="M426.594 222.311C426.852 222.311 427.11 222.052 427.11 221.794V32.0902L685.788 181.531C686.046 181.789 686.563 181.531 686.563 181.273C686.821 181.014 686.563 180.498 686.304 180.498L425.818 30.0254V222.052C425.818 222.052 426.077 222.311 426.594 222.311Z" fill="#BDCEFA"/>
<path d="M409.28 223.086C410.056 223.086 410.573 222.57 410.573 221.795V221.537C410.573 220.762 410.056 220.246 409.28 220.246C408.505 220.246 407.987 220.762 407.987 221.537C407.987 222.57 408.505 223.086 409.28 223.086Z" fill="#BDCEFA"/>
<path d="M409.281 213.277C410.056 213.277 410.573 212.761 410.573 211.986V211.728C410.573 210.954 410.056 210.438 409.281 210.438C408.506 210.438 407.989 210.954 407.989 211.728C407.989 212.503 408.506 213.277 409.281 213.277ZM409.281 203.211C410.056 203.211 410.573 202.695 410.573 201.921V201.662C410.573 200.888 410.056 200.372 409.281 200.372C408.506 200.372 407.989 200.888 407.989 201.662C407.989 202.437 408.506 203.211 409.281 203.211ZM409.281 193.145C410.056 193.145 410.573 192.629 410.573 191.855C410.573 191.08 410.056 190.564 409.281 190.564C408.506 190.564 407.989 191.08 407.989 191.855C407.989 192.371 408.506 193.145 409.281 193.145ZM409.281 183.079C410.056 183.079 410.573 182.563 410.573 181.789V181.531C410.573 180.756 410.056 180.24 409.281 180.24C408.506 180.24 407.989 180.756 407.989 181.531C407.989 182.563 408.506 183.079 409.281 183.079ZM409.281 173.271C410.056 173.271 410.573 172.755 410.573 171.981V171.723C410.573 170.948 410.056 170.432 409.281 170.432C408.506 170.432 407.989 170.948 407.989 171.723C407.989 172.497 408.506 173.271 409.281 173.271ZM409.281 163.205C410.056 163.205 410.573 162.689 410.573 161.915V161.657C410.573 160.882 410.056 160.366 409.281 160.366C408.506 160.366 407.989 160.882 407.989 161.657C407.989 162.431 408.506 163.205 409.281 163.205ZM409.281 153.139C410.056 153.139 410.573 152.623 410.573 151.849V151.591C410.573 150.816 410.056 150.3 409.281 150.3C408.506 150.3 407.989 150.816 407.989 151.591C407.989 152.365 408.506 153.139 409.281 153.139Z" fill="#BDCEFA"/>
<path d="M409.28 143.333C409.797 143.333 410.056 143.075 410.314 142.817C410.314 142.817 410.314 142.817 410.314 142.558C410.573 142.042 410.573 141.267 409.797 140.751C409.28 140.493 408.763 140.493 408.505 140.751C407.987 141.009 407.729 141.267 407.729 141.784C407.987 142.558 408.505 143.333 409.28 143.333Z" fill="#BDCEFA"/>
<path d="M779.076 349.297C779.593 349.297 779.851 349.039 780.11 348.522C780.368 348.006 780.11 347.232 779.593 346.716H779.334C778.817 346.458 778.042 346.716 777.525 347.232C777.267 347.748 777.525 348.522 778.042 349.039H778.301C778.559 349.297 778.817 349.297 779.076 349.297ZM769.773 344.135C770.29 344.135 770.548 343.877 770.806 343.36C771.065 342.844 770.806 342.07 770.29 341.554H770.031C769.514 341.296 768.739 341.554 768.222 342.07C767.964 342.586 768.222 343.36 768.739 343.877H768.998C769.256 344.135 769.514 344.135 769.773 344.135ZM760.47 338.973C760.987 338.973 761.245 338.715 761.503 338.198C761.762 337.682 761.503 336.908 760.987 336.392C760.47 336.134 759.436 336.134 759.178 336.908C758.919 337.424 758.919 338.198 759.436 338.715H759.694C759.953 338.973 760.211 338.973 760.47 338.973ZM751.167 333.811C751.683 333.811 751.942 333.553 752.2 333.036C752.459 332.52 752.2 331.746 751.683 331.23H751.425C750.908 330.972 750.133 331.23 749.616 331.746C749.358 332.262 749.616 333.036 750.133 333.553H750.391C750.908 333.811 750.908 333.811 751.167 333.811ZM741.864 328.649C742.38 328.649 742.639 328.391 742.897 327.874C743.156 327.358 742.897 326.584 742.38 326.068H742.122C741.605 325.81 740.83 326.068 740.313 326.584C740.055 327.1 740.313 327.874 740.83 328.391H741.088C741.605 328.649 741.864 328.649 741.864 328.649ZM732.819 323.487C733.336 323.487 733.594 323.229 733.853 322.712C734.111 322.196 733.853 321.422 733.336 320.906C732.819 320.647 731.785 320.647 731.527 321.422C731.268 321.938 731.268 322.712 731.785 323.228H732.044C732.302 323.487 732.56 323.487 732.819 323.487ZM723.516 318.325C724.033 318.325 724.291 318.066 724.55 317.55C724.808 317.034 724.55 316.26 724.033 315.744C723.516 315.485 722.482 315.485 722.224 316.26C721.965 316.776 721.965 317.55 722.482 318.066H722.741C722.999 318.325 723.257 318.325 723.516 318.325ZM714.213 313.163C714.73 313.163 714.988 312.904 715.246 312.388C715.505 311.872 715.246 311.098 714.73 310.582H714.471C713.954 310.323 713.179 310.582 712.662 311.098C712.404 311.614 712.662 312.388 713.179 312.904H713.437C713.954 313.163 713.954 313.163 714.213 313.163ZM704.91 308.001C705.427 308.001 705.685 307.742 705.943 307.226C706.202 306.71 705.943 305.936 705.427 305.42H705.168C704.651 305.161 703.876 305.42 703.359 305.936C703.101 306.452 703.359 307.226 703.876 307.742H704.134C704.651 308.001 704.91 308.001 704.91 308.001ZM695.865 302.839C696.382 302.839 696.64 302.58 696.899 302.064C697.157 301.548 696.899 300.774 696.382 300.258C695.865 299.999 694.831 299.999 694.573 300.774C694.314 301.29 694.315 302.064 695.09 302.58H695.348C695.348 302.839 695.607 302.839 695.865 302.839ZM686.562 297.677C687.079 297.677 687.337 297.418 687.596 296.902C687.854 296.386 687.596 295.612 687.079 295.096C686.562 294.837 685.528 294.837 685.27 295.612C685.011 296.128 685.011 296.902 685.787 297.418H686.045C686.045 297.676 686.304 297.677 686.562 297.677ZM677.259 292.514C677.776 292.514 678.034 292.256 678.293 291.74C678.551 291.224 678.293 290.45 677.776 289.933C677.259 289.675 676.225 289.675 675.967 290.45C675.708 290.966 675.708 291.74 676.484 292.256H676.742C677 292.514 677 292.514 677.259 292.514ZM667.956 287.352C668.473 287.352 668.731 287.094 668.989 286.578C669.248 286.062 668.989 285.288 668.473 284.771C667.956 284.513 666.922 284.513 666.664 285.288C666.405 285.804 666.405 286.578 667.181 287.094H667.439C667.697 287.352 667.956 287.352 667.956 287.352ZM658.911 282.449C659.428 282.449 659.686 282.19 659.945 281.674C660.203 281.158 659.945 280.384 659.428 279.868C658.911 279.609 657.877 279.609 657.619 280.384C657.361 280.9 657.361 281.674 658.136 282.19H658.394C658.394 282.19 658.653 282.449 658.911 282.449ZM649.608 277.287C650.125 277.287 650.383 277.028 650.642 276.512C650.9 275.996 650.642 275.222 650.125 274.706C649.608 274.447 648.574 274.447 648.316 275.222C648.058 275.738 648.058 276.512 648.833 277.028H649.091C649.091 277.028 649.35 277.287 649.608 277.287ZM640.305 272.125C640.822 272.125 641.08 271.866 641.339 271.35C641.597 270.834 641.339 270.06 640.822 269.544H640.563C640.047 269.285 639.271 269.544 638.754 270.06C638.496 270.576 638.754 271.35 639.271 271.866H639.53C640.047 271.866 640.047 272.125 640.305 272.125ZM631.002 266.963C631.519 266.963 631.777 266.704 632.036 266.188C632.294 265.672 632.036 264.898 631.519 264.382C631.002 264.123 629.968 264.123 629.71 264.898C629.451 265.414 629.451 266.188 629.968 266.704H630.227C630.743 266.704 631.002 266.963 631.002 266.963ZM621.957 261.8C622.474 261.8 622.732 261.542 622.991 261.026C623.249 260.51 622.991 259.736 622.474 259.219H622.216C621.699 258.961 620.924 259.219 620.407 259.736C620.148 260.252 620.407 261.026 620.924 261.542H621.182C621.44 261.542 621.699 261.8 621.957 261.8ZM612.654 256.638C613.171 256.638 613.429 256.38 613.688 255.864C613.946 255.348 613.688 254.574 613.171 254.057H612.913C612.396 253.799 611.62 254.057 611.104 254.574C610.845 255.09 611.104 255.864 611.62 256.38H611.879C612.137 256.638 612.396 256.638 612.654 256.638ZM603.351 251.476C603.868 251.476 604.126 251.218 604.385 250.702C604.643 250.186 604.385 249.412 603.868 248.895C603.351 248.637 602.317 248.637 602.059 249.412C601.801 249.928 601.801 250.702 602.317 251.218H602.576C602.834 251.476 603.093 251.476 603.351 251.476ZM594.048 246.314C594.565 246.314 594.823 246.056 595.082 245.54C595.34 245.024 595.082 244.25 594.565 243.733C594.048 243.475 593.014 243.475 592.756 244.25C592.497 244.766 592.498 245.54 593.014 246.056H593.273C593.79 246.314 594.048 246.314 594.048 246.314ZM585.003 241.152C585.52 241.152 585.779 240.894 586.037 240.378C586.295 239.862 586.037 239.088 585.52 238.571H585.262C584.745 238.313 583.97 238.571 583.453 239.088C583.194 239.604 583.453 240.378 583.97 240.894H584.228C584.486 241.152 584.745 241.152 585.003 241.152ZM575.7 235.99C576.217 235.99 576.476 235.732 576.734 235.216C576.992 234.7 576.734 233.926 576.217 233.409H575.959C575.442 233.151 574.667 233.409 574.15 233.926C573.891 234.442 574.15 235.216 574.667 235.732H574.925C575.183 235.99 575.442 235.99 575.7 235.99ZM566.397 230.828C566.914 230.828 567.172 230.57 567.431 230.054C567.689 229.538 567.431 228.764 566.914 228.247C566.397 227.989 565.364 227.989 565.105 228.764C564.847 229.28 564.847 230.054 565.363 230.57H565.622C565.88 230.828 566.139 230.828 566.397 230.828ZM557.094 225.666C557.611 225.666 557.869 225.408 558.128 224.892C558.386 224.376 558.128 223.602 557.611 223.085C557.094 222.827 556.06 222.827 555.802 223.602C555.544 224.118 555.544 224.892 556.06 225.408H556.319C556.836 225.666 557.094 225.666 557.094 225.666ZM548.049 220.504C548.566 220.504 548.825 220.246 549.083 219.73C549.342 219.214 549.083 218.44 548.566 217.923H548.308C547.791 217.665 547.016 217.923 546.499 218.44C546.241 218.956 546.499 219.73 547.016 220.246H547.274C547.533 220.504 547.791 220.504 548.049 220.504ZM538.746 215.342C539.263 215.342 539.522 215.084 539.78 214.568C540.038 214.052 539.78 213.277 539.263 212.761H539.005C538.488 212.503 537.713 212.761 537.196 213.278C536.937 213.794 537.196 214.568 537.713 215.084H537.971C538.23 215.342 538.488 215.342 538.746 215.342ZM529.443 210.18C529.96 210.18 530.219 209.922 530.477 209.406C530.735 208.89 530.477 208.115 529.96 207.599C529.443 207.341 528.41 207.341 528.151 208.115C527.893 208.632 527.893 209.406 528.41 209.922H528.668C528.926 210.18 529.185 210.18 529.443 210.18ZM520.14 205.018C520.657 205.018 520.915 204.76 521.174 204.244C521.432 203.728 521.174 202.953 520.657 202.437C520.14 202.179 519.107 202.179 518.848 202.953C518.59 203.47 518.59 204.244 519.107 204.76H519.365C519.882 205.018 520.14 205.018 520.14 205.018ZM511.096 199.856C511.612 199.856 511.871 199.598 512.129 199.082C512.388 198.566 512.129 197.791 511.612 197.275C511.096 197.017 510.062 197.017 509.803 197.791C509.545 198.308 509.545 199.082 510.32 199.598H510.579C510.579 199.856 510.837 199.856 511.096 199.856ZM501.792 194.694C502.309 194.694 502.568 194.436 502.826 193.92C503.085 193.404 502.826 192.629 502.309 192.113H502.051C501.534 191.855 500.759 192.113 500.242 192.629C499.984 193.146 500.242 193.92 500.759 194.436H501.017C501.276 194.694 501.534 194.694 501.792 194.694ZM492.489 189.532C493.006 189.532 493.265 189.274 493.523 188.758C493.782 188.242 493.523 187.467 493.006 186.951C492.489 186.693 491.456 186.693 491.197 187.467C490.939 187.984 490.939 188.758 491.714 189.274H491.973C491.973 189.532 492.231 189.532 492.489 189.532ZM483.186 184.37C483.703 184.37 483.962 184.112 484.22 183.596C484.478 183.08 484.22 182.305 483.703 181.789C483.186 181.531 482.153 181.531 481.894 182.305C481.636 182.822 481.636 183.596 482.411 184.112H482.669C482.928 184.37 483.186 184.37 483.186 184.37ZM474.142 179.208C474.659 179.208 474.917 178.95 475.175 178.434C475.434 177.918 475.175 177.143 474.658 176.627C474.142 176.369 473.108 176.369 472.85 177.143C472.591 177.66 472.591 178.434 473.366 178.95H473.625C473.625 179.208 473.883 179.208 474.142 179.208ZM464.839 174.046C465.355 174.046 465.614 173.788 465.872 173.272C466.131 172.756 465.872 171.981 465.355 171.465C464.839 171.207 463.805 171.207 463.547 171.981C463.288 172.498 463.288 173.272 464.063 173.788H464.322C464.322 174.046 464.58 174.046 464.839 174.046ZM455.535 168.884C456.052 168.884 456.311 168.626 456.569 168.11C456.828 167.594 456.569 166.819 456.052 166.303H455.794C455.277 166.045 454.502 166.303 453.985 166.819C453.727 167.336 453.985 168.11 454.502 168.626H454.76C455.019 168.884 455.277 168.884 455.535 168.884ZM446.232 163.722C446.749 163.722 447.008 163.464 447.266 162.948C447.525 162.432 447.266 161.657 446.749 161.141C446.232 160.883 445.199 160.883 444.94 161.657C444.682 162.174 444.682 162.948 445.199 163.464H445.457C445.974 163.722 445.974 163.722 446.232 163.722ZM437.188 158.56C437.705 158.56 437.963 158.302 438.221 157.786C438.48 157.27 438.221 156.495 437.705 155.979C437.188 155.721 436.154 155.721 435.896 156.495C435.637 157.012 435.637 157.786 436.154 158.302H436.413C436.671 158.56 436.929 158.56 437.188 158.56ZM427.885 153.656C428.402 153.656 428.66 153.398 428.918 152.882C429.177 152.366 428.918 151.591 428.402 151.075H428.143C427.626 150.817 426.851 151.075 426.334 151.591C426.076 152.108 426.334 152.882 426.851 153.398H427.109C427.368 153.398 427.626 153.656 427.885 153.656ZM418.582 148.494C419.098 148.494 419.357 148.236 419.615 147.72C419.874 147.204 419.615 146.429 419.098 145.913C418.582 145.655 417.548 145.655 417.29 146.429C417.031 146.946 417.031 147.72 417.548 148.236H417.806C418.065 148.236 418.323 148.494 418.582 148.494Z" fill="#BDCEFA"/>
<path d="M788.121 354.459C788.897 354.459 789.414 353.942 789.414 353.168C789.414 352.651 789.156 352.135 788.638 351.877C788.121 351.618 787.087 351.618 786.829 352.393C786.57 352.91 786.57 353.684 787.087 353.942C787.346 354.201 787.604 354.459 788.121 354.459Z" fill="#BDCEFA"/>
<path d="M788.122 431.372C788.897 431.372 789.414 430.856 789.414 430.082V429.824C789.414 429.049 788.897 428.533 788.122 428.533C787.347 428.533 786.83 429.049 786.83 429.824V430.082C786.83 430.598 787.347 431.372 788.122 431.372ZM788.122 420.274C788.897 420.274 789.414 419.758 789.414 418.983V418.725C789.414 417.951 788.897 417.435 788.122 417.435C787.347 417.435 786.83 417.951 786.83 418.725V418.983C786.83 419.758 787.347 420.274 788.122 420.274ZM788.122 409.434C788.897 409.434 789.414 408.917 789.414 408.143V407.885C789.414 407.111 788.897 406.594 788.122 406.594C787.347 406.594 786.83 407.111 786.83 407.885V408.143C786.83 408.659 787.347 409.434 788.122 409.434ZM788.122 398.335C788.897 398.335 789.414 397.819 789.414 397.045V396.787C789.414 396.012 788.897 395.496 788.122 395.496C787.347 395.496 786.83 396.012 786.83 396.787V397.045C786.83 397.819 787.347 398.335 788.122 398.335ZM788.122 387.495C788.897 387.495 789.414 386.979 789.414 386.204V385.946C789.414 385.172 788.897 384.656 788.122 384.656C787.347 384.656 786.83 385.172 786.83 385.946V386.204C786.83 386.721 787.347 387.495 788.122 387.495ZM788.122 376.397C788.897 376.397 789.414 375.88 789.414 375.106V374.848C789.414 374.074 788.897 373.558 788.122 373.558C787.347 373.558 786.83 374.074 786.83 374.848V375.106C786.83 375.88 787.347 376.397 788.122 376.397ZM788.122 365.556C788.897 365.556 789.414 365.04 789.414 364.266V364.008C789.414 363.233 788.897 362.717 788.122 362.717C787.347 362.717 786.83 363.233 786.83 364.008V364.266C786.83 364.782 787.347 365.556 788.122 365.556Z" fill="#BDCEFA"/>
<path d="M788.121 442.214C788.897 442.214 789.414 441.697 789.414 440.922C789.414 440.148 788.897 439.631 788.121 439.631C787.346 439.631 786.829 440.148 786.829 440.922C786.829 441.439 787.346 442.214 788.121 442.214Z" fill="#BDCEFA"/>
<path d="M949.89 493.058C950.149 493.058 950.407 492.8 950.407 492.542V389.302L950.149 389.044L889.421 357.039C889.162 356.781 888.645 357.039 888.645 357.297C888.387 357.555 888.645 358.071 888.904 358.071L949.115 390.076V492.542C949.374 492.8 949.632 493.058 949.89 493.058Z" fill="#BDCEFA"/>
<path d="M906.217 659.017C906.992 659.017 907.509 658.501 907.509 657.727V657.469C907.509 656.694 906.992 656.178 906.217 656.178C905.442 656.178 904.925 656.694 904.925 657.469C904.925 658.243 905.7 659.017 906.217 659.017ZM906.217 648.435C906.992 648.435 907.509 647.919 907.509 647.145V646.887C907.509 646.112 906.992 645.596 906.217 645.596C905.442 645.596 904.925 646.112 904.925 646.887V647.145C904.925 647.919 905.7 648.435 906.217 648.435ZM906.217 637.853C906.992 637.853 907.509 637.337 907.509 636.563V636.305C907.509 635.53 906.992 635.014 906.217 635.014C905.442 635.014 904.925 635.53 904.925 636.305C904.925 637.079 905.7 637.853 906.217 637.853ZM906.217 627.271C906.992 627.271 907.509 626.755 907.509 625.98V625.722C907.509 624.948 906.992 624.432 906.217 624.432C905.442 624.432 904.925 624.948 904.925 625.722V625.98C904.925 626.755 905.7 627.271 906.217 627.271ZM906.217 616.689C906.992 616.689 907.509 616.173 907.509 615.398V615.14C907.509 614.366 906.992 613.85 906.217 613.85C905.442 613.85 904.925 614.366 904.925 615.14C904.925 615.915 905.7 616.689 906.217 616.689ZM906.217 606.107C906.992 606.107 907.509 605.59 907.509 604.816V604.558C907.509 603.784 906.992 603.268 906.217 603.268C905.442 603.268 904.925 603.784 904.925 604.558C904.925 605.332 905.7 606.107 906.217 606.107ZM906.217 595.525C906.992 595.525 907.509 595.008 907.509 594.234V593.976C907.509 593.202 906.992 592.685 906.217 592.685C905.442 592.685 904.925 593.202 904.925 593.976V594.234C904.925 595.008 905.7 595.525 906.217 595.525ZM906.217 584.942C906.992 584.942 907.509 584.426 907.509 583.652V583.394C907.509 582.62 906.992 582.103 906.217 582.103C905.442 582.103 904.925 582.62 904.925 583.394C904.925 584.168 905.7 584.942 906.217 584.942ZM906.217 574.36C906.992 574.36 907.509 573.844 907.509 573.07V572.812C907.509 572.037 906.992 571.521 906.217 571.521C905.442 571.521 904.925 572.037 904.925 572.812V573.07C904.925 573.844 905.7 574.36 906.217 574.36ZM906.217 563.778C906.992 563.778 907.509 563.262 907.509 562.488V562.23C907.509 561.455 906.992 560.939 906.217 560.939C905.442 560.939 904.925 561.455 904.925 562.23C904.925 563.004 905.7 563.778 906.217 563.778ZM906.217 553.196C906.992 553.196 907.509 552.68 907.509 551.905V551.647C907.509 550.873 906.992 550.357 906.217 550.357C905.442 550.357 904.925 550.873 904.925 551.647V551.905C904.925 552.68 905.7 553.196 906.217 553.196ZM906.217 542.614C906.992 542.614 907.509 542.098 907.509 541.323V541.065C907.509 540.291 906.992 539.775 906.217 539.775C905.442 539.775 904.925 540.291 904.925 541.065V541.323C904.925 542.098 905.7 542.614 906.217 542.614ZM906.217 532.032C906.992 532.032 907.509 531.516 907.509 530.741V530.483C907.509 529.709 906.992 529.193 906.217 529.193C905.442 529.193 904.925 529.709 904.925 530.483C904.925 531.257 905.7 532.032 906.217 532.032ZM906.217 521.45C906.992 521.45 907.509 520.933 907.509 520.159V519.901C907.509 519.127 906.992 518.61 906.217 518.61C905.442 518.61 904.925 519.127 904.925 519.901V520.159C904.925 520.933 905.7 521.45 906.217 521.45ZM906.217 510.867C906.992 510.867 907.509 510.351 907.509 509.577V509.319C907.509 508.544 906.992 508.028 906.217 508.028C905.442 508.028 904.925 508.544 904.925 509.319V509.577C904.925 510.351 905.7 510.867 906.217 510.867ZM906.217 500.285C906.992 500.285 907.509 499.769 907.509 498.995V498.737C907.509 497.962 906.992 497.446 906.217 497.446C905.442 497.446 904.925 497.962 904.925 498.737V498.995C904.925 499.769 905.7 500.285 906.217 500.285ZM906.217 489.703C906.992 489.703 907.509 489.187 907.509 488.413V488.155C907.509 487.38 906.992 486.864 906.217 486.864C905.442 486.864 904.925 487.38 904.925 488.155V488.413C904.925 489.187 905.7 489.703 906.217 489.703ZM906.217 479.121C906.992 479.121 907.509 478.605 907.509 477.83V477.572C907.509 476.798 906.992 476.282 906.217 476.282C905.442 476.282 904.925 476.798 904.925 477.572C904.925 478.347 905.7 479.121 906.217 479.121ZM906.217 468.539C906.992 468.539 907.509 468.023 907.509 467.248V466.99C907.509 466.216 906.992 465.7 906.217 465.7C905.442 465.7 904.925 466.216 904.925 466.99V467.248C904.925 468.023 905.7 468.539 906.217 468.539ZM906.217 457.957C906.992 457.957 907.509 457.44 907.509 456.666V456.408C907.509 455.634 906.992 455.118 906.217 455.118C905.442 455.118 904.925 455.634 904.925 456.408V456.666C904.925 457.44 905.7 457.957 906.217 457.957ZM906.217 447.375C906.992 447.375 907.509 446.858 907.509 446.084V445.826C907.509 445.052 906.992 444.535 906.217 444.535C905.442 444.535 904.925 445.052 904.925 445.826V446.084C904.925 446.858 905.7 447.375 906.217 447.375ZM906.217 436.792C906.992 436.792 907.509 436.276 907.509 435.502V435.244C907.509 434.469 906.992 433.953 906.217 433.953C905.442 433.953 904.925 434.469 904.925 435.244V435.502C904.925 436.276 905.7 436.792 906.217 436.792ZM906.217 426.21C906.992 426.21 907.509 425.694 907.509 424.92V424.662C907.509 423.887 906.992 423.371 906.217 423.371C905.442 423.371 904.925 423.887 904.925 424.662C904.925 425.436 905.7 426.21 906.217 426.21ZM906.217 415.628C906.992 415.628 907.509 415.112 907.509 414.338V414.08C907.509 413.305 906.992 412.789 906.217 412.789C905.442 412.789 904.925 413.305 904.925 414.08V414.338C904.925 415.112 905.7 415.628 906.217 415.628ZM906.217 405.046C906.992 405.046 907.509 404.53 907.509 403.755V403.497C907.509 402.723 906.992 402.207 906.217 402.207C905.442 402.207 904.925 402.723 904.925 403.497V403.755C904.925 404.53 905.7 405.046 906.217 405.046ZM906.217 394.464C906.992 394.464 907.509 393.948 907.509 393.173V392.915C907.509 392.141 906.992 391.625 906.217 391.625C905.442 391.625 904.925 392.141 904.925 392.915V393.173C904.925 393.948 905.7 394.464 906.217 394.464ZM906.217 383.882C906.992 383.882 907.509 383.365 907.509 382.591V382.333C907.509 381.559 906.992 381.043 906.217 381.043C905.442 381.043 904.925 381.559 904.925 382.333V382.591C904.925 383.365 905.7 383.882 906.217 383.882ZM906.217 373.3C906.992 373.3 907.509 372.783 907.509 372.009V371.751C907.509 370.977 906.992 370.46 906.217 370.46C905.442 370.46 904.925 370.977 904.925 371.751C904.925 372.525 905.7 373.3 906.217 373.3ZM906.217 362.717C906.992 362.717 907.509 362.201 907.509 361.427V361.169C907.509 360.395 906.992 359.878 906.217 359.878C905.442 359.878 904.925 360.395 904.925 361.169V361.427C904.925 362.201 905.7 362.717 906.217 362.717ZM906.217 352.135C906.992 352.135 907.509 351.619 907.509 350.845V350.587C907.509 349.812 906.992 349.296 906.217 349.296C905.442 349.296 904.925 349.812 904.925 350.587V350.845C904.925 351.619 905.7 352.135 906.217 352.135ZM906.217 341.553C906.992 341.553 907.509 341.037 907.509 340.263V340.004C907.509 339.23 906.992 338.714 906.217 338.714C905.442 338.714 904.925 339.23 904.925 340.004V340.263C904.925 341.037 905.7 341.553 906.217 341.553ZM906.217 330.971C906.992 330.971 907.509 330.455 907.509 329.68V329.422C907.509 328.648 906.992 328.132 906.217 328.132C905.442 328.132 904.925 328.648 904.925 329.422V329.68C904.925 330.455 905.7 330.971 906.217 330.971ZM906.217 320.389C906.992 320.389 907.509 319.873 907.509 319.098V318.84C907.509 318.066 906.992 317.55 906.217 317.55C905.442 317.55 904.925 318.066 904.925 318.84C904.925 319.615 905.7 320.389 906.217 320.389ZM906.217 309.807C906.992 309.807 907.509 309.29 907.509 308.516V308.258C907.509 307.484 906.992 306.968 906.217 306.968C905.442 306.968 904.925 307.484 904.925 308.258V308.516C904.925 309.29 905.7 309.807 906.217 309.807ZM906.217 299.225C906.992 299.225 907.509 298.708 907.509 297.934V297.676C907.509 296.902 906.992 296.385 906.217 296.385C905.442 296.385 904.925 296.902 904.925 297.676V297.934C904.925 298.708 905.7 299.225 906.217 299.225ZM906.217 288.642C906.992 288.642 907.509 288.126 907.509 287.352V287.094C907.509 286.319 906.992 285.803 906.217 285.803C905.442 285.803 904.925 286.319 904.925 287.094V287.352C904.925 288.126 905.7 288.642 906.217 288.642ZM906.217 278.06C906.992 278.06 907.509 277.544 907.509 276.77V276.512C907.509 275.737 906.992 275.221 906.217 275.221C905.442 275.221 904.925 275.737 904.925 276.512V276.77C904.925 277.544 905.7 278.06 906.217 278.06ZM901.307 270.575C901.824 270.575 902.082 270.317 902.341 269.801C902.599 269.285 902.599 268.511 901.824 267.994H901.566C901.049 267.736 900.274 267.736 899.757 268.51C899.498 269.027 899.498 269.801 900.274 270.317H900.532C900.79 270.317 901.049 270.575 901.307 270.575ZM892.004 265.155C892.521 265.155 893.038 264.897 893.038 264.639C893.296 264.123 893.296 263.348 892.779 262.832H892.521C892.004 262.574 891.229 262.574 890.712 263.348C890.454 263.865 890.454 264.639 891.229 265.155C891.487 265.155 891.746 265.155 892.004 265.155ZM882.701 259.993C883.218 259.993 883.735 259.735 883.735 259.477C883.993 258.961 883.993 258.186 883.476 257.67H883.218C882.701 257.412 881.926 257.412 881.409 258.186C881.151 258.703 881.151 259.477 881.926 259.993C882.184 259.735 882.443 259.993 882.701 259.993ZM873.656 254.831C874.173 254.831 874.432 254.573 874.69 254.057C874.948 253.541 874.948 252.766 874.173 252.25H873.915C873.398 251.992 872.623 251.992 872.106 252.766C871.847 253.283 871.847 254.057 872.623 254.573H872.881C873.398 254.573 873.398 254.831 873.656 254.831ZM864.353 249.411C864.87 249.411 865.387 249.153 865.387 248.895C865.645 248.379 865.645 247.604 865.129 247.088H864.87C864.353 246.83 863.578 246.83 863.061 247.604C862.803 248.121 862.803 248.895 863.578 249.411C863.836 249.411 864.095 249.411 864.353 249.411ZM855.309 244.249C855.825 244.249 856.342 243.991 856.342 243.733C856.601 243.217 856.601 242.442 856.084 241.926H855.826C855.309 241.668 854.533 241.668 854.017 242.442C853.758 242.958 853.758 243.733 854.533 244.249C854.792 243.991 855.05 244.249 855.309 244.249ZM846.006 239.087C846.522 239.087 846.781 238.829 847.039 238.313C847.298 237.796 847.298 237.022 846.522 236.506H846.264C845.747 236.248 844.972 236.248 844.455 237.022C844.197 237.538 844.197 238.313 844.972 238.829H845.23C845.747 239.087 846.006 239.087 846.006 239.087ZM836.702 233.667C837.219 233.667 837.736 233.409 837.736 233.151C837.995 232.634 837.995 231.86 837.478 231.344H837.219C836.702 231.086 835.927 231.086 835.41 231.86C835.152 232.376 835.152 233.151 835.927 233.667C836.186 233.667 836.444 233.667 836.702 233.667ZM827.658 228.505C828.175 228.505 828.692 228.247 828.692 227.989C828.95 227.472 828.95 226.698 828.433 226.182H828.175C827.658 225.924 826.883 225.924 826.366 226.698C826.107 227.214 826.107 227.989 826.883 228.505C827.141 228.247 827.399 228.505 827.658 228.505ZM818.613 223.343C819.13 223.343 819.388 223.085 819.647 222.569C819.905 222.052 819.905 221.278 819.13 220.762H818.872C818.355 220.504 817.58 220.504 817.063 221.278C816.804 221.794 816.804 222.569 817.58 223.085H817.838C818.096 223.343 818.355 223.343 818.613 223.343ZM809.052 217.923C809.569 217.923 810.085 217.665 810.085 217.407C810.344 216.89 810.344 216.116 809.827 215.6H809.569C809.052 215.342 808.276 215.342 807.76 216.116C807.501 216.632 807.501 217.406 808.276 217.923C808.793 217.923 809.052 217.923 809.052 217.923ZM800.007 212.761C800.524 212.761 801.041 212.503 801.041 212.244C801.299 211.728 801.299 210.954 800.782 210.438H800.524C800.007 210.18 799.232 210.18 798.715 210.954C798.457 211.47 798.456 212.244 799.232 212.761C799.49 212.503 799.749 212.761 800.007 212.761ZM790.962 207.599C791.479 207.599 791.738 207.341 791.996 206.824C792.254 206.308 792.254 205.534 791.479 205.018H791.221C790.704 204.76 789.929 204.76 789.412 205.534C789.153 206.05 789.153 206.824 789.929 207.341H790.187C790.446 207.599 790.704 207.599 790.962 207.599Z" fill="#BDCEFA"/>
<path d="M721.964 282.964C722.481 282.964 722.998 282.706 722.998 282.448C723.256 281.932 723.256 281.157 722.739 280.641H722.481C721.964 280.383 721.189 280.383 720.672 281.158C720.414 281.674 720.414 282.448 721.189 282.964C721.447 282.964 721.706 282.964 721.964 282.964ZM726.357 279.867C727.133 279.867 727.649 279.351 727.649 278.577V278.318C727.649 277.544 727.133 277.028 726.357 277.028C725.582 277.028 725.065 277.544 725.065 278.318V278.577C725.065 279.351 725.582 279.867 726.357 279.867ZM712.92 277.544C713.436 277.544 713.953 277.286 713.953 277.028C714.212 276.512 714.212 275.737 713.695 275.221H713.436C712.92 274.963 712.144 274.963 711.627 275.737C711.369 276.254 711.369 277.028 712.144 277.544C712.403 277.544 712.661 277.544 712.92 277.544ZM703.616 272.382C704.133 272.382 704.65 272.124 704.65 271.866C704.909 271.35 704.909 270.575 704.392 270.059H704.133C703.617 269.801 702.841 269.801 702.324 270.575C702.066 271.092 702.066 271.866 702.841 272.382C703.1 272.382 703.358 272.382 703.616 272.382ZM726.357 269.285C727.133 269.285 727.649 268.769 727.649 267.994V267.736C727.649 266.962 727.133 266.446 726.357 266.446C725.582 266.446 725.065 266.962 725.065 267.736V267.994C725.065 268.769 725.582 269.285 726.357 269.285ZM694.572 266.962C695.089 266.962 695.606 266.704 695.606 266.446C695.864 265.93 695.864 265.155 695.347 264.639H695.089C694.572 264.381 693.797 264.381 693.28 265.155C693.021 265.671 693.021 266.446 693.797 266.962C694.055 266.962 694.313 266.962 694.572 266.962ZM685.527 261.8C686.044 261.8 686.302 261.542 686.561 261.284C686.819 260.768 686.819 259.993 686.044 259.477L685.786 259.219C685.269 258.961 684.494 258.961 683.977 259.735C683.718 260.251 683.718 261.026 684.494 261.542L684.752 261.8C685.01 261.8 685.269 261.8 685.527 261.8ZM726.357 258.703C727.133 258.703 727.649 258.187 727.649 257.412C727.649 256.638 727.133 256.122 726.357 256.122C725.582 256.122 725.065 256.638 725.065 257.412V257.67C725.065 258.187 725.582 258.703 726.357 258.703ZM676.224 256.38C676.741 256.38 677.258 256.122 677.258 255.864C677.516 255.347 677.516 254.573 676.999 254.057L676.741 253.799C676.224 253.541 675.449 253.541 674.932 254.315C674.674 254.831 674.674 255.606 675.449 256.122C675.707 256.38 675.966 256.38 676.224 256.38ZM666.921 251.218C667.438 251.218 667.955 250.96 667.955 250.702C668.213 250.185 668.213 249.411 667.696 248.895L667.438 248.637C666.921 248.379 666.146 248.379 665.629 249.153C665.371 249.669 665.371 250.444 666.146 250.96C666.404 250.96 666.663 251.218 666.921 251.218ZM726.357 248.121C727.133 248.121 727.649 247.604 727.649 246.83V246.572C727.649 245.798 727.133 245.282 726.357 245.282C725.582 245.282 725.065 245.798 725.065 246.572V246.83C725.065 247.604 725.582 248.121 726.357 248.121ZM657.876 246.056C658.393 246.056 658.652 245.798 658.91 245.54C659.169 245.023 659.169 244.249 658.393 243.733L658.135 243.475C657.618 243.217 656.843 243.217 656.326 243.991C656.068 244.507 656.068 245.282 656.843 245.798L657.101 246.056C657.36 245.798 657.618 246.056 657.876 246.056ZM648.573 240.636C649.09 240.636 649.607 240.378 649.607 240.12C649.865 239.603 649.865 238.829 649.349 238.313L649.09 238.055C648.573 237.797 647.798 237.797 647.281 238.571C647.023 239.087 647.023 239.861 647.798 240.378C648.057 240.378 648.315 240.636 648.573 240.636ZM726.357 237.539C727.133 237.539 727.649 237.022 727.649 236.248V235.99C727.649 235.216 727.133 234.699 726.357 234.699C725.582 234.699 725.065 235.216 725.065 235.99V236.248C725.065 237.022 725.582 237.539 726.357 237.539ZM639.529 235.216C640.046 235.216 640.562 234.958 640.562 234.699C640.821 234.183 640.821 233.409 640.304 232.893H640.046C639.529 232.635 638.753 232.635 638.237 233.409C637.978 233.925 637.978 234.699 638.753 235.216C639.012 235.216 639.27 235.216 639.529 235.216ZM630.484 230.054C631.001 230.054 631.259 229.796 631.518 229.279C631.776 228.763 631.776 227.989 631.001 227.473H630.742C630.226 227.215 629.45 227.215 628.934 227.989C628.675 228.505 628.675 229.279 629.45 229.796H629.709C629.967 230.054 630.226 230.054 630.484 230.054ZM621.181 224.634C621.698 224.634 622.215 224.375 622.215 224.117C622.473 223.601 622.473 222.827 621.956 222.311H621.698C621.181 222.053 620.406 222.053 619.889 222.827C619.631 223.343 619.63 224.117 620.406 224.634C620.664 224.634 620.923 224.634 621.181 224.634Z" fill="#BDCEFA"/>
<path d="M77.9897 223.343L171.796 277.544C178.515 281.416 190.66 280.899 198.671 276.512L288.601 224.633C296.612 219.988 297.387 213.019 290.41 209.147L196.604 154.946C189.885 151.075 177.739 151.591 169.728 155.978L79.7986 207.857C71.7876 212.503 71.0124 219.471 77.9897 223.343Z" fill="#E8F2FE"/>
<path d="M73.3394 555.776V217.922C73.8562 219.987 75.1484 221.794 77.7325 223.342L171.539 277.544C174.898 279.35 179.291 280.383 183.943 280.125V620.302C179.291 620.302 174.898 619.527 171.539 617.721L77.7325 563.519C74.3731 561.713 72.8226 558.874 73.3394 555.776Z" fill="url(#paint4_linear)"/>
<path d="M198.414 276.511L288.344 224.633C292.221 222.568 294.288 219.729 294.805 217.148V555.002C295.58 558.357 293.254 562.229 288.344 565.068L198.414 616.946C194.28 619.269 189.111 620.56 183.943 620.56V280.125C189.111 280.125 194.28 278.834 198.414 276.511Z" fill="#DDDDDD"/>
<path d="M198.414 276.511L288.344 224.633C292.221 222.568 294.288 219.729 294.805 217.148V555.002C295.58 558.357 293.254 562.229 288.344 565.068L198.414 616.946C194.28 619.269 189.111 620.56 183.943 620.56V280.125C189.111 280.125 194.28 278.834 198.414 276.511Z" fill="url(#paint5_linear)"/>
<path d="M76.6974 806.909L248.546 902.922C256.04 907.31 269.478 906.794 278.264 901.632L335.375 867.563C344.161 862.401 345.195 854.658 337.442 850.27L166.369 752.192C158.875 747.804 145.437 748.32 136.651 753.482L78.7648 789.358C70.237 794.778 69.2033 802.521 76.6974 806.909Z" fill="#E8F2FE"/>
<path d="M35.6078 640.693L545.21 933.896C568.209 947.059 608.523 945.51 635.14 930.282L946.018 751.676C972.635 736.448 975.478 712.961 952.478 699.798L434.09 410.983C411.091 397.82 370.777 399.368 344.16 414.596L42.0683 588.815C15.7096 604.043 12.6085 627.53 35.6078 640.693Z" fill="#E8F2FE"/>
<path d="M20.6199 636.304V622.366C21.9119 629.335 27.0803 635.787 35.6081 640.691L545.21 933.894C556.322 940.346 571.311 943.186 587.074 942.669V964.866C571.569 965.124 556.322 962.543 545.21 956.091L35.6081 662.888C23.7208 655.919 18.8109 646.112 20.6199 636.304Z" fill="url(#paint6_linear)"/>
<path d="M635.141 930.023L946.019 751.675C958.682 744.448 965.917 735.156 967.468 726.381V740.318C969.794 751.675 962.558 764.322 946.019 773.871L635.141 952.477C621.445 960.479 603.872 964.608 587.075 965.124V942.928C603.872 942.153 621.445 938.024 635.141 930.023Z" fill="#C9C9C9"/>
<path d="M635.141 930.023L946.019 751.675C958.682 744.448 965.917 735.156 967.468 726.381V740.318C969.794 751.675 962.558 764.322 946.019 773.871L635.141 952.477C621.445 960.479 603.872 964.608 587.075 965.124V942.928C603.872 942.153 621.445 938.024 635.141 930.023Z" fill="url(#paint7_linear)"/>
<path d="M514.199 802.005L620.667 863.433L891.232 707.282L785.022 645.854L514.199 802.005Z" fill="white"/>
<path d="M891.234 707.282V751.417L620.669 907.568V863.433L891.234 707.282Z" fill="url(#paint8_linear)"/>
<path d="M735.149 693.087L781.923 719.929C785.283 721.994 791.226 721.736 795.361 719.413L840.067 693.603C843.944 691.28 844.46 687.925 841.101 685.86L794.327 659.017C790.968 656.952 785.024 657.211 780.889 659.533L736.183 685.344C732.307 687.666 731.79 691.28 735.149 693.087Z" fill="#99CFFF"/>
<path d="M733.082 710.896V690.248C733.34 691.28 734.115 692.313 735.408 693.087L782.181 719.93C783.732 720.962 786.058 721.22 788.383 721.22V742.901C786.058 742.901 783.732 742.642 782.181 741.61L735.408 714.768C733.34 713.993 732.823 712.445 733.082 710.896Z" fill="#70C3FF"/>
<path d="M795.103 719.671L839.809 693.861C841.618 692.829 842.652 691.538 842.91 689.99V710.638C843.169 712.444 842.135 714.251 839.809 715.542L795.103 741.352C793.035 742.642 790.451 743.158 787.867 743.158V721.478C790.71 721.478 793.294 720.704 795.103 719.671Z" fill="#249AEF"/>
<path d="M652.971 740.835L699.745 767.678C703.104 769.742 709.048 769.484 713.182 767.161L757.889 741.351C761.765 739.028 762.282 735.673 758.922 733.608L712.149 706.766C708.789 704.701 702.846 704.959 698.711 707.282L654.005 733.092C649.87 735.415 649.353 738.77 652.971 740.835Z" fill="#F9825D"/>
<path d="M650.645 758.644V737.996C650.903 739.028 651.678 740.061 652.97 740.835L699.744 767.678C701.295 768.71 703.621 768.968 705.946 768.968V790.649C703.621 790.649 701.295 790.391 699.744 789.358L652.97 762.516C651.162 761.483 650.386 760.193 650.645 758.644Z" fill="#FF8661"/>
<path d="M712.923 767.162L757.629 741.352C759.438 740.319 760.472 739.029 760.73 737.48V758.128C760.989 759.935 759.955 761.741 757.629 763.032L712.923 788.842C710.856 790.133 708.271 790.649 705.687 790.649V768.968C708.271 768.968 710.856 768.452 712.923 767.162Z" fill="#D56144"/>
<path d="M568.725 789.1L615.499 815.942C618.859 818.007 624.802 817.749 628.937 815.426L673.643 789.616C677.52 787.293 678.037 783.938 674.677 781.873L627.903 755.03C624.544 752.966 618.6 753.224 614.466 755.547L569.759 781.357C565.883 783.68 565.366 787.293 568.725 789.1Z" fill="#98EF7A"/>
<path d="M566.658 806.909V786.261C566.917 787.293 567.692 788.326 568.984 789.1L615.758 815.942C617.308 816.975 619.634 817.233 621.96 817.233V838.914C619.634 838.914 617.308 838.655 615.758 837.623L568.984 810.78C566.917 809.748 566.4 808.457 566.658 806.909Z" fill="#91E873"/>
<path d="M628.937 815.426L673.644 789.616C675.453 788.584 676.487 787.293 676.745 785.745V806.393C677.003 808.199 675.97 810.006 673.644 811.297L628.937 837.107C626.87 838.397 624.286 838.913 621.702 838.913V817.233C624.286 817.233 626.87 816.717 628.937 815.426Z" fill="#68C945"/>
<path d="M127.605 605.59C87.7859 605.59 55.5062 586.985 55.5062 564.036C55.5062 541.086 87.7859 522.481 127.605 522.481C167.424 522.481 199.704 541.086 199.704 564.036C199.704 586.985 167.424 605.59 127.605 605.59Z" fill="white"/>
<path d="M76.6972 593.459C104.865 609.719 150.347 609.719 178.514 593.459C192.469 585.458 199.446 574.876 199.705 564.293V608.945C199.705 619.527 192.727 630.367 178.514 638.626C150.347 654.887 104.865 654.887 76.6972 638.626C62.4841 630.367 55.5069 619.785 55.5069 608.945V564.293C55.7653 574.876 62.7426 585.458 76.6972 593.459Z" fill="url(#paint9_linear)"/>
<path d="M127.606 532.547L83.6748 557.841C107.708 571.778 147.504 571.778 171.537 557.841C195.57 543.903 195.57 520.933 171.537 507.253C158.1 499.51 139.235 495.639 120.112 496.929L127.606 532.547Z" fill="#76B5CE"/>
<path d="M171.795 557.841C183.682 550.872 189.885 541.839 189.885 532.547V558.099C189.885 567.391 183.941 576.682 171.795 583.651C147.762 597.588 107.966 597.588 83.9327 583.651V557.841C107.966 571.778 147.504 571.778 171.795 557.841Z" fill="#249AEF"/>
<path d="M127.606 532.547L83.6748 557.841C107.708 571.778 147.504 571.778 171.537 557.841C195.57 543.903 195.57 520.933 171.537 507.253C158.1 499.51 139.235 495.639 120.112 496.929L127.606 532.547Z" fill="#99CFFF"/>
<path d="M127.607 506.221L120.371 470.603C106.416 471.635 93.7539 475.249 83.6756 480.927C59.6427 494.865 59.6427 517.836 83.6756 531.515L127.607 506.221Z" fill="#F97F58"/>
<path d="M127.607 506.221V532.547L83.6756 557.841V531.515L127.607 506.221Z" fill="#D56144"/>
<path d="M65.5848 557.841V506.221C65.5848 515.255 71.7868 524.546 83.6741 531.257V557.583V583.394C71.5284 576.683 65.5848 567.133 65.5848 557.841Z" fill="#FF8661"/>
<path d="M275.679 492.8L378.013 433.695C390.159 426.726 388.608 414.595 374.653 406.594C360.699 398.593 339.508 397.561 327.363 404.529L225.029 463.634C212.883 470.603 214.434 482.734 228.388 490.735C242.601 498.736 263.792 499.769 275.679 492.8Z" fill="white"/>
<path d="M228.647 490.735C242.601 498.736 263.792 499.769 275.937 492.8L378.271 433.695C383.44 430.598 386.282 426.726 386.541 422.338V452.536V452.794C386.541 457.182 383.698 461.312 378.271 464.409L275.937 523.514C263.792 530.483 242.601 529.708 228.647 521.449C220.636 516.803 216.759 511.125 217.018 505.447V474.991C217.018 480.669 220.894 486.347 228.647 490.735Z" fill="url(#paint10_linear)"/>
<path d="M334.6 424.92C339.769 428.017 348.297 428.017 353.723 424.92C358.892 421.823 358.892 416.919 353.723 414.08C348.555 410.983 340.027 410.983 334.6 414.08C329.174 416.919 329.174 421.823 334.6 424.92Z" fill="#BDCEFA"/>
<path d="M304.881 441.955C310.049 445.052 318.577 445.052 324.004 441.955C329.172 438.857 329.172 433.954 324.004 431.114C318.835 428.017 310.307 428.017 304.881 431.114C299.712 433.954 299.712 438.857 304.881 441.955Z" fill="#BDCEFA"/>
<path d="M275.164 458.989C280.332 462.086 288.86 462.086 294.287 458.989C299.455 455.892 299.455 450.988 294.287 448.149C289.118 445.052 280.59 445.052 275.164 448.149C269.995 451.246 269.995 456.15 275.164 458.989Z" fill="#BDCEFA"/>
<path d="M245.445 476.282C250.613 479.379 259.141 479.379 264.568 476.282C269.736 473.185 269.736 468.281 264.568 465.442C259.399 462.345 250.872 462.345 245.445 465.442C240.276 468.281 240.276 473.185 245.445 476.282Z" fill="#BDCEFA"/>
<path d="M318.576 439.631C314.958 440.148 311.598 437.825 311.081 434.211L304.621 397.561C304.104 393.947 306.43 390.592 310.048 390.076C313.666 389.56 317.025 391.883 317.542 395.496L324.002 432.146C324.519 435.502 322.193 438.857 318.576 439.631Z" fill="#F9AB83"/>
<path d="M348.035 441.955C347.002 445.31 343.125 447.375 339.766 446.342L317.025 439.632C313.407 439.374 310.564 436.276 310.823 432.663C311.081 429.049 314.182 426.21 317.8 426.468L343.642 433.695C347.002 434.728 349.069 438.341 348.035 441.955Z" fill="#F9AB83"/>
<path d="M279.813 550.098C279.813 550.873 280.33 551.647 281.622 552.421C281.881 552.679 281.622 547.776 282.656 548.55C282.914 548.808 298.678 561.197 307.723 558.874C308.756 558.616 309.015 557.842 309.015 557.067V555.002C309.015 552.679 305.914 549.324 300.745 544.42C295.06 539 291.701 535.645 283.431 540.291C281.105 541.581 280.072 542.613 280.072 543.646L279.813 550.098Z" fill="#010400"/>
<path d="M300.747 544.42C307.466 550.873 311.084 554.744 307.725 556.809C304.365 558.874 297.388 555.777 290.411 550.356C284.208 545.711 275.164 545.194 283.433 540.291C291.703 535.645 295.32 539 300.747 544.42Z" fill="#484968"/>
<path d="M294.026 541.323L293.51 480.927L273.611 487.38L276.971 497.188C276.971 497.188 275.42 510.351 279.555 523.772C279.555 523.772 282.398 529.708 281.881 543.13C281.881 543.13 289.116 547.259 294.026 541.323Z" fill="#F1AC85"/>
<path d="M299.195 534.354C299.195 535.129 299.712 535.903 301.004 536.677C301.262 536.935 301.004 532.031 302.037 532.806C302.296 533.064 318.059 545.453 327.104 543.13C328.138 542.872 328.396 542.097 328.396 541.323V539.258C328.396 536.935 325.295 533.58 320.127 528.676C314.442 523.256 311.082 519.901 302.813 524.546C300.487 525.837 299.453 526.869 299.453 527.902L299.195 534.354Z" fill="#010400"/>
<path d="M320.129 528.676C326.848 535.129 330.466 539 327.106 541.065C323.747 543.13 316.769 540.032 309.792 534.612C303.59 529.967 294.545 529.45 302.815 524.546C311.084 519.901 314.444 523.256 320.129 528.676Z" fill="#484968"/>
<path d="M313.408 525.578L312.891 465.183L292.993 471.635L296.353 481.443C296.353 481.443 294.802 494.606 298.937 508.027C298.937 508.027 301.779 513.964 301.263 527.385C301.004 527.127 308.498 531.256 313.408 525.578Z" fill="#E28C66"/>
<path d="M266.375 466.731V488.928C266.375 488.928 292.475 497.703 317.283 466.731V445.051L266.375 466.731Z" fill="#9CE3F0"/>
<path d="M279.039 475.249C279.298 475.507 279.556 475.507 279.814 475.507C284.207 475.765 299.971 472.41 315.735 454.601C317.027 453.052 317.802 451.246 317.802 449.439V399.109C317.802 395.238 316.51 392.657 314.184 391.366L302.297 384.397C300.23 383.107 297.128 383.365 293.769 385.172L277.489 394.463C271.028 398.335 265.601 407.368 265.601 415.111V465.957C265.601 467.248 266.118 468.022 266.635 468.28L279.039 475.249Z" fill="#54A5F8"/>
<path d="M283.431 397.819C283.431 399.109 284.206 400.4 285.756 401.174C289.116 402.981 294.284 402.981 297.644 401.174C299.194 400.142 300.228 398.851 299.969 397.819V386.721C299.969 385.43 299.194 384.14 297.644 383.365C294.284 381.559 289.116 381.559 285.756 383.365C284.206 384.398 283.172 385.688 283.431 386.721V397.819Z" fill="#DD936F"/>
<path d="M284.206 382.333C284.206 385.172 282.397 386.205 279.812 384.914C277.486 383.623 275.419 380.268 275.419 377.428C275.419 374.589 277.228 373.557 279.812 374.847C282.138 376.138 284.206 379.493 284.206 382.333Z" fill="#F9AB83"/>
<path d="M306.689 411.756C306.689 411.756 328.913 391.624 315.475 355.49L305.139 392.914L306.689 411.756Z" fill="#3F4893"/>
<path d="M286.449 391.519C274.09 388.594 266.446 376.215 269.375 363.871C272.304 351.527 284.698 343.892 297.057 346.818C309.416 349.743 317.061 362.122 314.131 374.466C311.202 386.81 298.809 394.445 286.449 391.519Z" fill="#F1AC85"/>
<path d="M298.677 411.756C298.677 411.756 281.621 392.915 293.509 357.813L314.957 365.04C314.957 365.04 322.193 346.973 298.16 341.553C298.16 341.553 282.138 337.939 276.453 351.36C276.453 351.36 263.532 352.393 268.442 378.977C268.183 379.493 268.959 404.529 298.677 411.756Z" fill="#3F4893"/>
<path d="M283.433 454.343C280.074 455.375 276.198 453.31 275.423 449.697L265.344 412.014C264.31 408.659 266.378 404.787 269.996 404.013C273.355 402.98 277.231 405.045 278.007 408.659L288.085 446.342C288.86 449.697 287.051 453.31 283.433 454.343Z" fill="#F9AB83"/>
<path d="M320.128 455.633C319.353 459.246 315.993 461.311 312.375 460.795L281.882 454.601C278.264 454.601 275.163 451.762 275.163 448.148C275.163 444.535 278.006 441.438 281.624 441.438L315.218 447.89C318.836 448.664 320.903 452.02 320.128 455.633Z" fill="#F9AB83"/>
<path d="M734.63 609.72V383.624C734.63 377.946 731.529 372.525 726.619 369.686L454.504 213.019C443.909 206.825 430.472 214.568 430.472 226.956V453.053C430.472 458.731 433.572 464.151 438.482 466.99L710.339 623.658C721.193 629.594 734.63 622.109 734.63 609.72Z" fill="white"/>
<path d="M718.349 620.303C723.517 620.303 728.944 616.174 728.944 609.721V383.625C728.944 379.753 726.877 376.398 723.517 374.333L451.919 217.666C450.368 216.633 448.559 216.117 446.492 216.117C441.323 216.117 435.897 220.247 435.897 226.699V452.796C435.897 456.667 437.964 460.023 441.323 462.087L713.18 619.013C714.731 619.787 716.54 620.303 718.349 620.303Z" fill="url(#paint11_linear)"/>
<path d="M734.631 609.72V383.623C734.631 377.945 731.53 372.525 726.62 369.686L454.504 213.019C450.111 210.438 444.943 210.18 440.808 211.986L447.269 208.631C452.179 205.018 458.897 204.243 464.841 207.599L736.698 364.524C741.608 367.363 744.709 372.783 744.709 378.461V604.558C744.709 609.978 742.125 614.624 737.99 617.463H737.732C736.698 618.237 735.406 618.753 734.372 619.27L727.136 623.141C731.53 620.044 734.631 615.398 734.631 609.72Z" fill="url(#paint12_linear)"/>
<path d="M710.339 651.274L514.458 764.322C509.548 767.161 503.346 767.161 498.436 764.322L226.321 607.397C215.726 601.202 215.726 585.716 226.321 579.522L422.202 466.474C427.112 463.634 433.314 463.634 438.224 466.474L710.339 623.657C721.193 629.593 721.193 645.079 710.339 651.274Z" fill="white"/>
<path d="M226.321 607.397L498.436 764.322C503.346 767.161 509.548 767.161 514.458 764.322L710.34 651.274C715.766 648.176 718.351 642.756 718.351 637.336V652.048C718.351 657.468 715.766 662.888 710.34 665.985L514.458 779.034C509.548 781.873 503.346 781.873 498.436 779.034L226.579 622.108C221.411 619.269 218.827 614.107 218.568 608.945V608.687C218.568 608.429 218.568 607.913 218.568 607.655V594.233C218.568 599.395 221.153 604.557 226.321 607.397Z" fill="url(#paint13_linear)"/>
<path d="M327.879 563.262L561.489 697.732C570.534 702.894 586.556 702.378 597.151 696.184L667.441 655.662C678.036 649.467 679.07 640.434 670.025 635.272L436.415 500.543C427.37 495.381 411.348 495.897 400.753 502.092L330.463 542.613C319.868 548.808 318.834 557.841 327.879 563.262Z" fill="#B8D0F6"/>
<path d="M669.768 638.627L436.157 503.898C427.112 498.736 411.09 499.252 400.495 505.447L330.205 545.968C325.295 548.808 322.453 552.421 321.677 556.034C320.644 551.647 323.745 546.485 330.205 542.871L400.495 502.349C411.09 496.155 426.854 495.639 436.157 500.801L669.768 635.529C674.419 638.369 676.487 641.982 675.711 646.112C675.195 643.014 673.127 640.433 669.768 638.627Z" fill="#99B6E0"/>
<path d="M481.38 562.229L493.784 555.002L506.188 562.229L493.784 569.456L481.38 562.229ZM505.671 576.166L518.075 568.939L530.479 576.166L518.075 583.393L505.671 576.166ZM456.83 548.291L469.234 541.064L481.638 548.291L469.234 555.518L456.83 548.291ZM386.282 555.776L360.44 540.806L372.844 533.579L398.686 548.549L386.282 555.776ZM381.372 528.676L393.776 521.449L406.18 528.676L393.776 535.902L381.372 528.676ZM432.539 534.096L444.943 526.869L457.347 534.096L444.943 541.323L432.539 534.096ZM529.963 590.362L542.367 583.135L554.771 590.362L542.367 597.589L529.963 590.362ZM402.821 550.872L616.275 673.986L603.871 681.213L390.416 558.099L402.821 550.872ZM554.254 604.299L566.658 597.072L579.062 604.299L566.658 611.526L554.254 604.299ZM412.64 532.547L637.207 662.114L624.802 669.341L400.236 539.774L412.64 532.547ZM351.912 545.71L595.343 686.117L582.939 693.344L339.508 552.937L351.912 545.71ZM603.095 632.432L615.499 625.205L627.903 632.432L615.499 639.659L603.095 632.432ZM578.804 618.495L591.208 611.268L603.612 618.495L591.208 625.722L578.804 618.495Z" fill="#99B6E0"/>
<path d="M481.38 560.164L493.784 552.937L506.188 560.164L493.784 567.391L481.38 560.164ZM505.671 574.101L518.075 566.874L530.479 574.101L518.075 581.328L505.671 574.101ZM456.83 545.968L469.234 538.741L481.638 545.968L469.234 553.195L456.83 545.968ZM386.282 553.453L360.44 538.483L372.844 531.256L398.686 546.226L386.282 553.453ZM381.372 526.611L393.776 519.384L406.18 526.611L393.776 533.837L381.372 526.611ZM432.539 532.031L444.943 524.804L457.347 532.031L444.943 539.258L432.539 532.031ZM529.963 588.039L542.367 580.812L554.771 588.039L542.367 595.265L529.963 588.039ZM402.821 548.807L616.275 671.922L603.871 679.148L390.416 556.034L402.821 548.807ZM554.254 602.234L566.658 595.007L579.062 602.234L566.658 609.461L554.254 602.234ZM412.64 530.224L637.207 659.791L624.802 667.018L400.236 537.451L412.64 530.224ZM351.912 543.645L595.343 684.052L582.939 691.279L339.508 550.872L351.912 543.645ZM603.095 630.367L615.499 623.14L627.903 630.367L615.499 637.594L603.095 630.367ZM578.804 616.172L591.208 608.945L603.612 616.172L591.208 623.399L578.804 616.172Z" fill="#E4F2FF"/>
<path d="M469.234 540.032L457.864 546.743L456.83 546.226L469.234 538.999L481.638 546.226L480.605 546.743L469.234 540.032ZM444.943 525.836L433.572 532.547L432.539 532.031L444.943 524.804L457.347 532.031L456.313 532.547L444.943 525.836ZM493.784 553.969L482.414 560.68L481.38 560.164L493.784 552.937L506.188 560.164L505.154 560.68L493.784 553.969ZM397.652 547.001L372.844 532.547L361.474 539.258L360.44 538.741L372.844 531.515L398.686 546.484L397.652 547.001ZM518.075 568.165L506.705 574.876L505.671 574.359L518.075 567.133L530.479 574.359L529.446 574.876L518.075 568.165ZM393.776 520.416L382.405 527.127L381.372 526.611L393.776 519.384L406.18 526.611L405.146 527.127L393.776 520.416ZM351.912 543.645L595.343 684.052L594.309 684.569L351.654 544.678L340.283 551.388L339.249 550.872L351.912 543.645ZM401.27 537.967L400.236 537.451L412.64 530.224L637.207 659.791L636.173 660.307L412.64 531.256L401.27 537.967ZM615.499 624.173L604.129 630.884L603.095 630.367L615.499 623.14L627.903 630.367L626.87 630.884L615.499 624.173ZM391.45 556.55L390.416 556.034L402.821 548.807L616.275 671.922L615.241 672.438L402.821 549.84L391.45 556.55ZM590.95 610.235L579.579 616.946L578.545 616.43L590.95 609.203L603.354 616.43L602.32 616.946L590.95 610.235ZM542.367 582.102L530.996 588.813L529.963 588.297L542.367 581.07L554.771 588.297L553.737 588.813L542.367 582.102ZM566.658 596.04L555.288 602.751L554.254 602.234L566.658 595.007L579.062 602.234L578.029 602.751L566.658 596.04Z" fill="white"/>
<path d="M347.002 642.24L419.876 684.31C424.269 686.891 432.28 686.633 437.448 683.536L453.47 674.244C458.639 671.147 459.156 666.76 454.763 663.92L381.888 621.85C377.495 619.269 369.484 619.527 364.316 622.624L348.294 631.916C343.125 635.013 342.35 639.659 347.002 642.24Z" fill="#B8D0F6"/>
<path d="M454.764 666.243L381.89 624.173C377.497 621.592 369.486 621.85 364.317 624.947L348.295 634.239C345.97 635.529 344.678 637.336 344.161 638.885C343.644 636.562 344.936 633.981 348.295 631.916L364.317 622.624C369.486 619.527 377.497 619.269 381.89 621.85L454.764 664.178C457.348 665.727 458.124 667.534 457.607 669.599C457.09 668.308 456.315 667.017 454.764 666.243Z" fill="#99B6E0"/>
<path d="M474.404 295.094V286.835C474.404 279.608 479.572 276.769 485.774 280.383L679.588 392.14C685.79 395.754 690.958 404.529 690.958 411.756V420.015L474.404 295.094Z" fill="white"/>
<path d="M670.8 397.819C670.8 400.659 672.868 404.272 675.452 405.563C678.037 407.112 680.104 405.821 680.104 402.982C680.104 400.142 678.037 396.529 675.452 395.238C672.609 393.689 670.8 394.722 670.8 397.819Z" fill="white"/>
<path d="M654.779 388.527C654.779 391.366 656.846 394.98 659.431 396.271C662.015 397.82 664.083 396.529 664.083 393.69C664.083 390.85 662.015 387.236 659.431 385.946C656.846 384.397 654.779 385.688 654.779 388.527Z" fill="white"/>
<path d="M638.756 379.236C638.756 382.075 640.823 385.689 643.408 386.979C645.992 388.528 648.06 387.238 648.06 384.398C648.06 381.559 645.992 377.945 643.408 376.654C640.823 375.364 638.756 376.396 638.756 379.236Z" fill="white"/>
<path d="M656.33 440.664L690.7 460.279V429.307L656.33 409.434V440.664Z" fill="white" fill-opacity="0.4"/>
<path d="M613.691 415.886L647.802 435.759V404.529L613.691 384.914V415.886Z" fill="white" fill-opacity="0.9"/>
<path opacity="0.7" d="M570.792 391.108L605.162 410.982V379.752L570.792 360.136V391.108Z" fill="white"/>
<path d="M558.906 384.398L474.403 335.617V329.164L558.906 377.945V384.398Z" fill="url(#paint14_linear)"/>
<path d="M558.906 372.267L474.403 323.227V316.775L558.906 365.556V372.267Z" fill="url(#paint15_linear)"/>
<path d="M558.906 359.878L474.403 311.097V304.386L558.906 353.425V359.878Z" fill="url(#paint16_linear)"/>
<path d="M481.897 406.594L683.206 522.74C687.34 525.063 690.7 522.482 690.7 517.061V479.637C690.7 474.217 687.34 467.764 683.206 465.441L481.897 349.296C477.763 346.973 474.403 349.554 474.403 354.974V392.399C474.403 398.077 477.763 404.271 481.897 406.594Z" fill="white"/>
<path d="M602.32 467.765L628.42 482.993V450.472L602.32 435.244V467.765Z" fill="#99CFFF"/>
<path d="M569.242 448.923L595.601 463.893V436.792L569.242 421.564V448.923Z" fill="#98EF7A"/>
<path d="M536.422 429.824L562.781 445.052V405.304L536.422 390.076V429.824Z" fill="#F97F58"/>
<path d="M489.133 398.594L481.896 394.722V388.011L489.133 392.141V398.594Z" fill="#F97F58"/>
<path d="M489.133 386.463L481.896 382.333V375.88L489.133 379.752V386.463Z" fill="#F97F58"/>
<path d="M489.133 374.074L481.896 369.944V363.491L489.133 367.621V374.074Z" fill="#F97F58"/>
<path d="M528.93 421.822L492.493 400.658V394.205L528.93 415.111V421.822Z" fill="url(#paint17_linear)"/>
<path d="M528.93 409.433L492.493 388.268V381.816L528.93 402.98V409.433Z" fill="url(#paint18_linear)"/>
<path d="M528.93 397.044L492.493 376.138V369.428L528.93 390.592V397.044Z" fill="url(#paint19_linear)"/>
<path d="M675.71 475.249L682.688 479.379V485.832L675.71 481.702V475.249Z" fill="#99CFFF"/>
<path d="M675.71 487.638L682.688 491.51V498.221L675.71 494.091V487.638Z" fill="#99CFFF"/>
<path d="M675.71 499.768L682.688 503.898V510.351L675.71 506.221V499.768Z" fill="#99CFFF"/>
<path d="M635.656 452.278L672.352 473.184V479.895L635.656 458.73V452.278Z" fill="url(#paint20_linear)"/>
<path d="M635.656 464.409L672.352 485.573V492.026L635.656 470.861V464.409Z" fill="url(#paint21_linear)"/>
<path d="M635.656 476.797L672.352 497.704V504.414L635.656 483.25V476.797Z" fill="url(#paint22_linear)"/>
<path d="M488.874 442.47L673.127 548.808C677.003 551.131 680.104 548.55 680.104 543.646C680.104 538.484 677.003 532.547 673.127 530.483L488.874 424.145C484.998 421.822 481.897 424.403 481.897 429.307C481.897 434.211 484.998 440.405 488.874 442.47Z" fill="white"/>
<path d="M680.622 579.264L855.313 679.923C860.74 683.02 865.133 679.665 865.133 672.438V507.512C865.133 500.285 860.74 491.768 855.313 488.67L680.622 388.011C675.195 384.914 670.802 388.269 670.802 395.496V560.422C670.802 567.907 675.195 576.167 680.622 579.264Z" fill="url(#paint23_linear)"/>
<path d="M686.048 562.487L850.144 656.952V644.822L686.048 550.099V562.487Z" fill="url(#paint24_linear)"/>
<path d="M717.316 487.896C717.316 520.159 740.057 559.39 767.966 575.65C795.875 591.911 818.616 578.748 818.616 546.485C818.616 514.222 795.875 474.991 767.966 458.731C740.057 442.47 717.316 455.634 717.316 487.896Z" fill="url(#paint25_linear)"/>
<path d="M321.938 326.325L496.629 426.984C502.056 430.081 506.449 426.726 506.449 419.499V290.707C506.449 283.48 502.056 274.963 496.629 271.866L321.938 171.206C316.511 168.109 312.118 171.464 312.118 178.691V307.484C312.118 314.968 316.511 323.228 321.938 326.325Z" fill="url(#paint26_linear)"/>
<path d="M327.362 304.644L491.199 399.367V386.979L327.362 292.514V304.644Z" fill="url(#paint27_linear)"/>
<path d="M327.362 279.609L491.199 374.074V361.685L327.362 267.22V279.609Z" fill="url(#paint28_linear)"/>
<path d="M443.908 317.291L487.839 342.843V291.997L443.908 266.704V317.291Z" fill="url(#paint29_linear)"/>
<path d="M387.315 284.771L431.247 310.065V259.219L387.315 233.925V284.771Z" fill="url(#paint30_linear)"/>
<path d="M330.462 251.992L374.651 277.544V226.698L330.462 201.146V251.992Z" fill="url(#paint31_linear)"/>
<path d="M234.849 791.165C235.624 791.424 235.883 792.456 236.141 793.746C236.141 794.263 232.006 791.424 232.265 792.714C232.265 793.23 235.366 812.846 228.905 819.298C228.13 820.073 227.355 819.815 226.58 819.557L224.771 818.524C222.703 817.492 221.411 813.104 219.602 806.135C217.535 798.65 216.501 794.005 224.771 789.101C227.097 787.81 228.389 787.294 229.164 787.81L234.849 791.165Z" fill="#010400"/>
<path d="M219.602 806.393C221.927 815.427 223.478 820.589 227.096 818.524C230.455 816.459 231.231 808.975 230.197 800.199C229.163 792.456 233.039 784.455 224.77 789.359C216.501 794.263 217.534 798.909 219.602 806.393Z" fill="#484968"/>
<path d="M166.367 748.578L183.423 754.773L190.4 762.516C190.4 762.516 202.546 767.678 212.107 777.743C212.107 777.743 215.725 783.164 227.871 789.1C227.871 789.1 227.871 797.617 220.377 798.908L172.052 771.033C168.693 768.968 166.367 765.613 166.109 761.741C165.592 758.902 165.592 754.514 166.367 748.578Z" fill="#E28C66"/>
<path d="M187.816 824.976L188.333 764.839L204.614 770.259L204.872 781.357C204.872 781.357 206.422 794.52 202.288 807.684C202.288 807.684 199.445 813.362 199.962 827.041C200.22 826.783 192.726 830.913 187.816 824.976Z" fill="#F1AC85"/>
<path d="M143.368 740.577C146.727 742.125 150.604 740.577 151.896 737.221L177.738 680.181C179.288 676.826 177.738 672.954 174.378 671.664C171.019 670.115 167.142 671.664 165.85 675.019L140.008 732.059C138.458 735.157 140.008 739.286 143.368 740.577Z" fill="#E28C66"/>
<path d="M140.784 734.125L181.355 710.896V678.117L140.784 701.604V734.125Z" fill="url(#paint32_linear)"/>
<path d="M150.861 725.35V700.572L149.828 701.088V725.866L150.861 725.35Z" fill="#A29AFB"/>
<path d="M152.67 716.833V699.54L151.895 700.056V717.349L152.67 716.833Z" fill="#A29AFB"/>
<path d="M154.738 721.22V698.249L153.704 698.765V721.736L154.738 721.22Z" fill="#A29AFB"/>
<path d="M156.546 721.994V697.216L155.771 697.733V722.51L156.546 721.994Z" fill="#A29AFB"/>
<path d="M158.614 705.218V695.926L157.839 696.442V705.735L158.614 705.218Z" fill="#A29AFB"/>
<path d="M215.467 750.643V772.84C215.467 772.84 189.367 781.615 164.817 750.643V729.221L215.467 750.643Z" fill="#FF9100"/>
<path d="M203.579 757.612C203.32 757.87 203.062 757.87 202.804 757.87C198.411 758.128 182.647 754.773 166.883 736.964C165.591 735.415 164.816 733.608 164.816 731.802V681.472C164.816 677.6 166.108 675.019 168.434 673.729L180.321 666.76C182.389 665.47 185.49 665.728 188.849 667.534L204.871 676.826C211.331 680.698 216.758 689.731 216.758 697.216V747.804C216.758 749.095 216.241 749.869 215.725 750.127L203.579 757.612Z" fill="#FFFFEB"/>
<path d="M198.928 680.439C198.928 681.73 198.153 683.02 196.603 683.795C193.243 685.601 188.075 685.601 184.715 683.795C183.165 682.762 182.131 681.472 182.39 680.439V669.341C182.39 668.051 183.165 666.76 184.715 665.986C188.075 664.179 193.243 664.179 196.603 665.986C198.153 667.018 199.187 668.309 198.928 669.341V680.439Z" fill="#DD936F"/>
<path d="M243.635 752.192C246.736 750.644 248.028 746.514 246.477 743.417L218.051 687.151C216.501 684.053 212.366 682.763 209.265 684.311C206.164 685.86 204.872 689.99 206.422 693.087L234.848 749.353C236.399 752.708 240.275 753.999 243.635 752.192Z" fill="#F9AB83"/>
<path d="M169.47 645.854L161.2 677.858C160.425 680.956 163.526 683.537 166.369 682.246L185.233 674.245C186.784 673.471 187.818 671.922 187.559 670.115L181.357 638.627C180.582 635.272 176.189 634.498 174.38 637.337L169.987 644.822C169.728 645.08 169.47 645.338 169.47 645.854Z" fill="#943BBB"/>
<path d="M198.411 664.954C198.411 667.794 200.22 668.826 202.804 667.536C205.13 666.245 207.198 662.889 207.198 660.05C207.198 657.211 205.389 656.178 202.804 657.469C200.22 658.759 198.411 662.115 198.411 664.954Z" fill="#F9AB83"/>
<path d="M190.659 674.762C177.957 674.762 167.66 664.477 167.66 651.791C167.66 639.104 177.957 628.82 190.659 628.82C203.362 628.82 213.659 639.104 213.659 651.791C213.659 664.477 203.362 674.762 190.659 674.762Z" fill="#F9AB83"/>
<path d="M213.141 654.888C213.141 654.888 193.759 665.47 184.198 637.853C184.198 637.853 179.03 649.467 166.626 646.886C166.626 646.886 166.625 628.819 185.49 625.206C185.232 625.206 218.568 621.851 213.141 654.888Z" fill="#943BBB"/>
<path d="M202.289 655.92L194.02 687.925C193.245 691.022 196.346 693.603 199.188 692.312L218.053 684.311C219.603 683.537 220.637 681.988 220.378 680.182L214.176 648.693C213.401 645.338 209.008 644.564 207.199 647.403L202.806 654.888C202.548 655.146 202.548 655.404 202.289 655.92Z" fill="#943BBB"/>
<path d="M385.766 753.998C386.025 756.579 381.89 760.45 375.688 764.064C367.418 768.709 364.576 774.646 354.497 768.967C351.655 767.419 350.363 765.87 350.363 764.838V758.643C350.104 755.804 357.082 753.998 363.025 750.384C371.295 745.738 380.081 743.157 384.216 745.48C385.249 745.996 385.766 746.771 385.766 747.803V753.998Z" fill="black"/>
<path d="M375.686 757.612C383.956 752.966 388.349 747.804 384.214 745.481C380.079 743.158 371.293 745.739 363.024 750.385C354.754 755.031 344.418 756.837 354.496 762.516C364.574 768.194 367.675 762.257 375.686 757.612Z" fill="#2D0D60"/>
<path d="M363.025 738.254C363.283 740.835 359.149 744.706 352.947 748.32C344.677 752.966 341.834 758.902 331.756 753.224C328.913 751.675 327.621 750.126 327.621 749.094V742.9C327.363 740.061 334.34 738.254 340.284 734.64C348.553 729.995 357.34 727.414 361.474 729.737C362.508 730.253 363.025 731.027 363.025 732.059V738.254Z" fill="black"/>
<path d="M352.945 741.867C361.215 737.221 365.608 732.059 361.473 729.736C357.338 727.413 348.552 729.994 340.283 734.64C332.013 739.286 321.677 741.093 331.755 746.771C341.833 752.707 344.934 746.513 352.945 741.867Z" fill="#2D0D60"/>
<path d="M372.068 550.614C368.967 548.549 364.833 549.582 362.765 552.679L334.856 597.073C332.789 600.17 333.822 604.299 336.923 606.364C340.024 608.429 344.159 607.397 346.226 604.299L374.136 559.906C376.203 556.809 375.169 552.421 372.068 550.614Z" fill="#FCC4B7"/>
<path d="M353.72 599.137L344.676 613.332C341.575 618.236 335.114 619.527 330.462 616.688C325.553 613.59 324.26 607.138 327.103 602.492L336.148 588.297C336.148 588.039 347.518 583.909 353.72 599.137Z" fill="#293677"/>
<path d="M350.619 755.546C350.36 755.03 350.102 754.256 350.102 753.481V683.278C350.102 678.89 354.753 675.277 360.18 675.277C365.865 675.277 370.258 678.89 370.258 683.278V759.676C370.258 760.708 369.483 761.741 368.449 761.999C364.832 763.289 355.528 764.838 350.619 755.546Z" fill="#55D1FF"/>
<path d="M327.879 739.027C327.62 738.511 327.362 737.737 327.362 736.962L328.912 666.759C328.912 662.371 333.564 658.758 339.249 659.016C344.934 659.016 349.327 662.887 349.327 667.275L347.777 743.415C347.777 744.447 347.002 745.48 345.968 745.738C341.833 747.028 332.53 748.577 327.879 739.027Z" fill="#55D1FF"/>
<path d="M367.159 695.925C366.9 696.183 366.642 696.183 366.383 696.183C361.99 696.441 345.71 693.086 329.43 674.761C328.138 673.212 327.362 671.147 327.362 669.599V617.979C327.362 614.107 328.654 611.268 330.98 609.977L343.126 603.009C345.452 601.718 348.294 601.976 351.912 603.783L368.451 613.333C375.17 617.204 380.596 626.754 380.596 634.497V686.375C380.596 687.666 380.08 688.44 379.304 688.956L367.159 695.925Z" fill="#5258A6"/>
<path d="M362.506 616.43C362.506 617.721 361.731 619.011 359.922 620.044C356.562 621.851 351.136 621.851 347.776 620.044C345.967 619.011 345.192 617.721 345.192 616.43V605.074C345.192 603.783 345.967 602.493 347.776 601.461C351.136 599.654 356.562 599.654 359.922 601.461C361.731 602.493 362.506 603.783 362.506 605.074V616.43Z" fill="#F1AC85"/>
<path d="M353.98 610.752C340.992 610.752 330.464 600.237 330.464 587.265C330.464 574.293 340.992 563.778 353.98 563.778C366.967 563.778 377.496 574.293 377.496 587.265C377.496 600.237 366.967 610.752 353.98 610.752Z" fill="#FCC4B7"/>
<path d="M394.808 691.538C398.426 690.248 400.235 686.634 398.943 683.021L381.112 635.014C379.82 631.401 376.202 629.594 372.584 630.885C368.966 632.175 367.158 635.788 368.45 639.402L386.281 687.409C387.573 691.022 391.19 692.829 394.808 691.538Z" fill="#FCC4B7"/>
<path d="M367.673 648.434L362.246 632.432C360.437 627.012 363.279 621.075 368.706 619.269C374.133 617.462 380.077 620.301 381.886 625.721L387.312 641.723C387.312 641.723 383.436 653.08 367.673 648.434Z" fill="#293677"/>
<path fill-rule="evenodd" clip-rule="evenodd" d="M340.539 608.688C348.033 613.075 353.718 609.72 355.786 606.623C360.954 598.622 361.729 604.042 364.83 600.17C368.707 593.718 367.931 584.684 373.358 580.555C381.369 574.618 379.043 563.004 358.37 557.584C330.719 550.615 319.607 585.458 336.921 605.59C338.213 607.397 338.989 607.913 340.539 608.688Z" fill="#E58800"/>
<path d="M362.248 601.462C364.316 603.527 366.384 602.752 367.159 600.171C367.934 597.332 366.9 593.718 364.833 591.653C362.765 589.588 360.698 590.362 359.922 592.944C359.147 595.525 360.181 599.397 362.248 601.462Z" fill="#FCC4B7"/>
<path d="M539.525 824.977C527.965 824.977 518.593 815.617 518.593 804.071C518.593 792.525 527.965 783.165 539.525 783.165C551.085 783.165 560.457 792.525 560.457 804.071C560.457 815.617 551.085 824.977 539.525 824.977Z" fill="#FCC4B7"/>
<path d="M550.899 820.588C549.607 819.298 547.539 816.717 546.506 813.62C546.506 813.361 546.506 813.361 546.506 813.103V803.037C546.506 800.973 545.989 799.166 544.955 797.359C544.18 795.811 542.629 794.778 540.821 794.778C540.821 794.778 524.023 802.005 517.821 788.326C517.305 787.293 517.821 786.003 519.113 785.745C520.406 785.487 521.956 784.454 523.765 781.615C524.282 780.841 525.057 780.583 525.832 780.841C527.383 781.357 530.484 781.357 533.326 778.002C533.585 777.485 534.102 777.485 534.619 777.485C537.72 777.485 548.832 778.002 554.775 782.389C556.067 783.422 576.741 801.231 553.225 820.588C552.708 821.105 551.416 821.105 550.899 820.588Z" fill="#331202"/>
<defs>
<linearGradient id="paint0_linear" x1="886.878" y1="106.215" x2="1007.93" y2="365.047" gradientUnits="userSpaceOnUse">
<stop stop-color="#E4F2FF"/>
<stop offset="0.3075" stop-color="#D7E6FD" stop-opacity="0.6923"/>
<stop offset="0.9993" stop-color="#BDCEFA" stop-opacity="0"/>
</linearGradient>
<linearGradient id="paint1_linear" x1="804.447" y1="104.182" x2="712.517" y2="477.966" gradientUnits="userSpaceOnUse">
<stop stop-color="#E4F2FF"/>
<stop offset="0.3075" stop-color="#D7E6FD" stop-opacity="0.6923"/>
<stop offset="0.9993" stop-color="#BDCEFA" stop-opacity="0"/>
</linearGradient>
<linearGradient id="paint2_linear" x1="584.66" y1="-78.6718" x2="588.761" y2="132.82" gradientUnits="userSpaceOnUse">
<stop stop-color="#E4F2FF"/>
<stop offset="0.3075" stop-color="#D7E6FD" stop-opacity="0.6923"/>
<stop offset="0.9993" stop-color="#BDCEFA" stop-opacity="0"/>
</linearGradient>
<linearGradient id="paint3_linear" x1="884.208" y1="355.06" x2="921.124" y2="628.162" gradientUnits="userSpaceOnUse">
<stop stop-color="#E4F2FF"/>
<stop offset="0.3075" stop-color="#D7E6FD" stop-opacity="0.6923"/>
<stop offset="0.9993" stop-color="#BDCEFA" stop-opacity="0"/>
</linearGradient>
<linearGradient id="paint4_linear" x1="43.7781" y1="250.886" x2="226.896" y2="614.989" gradientUnits="userSpaceOnUse">
<stop stop-color="#E4F2FF"/>
<stop offset="0.0555438" stop-color="#E1EFFF"/>
<stop offset="0.6478" stop-color="#C7D7FB"/>
<stop offset="0.9993" stop-color="#BDCEFA"/>
</linearGradient>
<linearGradient id="paint5_linear" x1="5.09063" y1="70.2983" x2="300.908" y2="511.127" gradientUnits="userSpaceOnUse">
<stop stop-color="#E4F2FF"/>
<stop offset="0.0555438" stop-color="#E1EFFF"/>
<stop offset="0.6478" stop-color="#C7D7FB"/>
<stop offset="0.9993" stop-color="#BDCEFA"/>
</linearGradient>
<linearGradient id="paint6_linear" x1="-28.3898" y1="541.703" x2="625.233" y2="1045.59" gradientUnits="userSpaceOnUse">
<stop stop-color="#E4F2FF"/>
<stop offset="0.0555438" stop-color="#E1EFFF"/>
<stop offset="0.6478" stop-color="#C7D7FB"/>
<stop offset="0.9993" stop-color="#BDCEFA"/>
</linearGradient>
<linearGradient id="paint7_linear" x1="347.894" y1="906.435" x2="607.16" y2="869.754" gradientUnits="userSpaceOnUse">
<stop stop-color="#E4F2FF"/>
<stop offset="0.0555438" stop-color="#E1EFFF"/>
<stop offset="0.6478" stop-color="#C7D7FB"/>
<stop offset="0.9993" stop-color="#BDCEFA"/>
</linearGradient>
<linearGradient id="paint8_linear" x1="357.342" y1="923.018" x2="837.909" y2="783.327" gradientUnits="userSpaceOnUse">
<stop stop-color="#E4F2FF"/>
<stop offset="0.0555438" stop-color="#E1EFFF"/>
<stop offset="0.6478" stop-color="#C7D7FB"/>
<stop offset="0.9993" stop-color="#BDCEFA"/>
</linearGradient>
<linearGradient id="paint9_linear" x1="2.8977" y1="602.172" x2="198.003" y2="608.64" gradientUnits="userSpaceOnUse">
<stop stop-color="#E4F2FF"/>
<stop offset="0.0555438" stop-color="#E1EFFF"/>
<stop offset="0.6478" stop-color="#C7D7FB"/>
<stop offset="0.9993" stop-color="#BDCEFA"/>
</linearGradient>
<linearGradient id="paint10_linear" x1="215.754" y1="516.688" x2="366.838" y2="430.709" gradientUnits="userSpaceOnUse">
<stop stop-color="#E4F2FF"/>
<stop offset="0.0555438" stop-color="#E1EFFF"/>
<stop offset="0.6478" stop-color="#C7D7FB"/>
<stop offset="0.9993" stop-color="#BDCEFA"/>
</linearGradient>
<linearGradient id="paint11_linear" x1="725.712" y1="418.21" x2="435.897" y2="418.21" gradientUnits="userSpaceOnUse">
<stop stop-color="#A4B7FA"/>
<stop offset="1" stop-color="#ADDDFF"/>
</linearGradient>
<linearGradient id="paint12_linear" x1="468.701" y1="179.27" x2="771.905" y2="540.979" gradientUnits="userSpaceOnUse">
<stop stop-color="#E4F2FF"/>
<stop offset="0.0555438" stop-color="#E1EFFF"/>
<stop offset="0.6478" stop-color="#C7D7FB"/>
<stop offset="0.9993" stop-color="#BDCEFA"/>
</linearGradient>
<linearGradient id="paint13_linear" x1="141.74" y1="647.678" x2="609.342" y2="709.097" gradientUnits="userSpaceOnUse">
<stop stop-color="#E4F2FF"/>
<stop offset="0.0555438" stop-color="#E1EFFF"/>
<stop offset="0.6478" stop-color="#C7D7FB"/>
<stop offset="0.9993" stop-color="#BDCEFA"/>
</linearGradient>
<linearGradient id="paint14_linear" x1="559.01" y1="356.833" x2="474.345" y2="356.833" gradientUnits="userSpaceOnUse">
<stop stop-color="#FCFDFF" stop-opacity="0"/>
<stop offset="0.796875" stop-color="white"/>
</linearGradient>
<linearGradient id="paint15_linear" x1="559.01" y1="344.573" x2="474.345" y2="344.573" gradientUnits="userSpaceOnUse">
<stop stop-color="#FCFDFF" stop-opacity="0"/>
<stop offset="0.796875" stop-color="white"/>
</linearGradient>
<linearGradient id="paint16_linear" x1="559.01" y1="332.184" x2="474.345" y2="332.184" gradientUnits="userSpaceOnUse">
<stop stop-color="#FCFDFF" stop-opacity="0"/>
<stop offset="0.796875" stop-color="white"/>
</linearGradient>
<linearGradient id="paint17_linear" x1="532.402" y1="421.234" x2="468.015" y2="381.615" gradientUnits="userSpaceOnUse">
<stop stop-color="#FCFDFF" stop-opacity="0"/>
<stop offset="0.760417" stop-color="#F97F58"/>
</linearGradient>
<linearGradient id="paint18_linear" x1="532.402" y1="408.845" x2="468.015" y2="369.225" gradientUnits="userSpaceOnUse">
<stop stop-color="#FCFDFF" stop-opacity="0"/>
<stop offset="0.760417" stop-color="#F97F58"/>
</linearGradient>
<linearGradient id="paint19_linear" x1="532.402" y1="396.457" x2="468.015" y2="356.837" gradientUnits="userSpaceOnUse">
<stop stop-color="#FCFDFF" stop-opacity="0"/>
<stop offset="0.760417" stop-color="#F97F58"/>
</linearGradient>
<linearGradient id="paint20_linear" x1="627.396" y1="447.963" x2="700.217" y2="497.394" gradientUnits="userSpaceOnUse">
<stop stop-color="#FCFDFF" stop-opacity="0"/>
<stop offset="0.807292" stop-color="#99CFFF"/>
</linearGradient>
<linearGradient id="paint21_linear" x1="627.396" y1="460.094" x2="700.217" y2="509.525" gradientUnits="userSpaceOnUse">
<stop stop-color="#FCFDFF" stop-opacity="0"/>
<stop offset="0.807292" stop-color="#99CFFF"/>
</linearGradient>
<linearGradient id="paint22_linear" x1="627.396" y1="472.482" x2="700.217" y2="521.913" gradientUnits="userSpaceOnUse">
<stop stop-color="#FCFDFF" stop-opacity="0"/>
<stop offset="0.807292" stop-color="#99CFFF"/>
</linearGradient>
<linearGradient id="paint23_linear" x1="663.336" y1="350.176" x2="859.598" y2="695.8" gradientUnits="userSpaceOnUse">
<stop stop-color="#E4F2FF"/>
<stop offset="0.3075" stop-color="#D7E6FD" stop-opacity="0.6923"/>
<stop offset="0.9993" stop-color="#BDCEFA" stop-opacity="0"/>
</linearGradient>
<linearGradient id="paint24_linear" x1="648.158" y1="398.059" x2="787.083" y2="636.766" gradientUnits="userSpaceOnUse">
<stop stop-color="#E4F2FF"/>
<stop offset="0.0555438" stop-color="#E1EFFF"/>
<stop offset="0.6478" stop-color="#C7D7FB"/>
<stop offset="0.9993" stop-color="#BDCEFA"/>
</linearGradient>
<linearGradient id="paint25_linear" x1="685.837" y1="376.13" x2="824.763" y2="614.837" gradientUnits="userSpaceOnUse">
<stop stop-color="#E4F2FF"/>
<stop offset="0.0555438" stop-color="#E1EFFF"/>
<stop offset="0.6478" stop-color="#C7D7FB"/>
<stop offset="0.9993" stop-color="#BDCEFA"/>
</linearGradient>
<linearGradient id="paint26_linear" x1="312.118" y1="170.053" x2="529.782" y2="403.211" gradientUnits="userSpaceOnUse">
<stop stop-color="#E4F2FF"/>
<stop offset="0.3075" stop-color="#D7E6FD" stop-opacity="0.6923"/>
<stop offset="0.9993" stop-color="white" stop-opacity="0.66"/>
</linearGradient>
<linearGradient id="paint27_linear" x1="286.211" y1="237.319" x2="498.934" y2="425.38" gradientUnits="userSpaceOnUse">
<stop stop-color="#E4F2FF"/>
<stop offset="0.0555438" stop-color="#E1EFFF"/>
<stop offset="0.6478" stop-color="#C7D7FB"/>
<stop offset="0.9993" stop-color="#BDCEFA"/>
</linearGradient>
<linearGradient id="paint28_linear" x1="298.711" y1="223.18" x2="511.433" y2="411.241" gradientUnits="userSpaceOnUse">
<stop stop-color="#E4F2FF"/>
<stop offset="0.0555438" stop-color="#E1EFFF"/>
<stop offset="0.6478" stop-color="#C7D7FB"/>
<stop offset="0.9993" stop-color="#BDCEFA"/>
</linearGradient>
<linearGradient id="paint29_linear" x1="331.462" y1="186.134" x2="544.184" y2="374.194" gradientUnits="userSpaceOnUse">
<stop stop-color="#E4F2FF"/>
<stop offset="0.0555438" stop-color="#E1EFFF"/>
<stop offset="0.6478" stop-color="#C7D7FB"/>
<stop offset="0.9993" stop-color="#BDCEFA"/>
</linearGradient>
<linearGradient id="paint30_linear" x1="322.872" y1="195.852" x2="535.594" y2="383.911" gradientUnits="userSpaceOnUse">
<stop stop-color="#E4F2FF"/>
<stop offset="0.0555438" stop-color="#E1EFFF"/>
<stop offset="0.6478" stop-color="#C7D7FB"/>
<stop offset="0.9993" stop-color="#BDCEFA"/>
</linearGradient>
<linearGradient id="paint31_linear" x1="314.279" y1="205.569" x2="527.001" y2="393.63" gradientUnits="userSpaceOnUse">
<stop stop-color="#E4F2FF"/>
<stop offset="0.0555438" stop-color="#E1EFFF"/>
<stop offset="0.6478" stop-color="#C7D7FB"/>
<stop offset="0.9993" stop-color="#BDCEFA"/>
</linearGradient>
<linearGradient id="paint32_linear" x1="135.612" y1="716.066" x2="185.399" y2="696.613" gradientUnits="userSpaceOnUse">
<stop stop-color="#E8E9FF"/>
<stop offset="0.9996" stop-color="#C0C0F6"/>
</linearGradient>
</defs>
</svg>
