<svg width="462" height="446" viewBox="0 0 462 446" fill="none" xmlns="http://www.w3.org/2000/svg">
<g opacity="0.15">
<path opacity="0.15" d="M-43.8377 438.884L249.684 602.393C262.706 609.846 285.532 608.969 300.604 600.348L471.654 501.716C486.725 493.095 488.334 479.798 475.312 472.346L181.79 308.837C168.768 301.385 145.942 302.262 130.87 310.883L-40.1797 409.514C-55.1045 418.281 -56.8604 431.432 -43.8377 438.884Z" fill="#BDCEFA"/>
</g>
<path d="M522.426 219.265C524.036 219.265 525.938 217.95 525.938 215.758V142.552C525.938 141.383 525.206 140.214 524.182 139.629L435.95 88.7792C435.365 88.4869 434.78 88.3408 434.194 88.3408C432.585 88.3408 430.682 89.6559 430.682 91.8477V165.054C430.682 166.223 431.414 167.392 432.438 167.977L520.67 218.827C521.256 219.119 521.841 219.265 522.426 219.265Z" fill="url(#paint0_linear)"/>
<path d="M456.582 325.641C460.093 325.641 464.044 322.864 464.044 318.189V161.547C464.044 158.917 462.581 156.433 460.386 155.118L271.631 46.4042C270.46 45.6736 269.29 45.3813 267.973 45.3813C264.461 45.3813 260.511 48.1576 260.511 52.8335V209.621C260.511 212.251 261.974 214.735 264.169 216.05L452.924 324.618C454.094 325.349 455.265 325.641 456.582 325.641Z" fill="url(#paint1_linear)"/>
<path d="M307.918 116.25C309.382 116.25 310.991 115.081 310.991 113.181V48.3038C310.991 47.2809 310.406 46.2581 309.528 45.6736L231.392 0.522348C230.953 0.230107 230.368 0.0839844 229.929 0.0839844C228.466 0.0839844 226.856 1.25295 226.856 3.15252V68.0301C226.856 69.0529 227.442 70.0758 228.32 70.6602L306.455 115.665C306.894 116.104 307.48 116.25 307.918 116.25Z" fill="url(#paint2_linear)"/>
<path d="M490.235 374.299C491.699 374.299 493.308 373.13 493.308 371.23V306.353C493.308 305.33 492.723 304.307 491.845 303.723L413.709 258.718C413.27 258.425 412.685 258.279 412.246 258.279C410.783 258.279 409.173 259.448 409.173 261.348V326.225C409.173 327.248 409.758 328.271 410.636 328.856L488.772 373.861C489.211 374.153 489.796 374.299 490.235 374.299Z" fill="url(#paint3_linear)"/>
<path d="M274.529 131.404C272.528 128.085 272.478 124.45 274.417 123.284C276.356 122.119 279.549 123.865 281.549 127.184C283.55 130.503 283.6 134.138 281.661 135.303C279.722 136.469 276.529 134.723 274.529 131.404Z" fill="#BDCEFA"/>
<path d="M255.535 116.249C255.535 119.318 257.73 123.263 260.51 124.724C263.291 126.331 265.485 125.016 265.485 121.948C265.485 118.879 263.291 114.934 260.51 113.473C257.73 111.865 255.535 113.181 255.535 116.249Z" fill="#BDCEFA"/>
<path d="M237.83 106.167C237.83 109.235 240.025 113.181 242.805 114.642C245.585 116.103 247.78 114.934 247.78 111.866C247.78 108.797 245.585 104.852 242.805 103.391C240.171 101.783 237.83 102.952 237.83 106.167Z" fill="#BDCEFA"/>
<path d="M374.788 120.633L353.132 126.624C352.401 126.77 351.377 126.186 350.791 125.309L329.136 94.4775L374.788 120.633Z" fill="#BDCEFA"/>
<path d="M359.424 127.063L374.495 151.903C374.788 151.611 374.934 151.173 374.934 150.588V122.825L359.424 127.063Z" fill="#BDCEFA"/>
<path d="M345.816 120.487L330.598 128.086C331.037 128.524 331.476 128.962 332.062 129.255L371.568 152.049C372.007 152.342 372.446 152.488 372.885 152.488L357.814 127.501L351.815 129.108L345.816 120.487Z" fill="#BDCEFA"/>
<path d="M328.989 96.377V124.14C328.989 124.724 329.135 125.309 329.428 125.893L344.353 118.295L328.989 96.377Z" fill="#BDCEFA"/>
<path d="M177.545 133.785C177.691 133.785 177.837 133.639 177.837 133.492V26.0938L324.305 110.698C324.451 110.844 324.744 110.698 324.744 110.552C324.89 110.405 324.744 110.113 324.598 110.113L177.106 24.9248V133.639C177.106 133.639 177.252 133.785 177.545 133.785Z" fill="#BDCEFA"/>
<path d="M167.742 134.223C168.181 134.223 168.474 133.931 168.474 133.492V133.346C168.474 132.908 168.181 132.615 167.742 132.615C167.302 132.615 167.01 132.908 167.01 133.346C167.01 133.931 167.302 134.223 167.742 134.223Z" fill="#BDCEFA"/>
<path d="M167.742 128.67C168.181 128.67 168.474 128.378 168.474 127.939V127.793C168.474 127.355 168.181 127.063 167.742 127.063C167.303 127.063 167.01 127.355 167.01 127.793C167.01 128.232 167.303 128.67 167.742 128.67ZM167.742 122.971C168.181 122.971 168.474 122.679 168.474 122.241V122.095C168.474 121.656 168.181 121.364 167.742 121.364C167.303 121.364 167.01 121.656 167.01 122.095C167.01 122.533 167.303 122.971 167.742 122.971ZM167.742 117.273C168.181 117.273 168.474 116.98 168.474 116.542C168.474 116.104 168.181 115.811 167.742 115.811C167.303 115.811 167.01 116.104 167.01 116.542C167.01 116.834 167.303 117.273 167.742 117.273ZM167.742 111.574C168.181 111.574 168.474 111.282 168.474 110.843V110.697C168.474 110.259 168.181 109.967 167.742 109.967C167.303 109.967 167.01 110.259 167.01 110.697C167.01 111.282 167.303 111.574 167.742 111.574ZM167.742 106.021C168.181 106.021 168.474 105.729 168.474 105.291V105.145C168.474 104.706 168.181 104.414 167.742 104.414C167.303 104.414 167.01 104.706 167.01 105.145C167.01 105.583 167.303 106.021 167.742 106.021ZM167.742 100.323C168.181 100.323 168.474 100.03 168.474 99.592V99.4459C168.474 99.0076 168.181 98.7153 167.742 98.7153C167.303 98.7153 167.01 99.0076 167.01 99.4459C167.01 99.8843 167.303 100.323 167.742 100.323ZM167.742 94.6239C168.181 94.6239 168.474 94.3317 168.474 93.8933V93.7472C168.474 93.3088 168.181 93.0166 167.742 93.0166C167.303 93.0166 167.01 93.3088 167.01 93.7472C167.01 94.1856 167.303 94.6239 167.742 94.6239Z" fill="#BDCEFA"/>
<path d="M167.742 89.0721C168.035 89.0721 168.182 88.9259 168.328 88.7797C168.328 88.7797 168.328 88.7797 168.328 88.6335C168.474 88.3411 168.474 87.9025 168.035 87.6101C167.742 87.4639 167.45 87.4639 167.303 87.6101C167.01 87.7563 166.864 87.9025 166.864 88.1949C167.01 88.6335 167.303 89.0721 167.742 89.0721Z" fill="#BDCEFA"/>
<path d="M377.127 205.676C377.42 205.676 377.566 205.53 377.713 205.238C377.859 204.946 377.713 204.507 377.42 204.215H377.274C376.981 204.069 376.542 204.215 376.249 204.507C376.103 204.8 376.249 205.238 376.542 205.53H376.688C376.835 205.676 376.981 205.676 377.127 205.676ZM371.86 202.754C372.152 202.754 372.299 202.608 372.445 202.315C372.591 202.023 372.445 201.585 372.152 201.293H372.006C371.713 201.147 371.274 201.293 370.982 201.585C370.835 201.877 370.982 202.315 371.274 202.608H371.421C371.567 202.754 371.713 202.754 371.86 202.754ZM366.592 199.831C366.885 199.831 367.031 199.685 367.177 199.393C367.324 199.101 367.177 198.662 366.885 198.37C366.592 198.224 366.007 198.224 365.861 198.662C365.714 198.955 365.714 199.393 366.007 199.685H366.153C366.3 199.831 366.446 199.831 366.592 199.831ZM361.325 196.909C361.617 196.909 361.764 196.763 361.91 196.471C362.056 196.178 361.91 195.74 361.617 195.448H361.471C361.178 195.302 360.739 195.448 360.447 195.74C360.3 196.032 360.447 196.471 360.739 196.763H360.886C361.178 196.909 361.178 196.909 361.325 196.909ZM356.057 193.987C356.35 193.987 356.496 193.84 356.642 193.548C356.789 193.256 356.642 192.818 356.35 192.525H356.203C355.911 192.379 355.472 192.525 355.179 192.818C355.033 193.11 355.179 193.548 355.472 193.84H355.618C355.911 193.987 356.057 193.987 356.057 193.987ZM350.936 191.064C351.228 191.064 351.375 190.918 351.521 190.626C351.667 190.334 351.521 189.895 351.228 189.603C350.936 189.457 350.35 189.457 350.204 189.895C350.058 190.187 350.058 190.626 350.35 190.918H350.497C350.643 191.064 350.789 191.064 350.936 191.064ZM345.668 188.142C345.961 188.142 346.107 187.996 346.253 187.703C346.4 187.411 346.253 186.973 345.961 186.681C345.668 186.534 345.083 186.534 344.937 186.973C344.79 187.265 344.79 187.703 345.083 187.996H345.229C345.376 188.142 345.522 188.142 345.668 188.142ZM340.401 185.219C340.693 185.219 340.84 185.073 340.986 184.781C341.132 184.489 340.986 184.05 340.693 183.758H340.547C340.254 183.612 339.815 183.758 339.523 184.05C339.376 184.343 339.523 184.781 339.815 185.073H339.962C340.254 185.219 340.254 185.219 340.401 185.219ZM335.133 182.297C335.426 182.297 335.572 182.151 335.718 181.859C335.865 181.566 335.718 181.128 335.426 180.836H335.279C334.987 180.69 334.548 180.836 334.255 181.128C334.109 181.42 334.255 181.859 334.548 182.151H334.694C334.987 182.297 335.133 182.297 335.133 182.297ZM330.012 179.375C330.304 179.375 330.451 179.228 330.597 178.936C330.743 178.644 330.597 178.206 330.304 177.913C330.012 177.767 329.426 177.767 329.28 178.206C329.134 178.498 329.134 178.936 329.573 179.228H329.719C329.719 179.375 329.865 179.375 330.012 179.375ZM324.744 176.452C325.037 176.452 325.183 176.306 325.329 176.014C325.476 175.722 325.329 175.283 325.037 174.991C324.744 174.845 324.159 174.845 324.013 175.283C323.866 175.575 323.866 176.014 324.305 176.306H324.452C324.452 176.452 324.598 176.452 324.744 176.452ZM319.477 173.53C319.769 173.53 319.916 173.384 320.062 173.091C320.208 172.799 320.062 172.361 319.769 172.069C319.477 171.922 318.891 171.922 318.745 172.361C318.599 172.653 318.599 173.091 319.038 173.384H319.184C319.33 173.53 319.33 173.53 319.477 173.53ZM314.209 170.607C314.502 170.607 314.648 170.461 314.794 170.169C314.941 169.877 314.794 169.438 314.502 169.146C314.209 169 313.624 169 313.477 169.438C313.331 169.731 313.331 170.169 313.77 170.461H313.916C314.063 170.607 314.209 170.607 314.209 170.607ZM309.088 167.831C309.38 167.831 309.527 167.685 309.673 167.393C309.819 167.1 309.673 166.662 309.38 166.37C309.088 166.224 308.503 166.224 308.356 166.662C308.21 166.954 308.21 167.393 308.649 167.685H308.795C308.795 167.685 308.941 167.831 309.088 167.831ZM303.82 164.909C304.113 164.909 304.259 164.762 304.405 164.47C304.552 164.178 304.406 163.74 304.113 163.447C303.82 163.301 303.235 163.301 303.089 163.74C302.942 164.032 302.942 164.47 303.381 164.762H303.528C303.528 164.762 303.674 164.909 303.82 164.909ZM298.553 161.986C298.845 161.986 298.992 161.84 299.138 161.548C299.284 161.256 299.138 160.817 298.845 160.525H298.699C298.406 160.379 297.967 160.525 297.675 160.817C297.528 161.109 297.675 161.548 297.967 161.84H298.114C298.406 161.84 298.406 161.986 298.553 161.986ZM293.285 159.064C293.578 159.064 293.724 158.918 293.87 158.625C294.017 158.333 293.87 157.895 293.578 157.603C293.285 157.456 292.7 157.456 292.553 157.895C292.407 158.187 292.407 158.625 292.7 158.918H292.846C293.139 158.918 293.285 159.064 293.285 159.064ZM288.164 156.141C288.456 156.141 288.603 155.995 288.749 155.703C288.895 155.411 288.749 154.972 288.456 154.68H288.31C288.017 154.534 287.579 154.68 287.286 154.972C287.14 155.265 287.286 155.703 287.579 155.995H287.725C287.871 155.995 288.017 156.141 288.164 156.141ZM282.896 153.219C283.189 153.219 283.335 153.073 283.482 152.781C283.628 152.488 283.482 152.05 283.189 151.758H283.043C282.75 151.612 282.311 151.758 282.018 152.05C281.872 152.342 282.018 152.781 282.311 153.073H282.457C282.604 153.219 282.75 153.219 282.896 153.219ZM277.629 150.297C277.921 150.297 278.068 150.15 278.214 149.858C278.36 149.566 278.214 149.128 277.921 148.835C277.629 148.689 277.043 148.689 276.897 149.128C276.751 149.42 276.751 149.858 277.043 150.15H277.19C277.336 150.297 277.482 150.297 277.629 150.297ZM272.361 147.374C272.654 147.374 272.8 147.228 272.946 146.936C273.093 146.644 272.946 146.205 272.654 145.913C272.361 145.767 271.776 145.767 271.629 146.205C271.483 146.497 271.483 146.936 271.776 147.228H271.922C272.215 147.374 272.361 147.374 272.361 147.374ZM267.24 144.452C267.532 144.452 267.679 144.306 267.825 144.013C267.971 143.721 267.825 143.283 267.532 142.991H267.386C267.094 142.844 266.655 142.991 266.362 143.283C266.216 143.575 266.362 144.013 266.655 144.306H266.801C266.947 144.452 267.093 144.452 267.24 144.452ZM261.972 141.529C262.265 141.529 262.411 141.383 262.558 141.091C262.704 140.799 262.558 140.36 262.265 140.068H262.119C261.826 139.922 261.387 140.068 261.094 140.36C260.948 140.653 261.094 141.091 261.387 141.383H261.533C261.68 141.529 261.826 141.529 261.972 141.529ZM256.705 138.607C256.997 138.607 257.144 138.461 257.29 138.169C257.436 137.876 257.29 137.438 256.997 137.146C256.705 137 256.119 137 255.973 137.438C255.827 137.73 255.827 138.169 256.119 138.461H256.266C256.412 138.607 256.558 138.607 256.705 138.607ZM251.437 135.684C251.73 135.684 251.876 135.538 252.022 135.246C252.169 134.954 252.022 134.516 251.73 134.223C251.437 134.077 250.852 134.077 250.705 134.516C250.559 134.808 250.559 135.246 250.852 135.538H250.998C251.291 135.684 251.437 135.684 251.437 135.684ZM246.316 132.762C246.608 132.762 246.755 132.616 246.901 132.324C247.047 132.031 246.901 131.593 246.608 131.301H246.462C246.17 131.155 245.731 131.301 245.438 131.593C245.292 131.885 245.438 132.324 245.731 132.616H245.877C246.023 132.762 246.17 132.762 246.316 132.762ZM241.048 129.84C241.341 129.84 241.487 129.694 241.634 129.401C241.78 129.109 241.634 128.671 241.341 128.378H241.195C240.902 128.232 240.463 128.378 240.17 128.671C240.024 128.963 240.17 129.401 240.463 129.694H240.609C240.756 129.84 240.902 129.84 241.048 129.84ZM235.781 126.917C236.073 126.917 236.22 126.771 236.366 126.479C236.512 126.187 236.366 125.748 236.073 125.456C235.781 125.31 235.195 125.31 235.049 125.748C234.903 126.041 234.903 126.479 235.195 126.771H235.342C235.488 126.917 235.634 126.917 235.781 126.917ZM230.513 123.995C230.806 123.995 230.952 123.849 231.098 123.556C231.245 123.264 231.098 122.826 230.806 122.534C230.513 122.387 229.928 122.388 229.781 122.826C229.635 123.118 229.635 123.556 229.928 123.849H230.074C230.367 123.995 230.513 123.995 230.513 123.995ZM225.392 121.072C225.684 121.072 225.831 120.926 225.977 120.634C226.123 120.342 225.977 119.903 225.684 119.611C225.392 119.465 224.807 119.465 224.66 119.903C224.514 120.196 224.514 120.634 224.953 120.926H225.099C225.099 121.072 225.246 121.072 225.392 121.072ZM220.124 118.15C220.417 118.15 220.563 118.004 220.71 117.712C220.856 117.419 220.71 116.981 220.417 116.689H220.271C219.978 116.543 219.539 116.689 219.246 116.981C219.1 117.273 219.246 117.712 219.539 118.004H219.685C219.832 118.15 219.978 118.15 220.124 118.15ZM214.857 115.228C215.149 115.228 215.296 115.081 215.442 114.789C215.588 114.497 215.442 114.059 215.149 113.766C214.857 113.62 214.271 113.62 214.125 114.059C213.979 114.351 213.979 114.789 214.418 115.081H214.564C214.564 115.228 214.71 115.228 214.857 115.228ZM209.589 112.305C209.882 112.305 210.028 112.159 210.174 111.867C210.321 111.575 210.174 111.136 209.882 110.844C209.589 110.698 209.004 110.698 208.858 111.136C208.711 111.428 208.711 111.867 209.15 112.159H209.296C209.443 112.305 209.589 112.305 209.589 112.305ZM204.468 109.383C204.761 109.383 204.907 109.237 205.053 108.944C205.199 108.652 205.053 108.214 204.76 107.922C204.468 107.775 203.883 107.775 203.736 108.214C203.59 108.506 203.59 108.944 204.029 109.237H204.175C204.175 109.383 204.322 109.383 204.468 109.383ZM199.2 106.46C199.493 106.46 199.639 106.314 199.786 106.022C199.932 105.73 199.786 105.291 199.493 104.999C199.2 104.853 198.615 104.853 198.469 105.291C198.322 105.584 198.322 106.022 198.761 106.314H198.908C198.908 106.46 199.054 106.46 199.2 106.46ZM193.933 103.538C194.225 103.538 194.372 103.392 194.518 103.1C194.664 102.807 194.518 102.369 194.225 102.077H194.079C193.786 101.931 193.347 102.077 193.055 102.369C192.908 102.661 193.055 103.1 193.347 103.392H193.494C193.64 103.538 193.786 103.538 193.933 103.538ZM188.665 100.616C188.958 100.616 189.104 100.469 189.25 100.177C189.397 99.8849 189.25 99.4466 188.958 99.1543C188.665 99.0082 188.08 99.0082 187.934 99.4466C187.787 99.7388 187.787 100.177 188.08 100.469H188.226C188.519 100.616 188.519 100.616 188.665 100.616ZM183.544 97.6931C183.837 97.6931 183.983 97.547 184.129 97.2547C184.275 96.9625 184.129 96.5241 183.837 96.2319C183.544 96.0858 182.959 96.0858 182.812 96.5241C182.666 96.8164 182.666 97.2547 182.959 97.547H183.105C183.251 97.6931 183.398 97.6931 183.544 97.6931ZM178.276 94.9168C178.569 94.9168 178.715 94.7707 178.862 94.4785C179.008 94.1862 178.862 93.7478 178.569 93.4556H178.423C178.13 93.3095 177.691 93.4556 177.398 93.7479C177.252 94.0401 177.398 94.4785 177.691 94.7707H177.837C177.984 94.7707 178.13 94.9168 178.276 94.9168ZM173.009 91.9944C173.301 91.9944 173.448 91.8483 173.594 91.556C173.74 91.2638 173.594 90.8254 173.301 90.5332C173.009 90.3871 172.423 90.3871 172.277 90.8254C172.131 91.1177 172.131 91.556 172.423 91.8483H172.57C172.716 91.8483 172.862 91.9944 173.009 91.9944Z" fill="#BDCEFA"/>
<path d="M382.249 208.599C382.688 208.599 382.981 208.306 382.981 207.868C382.981 207.575 382.835 207.283 382.542 207.137C382.249 206.991 381.664 206.991 381.517 207.429C381.371 207.722 381.371 208.16 381.663 208.306C381.81 208.453 381.956 208.599 382.249 208.599Z" fill="#BDCEFA"/>
<path d="M382.249 252.142C382.688 252.142 382.981 251.85 382.981 251.411V251.265C382.981 250.827 382.688 250.535 382.249 250.535C381.811 250.535 381.518 250.827 381.518 251.265V251.411C381.518 251.704 381.811 252.142 382.249 252.142ZM382.249 245.859C382.688 245.859 382.981 245.567 382.981 245.128V244.982C382.981 244.544 382.688 244.251 382.249 244.251C381.811 244.251 381.518 244.544 381.518 244.982V245.128C381.518 245.567 381.811 245.859 382.249 245.859ZM382.249 239.722C382.688 239.722 382.981 239.43 382.981 238.991V238.845C382.981 238.407 382.688 238.114 382.249 238.114C381.811 238.114 381.518 238.407 381.518 238.845V238.991C381.518 239.283 381.811 239.722 382.249 239.722ZM382.249 233.439C382.688 233.439 382.981 233.146 382.981 232.708V232.562C382.981 232.123 382.688 231.831 382.249 231.831C381.811 231.831 381.518 232.123 381.518 232.562V232.708C381.518 233.146 381.811 233.439 382.249 233.439ZM382.249 227.302C382.688 227.302 382.981 227.009 382.981 226.571V226.425C382.981 225.986 382.688 225.694 382.249 225.694C381.811 225.694 381.518 225.986 381.518 226.425V226.571C381.518 226.863 381.811 227.302 382.249 227.302ZM382.249 221.018C382.688 221.018 382.981 220.726 382.981 220.288V220.142C382.981 219.703 382.688 219.411 382.249 219.411C381.811 219.411 381.518 219.703 381.518 220.142V220.288C381.518 220.726 381.811 221.018 382.249 221.018ZM382.249 214.881C382.688 214.881 382.981 214.589 382.981 214.151V214.005C382.981 213.566 382.688 213.274 382.249 213.274C381.811 213.274 381.518 213.566 381.518 214.005V214.151C381.518 214.443 381.811 214.881 382.249 214.881Z" fill="#BDCEFA"/>
<path d="M382.249 258.279C382.688 258.279 382.981 257.987 382.981 257.548C382.981 257.11 382.688 256.817 382.249 256.817C381.81 256.817 381.517 257.11 381.517 257.548C381.517 257.841 381.81 258.279 382.249 258.279Z" fill="#BDCEFA"/>
<path d="M473.846 287.065C473.992 287.065 474.138 286.919 474.138 286.772V228.324L473.992 228.178L439.606 210.059C439.46 209.913 439.167 210.059 439.167 210.205C439.021 210.351 439.167 210.644 439.314 210.644L473.407 228.763V286.772C473.553 286.919 473.699 287.065 473.846 287.065Z" fill="#BDCEFA"/>
<path d="M449.117 381.02C449.556 381.02 449.848 380.728 449.848 380.29V380.144C449.848 379.705 449.556 379.413 449.117 379.413C448.678 379.413 448.385 379.705 448.385 380.144C448.385 380.582 448.824 381.02 449.117 381.02ZM449.117 375.029C449.556 375.029 449.848 374.737 449.848 374.299V374.153C449.848 373.714 449.556 373.422 449.117 373.422C448.678 373.422 448.385 373.714 448.385 374.153V374.299C448.385 374.737 448.824 375.029 449.117 375.029ZM449.117 369.038C449.556 369.038 449.848 368.746 449.848 368.308V368.162C449.848 367.723 449.556 367.431 449.117 367.431C448.678 367.431 448.385 367.723 448.385 368.162C448.385 368.6 448.824 369.038 449.117 369.038ZM449.117 363.048C449.556 363.048 449.848 362.755 449.848 362.317V362.171C449.848 361.732 449.556 361.44 449.117 361.44C448.678 361.44 448.385 361.732 448.385 362.171V362.317C448.385 362.755 448.824 363.048 449.117 363.048ZM449.117 357.057C449.556 357.057 449.848 356.764 449.848 356.326V356.18C449.848 355.742 449.556 355.449 449.117 355.449C448.678 355.449 448.385 355.742 448.385 356.18C448.385 356.618 448.824 357.057 449.117 357.057ZM449.117 351.066C449.556 351.066 449.848 350.773 449.848 350.335V350.189C449.848 349.751 449.556 349.458 449.117 349.458C448.678 349.458 448.385 349.751 448.385 350.189C448.385 350.627 448.824 351.066 449.117 351.066ZM449.117 345.075C449.556 345.075 449.848 344.782 449.848 344.344V344.198C449.848 343.76 449.556 343.467 449.117 343.467C448.678 343.467 448.385 343.76 448.385 344.198V344.344C448.385 344.782 448.824 345.075 449.117 345.075ZM449.117 339.084C449.556 339.084 449.848 338.791 449.848 338.353V338.207C449.848 337.769 449.556 337.476 449.117 337.476C448.678 337.476 448.385 337.769 448.385 338.207C448.385 338.645 448.824 339.084 449.117 339.084ZM449.117 333.093C449.556 333.093 449.848 332.801 449.848 332.362V332.216C449.848 331.778 449.556 331.485 449.117 331.485C448.678 331.485 448.385 331.778 448.385 332.216V332.362C448.385 332.801 448.824 333.093 449.117 333.093ZM449.117 327.102C449.556 327.102 449.848 326.81 449.848 326.371V326.225C449.848 325.787 449.556 325.495 449.117 325.495C448.678 325.495 448.385 325.787 448.385 326.225C448.385 326.663 448.824 327.102 449.117 327.102ZM449.117 321.111C449.556 321.111 449.848 320.819 449.848 320.38V320.234C449.848 319.796 449.556 319.504 449.117 319.504C448.678 319.504 448.385 319.796 448.385 320.234V320.38C448.385 320.819 448.824 321.111 449.117 321.111ZM449.117 315.12C449.556 315.12 449.848 314.828 449.848 314.389V314.243C449.848 313.805 449.556 313.513 449.117 313.513C448.678 313.513 448.385 313.805 448.385 314.243V314.389C448.385 314.828 448.824 315.12 449.117 315.12ZM449.117 309.129C449.556 309.129 449.848 308.837 449.848 308.398V308.252C449.848 307.814 449.556 307.522 449.117 307.522C448.678 307.522 448.385 307.814 448.385 308.252C448.385 308.691 448.824 309.129 449.117 309.129ZM449.117 303.138C449.556 303.138 449.848 302.846 449.848 302.407V302.261C449.848 301.823 449.556 301.531 449.117 301.531C448.678 301.531 448.385 301.823 448.385 302.261V302.407C448.385 302.846 448.824 303.138 449.117 303.138ZM449.117 297.147C449.556 297.147 449.848 296.855 449.848 296.417V296.27C449.848 295.832 449.556 295.54 449.117 295.54C448.678 295.54 448.385 295.832 448.385 296.27V296.417C448.385 296.855 448.824 297.147 449.117 297.147ZM449.117 291.156C449.556 291.156 449.848 290.864 449.848 290.426V290.279C449.848 289.841 449.556 289.549 449.117 289.549C448.678 289.549 448.385 289.841 448.385 290.279V290.426C448.385 290.864 448.824 291.156 449.117 291.156ZM449.117 285.165C449.556 285.165 449.848 284.873 449.848 284.435V284.289C449.848 283.85 449.556 283.558 449.117 283.558C448.678 283.558 448.385 283.85 448.385 284.289V284.435C448.385 284.873 448.824 285.165 449.117 285.165ZM449.117 279.174C449.556 279.174 449.848 278.882 449.848 278.444V278.298C449.848 277.859 449.556 277.567 449.117 277.567C448.678 277.567 448.385 277.859 448.385 278.298C448.385 278.736 448.824 279.174 449.117 279.174ZM449.117 273.183C449.556 273.183 449.848 272.891 449.848 272.453V272.307C449.848 271.868 449.556 271.576 449.117 271.576C448.678 271.576 448.385 271.868 448.385 272.307V272.453C448.385 272.891 448.824 273.183 449.117 273.183ZM449.117 267.192C449.556 267.192 449.848 266.9 449.848 266.462V266.316C449.848 265.877 449.556 265.585 449.117 265.585C448.678 265.585 448.385 265.877 448.385 266.316V266.462C448.385 266.9 448.824 267.192 449.117 267.192ZM449.117 261.201C449.556 261.201 449.848 260.909 449.848 260.471V260.325C449.848 259.886 449.556 259.594 449.117 259.594C448.678 259.594 448.385 259.886 448.385 260.325V260.471C448.385 260.909 448.824 261.201 449.117 261.201ZM449.117 255.21C449.556 255.21 449.848 254.918 449.848 254.48V254.334C449.848 253.895 449.556 253.603 449.117 253.603C448.678 253.603 448.385 253.895 448.385 254.334V254.48C448.385 254.918 448.824 255.21 449.117 255.21ZM449.117 249.22C449.556 249.22 449.848 248.927 449.848 248.489V248.343C449.848 247.904 449.556 247.612 449.117 247.612C448.678 247.612 448.385 247.904 448.385 248.343C448.385 248.781 448.824 249.22 449.117 249.22ZM449.117 243.229C449.556 243.229 449.848 242.936 449.848 242.498V242.352C449.848 241.914 449.556 241.621 449.117 241.621C448.678 241.621 448.385 241.914 448.385 242.352V242.498C448.385 242.936 448.824 243.229 449.117 243.229ZM449.117 237.238C449.556 237.238 449.848 236.945 449.848 236.507V236.361C449.848 235.923 449.556 235.63 449.117 235.63C448.678 235.63 448.385 235.923 448.385 236.361V236.507C448.385 236.945 448.824 237.238 449.117 237.238ZM449.117 231.247C449.556 231.247 449.848 230.954 449.848 230.516V230.37C449.848 229.932 449.556 229.639 449.117 229.639C448.678 229.639 448.385 229.932 448.385 230.37V230.516C448.385 230.954 448.824 231.247 449.117 231.247ZM449.117 225.256C449.556 225.256 449.848 224.964 449.848 224.525V224.379C449.848 223.941 449.556 223.648 449.117 223.648C448.678 223.648 448.385 223.941 448.385 224.379V224.525C448.385 224.964 448.824 225.256 449.117 225.256ZM449.117 219.265C449.556 219.265 449.848 218.973 449.848 218.534V218.388C449.848 217.95 449.556 217.657 449.117 217.657C448.678 217.657 448.385 217.95 448.385 218.388C448.385 218.826 448.824 219.265 449.117 219.265ZM449.117 213.274C449.556 213.274 449.848 212.982 449.848 212.543V212.397C449.848 211.959 449.556 211.667 449.117 211.667C448.678 211.667 448.385 211.959 448.385 212.397V212.543C448.385 212.982 448.824 213.274 449.117 213.274ZM449.117 207.283C449.556 207.283 449.848 206.991 449.848 206.552V206.406C449.848 205.968 449.556 205.676 449.117 205.676C448.678 205.676 448.385 205.968 448.385 206.406V206.552C448.385 206.991 448.824 207.283 449.117 207.283ZM449.117 201.292C449.556 201.292 449.848 201 449.848 200.561V200.415C449.848 199.977 449.556 199.685 449.117 199.685C448.678 199.685 448.385 199.977 448.385 200.415V200.561C448.385 201 448.824 201.292 449.117 201.292ZM449.117 195.301C449.556 195.301 449.848 195.009 449.848 194.57V194.424C449.848 193.986 449.556 193.694 449.117 193.694C448.678 193.694 448.385 193.986 448.385 194.424V194.57C448.385 195.009 448.824 195.301 449.117 195.301ZM449.117 189.31C449.556 189.31 449.848 189.018 449.848 188.579V188.433C449.848 187.995 449.556 187.703 449.117 187.703C448.678 187.703 448.385 187.995 448.385 188.433C448.385 188.872 448.824 189.31 449.117 189.31ZM449.117 183.319C449.556 183.319 449.848 183.027 449.848 182.589V182.442C449.848 182.004 449.556 181.712 449.117 181.712C448.678 181.712 448.385 182.004 448.385 182.442V182.589C448.385 183.027 448.824 183.319 449.117 183.319ZM449.117 177.328C449.556 177.328 449.848 177.036 449.848 176.598V176.451C449.848 176.013 449.556 175.721 449.117 175.721C448.678 175.721 448.385 176.013 448.385 176.451V176.598C448.385 177.036 448.824 177.328 449.117 177.328ZM449.117 171.337C449.556 171.337 449.848 171.045 449.848 170.607V170.46C449.848 170.022 449.556 169.73 449.117 169.73C448.678 169.73 448.385 170.022 448.385 170.46V170.607C448.385 171.045 448.824 171.337 449.117 171.337ZM449.117 165.346C449.556 165.346 449.848 165.054 449.848 164.616V164.47C449.848 164.031 449.556 163.739 449.117 163.739C448.678 163.739 448.385 164.031 448.385 164.47V164.616C448.385 165.054 448.824 165.346 449.117 165.346ZM446.336 161.109C446.629 161.109 446.775 160.963 446.922 160.67C447.068 160.378 447.068 159.94 446.629 159.648H446.483C446.19 159.501 445.751 159.501 445.459 159.94C445.312 160.232 445.312 160.67 445.751 160.963H445.897C446.044 160.963 446.19 161.109 446.336 161.109ZM441.069 158.04C441.361 158.04 441.654 157.894 441.654 157.748C441.8 157.456 441.8 157.017 441.508 156.725H441.361C441.069 156.579 440.63 156.579 440.337 157.017C440.191 157.31 440.191 157.748 440.63 158.04C440.776 158.04 440.923 158.04 441.069 158.04ZM435.801 155.118C436.094 155.118 436.387 154.972 436.387 154.826C436.533 154.533 436.533 154.095 436.24 153.803H436.094C435.801 153.657 435.362 153.657 435.07 154.095C434.923 154.387 434.923 154.826 435.362 155.118C435.509 154.972 435.655 155.118 435.801 155.118ZM430.68 152.195C430.973 152.195 431.119 152.049 431.265 151.757C431.412 151.465 431.412 151.026 430.973 150.734H430.826C430.534 150.588 430.095 150.588 429.802 151.026C429.656 151.319 429.656 151.757 430.095 152.049H430.241C430.534 152.049 430.534 152.195 430.68 152.195ZM425.412 149.127C425.705 149.127 425.998 148.981 425.998 148.835C426.144 148.542 426.144 148.104 425.851 147.812H425.705C425.412 147.666 424.973 147.666 424.681 148.104C424.535 148.396 424.535 148.835 424.973 149.127C425.12 149.127 425.266 149.127 425.412 149.127ZM420.291 146.204C420.584 146.204 420.876 146.058 420.876 145.912C421.023 145.62 421.023 145.182 420.73 144.889H420.584C420.291 144.743 419.852 144.743 419.56 145.182C419.413 145.474 419.413 145.912 419.852 146.204C419.999 146.058 420.145 146.204 420.291 146.204ZM415.024 143.282C415.316 143.282 415.463 143.136 415.609 142.844C415.755 142.551 415.755 142.113 415.316 141.821H415.17C414.877 141.675 414.438 141.675 414.146 142.113C413.999 142.405 413.999 142.844 414.438 143.136H414.585C414.877 143.282 415.024 143.282 415.024 143.282ZM409.756 140.214C410.049 140.214 410.341 140.067 410.341 139.921C410.488 139.629 410.488 139.191 410.195 138.898H410.049C409.756 138.752 409.317 138.752 409.024 139.191C408.878 139.483 408.878 139.921 409.317 140.214C409.463 140.214 409.61 140.214 409.756 140.214ZM404.635 137.291C404.927 137.291 405.22 137.145 405.22 136.999C405.366 136.707 405.366 136.268 405.074 135.976H404.927C404.635 135.83 404.196 135.83 403.903 136.268C403.757 136.561 403.757 136.999 404.196 137.291C404.342 137.145 404.488 137.291 404.635 137.291ZM399.514 134.369C399.806 134.369 399.953 134.223 400.099 133.93C400.245 133.638 400.245 133.2 399.806 132.907H399.66C399.367 132.761 398.928 132.761 398.636 133.2C398.489 133.492 398.489 133.93 398.928 134.223H399.075C399.221 134.369 399.367 134.369 399.514 134.369ZM394.1 131.3C394.392 131.3 394.685 131.154 394.685 131.008C394.831 130.716 394.831 130.277 394.539 129.985H394.392C394.1 129.839 393.661 129.839 393.368 130.277C393.222 130.57 393.222 131.008 393.661 131.3C393.953 131.3 394.1 131.3 394.1 131.3ZM388.978 128.378C389.271 128.378 389.564 128.232 389.564 128.086C389.71 127.793 389.71 127.355 389.417 127.063H389.271C388.978 126.917 388.539 126.917 388.247 127.355C388.1 127.647 388.1 128.086 388.539 128.378C388.686 128.232 388.832 128.378 388.978 128.378ZM383.857 125.455C384.15 125.455 384.296 125.309 384.442 125.017C384.589 124.725 384.589 124.286 384.15 123.994H384.003C383.711 123.848 383.272 123.848 382.979 124.286C382.833 124.579 382.833 125.017 383.272 125.309H383.418C383.565 125.455 383.711 125.455 383.857 125.455Z" fill="#BDCEFA"/>
<path d="M344.789 168.122C345.082 168.122 345.375 167.976 345.375 167.83C345.521 167.538 345.521 167.1 345.228 166.807H345.082C344.789 166.661 344.35 166.661 344.058 167.1C343.911 167.392 343.911 167.83 344.35 168.122C344.497 168.122 344.643 168.122 344.789 168.122ZM347.277 166.369C347.716 166.369 348.008 166.077 348.008 165.638V165.492C348.008 165.054 347.716 164.762 347.277 164.762C346.838 164.762 346.545 165.054 346.545 165.492V165.638C346.545 166.077 346.838 166.369 347.277 166.369ZM339.668 165.054C339.961 165.054 340.253 164.908 340.253 164.762C340.4 164.469 340.4 164.031 340.107 163.739H339.961C339.668 163.593 339.229 163.593 338.936 164.031C338.79 164.323 338.79 164.762 339.229 165.054C339.375 165.054 339.522 165.054 339.668 165.054ZM334.4 162.132C334.693 162.132 334.986 161.985 334.986 161.839C335.132 161.547 335.132 161.109 334.839 160.816H334.693C334.4 160.67 333.961 160.67 333.669 161.109C333.522 161.401 333.522 161.839 333.961 162.132C334.108 162.132 334.254 162.132 334.4 162.132ZM347.277 160.378C347.716 160.378 348.008 160.086 348.008 159.647V159.501C348.008 159.063 347.716 158.771 347.277 158.771C346.838 158.771 346.545 159.063 346.545 159.501V159.647C346.545 160.086 346.838 160.378 347.277 160.378ZM329.279 159.063C329.572 159.063 329.864 158.917 329.864 158.771C330.011 158.478 330.011 158.04 329.718 157.748H329.572C329.279 157.602 328.84 157.602 328.548 158.04C328.401 158.332 328.401 158.771 328.84 159.063C328.987 159.063 329.133 159.063 329.279 159.063ZM324.158 156.141C324.451 156.141 324.597 155.994 324.743 155.848C324.89 155.556 324.89 155.118 324.451 154.825L324.304 154.679C324.012 154.533 323.573 154.533 323.28 154.972C323.134 155.264 323.134 155.702 323.573 155.994L323.719 156.141C323.865 156.141 324.012 156.141 324.158 156.141ZM347.277 154.387C347.716 154.387 348.008 154.095 348.008 153.657C348.008 153.218 347.716 152.926 347.277 152.926C346.838 152.926 346.545 153.218 346.545 153.657V153.803C346.545 154.095 346.838 154.387 347.277 154.387ZM318.89 153.072C319.183 153.072 319.476 152.926 319.476 152.78C319.622 152.488 319.622 152.049 319.329 151.757L319.183 151.611C318.89 151.465 318.451 151.465 318.159 151.903C318.012 152.195 318.012 152.634 318.451 152.926C318.598 153.072 318.744 153.072 318.89 153.072ZM313.623 150.15C313.915 150.15 314.208 150.004 314.208 149.857C314.354 149.565 314.354 149.127 314.062 148.835L313.915 148.688C313.623 148.542 313.184 148.542 312.891 148.981C312.745 149.273 312.745 149.711 313.184 150.004C313.33 150.004 313.476 150.15 313.623 150.15ZM347.277 148.396C347.716 148.396 348.008 148.104 348.008 147.666V147.519C348.008 147.081 347.716 146.789 347.277 146.789C346.838 146.789 346.545 147.081 346.545 147.519V147.666C346.545 148.104 346.838 148.396 347.277 148.396ZM308.502 147.227C308.794 147.227 308.941 147.081 309.087 146.935C309.233 146.643 309.233 146.204 308.794 145.912L308.648 145.766C308.355 145.62 307.916 145.62 307.624 146.058C307.477 146.351 307.477 146.789 307.916 147.081L308.063 147.227C308.209 147.081 308.355 147.227 308.502 147.227ZM303.234 144.159C303.527 144.159 303.819 144.013 303.819 143.866C303.966 143.574 303.966 143.136 303.673 142.844L303.527 142.698C303.234 142.551 302.795 142.551 302.502 142.99C302.356 143.282 302.356 143.72 302.795 144.013C302.941 144.013 303.088 144.159 303.234 144.159ZM347.277 142.405C347.716 142.405 348.008 142.113 348.008 141.675V141.529C348.008 141.09 347.716 140.798 347.277 140.798C346.838 140.798 346.545 141.09 346.545 141.529V141.675C346.545 142.113 346.838 142.405 347.277 142.405ZM298.113 141.09C298.405 141.09 298.698 140.944 298.698 140.798C298.844 140.506 298.844 140.067 298.552 139.775H298.405C298.113 139.629 297.674 139.629 297.381 140.067C297.235 140.36 297.235 140.798 297.674 141.09C297.82 141.09 297.966 141.09 298.113 141.09ZM292.991 138.168C293.284 138.168 293.43 138.022 293.577 137.729C293.723 137.437 293.723 136.999 293.284 136.707H293.138C292.845 136.56 292.406 136.56 292.114 136.999C291.967 137.291 291.967 137.729 292.406 138.022H292.553C292.699 138.168 292.845 138.168 292.991 138.168ZM287.724 135.099C288.017 135.099 288.309 134.953 288.309 134.807C288.455 134.515 288.456 134.076 288.163 133.784H288.017C287.724 133.638 287.285 133.638 286.992 134.076C286.846 134.369 286.846 134.807 287.285 135.099C287.431 135.099 287.578 135.099 287.724 135.099Z" fill="#BDCEFA"/>
<path d="M-19.8405 134.369L33.2743 165.054C37.0786 167.246 43.9557 166.954 48.4917 164.47L99.4116 135.1C103.948 132.469 104.387 128.524 100.436 126.332L47.3211 95.647C43.5168 93.4552 36.6396 93.7474 32.1037 96.2315L-18.8163 125.602C-23.3522 128.232 -23.7912 132.177 -19.8405 134.369Z" fill="#E8F2FE"/>
<path d="M-22.4733 322.573V131.301C-22.1806 132.47 -21.449 133.493 -19.9858 134.369L33.1289 165.055C35.0311 166.077 37.5186 166.662 40.1523 166.516V359.103C37.5186 359.103 35.0311 358.664 33.1289 357.642L-19.9858 326.956C-21.888 325.933 -22.7659 324.326 -22.4733 322.573Z" fill="url(#paint4_linear)"/>
<path d="M48.3464 164.47L99.2664 135.1C101.461 133.931 102.632 132.324 102.924 130.862V322.134C103.363 324.034 102.047 326.226 99.2664 327.833L48.3464 357.203C46.0053 358.518 43.0789 359.249 40.1524 359.249V166.516C43.0789 166.516 46.0053 165.785 48.3464 164.47Z" fill="#DDDDDD"/>
<path d="M48.3464 164.47L99.2664 135.1C101.461 133.931 102.632 132.324 102.924 130.862V322.134C103.363 324.034 102.047 326.226 99.2664 327.833L48.3464 357.203C46.0053 358.518 43.0789 359.249 40.1524 359.249V166.516C43.0789 166.516 46.0053 165.785 48.3464 164.47Z" fill="url(#paint5_linear)"/>
<path d="M-20.5723 464.747L76.7315 519.104C80.9749 521.588 88.5836 521.296 93.5585 518.373L125.896 499.085C130.871 496.163 131.456 491.779 127.066 489.295L30.2013 433.77C25.958 431.286 18.3492 431.578 13.3743 434.5L-19.4017 454.811C-24.2303 457.879 -24.8157 462.263 -20.5723 464.747Z" fill="#E8F2FE"/>
<path d="M-43.8376 370.647L244.709 536.64C257.731 544.092 280.558 543.216 295.629 534.595L471.654 433.479C486.725 424.858 488.334 411.561 475.312 404.109L181.79 240.6C168.768 233.148 145.942 234.024 130.87 242.645L-40.1796 341.277C-55.1044 349.898 -56.8602 363.195 -43.8376 370.647Z" fill="#E8F2FE"/>
<path d="M-52.324 368.163V360.272C-51.5924 364.217 -48.666 367.87 -43.8374 370.647L244.709 536.64C251.001 540.293 259.487 541.9 268.413 541.608V554.174C259.634 554.32 251.001 552.859 244.709 549.206L-43.8374 383.213C-50.5682 379.268 -53.3483 373.715 -52.324 368.163Z" fill="url(#paint6_linear)"/>
<path d="M295.629 534.447L471.654 433.478C478.824 429.387 482.921 424.126 483.799 419.158V427.049C485.116 433.478 481.019 440.638 471.654 446.044L295.629 547.16C287.874 551.69 277.924 554.028 268.414 554.32V541.753C277.924 541.315 287.874 538.977 295.629 534.447Z" fill="#C9C9C9"/>
<path d="M295.629 534.447L471.654 433.478C478.824 429.387 482.921 424.126 483.799 419.158V427.049C485.116 433.478 481.019 440.638 471.654 446.044L295.629 547.16C287.874 551.69 277.924 554.028 268.414 554.32V541.753C277.924 541.315 287.874 538.977 295.629 534.447Z" fill="url(#paint7_linear)"/>
<path d="M227.149 461.972L287.434 496.748L440.633 408.346L380.495 373.569L227.149 461.972Z" fill="white"/>
<path d="M440.634 408.345V433.332L287.435 521.735V496.748L440.634 408.345Z" fill="url(#paint8_linear)"/>
<path d="M352.256 400.309L378.74 415.506C380.642 416.675 384.007 416.528 386.349 415.213L411.662 400.601C413.857 399.286 414.15 397.387 412.247 396.218L385.763 381.021C383.861 379.852 380.496 379.998 378.155 381.313L352.841 395.925C350.646 397.241 350.353 399.286 352.256 400.309Z" fill="#99CFFF"/>
<path d="M351.085 410.392V398.702C351.231 399.287 351.67 399.871 352.402 400.309L378.886 415.506C379.764 416.09 381.081 416.237 382.397 416.237V428.511C381.081 428.511 379.764 428.365 378.886 427.78L352.402 412.584C351.231 412.145 350.938 411.269 351.085 410.392Z" fill="#70C3FF"/>
<path d="M386.202 415.36L411.516 400.747C412.54 400.163 413.126 399.432 413.272 398.556V410.245C413.418 411.268 412.833 412.291 411.516 413.022L386.202 427.634C385.032 428.364 383.569 428.656 382.105 428.656V416.382C383.715 416.382 385.178 415.944 386.202 415.36Z" fill="#249AEF"/>
<path d="M305.725 427.341L332.209 442.538C334.111 443.707 337.477 443.561 339.818 442.246L365.131 427.634C367.326 426.318 367.619 424.419 365.717 423.25L339.233 408.053C337.33 406.884 333.965 407.031 331.624 408.346L306.31 422.958C303.969 424.273 303.677 426.172 305.725 427.341Z" fill="#F9825D"/>
<path d="M304.408 437.424V425.734C304.554 426.319 304.993 426.903 305.725 427.342L332.209 442.538C333.087 443.123 334.404 443.269 335.721 443.269V455.543C334.404 455.543 333.087 455.397 332.209 454.812L305.725 439.616C304.701 439.031 304.262 438.301 304.408 437.424Z" fill="#FF8661"/>
<path d="M339.671 442.246L364.984 427.634C366.009 427.049 366.594 426.319 366.74 425.442V437.132C366.887 438.154 366.301 439.177 364.984 439.908L339.671 454.52C338.5 455.251 337.037 455.543 335.574 455.543V443.269C337.037 443.269 338.5 442.976 339.671 442.246Z" fill="#D56144"/>
<path d="M258.023 454.666L284.507 469.863C286.41 471.031 289.775 470.885 292.116 469.57L317.43 454.958C319.625 453.643 319.917 451.744 318.015 450.575L291.531 435.378C289.629 434.209 286.263 434.355 283.922 435.67L258.608 450.282C256.414 451.597 256.121 453.643 258.023 454.666Z" fill="#98EF7A"/>
<path d="M8.25294 350.773C-14.2934 350.773 -32.5708 340.241 -32.5708 327.248C-32.5708 314.255 -14.2934 303.723 8.25294 303.723C30.7993 303.723 49.0767 314.255 49.0767 327.248C49.0767 340.241 30.7993 350.773 8.25294 350.773Z" fill="white"/>
<path d="M-20.572 343.906C-4.6229 353.112 21.1297 353.112 37.0788 343.906C44.9802 339.376 48.9308 333.385 49.0771 327.395V352.673C49.0771 358.664 45.1265 364.801 37.0788 369.477C21.1297 378.683 -4.6229 378.683 -20.572 369.477C-28.6197 364.801 -32.5703 358.81 -32.5703 352.673V327.395C-32.424 333.385 -28.4733 339.376 -20.572 343.906Z" fill="url(#paint9_linear)"/>
<path d="M8.25336 309.422L-16.6213 323.742C-3.01341 331.632 19.5201 331.632 33.128 323.742C46.736 315.851 46.736 302.846 33.128 295.102C25.5193 290.718 14.8378 288.526 4.01004 289.257L8.25336 309.422Z" fill="#76B5CE"/>
<path d="M33.2741 323.741C40.0049 319.796 43.5166 314.682 43.5166 309.421V323.887C43.5166 329.148 40.1512 334.408 33.2741 338.353C19.6662 346.244 -2.8674 346.244 -16.4753 338.353V323.741C-2.8674 331.632 19.5198 331.632 33.2741 323.741Z" fill="#249AEF"/>
<path d="M8.25336 309.422L-16.6213 323.742C-3.01341 331.632 19.5201 331.632 33.128 323.742C46.736 315.851 46.736 302.846 33.128 295.102C25.5193 290.718 14.8378 288.526 4.01004 289.257L8.25336 309.422Z" fill="#99CFFF"/>
<path d="M8.25391 294.517L4.15693 274.353C-3.74442 274.937 -10.9142 276.983 -16.6207 280.197C-30.2286 288.088 -30.2286 301.093 -16.6207 308.837L8.25391 294.517Z" fill="#F97F58"/>
<path d="M8.25391 294.517V309.421L-16.6207 323.741V308.837L8.25391 294.517Z" fill="#D56144"/>
<path d="M92.0955 286.919L150.039 253.458C156.916 249.512 156.038 242.645 148.137 238.115C140.235 233.585 128.237 233.001 121.36 236.946L63.4165 270.408C56.5394 274.353 57.4173 281.22 65.3187 285.75C73.3664 290.28 85.3647 290.864 92.0955 286.919Z" fill="white"/>
<path d="M65.4645 285.75C73.3659 290.28 85.3643 290.864 92.2414 286.919L150.185 253.457C153.111 251.704 154.721 249.512 154.867 247.028V264.124V264.27C154.867 266.754 153.258 269.092 150.185 270.845L92.2414 304.307C85.3643 308.252 73.3659 307.814 65.4645 303.138C60.9285 300.508 58.7337 297.293 58.88 294.079V276.836C58.88 280.051 61.0749 283.266 65.4645 285.75Z" fill="url(#paint10_linear)"/>
<path d="M125.457 248.49C128.384 250.243 133.212 250.243 136.285 248.49C139.212 246.736 139.212 243.96 136.285 242.353C133.359 240.599 128.53 240.599 125.457 242.353C122.385 243.96 122.385 246.736 125.457 248.49Z" fill="#BDCEFA"/>
<path d="M108.629 258.134C111.556 259.887 116.384 259.887 119.457 258.134C122.383 256.38 122.383 253.604 119.457 251.997C116.531 250.243 111.702 250.243 108.629 251.997C105.703 253.604 105.703 256.38 108.629 258.134Z" fill="#BDCEFA"/>
<path d="M91.8036 267.777C94.73 269.531 99.5586 269.531 102.631 267.777C105.558 266.024 105.558 263.248 102.631 261.64C99.7049 259.887 94.8763 259.887 91.8036 261.64C88.8771 263.394 88.8771 266.17 91.8036 267.777Z" fill="#BDCEFA"/>
<path d="M74.9759 277.568C77.9023 279.322 82.7309 279.322 85.8037 277.568C88.7301 275.815 88.7301 273.039 85.8037 271.431C82.8773 269.678 78.0487 269.678 74.9759 271.431C72.0495 273.039 72.0495 275.815 74.9759 277.568Z" fill="#BDCEFA"/>
<path d="M116.384 256.818C114.335 257.11 112.433 255.795 112.14 253.749L108.482 233C108.19 230.955 109.507 229.055 111.555 228.763C113.604 228.47 115.506 229.786 115.798 231.831L119.456 252.58C119.749 254.48 118.432 256.379 116.384 256.818Z" fill="#F9AB83"/>
<path d="M133.064 258.133C132.479 260.032 130.284 261.201 128.382 260.617L115.506 256.818C113.457 256.672 111.848 254.918 111.994 252.873C112.14 250.827 113.896 249.22 115.945 249.366L130.577 253.457C132.479 254.042 133.65 256.087 133.064 258.133Z" fill="#F9AB83"/>
<path d="M94.4359 319.357C94.4359 319.796 94.7285 320.234 95.4601 320.673C95.6065 320.819 95.4601 318.042 96.0454 318.481C96.1917 318.627 105.117 325.641 110.239 324.326C110.824 324.179 110.97 323.741 110.97 323.303V322.134C110.97 320.819 109.214 318.919 106.288 316.143C103.069 313.074 101.167 311.175 96.4844 313.805C95.1675 314.535 94.5822 315.12 94.5822 315.704L94.4359 319.357Z" fill="#010400"/>
<path d="M106.289 316.143C110.093 319.796 112.142 321.988 110.239 323.157C108.337 324.326 104.387 322.572 100.436 319.504C96.9241 316.873 91.8029 316.581 96.4852 313.805C101.167 311.175 103.216 313.074 106.289 316.143Z" fill="#484968"/>
<path d="M102.484 314.39L102.191 280.197L90.9245 283.85L92.8267 289.403C92.8267 289.403 91.9488 296.855 94.2899 304.453C94.2899 304.453 95.8995 307.814 95.6068 315.412C95.6068 315.412 99.7038 317.75 102.484 314.39Z" fill="#F1AC85"/>
<path d="M105.41 310.444C105.41 310.882 105.703 311.321 106.434 311.759C106.581 311.905 106.434 309.129 107.019 309.567C107.166 309.713 116.091 316.727 121.213 315.412C121.798 315.266 121.944 314.827 121.944 314.389V313.22C121.944 311.905 120.188 310.006 117.262 307.229C114.043 304.161 112.141 302.261 107.458 304.891C106.142 305.622 105.556 306.206 105.556 306.791L105.41 310.444Z" fill="#010400"/>
<path d="M117.263 307.229C121.067 310.882 123.116 313.074 121.213 314.243C119.311 315.412 115.361 313.659 111.41 310.59C107.898 307.96 102.777 307.668 107.459 304.891C112.142 302.261 114.044 304.161 117.263 307.229Z" fill="#484968"/>
<path d="M113.458 305.476L113.165 271.284L101.899 274.937L103.801 280.489C103.801 280.489 102.923 287.941 105.264 295.54C105.264 295.54 106.874 298.901 106.581 306.499C106.435 306.353 110.678 308.691 113.458 305.476Z" fill="#E28C66"/>
<path d="M86.8266 272.16V284.727C86.8266 284.727 101.605 289.695 115.652 272.16V259.886L86.8266 272.16Z" fill="#9CE3F0"/>
<path d="M93.9976 276.982C94.1439 277.129 94.2902 277.129 94.4365 277.129C96.924 277.275 105.85 275.375 114.775 265.293C115.507 264.416 115.946 263.393 115.946 262.37V233.877C115.946 231.685 115.214 230.224 113.897 229.493L107.167 225.548C105.996 224.817 104.24 224.963 102.338 225.986L93.1196 231.247C89.4616 233.438 86.3888 238.553 86.3888 242.936V271.722C86.3888 272.453 86.6814 272.891 86.9741 273.037L93.9976 276.982Z" fill="#54A5F8"/>
<path d="M96.4841 233.147C96.4841 233.877 96.9231 234.608 97.801 235.046C99.7032 236.069 102.63 236.069 104.532 235.046C105.41 234.462 105.995 233.731 105.849 233.147V226.863C105.849 226.133 105.41 225.402 104.532 224.964C102.63 223.941 99.7032 223.941 97.801 224.964C96.9231 225.548 96.3378 226.279 96.4841 226.863V233.147Z" fill="#DD936F"/>
<path d="M96.9229 224.38C96.9229 225.987 95.8985 226.572 94.4351 225.841C93.1181 225.11 91.9474 223.21 91.9474 221.603C91.9474 219.995 92.9718 219.411 94.4351 220.142C95.7521 220.872 96.9229 222.772 96.9229 224.38Z" fill="#F9AB83"/>
<path d="M109.653 241.037C109.653 241.037 122.237 229.64 114.628 209.183L108.775 230.37L109.653 241.037Z" fill="#3F4893"/>
<path d="M98.1935 229.58C91.1955 227.924 86.867 220.916 88.5255 213.928C90.1841 206.939 97.2016 202.617 104.2 204.273C111.198 205.929 115.526 212.937 113.868 219.926C112.209 226.914 105.192 231.237 98.1935 229.58Z" fill="#F1AC85"/>
<path d="M105.117 241.037C105.117 241.037 95.4593 230.37 102.19 210.498L114.335 214.589C114.335 214.589 118.432 204.361 104.824 201.292C104.824 201.292 95.752 199.246 92.5329 206.845C92.5329 206.845 85.2168 207.429 87.9969 222.48C87.8506 222.772 88.2896 236.946 105.117 241.037Z" fill="#3F4893"/>
<path d="M96.4856 265.147C94.5834 265.731 92.3886 264.562 91.9497 262.517L86.2431 241.183C85.6578 239.284 86.8284 237.092 88.8769 236.653C90.7791 236.069 92.9739 237.238 93.4129 239.284L99.1194 260.617C99.5584 262.517 98.5341 264.562 96.4856 265.147Z" fill="#F9AB83"/>
<path d="M117.263 265.877C116.824 267.923 114.922 269.092 112.873 268.8L95.6071 265.293C93.5586 265.293 91.8028 263.686 91.8028 261.64C91.8028 259.594 93.4123 257.841 95.4608 257.841L114.483 261.494C116.531 261.932 117.702 263.832 117.263 265.877Z" fill="#F9AB83"/>
<path d="M351.961 353.111V225.11C351.961 221.895 350.205 218.826 347.425 217.219L193.348 128.524C187.349 125.017 179.74 129.401 179.74 136.414V264.416C179.74 267.631 181.496 270.699 184.276 272.307L338.207 361.002C344.352 364.362 351.961 360.125 351.961 353.111Z" fill="white"/>
<path d="M342.742 359.102C345.668 359.102 348.741 356.764 348.741 353.111V225.11C348.741 222.918 347.571 221.018 345.668 219.849L191.884 131.154C191.006 130.57 189.982 130.277 188.812 130.277C185.885 130.277 182.812 132.615 182.812 136.268V264.27C182.812 266.462 183.983 268.361 185.885 269.53L339.816 358.372C340.694 358.81 341.718 359.102 342.742 359.102Z" fill="url(#paint11_linear)"/>
<path d="M351.961 353.111V225.109C351.961 221.895 350.206 218.826 347.425 217.219L193.349 128.524C190.861 127.062 187.935 126.916 185.594 127.939L189.252 126.04C192.032 123.994 195.836 123.555 199.201 125.455L353.132 214.296C355.912 215.904 357.668 218.972 357.668 222.187V350.189C357.668 353.257 356.205 355.887 353.864 357.495H353.717C353.132 357.933 352.4 358.225 351.815 358.517L347.718 360.709C350.206 358.956 351.961 356.326 351.961 353.111Z" fill="url(#paint12_linear)"/>
<path d="M338.207 376.636L227.295 440.637C224.515 442.245 221.004 442.245 218.224 440.637L64.1469 351.796C58.1477 348.289 58.1477 339.522 64.1469 336.015L175.059 272.014C177.839 270.407 181.35 270.407 184.131 272.014L338.207 361.002C344.353 364.362 344.353 373.13 338.207 376.636Z" fill="white"/>
<path d="M64.1472 351.796L218.224 440.637C221.004 442.244 224.516 442.244 227.296 440.637L338.208 376.636C341.28 374.883 342.744 371.814 342.744 368.746V377.075C342.744 380.143 341.28 383.212 338.208 384.965L227.296 448.966C224.516 450.573 221.004 450.573 218.224 448.966L64.2935 360.125C61.3671 358.517 59.9039 355.595 59.7576 352.673V352.527C59.7576 352.38 59.7576 352.088 59.7576 351.942V344.344C59.7576 347.266 61.2208 350.189 64.1472 351.796Z" fill="url(#paint13_linear)"/>
<path d="M121.651 326.809L253.926 402.938C259.047 405.86 268.119 405.568 274.118 402.061L313.918 379.12C319.917 375.613 320.502 370.499 315.381 367.577L183.106 291.302C177.985 288.379 168.913 288.671 162.914 292.178L123.114 315.119C117.115 318.626 116.53 323.74 121.651 326.809Z" fill="#B8D0F6"/>
<path d="M315.235 369.477L182.96 293.202C177.839 290.279 168.767 290.571 162.768 294.078L122.968 317.019C120.188 318.627 118.578 320.672 118.14 322.718C117.554 320.234 119.31 317.311 122.968 315.266L162.768 292.325C168.767 288.818 177.692 288.526 182.96 291.448L315.235 367.723C317.869 369.33 319.039 371.376 318.6 373.714C318.308 371.961 317.137 370.499 315.235 369.477Z" fill="#99B6E0"/>
<path d="M208.566 326.224L215.59 322.133L222.613 326.224L215.59 330.316L208.566 326.224ZM222.321 334.115L229.344 330.023L236.367 334.115L229.344 338.206L222.321 334.115ZM194.666 318.334L201.689 314.242L208.713 318.334L201.689 322.425L194.666 318.334ZM154.72 322.571L140.088 314.096L147.111 310.005L161.743 318.48L154.72 322.571ZM151.94 307.229L158.963 303.137L165.987 307.229L158.963 311.32L151.94 307.229ZM180.912 310.297L187.935 306.206L194.958 310.297L187.935 314.389L180.912 310.297ZM236.075 342.151L243.098 338.06L250.122 342.151L243.098 346.243L236.075 342.151ZM164.085 319.795L284.946 389.495L277.923 393.586L157.061 323.886L164.085 319.795ZM249.829 350.042L256.853 345.951L263.876 350.042L256.853 354.133L249.829 350.042ZM169.645 309.42L296.798 382.773L289.775 386.864L162.621 313.512L169.645 309.42ZM135.259 316.873L273.094 396.362L266.071 400.454L128.236 320.964L135.259 316.873ZM277.484 365.969L284.507 361.878L291.531 365.969L284.507 370.061L277.484 365.969ZM263.73 358.079L270.753 353.987L277.777 358.079L270.753 362.17L263.73 358.079Z" fill="#99B6E0"/>
<path d="M208.566 325.056L215.59 320.964L222.613 325.056L215.59 329.147L208.566 325.056ZM222.321 332.946L229.344 328.855L236.367 332.946L229.344 337.038L222.321 332.946ZM194.666 317.019L201.689 312.928L208.713 317.019L201.689 321.111L194.666 317.019ZM154.72 321.257L140.088 312.782L147.111 308.69L161.743 317.165L154.72 321.257ZM151.94 306.06L158.963 301.969L165.987 306.06L158.963 310.152L151.94 306.06ZM180.912 309.129L187.935 305.037L194.958 309.129L187.935 313.22L180.912 309.129ZM236.075 340.837L243.098 336.745L250.122 340.837L243.098 344.928L236.075 340.837ZM164.085 318.627L284.946 388.326L277.923 392.417L157.061 322.718L164.085 318.627ZM249.829 348.874L256.853 344.782L263.876 348.874L256.853 352.965L249.829 348.874ZM169.645 308.106L296.798 381.458L289.775 385.55L162.621 312.197L169.645 308.106ZM135.259 315.704L273.094 395.194L266.071 399.285L128.236 319.795L135.259 315.704ZM277.484 364.801L284.507 360.709L291.531 364.801L284.507 368.892L277.484 364.801ZM263.73 356.764L270.753 352.673L277.777 356.764L270.753 360.855L263.73 356.764Z" fill="#E4F2FF"/>
<path d="M201.689 313.658L195.251 317.458L194.666 317.165L201.689 313.074L208.713 317.165L208.127 317.458L201.689 313.658ZM187.935 305.622L181.497 309.421L180.912 309.129L187.935 305.037L194.958 309.129L194.373 309.421L187.935 305.622ZM215.59 321.549L209.152 325.348L208.566 325.056L215.59 320.964L222.613 325.056L222.028 325.348L215.59 321.549ZM161.158 317.604L147.111 309.421L140.673 313.22L140.088 312.928L147.111 308.836L161.743 317.311L161.158 317.604ZM229.344 329.586L222.906 333.385L222.321 333.092L229.344 329.001L236.367 333.092L235.782 333.385L229.344 329.586ZM158.963 302.553L152.525 306.352L151.94 306.06L158.963 301.969L165.987 306.06L165.401 306.352L158.963 302.553ZM135.259 315.704L273.094 395.194L272.509 395.486L135.113 316.289L128.675 320.088L128.089 319.796L135.259 315.704ZM163.207 312.489L162.621 312.197L169.645 308.106L296.798 381.458L296.213 381.751L169.645 308.69L163.207 312.489ZM284.507 361.294L278.069 365.093L277.484 364.801L284.507 360.709L291.531 364.801L290.945 365.093L284.507 361.294ZM157.646 323.01L157.061 322.718L164.085 318.627L284.946 388.326L284.361 388.618L164.085 319.211L157.646 323.01ZM270.607 353.403L264.169 357.202L263.583 356.91L270.607 352.819L277.63 356.91L277.045 357.202L270.607 353.403ZM243.098 337.476L236.66 341.275L236.075 340.983L243.098 336.892L250.122 340.983L249.536 341.275L243.098 337.476ZM256.853 345.367L250.414 349.166L249.829 348.874L256.853 344.782L263.876 348.874L263.291 349.166L256.853 345.367Z" fill="white"/>
<path d="M132.478 371.522L173.741 395.34C176.229 396.801 180.765 396.655 183.691 394.901L192.763 389.641C195.69 387.888 195.982 385.404 193.495 383.796L152.232 359.979C149.744 358.518 145.208 358.664 142.282 360.417L133.21 365.677C130.284 367.431 129.845 370.061 132.478 371.522Z" fill="#B8D0F6"/>
<path d="M193.496 385.111L152.233 361.294C149.746 359.833 145.21 359.979 142.283 361.732L133.211 366.992C131.894 367.723 131.163 368.746 130.87 369.623C130.577 368.308 131.309 366.846 133.211 365.677L142.283 360.417C145.21 358.664 149.746 358.518 152.233 359.979L193.496 383.942C194.959 384.819 195.398 385.842 195.105 387.011C194.813 386.28 194.374 385.55 193.496 385.111Z" fill="#99B6E0"/>
<path d="M204.616 174.99V170.314C204.616 166.223 207.542 164.615 211.054 166.661L320.795 229.931C324.307 231.977 327.233 236.945 327.233 241.037V245.712L204.616 174.99Z" fill="white"/>
<path d="M315.82 233.147C315.82 234.754 316.99 236.8 318.454 237.531C319.917 238.408 321.088 237.677 321.088 236.07C321.088 234.462 319.917 232.416 318.454 231.686C316.844 230.809 315.82 231.393 315.82 233.147Z" fill="white"/>
<path d="M306.748 227.886C306.748 229.494 307.919 231.54 309.382 232.27C310.845 233.147 312.016 232.416 312.016 230.809C312.016 229.201 310.845 227.156 309.382 226.425C307.919 225.548 306.748 226.279 306.748 227.886Z" fill="white"/>
<path d="M297.675 222.626C297.675 224.233 298.846 226.279 300.309 227.01C301.773 227.887 302.943 227.156 302.943 225.549C302.943 223.941 301.773 221.895 300.309 221.165C298.846 220.434 297.675 221.018 297.675 222.626Z" fill="white"/>
<path d="M307.626 257.402L327.087 268.507V250.973L307.626 239.722V257.402Z" fill="white" fill-opacity="0.4"/>
<path d="M283.483 243.375L302.798 254.626V236.945L283.483 225.84V243.375Z" fill="white" fill-opacity="0.9"/>
<path opacity="0.7" d="M259.193 229.347L278.654 240.598V222.918L259.193 211.812V229.347Z" fill="white"/>
<path d="M252.463 225.548L204.616 197.931V194.278L252.463 221.895V225.548Z" fill="url(#paint14_linear)"/>
<path d="M252.463 218.68L204.616 190.917V187.264L252.463 214.881V218.68Z" fill="url(#paint15_linear)"/>
<path d="M252.463 211.666L204.616 184.05V180.25L252.463 208.013V211.666Z" fill="url(#paint16_linear)"/>
<path d="M208.859 238.114L322.844 303.868C325.185 305.184 327.087 303.722 327.087 300.654V279.466C327.087 276.398 325.185 272.745 322.844 271.43L208.859 205.675C206.518 204.36 204.616 205.822 204.616 208.89V230.078C204.616 233.292 206.518 236.799 208.859 238.114Z" fill="white"/>
<path d="M277.045 272.745L291.823 281.366V262.955L277.045 254.333V272.745Z" fill="#99CFFF"/>
<path d="M258.315 262.078L273.24 270.553V255.21L258.315 246.589V262.078Z" fill="#98EF7A"/>
<path d="M239.732 251.265L254.657 259.886V237.384L239.732 228.763V251.265Z" fill="#F97F58"/>
<path d="M212.956 233.585L208.859 231.393V227.593L212.956 229.931V233.585Z" fill="#F97F58"/>
<path d="M212.956 226.718L208.859 224.38V220.726L212.956 222.918V226.718Z" fill="#F97F58"/>
<path d="M212.956 219.703L208.859 217.365V213.712L212.956 216.05V219.703Z" fill="#F97F58"/>
<path d="M235.49 246.736L214.858 234.754V231.101L235.49 242.936V246.736Z" fill="url(#paint17_linear)"/>
<path d="M235.49 239.721L214.858 227.739V224.086L235.49 236.068V239.721Z" fill="url(#paint18_linear)"/>
<path d="M235.49 232.708L214.858 220.872V217.073L235.49 229.055V232.708Z" fill="url(#paint19_linear)"/>
<path d="M318.6 276.982L322.551 279.321V282.974L318.6 280.636V276.982Z" fill="#99CFFF"/>
<path d="M318.6 283.996L322.551 286.188V289.988L318.6 287.649V283.996Z" fill="#99CFFF"/>
<path d="M318.6 290.864L322.551 293.202V296.855L318.6 294.517V290.864Z" fill="#99CFFF"/>
<path d="M295.921 263.978L316.698 275.813V279.612L295.921 267.631V263.978Z" fill="url(#paint20_linear)"/>
<path d="M295.921 270.845L316.698 282.827V286.48L295.921 274.498V270.845Z" fill="url(#paint21_linear)"/>
<path d="M295.921 277.859L316.698 289.695V293.494L295.921 281.512V277.859Z" fill="url(#paint22_linear)"/>
<path d="M212.81 258.425L317.137 318.626C319.332 319.942 321.088 318.48 321.088 315.704C321.088 312.782 319.332 309.421 317.137 308.252L212.81 248.05C210.615 246.735 208.859 248.196 208.859 250.973C208.859 253.749 210.615 257.256 212.81 258.425Z" fill="white"/>
<path d="M321.381 335.869L420.294 392.856C423.367 394.609 425.854 392.71 425.854 388.618V295.247C425.854 291.156 423.367 286.334 420.294 284.581L321.381 227.593C318.308 225.84 315.821 227.74 315.821 231.831V325.202C315.821 329.44 318.308 334.115 321.381 335.869Z" fill="url(#paint23_linear)"/>
<path d="M324.453 326.371L417.368 379.851V372.984L324.453 319.357V326.371Z" fill="url(#paint24_linear)"/>
<path d="M342.158 284.142C342.158 302.408 355.034 324.618 370.837 333.823C386.64 343.029 399.516 335.577 399.516 317.312C399.516 299.047 386.64 276.836 370.837 267.631C355.034 258.425 342.158 265.877 342.158 284.142Z" fill="url(#paint25_linear)"/>
<path d="M118.287 192.671L217.2 249.658C220.273 251.411 222.761 249.512 222.761 245.42V172.506C222.761 168.415 220.273 163.593 217.2 161.839L118.287 104.852C115.214 103.099 112.727 104.998 112.727 109.09V182.004C112.727 186.241 115.214 190.917 118.287 192.671Z" fill="url(#paint26_linear)"/>
<path d="M121.358 180.397L214.126 234.023V227.009L121.358 173.529V180.397Z" fill="url(#paint27_linear)"/>
<path d="M121.358 166.223L214.126 219.703V212.69L121.358 159.209V166.223Z" fill="url(#paint28_linear)"/>
<path d="M187.349 187.557L212.224 202.023V173.237L187.349 158.917V187.557Z" fill="url(#paint29_linear)"/>
<path d="M155.305 169.145L180.18 183.465V154.679L155.305 140.359V169.145Z" fill="url(#paint30_linear)"/>
<path d="M123.113 150.588L148.134 165.054V136.268L123.113 121.802V150.588Z" fill="url(#paint31_linear)"/>
<path d="M30.2004 431.725L39.8576 435.232L43.8083 439.615C43.8083 439.615 50.6854 442.538 56.0993 448.236C56.0993 448.236 58.1478 451.305 65.0249 454.666C65.0249 454.666 65.0249 459.488 60.7816 460.218L33.4195 444.437C31.5173 443.268 30.2004 441.369 30.054 439.177C29.7614 437.569 29.7614 435.085 30.2004 431.725Z" fill="#E28C66"/>
<path d="M42.3451 474.977L42.6378 440.931L51.856 443.999L52.0023 450.282C52.0023 450.282 52.8802 457.735 50.5391 465.187C50.5391 465.187 48.9296 468.401 49.2222 476.146C49.3686 476 45.1252 478.338 42.3451 474.977Z" fill="#F1AC85"/>
<path d="M17.1775 427.195C19.0797 428.072 21.2745 427.195 22.0061 425.296L36.6383 393.003C37.5163 391.103 36.6383 388.912 34.7362 388.181C32.834 387.304 30.6391 388.181 29.9075 390.081L15.2753 422.373C14.3974 424.127 15.2753 426.465 17.1775 427.195Z" fill="#E28C66"/>
<path d="M15.7145 423.542L38.687 410.391V391.834L15.7145 405.131V423.542Z" fill="url(#paint32_linear)"/>
<path d="M21.4209 418.574V404.546L20.8356 404.839V418.866L21.4209 418.574Z" fill="#A29AFB"/>
<path d="M22.4448 413.752V403.962L22.0058 404.254V414.044L22.4448 413.752Z" fill="#A29AFB"/>
<path d="M23.6157 416.236V403.231L23.0304 403.523V416.528L23.6157 416.236Z" fill="#A29AFB"/>
<path d="M24.6396 416.675V402.647L24.2006 402.939V416.967L24.6396 416.675Z" fill="#A29AFB"/>
<path d="M25.8105 407.177V401.916L25.3716 402.208V407.469L25.8105 407.177Z" fill="#A29AFB"/>
<path d="M58.0015 432.894V445.46C58.0015 445.46 43.223 450.428 29.3224 432.894V420.766L58.0015 432.894Z" fill="#FF9100"/>
<path d="M51.27 436.839C51.1237 436.986 50.9774 436.986 50.8311 436.986C48.3436 437.132 39.418 435.232 30.4924 425.15C29.7608 424.273 29.3218 423.25 29.3218 422.227V393.734C29.3218 391.542 30.0534 390.081 31.3703 389.35L38.1011 385.405C39.2716 384.674 41.0275 384.82 42.9297 385.843L52.0016 391.104C55.6597 393.295 58.7324 398.41 58.7324 402.647V431.287C58.7324 432.017 58.4398 432.456 58.1471 432.602L51.27 436.839Z" fill="#FFFFEB"/>
<path d="M48.6373 393.149C48.6373 393.88 48.1983 394.61 47.3204 395.049C45.4182 396.072 42.4918 396.072 40.5896 395.049C39.7116 394.464 39.1264 393.734 39.2727 393.149V386.866C39.2727 386.135 39.7116 385.405 40.5896 384.966C42.4918 383.944 45.4182 383.944 47.3204 384.966C48.1983 385.551 48.7836 386.281 48.6373 386.866V393.149Z" fill="#DD936F"/>
<path d="M73.9506 433.771C75.7064 432.894 76.4381 430.556 75.5601 428.802L59.4648 396.948C58.5869 395.195 56.2457 394.464 54.4899 395.341C52.734 396.217 52.0024 398.555 52.8803 400.309L68.9757 432.163C69.8536 434.063 72.0484 434.793 73.9506 433.771Z" fill="#F9AB83"/>
<path d="M31.9577 373.569L27.2753 391.688C26.8364 393.442 28.5922 394.903 30.2018 394.172L40.8833 389.642C41.7612 389.204 42.3466 388.327 42.2002 387.304L38.6885 369.478C38.2495 367.578 35.7621 367.14 34.7378 368.747L32.2503 372.985C32.104 373.131 31.9577 373.277 31.9577 373.569Z" fill="#943BBB"/>
<path d="M48.3444 384.382C48.3444 385.989 49.3687 386.574 50.8321 385.843C52.1492 385.113 53.3198 383.213 53.3198 381.605C53.3198 379.998 52.2955 379.413 50.8321 380.144C49.3687 380.875 48.3444 382.774 48.3444 384.382Z" fill="#F9AB83"/>
<path d="M43.9554 389.935C36.7633 389.935 30.9329 384.112 30.9329 376.93C30.9329 369.748 36.7633 363.925 43.9554 363.925C51.1476 363.925 56.978 369.748 56.978 376.93C56.978 384.112 51.1476 389.935 43.9554 389.935Z" fill="#F9AB83"/>
<path d="M56.6847 378.683C56.6847 378.683 45.7105 384.674 40.2967 369.039C40.2967 369.039 37.3703 375.615 30.3468 374.153C30.3468 374.153 30.3468 363.925 41.0283 361.879C40.8819 361.879 59.7574 359.98 56.6847 378.683Z" fill="#943BBB"/>
<path d="M50.5403 379.267L45.858 397.386C45.4191 399.14 47.1749 400.601 48.7845 399.87L59.4659 395.341C60.3438 394.902 60.9291 394.026 60.7828 393.003L57.2711 375.176C56.8321 373.276 54.3446 372.838 53.3204 374.445L50.833 378.683C50.6866 378.829 50.6866 378.975 50.5403 379.267Z" fill="#943BBB"/>
<path d="M154.428 434.792C154.574 436.253 152.233 438.445 148.722 440.491C144.039 443.121 142.43 446.482 136.723 443.267C135.114 442.39 134.382 441.514 134.382 440.929V437.422C134.236 435.815 138.186 434.792 141.552 432.746C146.234 430.116 151.209 428.655 153.55 429.97C154.135 430.262 154.428 430.701 154.428 431.285V434.792Z" fill="black"/>
<path d="M148.721 436.838C153.403 434.208 155.89 431.286 153.549 429.971C151.208 428.656 146.233 430.117 141.551 432.747C136.869 435.377 131.016 436.4 136.722 439.615C142.429 442.829 144.185 439.468 148.721 436.838Z" fill="#2D0D60"/>
<path d="M141.551 425.88C141.697 427.341 139.356 429.533 135.845 431.579C131.162 434.209 129.553 437.57 123.846 434.355C122.237 433.478 121.505 432.602 121.505 432.017V428.51C121.359 426.903 125.309 425.88 128.675 423.834C133.357 421.204 138.332 419.743 140.673 421.058C141.258 421.35 141.551 421.789 141.551 422.373V425.88Z" fill="black"/>
<path d="M135.844 427.925C140.526 425.295 143.014 422.373 140.673 421.058C138.332 419.742 133.357 421.204 128.674 423.834C123.992 426.464 118.139 427.487 123.846 430.701C129.552 434.062 131.308 430.555 135.844 427.925Z" fill="#2D0D60"/>
<path d="M146.672 319.65C144.916 318.481 142.575 319.065 141.404 320.819L125.601 345.951C124.431 347.705 125.016 350.043 126.772 351.212C128.528 352.381 130.869 351.796 132.039 350.043L147.842 324.91C149.013 323.157 148.427 320.673 146.672 319.65Z" fill="#FCC4B7"/>
<path d="M136.283 347.12L131.161 355.157C129.406 357.933 125.748 358.664 123.114 357.057C120.334 355.303 119.602 351.65 121.212 349.02L126.333 340.983C126.333 340.837 132.771 338.499 136.283 347.12Z" fill="#293677"/>
<path d="M134.527 435.67C134.38 435.377 134.234 434.939 134.234 434.501V394.756C134.234 392.272 136.868 390.226 139.94 390.226C143.16 390.226 145.647 392.272 145.647 394.756V438.008C145.647 438.592 145.208 439.176 144.623 439.323C142.574 440.053 137.307 440.93 134.527 435.67Z" fill="#55D1FF"/>
<path d="M121.651 426.317C121.504 426.025 121.358 425.587 121.358 425.149L122.236 385.404C122.236 382.92 124.87 380.874 128.089 381.02C131.308 381.02 133.795 383.212 133.795 385.696L132.918 428.802C132.918 429.386 132.479 429.971 131.893 430.117C129.552 430.847 124.284 431.724 121.651 426.317Z" fill="#55D1FF"/>
<path d="M143.892 401.916C143.745 402.062 143.599 402.062 143.453 402.062C140.965 402.208 131.747 400.309 122.529 389.934C121.797 389.057 121.358 387.888 121.358 387.012V357.788C121.358 355.596 122.09 353.988 123.407 353.258L130.284 349.313C131.601 348.582 133.21 348.728 135.259 349.751L144.623 355.157C148.428 357.349 151.5 362.756 151.5 367.139V396.51C151.5 397.24 151.208 397.679 150.769 397.971L143.892 401.916Z" fill="#5258A6"/>
<path d="M141.257 356.911C141.257 357.641 140.818 358.372 139.794 358.956C137.892 359.979 134.819 359.979 132.917 358.956C131.893 358.372 131.454 357.641 131.454 356.911V350.481C131.454 349.751 131.893 349.02 132.917 348.436C134.819 347.413 137.892 347.413 139.794 348.436C140.818 349.02 141.257 349.751 141.257 350.481V356.911Z" fill="#F1AC85"/>
<path d="M136.43 353.696C129.076 353.696 123.115 347.743 123.115 340.399C123.115 333.055 129.076 327.102 136.43 327.102C143.784 327.102 149.745 333.055 149.745 340.399C149.745 347.743 143.784 353.696 136.43 353.696Z" fill="#FCC4B7"/>
<path d="M159.548 399.432C161.596 398.702 162.62 396.656 161.889 394.61L151.793 367.432C151.061 365.386 149.012 364.363 146.964 365.094C144.915 365.824 143.891 367.87 144.623 369.916L154.719 397.094C155.451 399.14 157.499 400.163 159.548 399.432Z" fill="#FCC4B7"/>
<path d="M144.183 375.03L141.11 365.97C140.086 362.902 141.695 359.541 144.768 358.518C147.841 357.495 151.206 359.102 152.23 362.171L155.303 371.23C155.303 371.23 153.108 377.66 144.183 375.03Z" fill="#293677"/>
<path fill-rule="evenodd" clip-rule="evenodd" d="M128.82 352.527C133.063 355.011 136.282 353.112 137.453 351.358C140.379 346.829 140.818 349.897 142.574 347.705C144.769 344.052 144.33 338.938 147.403 336.6C151.939 333.239 150.622 326.664 138.916 323.595C123.26 319.65 116.968 339.376 126.771 350.774C127.503 351.797 127.942 352.089 128.82 352.527Z" fill="#E58800"/>
<path d="M141.112 348.436C142.283 349.606 143.453 349.167 143.892 347.706C144.331 346.098 143.746 344.052 142.575 342.883C141.405 341.714 140.234 342.153 139.795 343.614C139.356 345.075 139.941 347.267 141.112 348.436Z" fill="#FCC4B7"/>
<defs>
<linearGradient id="paint0_linear" x1="438.167" y1="68.0584" x2="506.691" y2="214.601" gradientUnits="userSpaceOnUse">
<stop stop-color="#E4F2FF"/>
<stop offset="0.3075" stop-color="#D7E6FD" stop-opacity="0.6923"/>
<stop offset="0.9993" stop-color="#BDCEFA" stop-opacity="0"/>
</linearGradient>
<linearGradient id="paint1_linear" x1="391.493" y1="66.9076" x2="339.455" y2="278.524" gradientUnits="userSpaceOnUse">
<stop stop-color="#E4F2FF"/>
<stop offset="0.3075" stop-color="#D7E6FD" stop-opacity="0.6923"/>
<stop offset="0.9993" stop-color="#BDCEFA" stop-opacity="0"/>
</linearGradient>
<linearGradient id="paint2_linear" x1="267.045" y1="-36.6129" x2="269.367" y2="83.1207" gradientUnits="userSpaceOnUse">
<stop stop-color="#E4F2FF"/>
<stop offset="0.3075" stop-color="#D7E6FD" stop-opacity="0.6923"/>
<stop offset="0.9993" stop-color="#BDCEFA" stop-opacity="0"/>
</linearGradient>
<linearGradient id="paint3_linear" x1="436.655" y1="208.939" x2="457.552" y2="363.553" gradientUnits="userSpaceOnUse">
<stop stop-color="#E4F2FF"/>
<stop offset="0.3075" stop-color="#D7E6FD" stop-opacity="0.6923"/>
<stop offset="0.9993" stop-color="#BDCEFA" stop-opacity="0"/>
</linearGradient>
<linearGradient id="paint4_linear" x1="-39.2114" y1="149.963" x2="64.4495" y2="356.107" gradientUnits="userSpaceOnUse">
<stop stop-color="#E4F2FF"/>
<stop offset="0.0555438" stop-color="#E1EFFF"/>
<stop offset="0.6478" stop-color="#C7D7FB"/>
<stop offset="0.9993" stop-color="#BDCEFA"/>
</linearGradient>
<linearGradient id="paint5_linear" x1="-61.1171" y1="47.7252" x2="106.347" y2="297.317" gradientUnits="userSpaceOnUse">
<stop stop-color="#E4F2FF"/>
<stop offset="0.0555438" stop-color="#E1EFFF"/>
<stop offset="0.6478" stop-color="#C7D7FB"/>
<stop offset="0.9993" stop-color="#BDCEFA"/>
</linearGradient>
<linearGradient id="paint6_linear" x1="-80.0742" y1="314.605" x2="289.98" y2="599.925" gradientUnits="userSpaceOnUse">
<stop stop-color="#E4F2FF"/>
<stop offset="0.0555438" stop-color="#E1EFFF"/>
<stop offset="0.6478" stop-color="#C7D7FB"/>
<stop offset="0.9993" stop-color="#BDCEFA"/>
</linearGradient>
<linearGradient id="paint7_linear" x1="132.984" y1="521.093" x2="279.785" y2="500.321" gradientUnits="userSpaceOnUse">
<stop stop-color="#E4F2FF"/>
<stop offset="0.0555438" stop-color="#E1EFFF"/>
<stop offset="0.6478" stop-color="#C7D7FB"/>
<stop offset="0.9993" stop-color="#BDCEFA"/>
</linearGradient>
<linearGradient id="paint8_linear" x1="138.334" y1="530.481" x2="410.434" y2="451.376" gradientUnits="userSpaceOnUse">
<stop stop-color="#E4F2FF"/>
<stop offset="0.0555438" stop-color="#E1EFFF"/>
<stop offset="0.6478" stop-color="#C7D7FB"/>
<stop offset="0.9993" stop-color="#BDCEFA"/>
</linearGradient>
<linearGradient id="paint9_linear" x1="-62.3586" y1="348.839" x2="48.1139" y2="352.502" gradientUnits="userSpaceOnUse">
<stop stop-color="#E4F2FF"/>
<stop offset="0.0555438" stop-color="#E1EFFF"/>
<stop offset="0.6478" stop-color="#C7D7FB"/>
<stop offset="0.9993" stop-color="#BDCEFA"/>
</linearGradient>
<linearGradient id="paint10_linear" x1="58.1642" y1="300.443" x2="143.705" y2="251.756" gradientUnits="userSpaceOnUse">
<stop stop-color="#E4F2FF"/>
<stop offset="0.0555438" stop-color="#E1EFFF"/>
<stop offset="0.6478" stop-color="#C7D7FB"/>
<stop offset="0.9993" stop-color="#BDCEFA"/>
</linearGradient>
<linearGradient id="paint11_linear" x1="346.911" y1="244.69" x2="182.812" y2="244.69" gradientUnits="userSpaceOnUse">
<stop stop-color="#A4B7FA"/>
<stop offset="1" stop-color="#ADDDFF"/>
</linearGradient>
<linearGradient id="paint12_linear" x1="201.387" y1="109.417" x2="373.038" y2="314.219" gradientUnits="userSpaceOnUse">
<stop stop-color="#E4F2FF"/>
<stop offset="0.0555438" stop-color="#E1EFFF"/>
<stop offset="0.6478" stop-color="#C7D7FB"/>
<stop offset="0.9993" stop-color="#BDCEFA"/>
</linearGradient>
<linearGradient id="paint13_linear" x1="16.2557" y1="374.6" x2="281.02" y2="409.382" gradientUnits="userSpaceOnUse">
<stop stop-color="#E4F2FF"/>
<stop offset="0.0555438" stop-color="#E1EFFF"/>
<stop offset="0.6478" stop-color="#C7D7FB"/>
<stop offset="0.9993" stop-color="#BDCEFA"/>
</linearGradient>
<linearGradient id="paint14_linear" x1="252.522" y1="209.942" x2="204.583" y2="209.942" gradientUnits="userSpaceOnUse">
<stop stop-color="#FCFDFF" stop-opacity="0"/>
<stop offset="0.796875" stop-color="white"/>
</linearGradient>
<linearGradient id="paint15_linear" x1="252.522" y1="203.001" x2="204.583" y2="203.001" gradientUnits="userSpaceOnUse">
<stop stop-color="#FCFDFF" stop-opacity="0"/>
<stop offset="0.796875" stop-color="white"/>
</linearGradient>
<linearGradient id="paint16_linear" x1="252.522" y1="195.988" x2="204.583" y2="195.988" gradientUnits="userSpaceOnUse">
<stop stop-color="#FCFDFF" stop-opacity="0"/>
<stop offset="0.796875" stop-color="white"/>
</linearGradient>
<linearGradient id="paint17_linear" x1="237.456" y1="246.403" x2="201.002" y2="223.968" gradientUnits="userSpaceOnUse">
<stop stop-color="#FCFDFF" stop-opacity="0"/>
<stop offset="0.760417" stop-color="#F97F58"/>
</linearGradient>
<linearGradient id="paint18_linear" x1="237.456" y1="239.389" x2="201.002" y2="216.954" gradientUnits="userSpaceOnUse">
<stop stop-color="#FCFDFF" stop-opacity="0"/>
<stop offset="0.760417" stop-color="#F97F58"/>
</linearGradient>
<linearGradient id="paint19_linear" x1="237.456" y1="232.375" x2="201.002" y2="209.94" gradientUnits="userSpaceOnUse">
<stop stop-color="#FCFDFF" stop-opacity="0"/>
<stop offset="0.760417" stop-color="#F97F58"/>
</linearGradient>
<linearGradient id="paint20_linear" x1="291.244" y1="261.535" x2="332.473" y2="289.525" gradientUnits="userSpaceOnUse">
<stop stop-color="#FCFDFF" stop-opacity="0"/>
<stop offset="0.807292" stop-color="#99CFFF"/>
</linearGradient>
<linearGradient id="paint21_linear" x1="291.244" y1="268.402" x2="332.473" y2="296.392" gradientUnits="userSpaceOnUse">
<stop stop-color="#FCFDFF" stop-opacity="0"/>
<stop offset="0.807292" stop-color="#99CFFF"/>
</linearGradient>
<linearGradient id="paint22_linear" x1="291.244" y1="275.416" x2="332.472" y2="303.406" gradientUnits="userSpaceOnUse">
<stop stop-color="#FCFDFF" stop-opacity="0"/>
<stop offset="0.807292" stop-color="#99CFFF"/>
</linearGradient>
<linearGradient id="paint23_linear" x1="311.593" y1="206.174" x2="422.697" y2="401.858" gradientUnits="userSpaceOnUse">
<stop stop-color="#E4F2FF"/>
<stop offset="0.3075" stop-color="#D7E6FD" stop-opacity="0.6923"/>
<stop offset="0.9993" stop-color="#BDCEFA" stop-opacity="0"/>
</linearGradient>
<linearGradient id="paint24_linear" x1="303" y1="233.282" x2="381.645" y2="368.433" gradientUnits="userSpaceOnUse">
<stop stop-color="#E4F2FF"/>
<stop offset="0.0555438" stop-color="#E1EFFF"/>
<stop offset="0.6478" stop-color="#C7D7FB"/>
<stop offset="0.9993" stop-color="#BDCEFA"/>
</linearGradient>
<linearGradient id="paint25_linear" x1="324.334" y1="220.867" x2="402.979" y2="356.018" gradientUnits="userSpaceOnUse">
<stop stop-color="#E4F2FF"/>
<stop offset="0.0555438" stop-color="#E1EFFF"/>
<stop offset="0.6478" stop-color="#C7D7FB"/>
<stop offset="0.9993" stop-color="#BDCEFA"/>
</linearGradient>
<linearGradient id="paint26_linear" x1="112.727" y1="104.199" x2="235.954" y2="236.217" gradientUnits="userSpaceOnUse">
<stop stop-color="#E4F2FF"/>
<stop offset="0.3075" stop-color="#D7E6FD" stop-opacity="0.6923"/>
<stop offset="0.9993" stop-color="white" stop-opacity="0.66"/>
</linearGradient>
<linearGradient id="paint27_linear" x1="98.058" y1="142.281" x2="218.49" y2="248.767" gradientUnits="userSpaceOnUse">
<stop stop-color="#E4F2FF"/>
<stop offset="0.0555438" stop-color="#E1EFFF"/>
<stop offset="0.6478" stop-color="#C7D7FB"/>
<stop offset="0.9993" stop-color="#BDCEFA"/>
</linearGradient>
<linearGradient id="paint28_linear" x1="105.136" y1="134.277" x2="225.568" y2="240.762" gradientUnits="userSpaceOnUse">
<stop stop-color="#E4F2FF"/>
<stop offset="0.0555438" stop-color="#E1EFFF"/>
<stop offset="0.6478" stop-color="#C7D7FB"/>
<stop offset="0.9993" stop-color="#BDCEFA"/>
</linearGradient>
<linearGradient id="paint29_linear" x1="123.68" y1="113.303" x2="244.112" y2="219.788" gradientUnits="userSpaceOnUse">
<stop stop-color="#E4F2FF"/>
<stop offset="0.0555438" stop-color="#E1EFFF"/>
<stop offset="0.6478" stop-color="#C7D7FB"/>
<stop offset="0.9993" stop-color="#BDCEFA"/>
</linearGradient>
<linearGradient id="paint30_linear" x1="118.816" y1="118.805" x2="239.248" y2="225.289" gradientUnits="userSpaceOnUse">
<stop stop-color="#E4F2FF"/>
<stop offset="0.0555438" stop-color="#E1EFFF"/>
<stop offset="0.6478" stop-color="#C7D7FB"/>
<stop offset="0.9993" stop-color="#BDCEFA"/>
</linearGradient>
<linearGradient id="paint31_linear" x1="113.95" y1="124.306" x2="234.382" y2="230.792" gradientUnits="userSpaceOnUse">
<stop stop-color="#E4F2FF"/>
<stop offset="0.0555438" stop-color="#E1EFFF"/>
<stop offset="0.6478" stop-color="#C7D7FB"/>
<stop offset="0.9993" stop-color="#BDCEFA"/>
</linearGradient>
<linearGradient id="paint32_linear" x1="12.7865" y1="413.319" x2="40.9753" y2="402.303" gradientUnits="userSpaceOnUse">
<stop stop-color="#E8E9FF"/>
<stop offset="0.9996" stop-color="#C0C0F6"/>
</linearGradient>
</defs>
</svg>
