<svg width="52" height="52" viewBox="0 0 52 52" fill="none" xmlns="http://www.w3.org/2000/svg">
<path d="M32 46C32 42.6863 29.3137 40 26 40C22.6863 40 20 42.6863 20 46C20 49.3137 22.6863 52 26 52C29.3137 52 32 49.3137 32 46Z" fill="url(#paint0_linear)"/>
<path d="M12 46C12 42.6863 9.31371 40 6 40C2.68629 40 -2.89694e-07 42.6863 0 46C2.89694e-07 49.3137 2.68629 52 6 52C9.31371 52 12 49.3137 12 46Z" fill="url(#paint1_linear)"/>
<path d="M52 46C52 42.6863 49.3137 40 46 40C42.6863 40 40 42.6863 40 46C40 49.3137 42.6863 52 46 52C49.3137 52 52 49.3137 52 46Z" fill="url(#paint2_linear)"/>
<path d="M46 20C49.3137 20 52 22.6863 52 26C52 29.3137 49.3137 32 46 32C42.6863 32 40 29.3137 40 26C40 22.6863 42.6863 20 46 20Z" fill="url(#paint3_linear)"/>
<path d="M52 6C52 2.68629 49.3137 -2.89693e-07 46 0C42.6863 2.89694e-07 40 2.68629 40 6C40 9.31371 42.6863 12 46 12C49.3137 12 52 9.31371 52 6Z" fill="url(#paint4_linear)"/>
<defs>
<linearGradient id="paint0_linear" x1="0.573529" y1="26" x2="52" y2="26" gradientUnits="userSpaceOnUse">
<stop stop-color="#ACBBF2"/>
<stop offset="1" stop-color="#CCEAFF"/>
</linearGradient>
<linearGradient id="paint1_linear" x1="0.573529" y1="26" x2="52" y2="26" gradientUnits="userSpaceOnUse">
<stop stop-color="#ACBBF2"/>
<stop offset="1" stop-color="#CCEAFF"/>
</linearGradient>
<linearGradient id="paint2_linear" x1="0.573529" y1="26" x2="52" y2="26" gradientUnits="userSpaceOnUse">
<stop stop-color="#ACBBF2"/>
<stop offset="1" stop-color="#CCEAFF"/>
</linearGradient>
<linearGradient id="paint3_linear" x1="0.573529" y1="26" x2="52" y2="26" gradientUnits="userSpaceOnUse">
<stop stop-color="#ACBBF2"/>
<stop offset="1" stop-color="#CCEAFF"/>
</linearGradient>
<linearGradient id="paint4_linear" x1="0.573529" y1="26" x2="52" y2="26" gradientUnits="userSpaceOnUse">
<stop stop-color="#ACBBF2"/>
<stop offset="1" stop-color="#CCEAFF"/>
</linearGradient>
</defs>
</svg>
