<svg width="56" height="48" viewBox="0 0 56 48" fill="none" xmlns="http://www.w3.org/2000/svg">
<path d="M19.25 30.6567L29.75 16.9848V25.188H36.75L26.25 38.8598V30.6567H19.25Z" fill="#A3B3CC"/>
<path fill-rule="evenodd" clip-rule="evenodd" d="M22.7604 3.43914C25.0891 -0.646392 30.9109 -0.646387 33.2396 3.43915L55.1804 37.9799C57.5091 42.0654 54.5982 47.1723 49.9408 47.1723H6.05919C1.40177 47.1723 -1.50911 42.0654 0.819595 37.9799L22.7604 3.43914ZM30.1989 5.17233L52.1397 39.7131C53.1767 41.5325 51.8356 43.6723 49.9408 43.6723H6.05919C4.16445 43.6723 2.82326 41.5325 3.86033 39.7131L25.8011 5.17233C26.7871 3.44255 29.2129 3.44255 30.1989 5.17233Z" fill="#A3B3CC"/>
</svg>
