<svg width="80" height="80" viewBox="0 0 80 80" fill="none" xmlns="http://www.w3.org/2000/svg">
<path d="M19.0686 30.9649C20.2211 32.0265 21.8436 32.5572 23.9363 32.5572C25.2859 32.5572 26.4612 32.3297 27.462 31.8748C28.4629 31.4047 29.2362 30.7678 29.7821 29.9641C30.3432 29.1604 30.6389 28.2581 30.6693 27.2573C30.6844 27.1208 30.6389 27.0071 30.5328 26.9161C30.4418 26.8251 30.3281 26.7796 30.1916 26.7796H27.9852C27.8032 26.7796 27.6667 26.8251 27.5757 26.9161C27.4848 26.9919 27.4089 27.136 27.3483 27.3483C27.1208 28.2885 26.719 28.9557 26.1427 29.35C25.5816 29.7291 24.8462 29.9186 23.9363 29.9186C21.7678 29.9186 20.6381 28.7055 20.5471 26.2792C20.5319 25.8394 20.5244 25.1949 20.5244 24.3457C20.5244 23.4965 20.5319 22.8672 20.5471 22.4578C20.6381 20.0315 21.7678 18.8184 23.9363 18.8184C24.8613 18.8184 25.6044 19.0155 26.1655 19.4098C26.7265 19.7889 27.1208 20.4485 27.3483 21.3887C27.4089 21.601 27.4848 21.7526 27.5757 21.8436C27.6667 21.9195 27.8032 21.9574 27.9852 21.9574H30.1916C30.3129 21.9574 30.419 21.9195 30.51 21.8436C30.6162 21.7526 30.6693 21.6465 30.6693 21.5252V21.4797C30.6389 20.4788 30.3432 19.5766 29.7821 18.7729C29.2362 17.9692 28.4629 17.3398 27.462 16.8849C26.4612 16.4148 25.2859 16.1798 23.9363 16.1798C21.8588 16.1798 20.2438 16.7257 19.0913 17.8175C17.9388 18.8942 17.3247 20.403 17.2489 22.3441C17.2337 22.7687 17.2261 23.451 17.2261 24.3912C17.2261 25.3163 17.2337 25.9835 17.2489 26.3929C17.3247 28.3643 17.9313 29.8883 19.0686 30.9649Z" fill="#A3B3CC"/>
<path d="M55.0482 65.3933C54.8876 65.3933 54.7512 65.3371 54.6388 65.2247C54.5265 65.1124 54.4703 64.9759 54.4703 64.8154V51.549H50.0161C49.8555 51.549 49.7191 51.4928 49.6067 51.3804C49.4944 51.2681 49.4382 51.1236 49.4382 50.947V49.1413C49.4382 48.9647 49.4864 48.8202 49.5827 48.7079C49.695 48.5955 49.8395 48.5393 50.0161 48.5393H62.3194C62.496 48.5393 62.6404 48.5955 62.7528 48.7079C62.8652 48.8202 62.9213 48.9647 62.9213 49.1413V50.947C62.9213 51.1236 62.8652 51.2681 62.7528 51.3804C62.6404 51.4928 62.496 51.549 62.3194 51.549H57.8892V64.8154C57.8892 64.9759 57.8331 65.1124 57.7207 65.2247C57.6244 65.3371 57.488 65.3933 57.3114 65.3933H55.0482Z" fill="#A3B3CC"/>
<path fill-rule="evenodd" clip-rule="evenodd" d="M71.3806 32.6355H47.3639V22.3779L55.1691 16.803C55.7849 16.3629 56.1505 15.6531 56.1505 14.8962C56.1505 14.1388 55.7849 13.429 55.1691 12.9889L47.2699 7.3468C46.6528 3.19519 43.0646 0 38.7445 0H8.62C3.86658 0 0 3.86658 0 8.62V38.7451C0 43.4979 3.86658 47.3645 8.62 47.3645H32.6361V57.6221L24.8309 63.197C24.2151 63.6371 23.8495 64.3475 23.8495 65.1044C23.8495 65.8612 24.2151 66.5717 24.8309 67.0111L32.7301 72.6532C33.3472 76.8048 36.9354 80 41.2555 80H71.3806C76.1334 80 80 76.1328 80 71.38V41.2555C80 36.5021 76.1334 32.6355 71.3806 32.6355ZM8.62 42.677C6.45142 42.677 4.6875 40.9131 4.6875 38.7445V8.61938C4.6875 6.45142 6.45142 4.6875 8.62 4.6875H38.7445C40.9125 4.6875 42.6764 6.45142 42.6764 8.61938C42.6764 9.37683 43.042 10.0873 43.6578 10.5267L49.7742 14.8956L43.6578 19.2645C43.042 19.7046 42.6764 20.415 42.6764 21.1719V32.6355H41.2555C36.5027 32.6355 32.6361 36.5021 32.6361 41.2549V42.677H8.62ZM75.3125 71.38C75.3125 73.5486 73.5486 75.3125 71.3806 75.3125H41.2555C39.0875 75.3125 37.3236 73.5486 37.3236 71.38C37.3236 70.6232 36.958 69.9127 36.3422 69.4733L30.2258 65.1044L36.3422 60.7355C36.958 60.2954 37.3236 59.585 37.3236 58.8281V41.2555C37.3236 39.0869 39.0875 37.323 41.2555 37.323H71.3806C73.5486 37.323 75.3125 39.0869 75.3125 41.2555V71.38Z" fill="#A3B3CC"/>
</svg>
