<svg width="80" height="79" viewBox="0 0 80 79" fill="none" xmlns="http://www.w3.org/2000/svg">
<path d="M63.013 17.499C63.1472 17.6169 63.2983 17.6758 63.466 17.6758H66.8386C67.0232 17.6758 67.1742 17.6169 67.2916 17.499C67.4091 17.3643 67.4678 17.2128 67.4678 17.0445V11.4388H74.666C74.8506 11.4388 75.0016 11.3798 75.119 11.262C75.2533 11.1442 75.3204 10.9927 75.3204 10.8075V8.13086C75.3204 7.94568 75.2533 7.79418 75.119 7.67634C75.0016 7.54167 74.8506 7.47433 74.666 7.47433H67.4678V3.96442H75.1694C75.3539 3.96442 75.5049 3.90551 75.6224 3.78767C75.7566 3.66983 75.8237 3.51832 75.8237 3.33315V0.65653C75.8237 0.471354 75.7566 0.319847 75.6224 0.202009C75.5049 0.0673364 75.3539 0 75.1694 0H63.466C63.2815 0 63.1305 0.0673364 63.013 0.202009C62.8956 0.319847 62.8368 0.471354 62.8368 0.65653V17.0445C62.8368 17.2128 62.8956 17.3643 63.013 17.499Z" fill="#A3B3CC"/>
<path d="M47.9406 9.64761C48.1197 8.97704 47.5081 8.36343 46.8397 8.54311L34.057 11.9795C33.3887 12.1591 33.1648 12.9974 33.6541 13.4882L36.8078 16.6523L12.793 40.746C11.9154 41.6265 11.9154 43.054 12.793 43.9344C13.6705 44.8149 15.0934 44.8149 15.971 43.9344L39.9858 19.8407L43.0116 22.8765C43.5009 23.3674 44.3364 23.1428 44.5155 22.4723L47.9406 9.64761Z" fill="#A3B3CC"/>
<path d="M3.52358 76.6336C4.66455 77.105 6.04881 77.3406 7.67637 77.3406C9.1697 77.3406 10.4952 77.1218 11.653 76.6841C12.8107 76.2296 13.7168 75.5815 14.3712 74.7398C15.0256 73.8981 15.3527 72.9049 15.3527 71.7601C15.3527 70.7164 15.1262 69.8579 14.6732 69.1845C14.2369 68.4943 13.549 67.9388 12.6094 67.518C11.6865 67.0803 10.4365 66.7183 8.85929 66.4322C7.48342 66.146 6.54379 65.8682 6.04043 65.5989C5.53706 65.3127 5.28537 64.9255 5.28537 64.4373C5.28537 63.9491 5.47833 63.5788 5.86425 63.3263C6.25016 63.0738 6.79548 62.9475 7.5002 62.9475C8.12102 62.9475 8.64116 63.0738 9.06064 63.3263C9.48011 63.5619 9.74019 63.8565 9.84086 64.2101C10.0422 64.5131 10.3275 64.6646 10.6966 64.6646H14.2202C14.3712 64.6646 14.497 64.6141 14.5977 64.5131C14.6984 64.3952 14.7487 64.2606 14.7487 64.1091C14.7151 63.3684 14.4047 62.6192 13.8175 61.8617C13.247 61.0873 12.4164 60.4476 11.3258 59.9426C10.2519 59.4208 8.97674 59.1598 7.5002 59.1598C6.09076 59.1598 4.84912 59.3871 3.77527 59.8416C2.71819 60.2961 1.89602 60.9358 1.30876 61.7607C0.738274 62.5687 0.453032 63.4946 0.453032 64.5383C0.453032 66.0702 0.956401 67.2486 1.96314 68.0735C2.96988 68.8984 4.48837 69.5128 6.51863 69.9168C7.55892 70.1357 8.35592 70.3377 8.90963 70.5228C9.46333 70.6912 9.86603 70.8932 10.1177 71.1289C10.3694 71.3477 10.4952 71.6339 10.4952 71.9874C10.4952 72.4756 10.2519 72.8628 9.76536 73.149C9.27877 73.4183 8.58244 73.553 7.67637 73.553C6.90454 73.553 6.28372 73.4267 5.81391 73.1742C5.36088 72.9049 5.0253 72.5682 4.80717 72.1642C4.65616 71.9958 4.51354 71.878 4.37931 71.8106C4.26186 71.7433 4.10246 71.7096 3.90111 71.7096H0.553706C0.402695 71.7096 0.268463 71.7601 0.151011 71.8612C0.0503369 71.9622 0 72.0884 0 72.2399C0.0335579 73.149 0.343969 73.9907 0.931232 74.765C1.5185 75.5394 2.38261 76.1623 3.52358 76.6336Z" fill="#A3B3CC"/>
<path fill-rule="evenodd" clip-rule="evenodd" d="M77.3221 20.4304C77.171 20.3983 77.0143 20.3813 76.8536 20.3813H58.8762C57.7127 20.3813 56.7557 21.2685 56.6406 22.4054C56.6329 22.4812 56.629 22.5581 56.629 22.6359V38.4179H40.8987C39.8128 38.4179 38.9067 39.1907 38.6972 40.218C38.6673 40.3648 38.6515 40.5168 38.6515 40.6724V56.4544H22.9213C21.6802 56.4544 20.6741 57.4638 20.6741 58.7089V76.7454C20.6741 77.9128 21.5375 79 22.6875 79C22.6875 79 76.757 79 77.9981 79C79.2392 79 79.9997 77.8652 79.9997 76.7316C79.9997 75.5979 79.9997 22.6359 79.9997 22.6359C80.0204 21.3909 79.031 20.3817 77.7899 20.3817C77.6298 20.3817 77.4733 20.3985 77.3221 20.4304ZM75.4679 24.8905H61.1234V40.6724C61.1234 41.9176 60.1173 42.927 58.8762 42.927H43.1459V58.7089C43.1459 59.9541 42.1398 60.9635 40.8987 60.9635H25.1684V74.4909H75.4679V24.8905Z" fill="#A3B3CC"/>
</svg>
