<svg width="80" height="80" viewBox="0 0 80 80" fill="none" xmlns="http://www.w3.org/2000/svg">
<path d="M40.8081 0.461178C40.4425 -0.153726 39.5555 -0.153726 39.1899 0.461178L31.2556 13.8063C30.8806 14.437 31.3332 15.2375 32.0647 15.2375H37.6442V32.1396C37.6442 33.446 38.6989 34.5051 40 34.5051C41.3011 34.5051 42.3558 33.446 42.3558 32.1396V15.2375H47.9333C48.6648 15.2375 49.1174 14.437 48.7424 13.8063L40.8081 0.461178Z" fill="#A3B3CC"/>
<path d="M42.3558 53.6961C42.3558 41.4864 52.2131 31.5884 64.3728 31.5884L64.3728 36.9279C64.3728 37.6503 65.1464 38.1062 65.7745 37.7541L79.5171 30.0493C80.161 29.6883 80.161 28.758 79.5171 28.397L65.7745 20.6922C65.1464 20.34 64.3728 20.796 64.3728 21.5183L64.3728 26.8574C49.611 26.8574 37.6442 38.8735 37.6442 53.6961V77.6345C37.6442 78.9409 38.6989 80 40 80C41.3011 80 42.3558 78.9409 42.3558 77.6345V53.6961Z" fill="#A3B3CC"/>
<path d="M15.6272 36.9279C15.6272 37.6503 14.8536 38.1062 14.2255 37.7541L0.482929 30.0493C-0.160976 29.6883 -0.160976 28.758 0.482928 28.397L14.2255 20.6922C14.8536 20.34 15.6272 20.796 15.6272 21.5183L15.6287 26.8574C24.6925 26.8574 32.7612 31.0399 37.4718 37.5091C38.2397 38.5637 38.0108 40.0437 36.9605 40.8147C35.9102 41.5858 34.4363 41.356 33.6684 40.3014C29.8899 35.1122 23.2669 31.5884 15.6287 31.5884L15.6272 36.9279Z" fill="#A3B3CC"/>
</svg>
