<svg width="80" height="72" viewBox="0 0 80 72" fill="none" xmlns="http://www.w3.org/2000/svg">
<path d="M15.9221 33.0715C17.0744 33.0715 18.0086 34.0106 18.0086 35.169V59.0312C18.0086 60.1897 17.0744 61.1287 15.9221 61.1287C14.7698 61.1287 13.8357 60.1897 13.8357 59.0312V35.169C13.8357 34.0106 14.7698 33.0715 15.9221 33.0715Z" fill="#A3B3CC"/>
<path d="M25.3747 38.872C25.3747 37.7135 24.4406 36.7745 23.2882 36.7745C22.1359 36.7745 21.2018 37.7135 21.2018 38.872V59.0319C21.2018 60.1903 22.1359 61.1294 23.2882 61.1294C24.4406 61.1294 25.3747 60.1903 25.3747 59.0319V38.872Z" fill="#A3B3CC"/>
<path d="M30.656 52.8195C31.8083 52.8195 32.7424 53.7586 32.7424 54.917V59.0312C32.7424 60.1896 31.8083 61.1287 30.656 61.1287C29.5037 61.1287 28.5695 60.1896 28.5695 59.0312V54.917C28.5695 53.7586 29.5037 52.8195 30.656 52.8195Z" fill="#A3B3CC"/>
<path fill-rule="evenodd" clip-rule="evenodd" d="M29.0177 15.4209C29.0177 18.602 26.4525 21.1808 23.2882 21.1808C20.1239 21.1808 17.5587 18.602 17.5587 15.4209C17.5587 12.2398 20.1239 9.66105 23.2882 9.66105C26.4525 9.66105 29.0177 12.2398 29.0177 15.4209ZM24.8448 15.4209C24.8448 16.2852 24.1479 16.9858 23.2882 16.9858C22.4285 16.9858 21.7316 16.2852 21.7316 15.4209C21.7316 14.5567 22.4285 13.856 23.2882 13.856C24.1479 13.856 24.8448 14.5567 24.8448 15.4209Z" fill="#A3B3CC"/>
<path d="M59.3013 40.1906C60.1162 39.3715 61.4372 39.3715 62.252 40.1906L65.1459 43.0998C65.9607 43.9189 65.9607 45.247 65.1459 46.0661C64.331 46.8852 63.01 46.8852 62.1952 46.0661L59.3013 43.1569C58.4865 42.3378 58.4865 41.0098 59.3013 40.1906Z" fill="#A3B3CC"/>
<path fill-rule="evenodd" clip-rule="evenodd" d="M0 18.6162C0 15.9089 1.29949 13.368 3.48969 11.7927L17.7079 1.56651C20.5662 -0.489251 24.3992 -0.524639 27.2946 1.478L31.3901 4.31075L38.6282 2.96597C41.3296 2.46406 44.1037 3.33079 46.0462 5.28362L77.5556 36.96C80.8148 40.2365 80.8148 45.5487 77.5556 48.8252L56.9474 69.5426C53.6881 72.8191 48.4039 72.8191 45.1447 69.5426L44.161 68.5537C42.638 70.5867 40.2168 71.9012 37.4902 71.9012H8.34575C3.73652 71.9012 0 68.1449 0 63.5112V18.6162ZM41.6631 18.7141V63.5112C41.6631 65.828 39.7948 67.7062 37.4902 67.7062H8.34575C6.04114 67.7062 4.17288 65.828 4.17288 63.5112V18.6162C4.17288 17.2626 4.82262 15.9921 5.91772 15.2045L20.1359 4.97825C21.5651 3.95037 23.4816 3.93267 24.9293 4.93399L39.8555 15.2581C40.9871 16.0408 41.6631 17.3332 41.6631 18.7141ZM45.8022 64.271L48.0954 66.5763C49.725 68.2146 52.3671 68.2146 53.9967 66.5763L74.6049 45.8589C76.2345 44.2206 76.2345 41.5645 74.6049 39.9263L43.0956 8.24993C42.1243 7.27351 40.7372 6.84015 39.3865 7.0911L36.2518 7.67351L42.2208 11.8021C44.484 13.3675 45.8359 15.9524 45.8359 18.7141V34.1615L59.9362 48.3365C60.751 49.1556 60.751 50.4837 59.9362 51.3028C59.1213 52.1219 57.8003 52.1219 56.9855 51.3028L45.8359 40.0941V44.6326L54.7292 53.573C55.544 54.3922 55.544 55.7202 54.7292 56.5393C53.9144 57.3585 52.5934 57.3585 51.7785 56.5393L45.8359 50.5652V63.5112C45.8359 63.7673 45.8245 64.0207 45.8022 64.271Z" fill="#A3B3CC"/>
</svg>
