<svg width="22" height="23" viewBox="0 0 22 23" fill="none" xmlns="http://www.w3.org/2000/svg">
<path fill-rule="evenodd" clip-rule="evenodd" d="M4 0.956299C2.93913 0.956299 1.92172 1.37773 1.17157 2.12787C0.421427 2.87802 0 3.89543 0 4.9563V18.9563C0 20.0172 0.421427 21.0346 1.17157 21.7847C1.92172 22.5349 2.93913 22.9563 4 22.9563H18C19.0609 22.9563 20.0783 22.5349 20.8284 21.7847C21.5786 21.0346 22 20.0172 22 18.9563V4.9563C22 3.89543 21.5786 2.87802 20.8284 2.12787C20.0783 1.37773 19.0609 0.956299 18 0.956299H4ZM13.961 6.2313C14.0015 6.10381 14.0161 5.96948 14.0038 5.83627C13.9915 5.70305 13.9526 5.57366 13.8894 5.45575C13.8262 5.33784 13.74 5.23381 13.6358 5.14983C13.5317 5.06584 13.4118 5.0036 13.2832 4.96679C13.1545 4.92999 13.0198 4.91936 12.887 4.93555C12.7542 4.95174 12.626 4.99441 12.51 5.06103C12.394 5.12766 12.2926 5.21688 12.2116 5.32342C12.1307 5.42997 12.072 5.55166 12.039 5.6813L8.039 17.6813C7.99845 17.8088 7.9839 17.9431 7.99619 18.0763C8.00849 18.2095 8.0474 18.3389 8.1106 18.4568C8.17381 18.5748 8.26003 18.6788 8.36416 18.7628C8.4683 18.8468 8.58822 18.909 8.71684 18.9458C8.84546 18.9826 8.98016 18.9932 9.11296 18.977C9.24576 18.9609 9.37396 18.9182 9.48997 18.8516C9.60598 18.7849 9.70744 18.6957 9.78835 18.5892C9.86926 18.4826 9.92797 18.3609 9.961 18.2313L13.961 6.2313ZM6.707 9.6633C6.88916 9.4747 6.98995 9.22209 6.98767 8.9599C6.9854 8.6977 6.88023 8.44689 6.69482 8.26148C6.50941 8.07607 6.2586 7.9709 5.9964 7.96863C5.7342 7.96635 5.4816 8.06714 5.293 8.2493L2.293 11.2493C2.10553 11.4368 2.00021 11.6911 2.00021 11.9563C2.00021 12.2215 2.10553 12.4758 2.293 12.6633L5.293 15.6633C5.4816 15.8455 5.7342 15.9463 5.9964 15.944C6.2586 15.9417 6.50941 15.8365 6.69482 15.6511C6.88023 15.4657 6.9854 15.2149 6.98767 14.9527C6.98995 14.6905 6.88916 14.4379 6.707 14.2493L4.414 11.9563L6.707 9.6633ZM16.707 8.2493C16.6148 8.15379 16.5044 8.07761 16.3824 8.0252C16.2604 7.97279 16.1292 7.9452 15.9964 7.94405C15.8636 7.94289 15.7319 7.9682 15.609 8.01848C15.4862 8.06876 15.3745 8.14301 15.2806 8.2369C15.1867 8.3308 15.1125 8.44245 15.0622 8.56534C15.0119 8.68824 14.9866 8.81992 14.9877 8.9527C14.9889 9.08548 15.0165 9.2167 15.0689 9.3387C15.1213 9.46071 15.1975 9.57105 15.293 9.6633L17.586 11.9563L15.293 14.2493C15.1108 14.4379 15.01 14.6905 15.0123 14.9527C15.0146 15.2149 15.1198 15.4657 15.3052 15.6511C15.4906 15.8365 15.7414 15.9417 16.0036 15.944C16.2658 15.9463 16.5184 15.8455 16.707 15.6633L19.707 12.6633C19.8945 12.4758 19.9998 12.2215 19.9998 11.9563C19.9998 11.6911 19.8945 11.4368 19.707 11.2493L16.707 8.2493Z" fill="#919FB6"/>
</svg>
