<?xml version="1.0" standalone="no"?>
<!DOCTYPE svg PUBLIC "-//W3C//DTD SVG 20010904//EN"
 "http://www.w3.org/TR/2001/REC-SVG-20010904/DTD/svg10.dtd">
<svg version="1.0" xmlns="http://www.w3.org/2000/svg"
 width="928.000000pt" height="928.000000pt" viewBox="0 0 928.000000 928.000000"
 preserveAspectRatio="xMidYMid meet">
<metadata>
Created by potrace 1.11, written by Peter Selinger 2001-2013
</metadata>
<g transform="translate(0.000000,928.000000) scale(0.100000,-0.100000)"
fill="#000000" stroke="none">
<path d="M5520 9264 c-8 -8 -49 -41 -90 -74 -85 -67 -169 -147 -284 -270 -141
-152 -208 -272 -247 -440 -14 -63 -18 -245 -6 -337 8 -66 50 -221 69 -257 6
-11 11 -23 11 -26 0 -3 4 -16 10 -30 6 -14 11 -27 12 -30 2 -9 85 -174 98
-195 80 -131 220 -333 320 -466 31 -42 57 -81 57 -87 0 -5 4 -12 9 -14 4 -1
37 -43 72 -93 35 -49 67 -91 71 -93 5 -2 8 -9 8 -16 0 -7 9 -21 20 -31 11 -10
20 -22 20 -27 0 -5 6 -15 13 -22 13 -13 162 -229 182 -264 6 -9 13 -19 16 -22
3 -3 50 -70 104 -150 54 -80 102 -146 107 -148 4 -2 8 -8 8 -14 0 -5 11 -24
25 -42 14 -18 25 -38 25 -44 0 -7 4 -12 8 -12 5 0 17 -16 28 -35 10 -19 22
-35 26 -35 5 0 8 -4 8 -9 0 -12 61 -105 72 -109 4 -2 8 -8 8 -12 0 -12 180
-283 194 -292 6 -4 8 -8 4 -8 -4 0 13 -29 37 -65 25 -36 45 -68 45 -71 0 -2 5
-10 10 -17 6 -7 27 -39 49 -72 21 -33 64 -99 95 -147 31 -48 56 -92 56 -97 0
-5 3 -11 8 -13 25 -11 100 -157 114 -221 19 -90 21 -115 22 -212 0 -165 -26
-281 -83 -369 -15 -22 -42 -63 -59 -91 -17 -27 -36 -55 -42 -62 -5 -7 -10 -14
-10 -17 0 -6 -202 -324 -247 -388 -18 -26 -33 -50 -33 -53 0 -6 -39 -64 -50
-75 -3 -3 -48 -70 -100 -150 -52 -80 -97 -147 -100 -150 -3 -3 -11 -17 -19
-32 -8 -16 -18 -28 -23 -28 -4 0 -8 -5 -8 -10 0 -11 -34 -63 -57 -88 -7 -7
-13 -17 -13 -22 0 -5 -6 -15 -12 -22 -7 -7 -31 -40 -54 -73 -22 -33 -77 -113
-122 -178 -45 -65 -82 -120 -82 -123 0 -3 -6 -11 -12 -18 -7 -8 -19 -22 -26
-32 -7 -11 -40 -59 -75 -107 -34 -49 -66 -96 -72 -106 -5 -9 -16 -23 -23 -31
-20 -24 -150 -208 -162 -229 -5 -11 -16 -25 -23 -33 -12 -13 -89 -116 -115
-154 -29 -44 -132 -190 -142 -201 -5 -7 -10 -16 -10 -21 0 -5 -7 -15 -15 -22
-8 -7 -12 -16 -9 -21 3 -5 1 -9 -4 -9 -15 0 -148 -274 -177 -365 -31 -95 -31
-94 -56 -212 -18 -92 -16 -260 6 -377 12 -61 69 -190 114 -256 92 -137 299
-349 452 -465 l74 -55 246 0 246 0 35 34 c19 18 56 69 83 112 27 44 53 80 57
82 4 2 8 8 8 13 0 6 23 44 50 86 28 42 50 80 50 84 0 5 5 9 10 9 6 0 10 5 10
12 0 6 11 26 25 43 13 18 21 35 18 39 -4 3 -2 6 3 6 6 0 21 19 34 43 13 23 26
44 29 47 4 3 24 34 45 70 22 36 43 67 48 68 4 2 8 7 8 12 0 5 31 57 70 117 38
59 79 124 90 143 11 19 37 61 58 92 20 32 61 97 91 145 30 48 58 90 61 93 4 3
13 16 20 30 7 14 33 57 58 95 25 39 61 95 80 125 20 30 47 72 61 94 29 43 47
74 57 96 4 8 10 17 14 20 3 3 24 34 46 70 21 36 43 70 47 75 4 6 23 35 42 65
19 30 39 60 45 67 5 7 10 14 10 17 0 3 24 41 53 85 28 44 70 109 92 145 22 36
43 66 48 66 4 0 7 4 7 10 0 5 21 42 47 82 27 40 50 78 53 83 3 6 21 35 41 65
20 30 37 60 38 65 1 6 10 19 20 30 10 11 33 45 52 75 18 30 37 57 41 58 5 2 8
8 8 13 0 8 47 87 60 99 5 5 11 15 57 90 23 38 383 596 413 640 5 8 68 103 139
210 72 107 133 200 138 205 4 6 18 28 30 50 11 22 30 56 41 76 21 37 71 168
78 204 2 11 7 31 10 45 14 54 15 192 3 262 -14 79 -15 85 -19 93 -1 3 -4 10
-5 15 -1 6 -3 11 -5 13 -1 1 -3 11 -5 22 -2 10 -8 28 -13 40 -52 109 -77 155
-84 155 -4 0 -8 5 -8 10 0 6 -76 125 -170 265 -93 140 -170 259 -170 265 0 5
-4 10 -8 10 -5 0 -14 10 -21 23 -6 12 -20 36 -31 52 -11 17 -25 40 -31 53 -7
12 -16 22 -21 22 -4 0 -8 5 -8 11 0 6 -17 36 -38 67 -107 157 -242 371 -242
382 0 6 -4 10 -9 10 -5 0 -14 14 -21 30 -7 17 -16 30 -20 30 -4 0 -10 8 -13
18 -3 9 -67 111 -142 225 -74 115 -135 213 -135 218 0 5 -4 9 -10 9 -5 0 -10
7 -10 15 0 8 -3 15 -8 15 -4 0 -13 13 -20 28 -6 16 -21 38 -32 50 -11 12 -20
25 -20 29 0 4 -18 34 -40 66 -22 31 -40 59 -40 61 0 3 -31 52 -70 110 -38 58
-70 110 -70 116 0 5 -4 10 -10 10 -5 0 -10 7 -10 15 0 8 -4 15 -10 15 -5 0
-10 5 -10 10 0 6 -15 32 -32 58 -45 66 -57 84 -68 107 -12 24 -205 325 -220
342 -5 7 -15 24 -22 38 -6 14 -15 25 -20 25 -4 0 -7 3 -6 8 2 6 -63 113 -113
184 -10 15 -19 32 -19 38 0 5 -4 10 -10 10 -5 0 -10 6 -10 13 0 8 -9 22 -20
32 -11 10 -17 22 -14 26 3 5 -1 12 -9 15 -9 3 -18 16 -21 30 -4 13 -11 24 -16
24 -6 0 -10 4 -10 9 0 9 -160 265 -180 288 -5 7 -10 15 -10 18 0 3 -27 46 -60
96 -33 50 -60 92 -60 94 0 2 -27 44 -60 94 -33 50 -60 93 -60 95 0 3 -22 39
-50 80 -27 42 -50 78 -50 81 0 3 -16 26 -36 52 -65 87 -47 83 -329 82 -204 -1
-253 -3 -265 -15z"/>
<path d="M2469 8199 c-68 -15 -144 -56 -200 -107 -54 -49 -82 -87 -171 -227
-80 -125 -190 -299 -226 -355 -19 -30 -49 -77 -67 -105 -17 -27 -46 -72 -63
-100 -17 -27 -38 -58 -46 -67 -9 -10 -16 -20 -15 -24 0 -3 -28 -49 -62 -102
-84 -128 -88 -134 -95 -154 -3 -10 -10 -18 -15 -18 -5 0 -9 -7 -9 -15 0 -8 -3
-15 -8 -15 -4 0 -12 -9 -17 -19 -16 -32 -63 -108 -160 -256 -50 -77 -106 -165
-125 -195 -19 -30 -37 -57 -40 -60 -3 -3 -14 -21 -24 -40 -11 -19 -22 -37 -25
-40 -4 -3 -33 -48 -66 -100 -85 -135 -122 -193 -135 -207 -5 -7 -10 -16 -10
-21 0 -4 -7 -17 -15 -27 -8 -11 -47 -69 -87 -130 -88 -136 -264 -405 -278
-425 -6 -8 -33 -50 -60 -93 l-50 -78 0 -295 c0 -276 1 -297 20 -332 23 -43 43
-75 50 -82 14 -14 70 -102 70 -110 0 -6 3 -10 8 -10 4 0 20 -23 37 -50 16 -28
33 -50 37 -50 4 0 7 -3 6 -7 -2 -5 16 -35 38 -68 23 -33 43 -64 45 -70 2 -5
43 -70 92 -143 48 -73 87 -137 87 -142 0 -6 5 -10 10 -10 6 0 10 -6 10 -14 0
-8 4 -16 8 -18 4 -1 20 -24 35 -50 15 -26 33 -53 40 -60 6 -7 19 -26 27 -43 8
-16 23 -39 33 -49 9 -11 17 -23 17 -28 0 -4 19 -36 42 -70 60 -90 96 -147 182
-283 41 -66 79 -124 83 -130 5 -5 46 -71 93 -145 46 -74 107 -171 135 -215 63
-97 151 -235 210 -330 24 -38 48 -74 52 -80 5 -5 12 -17 16 -25 10 -20 24 -43
70 -113 20 -31 37 -62 37 -67 0 -6 4 -10 8 -10 5 0 15 -12 23 -28 8 -15 17
-31 22 -37 17 -23 107 -166 107 -171 0 -3 5 -10 10 -17 6 -7 25 -34 43 -62
100 -157 237 -222 401 -191 33 6 148 60 168 78 7 7 34 29 58 48 53 41 74 58
104 85 12 11 44 39 72 62 121 102 223 193 281 250 53 54 123 153 123 177 0 7
3 16 7 20 11 11 14 35 18 121 3 100 -19 191 -74 307 -38 80 -172 291 -206 325
-8 8 -15 19 -15 24 0 5 -8 17 -17 27 -10 9 -40 49 -66 87 -97 142 -138 200
-152 218 -8 9 -15 21 -15 26 0 5 -4 11 -8 13 -4 2 -51 66 -103 143 -51 77
-100 146 -106 153 -7 7 -13 17 -13 22 0 5 -6 15 -12 22 -7 7 -26 33 -43 58
-16 25 -33 47 -36 50 -3 3 -14 21 -25 40 -10 19 -22 37 -25 40 -7 6 -236 354
-289 440 -19 30 -37 57 -40 60 -8 7 -28 41 -47 78 -9 17 -20 32 -25 32 -4 0
-8 6 -8 13 0 7 -8 22 -18 33 -10 10 -31 50 -47 88 -24 56 -29 82 -29 150 0 98
8 144 34 198 11 23 20 45 20 50 0 4 16 30 35 57 19 26 35 53 35 60 0 6 4 11 9
11 5 0 14 14 21 30 7 17 16 30 20 30 4 0 12 11 18 24 12 27 162 258 173 266 3
3 9 15 13 28 4 12 11 22 15 22 5 0 14 14 21 30 7 17 16 30 21 30 4 0 11 9 14
20 3 11 12 26 18 32 11 11 155 223 182 267 6 9 12 18 15 21 3 3 23 32 45 65
22 32 68 99 103 147 34 48 62 92 62 97 0 5 4 11 8 13 4 2 41 50 82 108 41 58
77 107 80 110 3 3 18 25 35 50 16 25 34 50 39 55 16 15 107 149 152 225 47 78
94 175 94 195 0 7 4 16 8 19 27 16 46 219 30 306 -8 41 -49 122 -87 170 -77
98 -242 263 -351 350 -30 24 -60 48 -65 54 -6 6 -18 16 -26 21 -9 6 -35 23
-58 38 -132 88 -251 119 -362 96z"/>
</g>
</svg>
