<svg width="92" height="92" viewBox="0 0 92 92" fill="none" xmlns="http://www.w3.org/2000/svg">
<path d="M52 6C52 9.31371 49.3137 12 46 12C42.6863 12 40 9.31371 40 6C40 2.68629 42.6863 0 46 0C49.3137 0 52 2.68629 52 6Z" fill="#99CFFF"/>
<path d="M52 26C52 29.3137 49.3137 32 46 32C42.6863 32 40 29.3137 40 26C40 22.6863 42.6863 20 46 20C49.3137 20 52 22.6863 52 26Z" fill="#99CFFF"/>
<path d="M46 52C49.3137 52 52 49.3137 52 46C52 42.6863 49.3137 40 46 40C42.6863 40 40 42.6863 40 46C40 49.3137 42.6863 52 46 52Z" fill="#99CFFF"/>
<path d="M12 46C12 49.3137 9.31371 52 6 52C2.68629 52 0 49.3137 0 46C0 42.6863 2.68629 40 6 40C9.31371 40 12 42.6863 12 46Z" fill="#99CFFF"/>
<path d="M86 52C89.3137 52 92 49.3137 92 46C92 42.6863 89.3137 40 86 40C82.6863 40 80 42.6863 80 46C80 49.3137 82.6863 52 86 52Z" fill="#99CFFF"/>
<path d="M52 66C52 69.3137 49.3137 72 46 72C42.6863 72 40 69.3137 40 66C40 62.6863 42.6863 60 46 60C49.3137 60 52 62.6863 52 66Z" fill="#99CFFF"/>
<path d="M46 92C49.3137 92 52 89.3137 52 86C52 82.6863 49.3137 80 46 80C42.6863 80 40 82.6863 40 86C40 89.3137 42.6863 92 46 92Z" fill="#99CFFF"/>
<path d="M72 46C72 49.3137 69.3137 52 66 52C62.6863 52 60 49.3137 60 46C60 42.6863 62.6863 40 66 40C69.3137 40 72 42.6863 72 46Z" fill="#99CFFF"/>
<path d="M26 52C29.3137 52 32 49.3137 32 46C32 42.6863 29.3137 40 26 40C22.6863 40 20 42.6863 20 46C20 49.3137 22.6863 52 26 52Z" fill="#99CFFF"/>
</svg>
