<svg width="92" height="92" viewBox="0 0 92 92" fill="none" xmlns="http://www.w3.org/2000/svg">
<path d="M6 12C9.31371 12 12 9.31371 12 6C12 2.68629 9.31371 0 6 0C2.68629 0 0 2.68629 0 6C0 9.31371 2.68629 12 6 12Z" fill="#F9FAFD"/>
<path d="M26 12C29.3137 12 32 9.31371 32 6C32 2.68629 29.3137 0 26 0C22.6863 0 20 2.68629 20 6C20 9.31371 22.6863 12 26 12Z" fill="#F9FAFD"/>
<path d="M26 32C29.3137 32 32 29.3137 32 26C32 22.6863 29.3137 20 26 20C22.6863 20 20 22.6863 20 26C20 29.3137 22.6863 32 26 32Z" fill="#F9FAFD"/>
<path d="M72 6C72 9.31371 69.3137 12 66 12C62.6863 12 60 9.31371 60 6C60 2.68629 62.6863 0 66 0C69.3137 0 72 2.68629 72 6Z" fill="#F9FAFD"/>
<path d="M66 32C69.3137 32 72 29.3137 72 26C72 22.6863 69.3137 20 66 20C62.6863 20 60 22.6863 60 26C60 29.3137 62.6863 32 66 32Z" fill="#F9FAFD"/>
<path d="M72 46C72 49.3137 69.3137 52 66 52C62.6863 52 60 49.3137 60 46C60 42.6863 62.6863 40 66 40C69.3137 40 72 42.6863 72 46Z" fill="#F9FAFD"/>
<path d="M66 72C69.3137 72 72 69.3137 72 66C72 62.6863 69.3137 60 66 60C62.6863 60 60 62.6863 60 66C60 69.3137 62.6863 72 66 72Z" fill="#F9FAFD"/>
<path d="M72 86C72 89.3137 69.3137 92 66 92C62.6863 92 60 89.3137 60 86C60 82.6863 62.6863 80 66 80C69.3137 80 72 82.6863 72 86Z" fill="#F9FAFD"/>
<path d="M12 26C12 29.3137 9.31371 32 6 32C2.68629 32 0 29.3137 0 26C0 22.6863 2.68629 20 6 20C9.31371 20 12 22.6863 12 26Z" fill="#F9FAFD"/>
<path d="M46 12C49.3137 12 52 9.31371 52 6C52 2.68629 49.3137 0 46 0C42.6863 0 40 2.68629 40 6C40 9.31371 42.6863 12 46 12Z" fill="#F9FAFD"/>
<path d="M52 26C52 29.3137 49.3137 32 46 32C42.6863 32 40 29.3137 40 26C40 22.6863 42.6863 20 46 20C49.3137 20 52 22.6863 52 26Z" fill="#F9FAFD"/>
<path d="M86 12C89.3137 12 92 9.31371 92 6C92 2.68629 89.3137 0 86 0C82.6863 0 80 2.68629 80 6C80 9.31371 82.6863 12 86 12Z" fill="#F9FAFD"/>
<path d="M92 26C92 29.3137 89.3137 32 86 32C82.6863 32 80 29.3137 80 26C80 22.6863 82.6863 20 86 20C89.3137 20 92 22.6863 92 26Z" fill="#F9FAFD"/>
<path d="M86 52C89.3137 52 92 49.3137 92 46C92 42.6863 89.3137 40 86 40C82.6863 40 80 42.6863 80 46C80 49.3137 82.6863 52 86 52Z" fill="#F9FAFD"/>
<path d="M92 66C92 69.3137 89.3137 72 86 72C82.6863 72 80 69.3137 80 66C80 62.6863 82.6863 60 86 60C89.3137 60 92 62.6863 92 66Z" fill="#F9FAFD"/>
<path d="M86 92C89.3137 92 92 89.3137 92 86C92 82.6863 89.3137 80 86 80C82.6863 80 80 82.6863 80 86C80 89.3137 82.6863 92 86 92Z" fill="#F9FAFD"/>
</svg>
